<?xml version="1.0" encoding="UTF-8"?>
<!DOCTYPE svg PUBLIC "-//W3C//DTD SVG 1.1//EN" "http://www.w3.org/Graphics/SVG/1.1/DTD/svg11.dtd">
<svg xmlns="http://www.w3.org/2000/svg" version="1.1" width="1000px" height="1000px" style="shape-rendering:geometricPrecision; text-rendering:geometricPrecision; image-rendering:optimizeQuality; fill-rule:evenodd; clip-rule:evenodd" xmlns:xlink="http://www.w3.org/1999/xlink">
<g><path style="opacity:0.988" fill="#ffad32" d="M 476.5,82.5 C 616.16,78.6017 731.326,129.268 822,234.5C 903.667,338.509 932.334,455.842 908,586.5C 901.787,607.362 887.954,615.529 866.5,611C 853.098,605.58 845.765,595.58 844.5,581C 868.755,460.506 840.922,354.006 761,261.5C 671.191,168.119 562.025,131.619 433.5,152C 362.748,166.035 302.081,198.368 251.5,249C 234.421,260.261 218.921,258.427 205,243.5C 197.667,230.833 197.667,218.167 205,205.5C 279.949,130.786 370.449,89.7856 476.5,82.5 Z"/></g>
<g><path style="opacity:0.988" fill="#ffad32" d="M 493.5,269.5 C 549.926,269.823 590.426,295.157 615,345.5C 624.019,368.016 627.019,391.349 624,415.5C 621.492,451.01 607.326,480.843 581.5,505C 567.078,516.084 553.245,527.918 540,540.5C 537.473,544.221 535.473,548.221 534,552.5C 532.182,562.095 530.849,571.762 530,581.5C 522.812,599.513 509.645,606.679 490.5,603C 475.279,597.599 467.613,586.766 467.5,570.5C 467.535,537.618 479.202,509.785 502.5,487C 517.924,474.914 532.757,462.081 547,448.5C 558.825,429.92 563.492,409.587 561,387.5C 552.674,349.747 529.174,331.913 490.5,334C 468.58,337.708 452.747,349.541 443,369.5C 440.399,375.235 438.733,381.235 438,387.5C 437.667,395.5 437.333,403.5 437,411.5C 430.787,432.362 416.954,440.529 395.5,436C 378.464,428.439 371.464,415.272 374.5,396.5C 375.928,341.274 401.594,302.108 451.5,279C 465.211,273.902 479.211,270.736 493.5,269.5 Z"/></g>
<g><path style="opacity:0.988" fill="#ffad32" d="M 110.5,467.5 C 126.449,466.961 137.616,473.961 144,488.5C 145.121,603.55 188.955,698.383 275.5,773C 371.269,847.681 478.269,870.015 596.5,840C 666.796,819.203 725.463,780.87 772.5,725C 789.579,713.739 805.079,715.573 819,730.5C 825.094,740.974 826.094,751.974 822,763.5C 764.789,834.058 691.955,880.891 603.5,904C 474.148,933.863 355.815,910.196 248.5,833C 138.688,746.533 83.5211,633.033 83,492.5C 87.0107,478.316 96.1774,469.982 110.5,467.5 Z"/></g>
<g><path style="opacity:0.985" fill="#ffac32" d="M 494.5,665.5 C 526.778,666.61 542.278,683.277 541,715.5C 534.037,741.248 517.204,752.414 490.5,749C 466.601,741.727 455.768,725.56 458,700.5C 462.572,680.758 474.739,669.092 494.5,665.5 Z"/></g>
</svg>
