<svg id="Слой_1" data-name="Слой 1" xmlns="http://www.w3.org/2000/svg" viewBox="0 0 216 144"><defs><style>.cls-1{fill:#fff;}.cls-2{fill:none;}.cls-3{fill:#888886;}.cls-3,.cls-4{fill-rule:evenodd;}.cls-4{fill:#848484;}.cls-5{fill:#cdc8fe;}.cls-6{fill:#daf9a6;}.cls-7{fill:#fff;stroke:#fff;stroke-miterlimit:10;stroke-width:0.75px;}.cls-8{fill:#e2eaff;}.cls-9{fill:#cec9fc;}</style></defs><g id="Слой_2" data-name="Слой 2"><path d="M16.74,50.05a.16.16,0,0,0,0,.31A.16.16,0,0,0,16.74,50.05Z" transform="translate(0.4 0.2)"/><path d="M42.87,93.66a20,20,0,0,0-.95-3c-.36-1-.69-2-1-3a28.5,28.5,0,0,1-1.21-6.39c-.12-2.14.06-4.3-.06-6.46a74.54,74.54,0,0,0-2-12.24,117.62,117.62,0,0,1-2.4-12.38c-.05-.48-.1-1-.14-1.46,0,0,0,0,0-.05,0-.32-.06-.78.2-1a2.1,2.1,0,0,1,.68-.27l.75-.26.71-.25a1.24,1.24,0,0,0,.53-.34c.16-.17.28-.35.43-.52l.09-.08h0a6.77,6.77,0,0,0,1-1.21h0a7.65,7.65,0,0,0,1.14-2.24,7.38,7.38,0,0,0,.25-1.34,1.05,1.05,0,0,0-.07-.58.92.92,0,0,0-.4-.38c-.18-.09-.41-.21-.59-.1a.22.22,0,0,0-.11.1h0a.09.09,0,0,1,0,0,.35.35,0,0,0,0,.17c0,.06,0,.11,0,.17a.69.69,0,0,0-.36-.29.86.86,0,0,0-.27-.05.09.09,0,0,0,0,0,.16.16,0,0,0-.16-.15,1.7,1.7,0,0,0-1,.31c0-.23-.2-.44-.37-.58a.84.84,0,0,0-.88-.2A1.86,1.86,0,0,0,36,40a.44.44,0,0,0-.1-.15.79.79,0,0,0-.71-.16,1.5,1.5,0,0,0-.74.35.73.73,0,0,0-.56-.19,1.44,1.44,0,0,0-.83.42.14.14,0,0,0,0,.14l-.65.87a2.53,2.53,0,0,0-.54,1,1.88,1.88,0,0,0,0,.67,0,0,0,0,0,0,0,6.84,6.84,0,0,0-1.81,2,3.29,3.29,0,0,1-.34.61,2.9,2.9,0,0,0-.38.6,3,3,0,0,0-.14,1.11s0,.06,0,.09l1.62,12c.58,4.23,1.25,8.47,1.64,12.72s.32,8.33.66,12.47S34,92.86,34.49,97a121.12,121.12,0,0,1,1,13.44l-.28.54c-.09.18.18.33.27.16l0-.08a.15.15,0,0,0,.28-.08v-.46c2-3.77,3.9-7.54,5.85-11.29a14.73,14.73,0,0,0,1.18-2.7A6,6,0,0,0,42.87,93.66ZM38.36,40.83a1.4,1.4,0,0,1,.71-.35.39.39,0,0,1,.42.35.19.19,0,0,0,0,.08c0,.51-.64.75-.95,1.05a1.09,1.09,0,0,0-.37.6,3.52,3.52,0,0,1-.15.81s0,.05,0,.06a.59.59,0,0,1-.2.07c-.27,0-.52,0-.78.09l.08-1.65a.13.13,0,0,0,0-.06A16.12,16.12,0,0,1,38.36,40.83Zm.87,1-.09.14-.07,0ZM36,40.4a.11.11,0,0,0,.14,0c.27-.33.7-.81,1.14-.47a1.67,1.67,0,0,1,.23.23s.1.09.1.15-.09.13-.12.16c-.17.21-.38.39-.54.59a3,3,0,0,0-.52,1.42,3.94,3.94,0,0,1-.34,1.44.65.65,0,0,1-.51.37.43.43,0,0,1-.46-.24.15.15,0,0,0-.21-.09c0-.12,0-.26,0-.38,0-.31,0-.62,0-.93a2.63,2.63,0,0,1,.14-.83,3.23,3.23,0,0,1,.4-.66A3.36,3.36,0,0,0,36,40.4Zm-1.37,0s0,0,0-.05a1.26,1.26,0,0,1,.56-.29.6.6,0,0,1,.49.06c.14.14-.09.39-.17.51l-.37.48a2.48,2.48,0,0,0-.48,1.19c-.06.47-.06,1-.08,1.45,0,.22,0,.57-.19.67a.51.51,0,0,1-.56-.17.14.14,0,0,0-.21,0,1.55,1.55,0,0,0,0-.22c0-.43-.14-.84-.17-1.28a2,2,0,0,1,.31-1.16Zm-2.48,2a2.41,2.41,0,0,1,.52-.92c.22-.31.45-.6.68-.9a.23.23,0,0,0,0-.11,1.7,1.7,0,0,1,.22-.15l.15-.07.09,0a.08.08,0,0,1,.06,0,.51.51,0,0,1,.25.05.34.34,0,0,1,.13.1c-.25.36-.51.71-.74,1.09a2.28,2.28,0,0,0-.35,1.32,8.68,8.68,0,0,1,.15,1.44c0,.18-.12.46-.36.44s-.29-.24-.37-.38a.13.13,0,0,0-.08-.07A4.68,4.68,0,0,1,32.15,42.36Zm.56,29.13a.14.14,0,0,0,.21-.13,4.39,4.39,0,0,1,0-.81.93.93,0,0,1,.23-.59.25.25,0,0,1,.42.09,3,3,0,0,1,0,.68c0,.85.08,2-.79,2.47C32.81,72.64,32.76,72.06,32.71,71.49ZM42,97.83c-.91,2-2,3.86-3,5.78s-2,3.93-3.06,5.9c-.06.13-.12.25-.19.37A110.79,110.79,0,0,0,35,98.51c-.47-4.16-1-8.3-1.43-12.47q-.3-3.12-.42-6.26c-.09-2.11-.12-4.2-.26-6.31a.13.13,0,0,0,.12,0,2.37,2.37,0,0,0,1-2.29c0-.25,0-.49,0-.74a1.4,1.4,0,0,0-.1-.61.56.56,0,0,0-.94,0,1.35,1.35,0,0,0-.24.65.71.71,0,0,0,0,.21c-.33-3.29-.84-6.56-1.29-9.82q-.87-6.36-1.73-12.71l-.08-.58v0a2.88,2.88,0,0,1,.12-1.27,3.47,3.47,0,0,1,.37-.57,4.3,4.3,0,0,0,.32-.6A6.12,6.12,0,0,1,32,43.25a2.64,2.64,0,0,0,.1.3.16.16,0,0,0-.15,0,.59.59,0,0,1,.15.27.17.17,0,0,0,.06-.06,3.11,3.11,0,0,1,.2.74.12.12,0,0,0,.19.09.61.61,0,0,0,.63.3.69.69,0,0,0,.48-.53.33.33,0,0,1,0,.06.82.82,0,0,0,.63.29.59.59,0,0,0,.54-.32.64.64,0,0,0,.06-.18.77.77,0,0,0,.7.34,9.46,9.46,0,0,0-1,.94c-.13.14.08.37.21.22A8.35,8.35,0,0,1,36,44.53a7.64,7.64,0,0,1,.69-.47,1.55,1.55,0,0,1,.75-.24,1.47,1.47,0,0,0,.71-.15,2.27,2.27,0,0,0,.56-.63,10.57,10.57,0,0,0,.92-1.43,2.52,2.52,0,0,0,.28-.78c0-.13,0-.24,0-.37a.13.13,0,0,0,0-.18h0l.11,0a1.08,1.08,0,0,1,.24.12.57.57,0,0,1,.11.11.17.17,0,0,0-.12.15,6.29,6.29,0,0,1-.07,1.15.15.15,0,0,0,.1.18h0c0,.07,0,.15,0,.22a7,7,0,0,1-1.23,2.44.41.41,0,0,0,0,.08,8.18,8.18,0,0,1-.53.64,2.43,2.43,0,0,0-.29.26l-.19.17A.17.17,0,0,0,38,46L38,46a1.88,1.88,0,0,1-.35.39,2.6,2.6,0,0,1-.55.21l-1.22.42c-.34.11-.71.19-.89.52a1.64,1.64,0,0,0-.15.93.13.13,0,0,0,0,.06A90.17,90.17,0,0,0,37,60.78,98.12,98.12,0,0,1,39.22,73a58.78,58.78,0,0,1,.16,6.37,26.24,26.24,0,0,0,.71,6.23,58.57,58.57,0,0,0,1.88,6,11,11,0,0,1,.75,3.13A6.69,6.69,0,0,1,42,97.83Z" transform="translate(0.4 0.2)"/><path d="M112.32,66.55a.79.79,0,0,0-.43,0c.29-.4.46-.94,0-1.23a1.61,1.61,0,0,0-.92-.18.62.62,0,0,0-.23,0,6,6,0,0,0,.24-.62.92.92,0,0,0-.1-.79.61.61,0,0,0-.72-.17.53.53,0,0,0,.06-.24.86.86,0,0,0-.3-.7,1,1,0,0,0-.81-.22,1.14,1.14,0,0,0-.38.13A.93.93,0,0,0,109,62a.55.55,0,0,0-.77-.57l0,0c-.73.13-1.46.26-2.18.42a3.07,3.07,0,0,0-1.69.92,15.11,15.11,0,0,0-1.16,1.71,6.14,6.14,0,0,0-.54.92,5.31,5.31,0,0,0-.34,1c-.21.83-.41,1.67-.62,2.5a.16.16,0,0,0,.17.2l-3.15,3.65a13.67,13.67,0,0,1-3.4,3c-.69.41-1.42.76-2.09,1.19a18.6,18.6,0,0,0-1.89,1.37c-1.29,1-2.55,2.11-3.8,3.18-2.19,1.88-4.3,3.85-6.45,5.77a82.5,82.5,0,0,1-6.57,5.39,34.81,34.81,0,0,1-7.3,4.13q-.47.2-.93.36c0-.19.09-.39.14-.59a25.78,25.78,0,0,0,.87-6.29,27.06,27.06,0,0,0-1-6.19c-.26-1-.57-2-.89-3.07s-.58-1.9-.9-2.84A16.72,16.72,0,0,0,62,73.12c-1-1.26-2.74-2.5-4.4-1.81a2.6,2.6,0,0,0-1.11.88l-.19-.32a1,1,0,0,0-.48-.4,2.24,2.24,0,0,0-.68-.1,5.5,5.5,0,0,0-1.4.14,7.16,7.16,0,0,0-2.54,1.24,14.79,14.79,0,0,0-2.12,2c-.64.71-1.28,1.45-1.89,2.19a22.24,22.24,0,0,0-1.7,2.29,13.51,13.51,0,0,0-1.25,2.6c-.16.46-.3.93-.49,1.38a8.18,8.18,0,0,1-.65,1.33,6.34,6.34,0,0,0-.64,1.24,4,4,0,0,0-.16,1.5c0,.52.09,1,.16,1.57s.15,1,.23,1.54c.16,1.06.37,2.1.6,3.13.15.7.34,1.4.52,2.11a.15.15,0,0,0,0,.24h0l0,.07c0-.07,0-.13-.07-.19s-.37-.1-.3.08.14.33.22.5a90.22,90.22,0,0,1-6.24,12.33,22.94,22.94,0,0,0-1.69,3A8.76,8.76,0,0,0,35,115c0,1.21.1,2.42.2,3.61s.24,2.48.39,3.72c.3,2.45.69,4.91,1.16,7.34.22,1.18.44,2.4.76,3.57a4.25,4.25,0,0,0,1.57,2.26,10.33,10.33,0,0,0,2.47,1.22c1.1.41,2.2.78,3.31,1.12a18.55,18.55,0,0,0,7,1c2.27-.21,4.32-1.22,6.46-1.92a16.59,16.59,0,0,1,3.29-.69,20.23,20.23,0,0,0,3.19-.53,6.6,6.6,0,0,0,1.43-.58.15.15,0,0,0-.15-.26c-1.93,1-4.18.89-6.25,1.32s-4.17,1.53-6.33,2.06a14.31,14.31,0,0,1-6.94-.25c-1.14-.29-2.27-.65-3.39-1a28.36,28.36,0,0,1-2.83-1.07,4.92,4.92,0,0,1-2.09-1.68,5.1,5.1,0,0,1-.58-1.55c-.14-.59-.26-1.18-.38-1.78-.49-2.38-.9-4.79-1.23-7.2s-.58-4.84-.72-7.26a12.13,12.13,0,0,1,.17-3.46,10.38,10.38,0,0,1,1.42-3.1,90,90,0,0,0,6.42-12.27c.12-.28.24-.55.35-.83a4.67,4.67,0,0,0,.8,1.17,2.48,2.48,0,0,0,1,.6,3.28,3.28,0,0,0,1.46.08,4.83,4.83,0,0,0,2.18-.62,2.52,2.52,0,0,0,.25-.21c.36.14.82.35.94.76a1.15,1.15,0,0,1-.16.82c-.06.12-.11.26-.16.39L49.94,99c0-.2-.33-.2-.31,0,.14,1.7.29,3.4.44,5.11,0,.42.07.83.12,1.25s.15.77.24,1.15a7,7,0,0,1,.2,1.2,2.82,2.82,0,0,1,0,.58.59.59,0,0,1-.26.45,11.3,11.3,0,0,0-1,.69,6.34,6.34,0,0,0-.64.63c-.22-1.57-.42-3.14-.57-4.72a10.84,10.84,0,0,1,.21-4.64,4.25,4.25,0,0,1,1.23-1.83c.15-.13-.06-.36-.21-.22a5.3,5.3,0,0,0-1.66,3.82,17.56,17.56,0,0,0,.09,2.51c.08.86.18,1.72.28,2.57s.24,1.94.39,2.91a.15.15,0,0,0,.25.08,7.26,7.26,0,0,1,.71-.76A15.87,15.87,0,0,0,48,114.08a37.2,37.2,0,0,0-.59,5.46c-.1,1.93-.17,3.85-.41,5.77s-.53,3.59-.61,5.41a15,15,0,0,0,.1,2.68,10.91,10.91,0,0,0,.26,1.29,4.86,4.86,0,0,0,.43,1.23,1.19,1.19,0,0,0,1.8.25,3.42,3.42,0,0,0,.94-2.21,33.08,33.08,0,0,0,.06-5.63,21.24,21.24,0,0,1,.16-2.87c.12-.95.27-1.89.36-2.85.19-1.94.11-3.9.26-5.85s.41-3.86.69-5.78c.07-.47.15-.94.22-1.41v0a2,2,0,0,0,.55.34.14.14,0,0,0,.17-.08c.78-1.5,1.56-3,2.41-4.48a36.2,36.2,0,0,1,2.78-4.26c.36-.46.94-1.09.8-1.71a9.32,9.32,0,0,0,1.33.79,3.35,3.35,0,0,1,1.54,1.32.13.13,0,0,0,.09.07,63,63,0,0,1,1,6.7,69.77,69.77,0,0,1,.34,7.08c0,1.2,0,2.4-.08,3.58a26.8,26.8,0,0,1-.47,3.47,30.22,30.22,0,0,0-.53,3.39,7.12,7.12,0,0,0,.31,3.08,11.2,11.2,0,0,0,1.8,2.53,11.24,11.24,0,0,1,1.56,2.71l.27.74a.15.15,0,0,0,.29-.09,11.76,11.76,0,0,0-1.34-2.79,10.74,10.74,0,0,0-.91-1.22,11.9,11.9,0,0,1-1-1.25,5.2,5.2,0,0,1-.72-3,21.56,21.56,0,0,1,.45-3.39c.22-1.13.44-2.27.55-3.42s.12-2.37.13-3.55c0-2.38-.06-4.74-.27-7.1a64.94,64.94,0,0,0-1-7c-.06-.29-.11-.57-.17-.86a.14.14,0,0,0-.21-.1,2.93,2.93,0,0,0-.91-.84h.23c.25,0,.5-.1.75-.13a5.17,5.17,0,0,1,.68,0c.44,0,.89,0,1.33,0a3.08,3.08,0,0,0,1.25-.35,2.79,2.79,0,0,0,.85-.79,4.93,4.93,0,0,0,.62-1.45.12.12,0,0,0,.13,0,33.31,33.31,0,0,0,7.45-3.91,67.54,67.54,0,0,0,6.64-5.29c2.15-1.89,4.24-3.85,6.39-5.73,1.24-1.09,2.51-2.14,3.78-3.21.62-.51,1.25-1,1.9-1.51a17.35,17.35,0,0,1,2-1.26,14.71,14.71,0,0,0,2-1.22,14.31,14.31,0,0,0,1.66-1.55c1.11-1.2,2.15-2.45,3.21-3.69l.84-1c.13-.16-.09-.37-.22-.22h0c.18-.7.35-1.41.52-2.11.09-.35.17-.69.28-1a4.12,4.12,0,0,1,.47-.91l.59-.92c.18-.27.35-.55.55-.81a2.86,2.86,0,0,1,.66-.64,3.26,3.26,0,0,1,.89-.36c.77-.19,1.57-.31,2.34-.45a.19.19,0,0,0,.09,0h0c.19-.11.32.15.3.32a.83.83,0,0,1-.33.51,6.47,6.47,0,0,1-.57.47,1.94,1.94,0,0,1-.62.33c-.24.06-.47.09-.71.17s-.45.16-.67.25a1.17,1.17,0,0,0-.82.72.16.16,0,1,0,.3.08c.09-.34.49-.46.78-.57a5.25,5.25,0,0,1,.63-.22c.2-.06.41-.08.61-.14-.1.09-.18.19-.28.3a3.62,3.62,0,0,0-.78,1.64c0,.28-.09.76.27.83a.89.89,0,0,0,.63-.15,2.26,2.26,0,0,0-.09.41.82.82,0,0,0,.28.77.73.73,0,0,0,.64.09.82.82,0,0,0-.11.17c-.06.11-.16.27-.11.4s.26.22.4.25a2,2,0,0,0,1.16-.2l.67-.3a1.64,1.64,0,0,1-.26.16c-.21.12-.46.23-.66.37a1.2,1.2,0,0,0-.42.5c-.08.18-.12.45.09.55a1.16,1.16,0,0,0,.78,0,4,4,0,0,0,.76-.27l1.61-.76a2.93,2.93,0,0,1-.18.26c-.22.29-.44.56-.69.83A15.45,15.45,0,0,1,107.57,72c-.71.41-1.44.79-2.18,1.16a.13.13,0,0,0-.07.16L98.84,80a59.53,59.53,0,0,1-4.58,4.41c-1.53,1.3-3.15,2.48-4.72,3.72a35.45,35.45,0,0,0-4.47,4c-1.38,1.52-2.61,3.18-4,4.66S78,99.58,76.45,101s-2.87,2.7-4.2,4.15A67.75,67.75,0,0,0,65,114.4c-.2.32-.41.64-.61,1l-.32-6.14c0-1-.11-2.07-.16-3.11a12.29,12.29,0,0,0-.35-3,7.72,7.72,0,0,0-1.47-2.64c-.12-.16-.34.06-.22.21A7.31,7.31,0,0,1,63.23,103a10.83,10.83,0,0,1,.39,2.89c.1,2,.22,4.07.32,6.1.06,1.15.12,2.29.17,3.44a.15.15,0,0,0,.16.14l0,0a.15.15,0,0,0,.26.16,68.43,68.43,0,0,1,7.08-9.51q2-2.19,4.12-4.23,1.07-1,2.16-2c.8-.69,1.61-1.35,2.39-2.07a52.3,52.3,0,0,0,4.08-4.58,32,32,0,0,1,4.29-4.19c1.55-1.27,3.17-2.45,4.73-3.7A54.53,54.53,0,0,0,98,81.33c2.61-2.66,5.18-5.34,7.76-8A24.57,24.57,0,0,0,109.65,71a13.26,13.26,0,0,0,1.74-1.6,10.92,10.92,0,0,0,.73-.92,3.35,3.35,0,0,0,.54-1A.71.71,0,0,0,112.32,66.55ZM56.71,73.19a2.49,2.49,0,0,1,.36,1,1,1,0,0,1-.07.47c-.08.14-.24.3-.41.28s-.22-.28-.26-.41a2.19,2.19,0,0,1-.09-.5,2.57,2.57,0,0,1,.24-1.25Zm.69,27.65a37.79,37.79,0,0,0-2.69,4c-.81,1.41-1.56,2.84-2.31,4.27l-.21.43a1.6,1.6,0,0,1-.87-1.41.15.15,0,0,0,0-.1q1-2.28,2.3-4.47c.42-.74.86-1.47,1.31-2.2.22-.35.45-.7.68-1.05a7.24,7.24,0,0,1,.67-.9,1.57,1.57,0,0,1,.82-.51,1,1,0,0,1,.75.14C58.5,99.56,57.73,100.41,57.4,100.84Zm.75-2.06a.14.14,0,0,0-.22,0,1.45,1.45,0,0,0-1.27-.05,4.19,4.19,0,0,0-1.5,1.65c-.49.75-.95,1.5-1.4,2.26-.9,1.54-1.72,3.12-2.5,4.73-.09.21-.2.4-.29.61a.16.16,0,0,0,0,.18h0a1.91,1.91,0,0,0,.47,1.24c-.06,0-.11,0-.12.12-.29,1.87-.57,3.74-.78,5.63-.1.94-.17,1.88-.22,2.82s-.05,1.9-.08,2.86-.11,1.89-.22,2.84-.26,1.86-.35,2.8c-.15,1.85.06,3.69,0,5.54a11.73,11.73,0,0,1-.3,2.71c-.18.67-.57,1.48-1.36,1.46a.83.83,0,0,1-.76-.63,9.74,9.74,0,0,1-.37-1.23,12.52,12.52,0,0,1-.28-2.59,35.07,35.07,0,0,1,.49-5.31c.12-.89.23-1.78.3-2.67s.14-1.89.19-2.84a53.94,53.94,0,0,1,.44-5.54,17.58,17.58,0,0,1,1.36-4.9c.17-.38.37-.75.57-1.1a.13.13,0,0,0,0-.08c.11-.08.24-.17.36-.24a1.2,1.2,0,0,0,.37-.31,1.16,1.16,0,0,0,.15-.55,4.39,4.39,0,0,0-.08-1.2c-.07-.41-.19-.8-.27-1.19a10.93,10.93,0,0,1-.17-1.28c-.07-.87-.15-1.73-.23-2.6,0-.53-.09-1.05-.13-1.58a.15.15,0,0,0,.15-.14c0-.55.49-1,.44-1.54a1.32,1.32,0,0,0-.82-1l-.24-.1a1.42,1.42,0,0,0,.17-.35,1.88,1.88,0,0,0,0-1.3,9.87,9.87,0,0,0-.63-1.26,6.5,6.5,0,0,1-.55-1.28,6.76,6.76,0,0,1-.28-2.79,5.38,5.38,0,0,1,.12-.7c0-.18.06-.48.27-.54a.44.44,0,0,1,.45.18,1.3,1.3,0,0,1,.2.62,8.23,8.23,0,0,0,.3,1.21,5.58,5.58,0,0,0,.56,1.12A11.57,11.57,0,0,0,54,95.86a22,22,0,0,1,4.53,3.23l.07.08C58.42,99,58.27,98.92,58.15,98.78Zm7.73-1.44a3.48,3.48,0,0,1-1.13,2,4.1,4.1,0,0,1-2.44.47,8.31,8.31,0,0,0-1.32.13,1.78,1.78,0,0,1-1.34-.16,5,5,0,0,1-.9-.82,9,9,0,0,0-1-.9,18.56,18.56,0,0,0-2.19-1.52,21.09,21.09,0,0,1-4.18-3,7.33,7.33,0,0,1-1.4-2,5,5,0,0,1-.37-1.13,2.44,2.44,0,0,0-.36-1.18.71.71,0,0,0-.91-.17.8.8,0,0,0-.27.5c0,.22-.09.43-.13.65A6.91,6.91,0,0,0,48.1,93a6,6,0,0,0,.43,1.26c.18.42.42.8.63,1.2a2.71,2.71,0,0,1,.4,1.27,1.22,1.22,0,0,1-.27.76l-.19-.06-.3-.09a.4.4,0,0,1-.3.21c.18.07.36.12.55.18a3.81,3.81,0,0,1-1.88.61,4.09,4.09,0,0,1-1.48,0,2,2,0,0,1-.93-.57,5,5,0,0,1-.86-1.33l.07-.15.09.33a.15.15,0,1,0,.29-.09,50.47,50.47,0,0,1-1.33-6,28.07,28.07,0,0,1-.39-3A4.43,4.43,0,0,1,42.74,86a5.19,5.19,0,0,1,.6-1.23A9.51,9.51,0,0,0,44,83.56c.18-.44.33-.89.49-1.35a13.59,13.59,0,0,1,1.13-2.53A29.75,29.75,0,0,1,49,75.34,10.59,10.59,0,0,1,53.39,72a5.06,5.06,0,0,1,1.35-.27,4.87,4.87,0,0,1,.66,0A.75.75,0,0,1,56,72a2.62,2.62,0,0,1,.33.53,2.71,2.71,0,0,0-.2,2.34.68.68,0,0,0,.34.42.63.63,0,0,0,.56-.11,1,1,0,0,0,.37-.9,2.88,2.88,0,0,0-.34-1.1c-.12-.21-.24-.41-.36-.63,0,0,0,0,0,0a1.86,1.86,0,0,1,.21-.28,2.31,2.31,0,0,1,1.93-.77,3.91,3.91,0,0,1,2.17,1,8.16,8.16,0,0,1,1.64,2.09,16.31,16.31,0,0,1,1.18,2.5c.32.86.61,1.74.89,2.62s.59,1.89.88,2.85a33.58,33.58,0,0,1,1.28,6,17.56,17.56,0,0,1,.11,3,22.49,22.49,0,0,1-.41,3.06C66.33,95.48,66.14,96.42,65.88,97.34Zm41.32-31.6a1.94,1.94,0,0,1-.29.21.5.5,0,0,1-.36.08s0-.07,0-.12v-.18a1.56,1.56,0,0,1,0-.36,3.56,3.56,0,0,1,.68-1.29,1.9,1.9,0,0,1,.52-.5,4.61,4.61,0,0,0,.57-.36c.33-.27.68-.65,1.16-.53a.61.61,0,0,1,.45.5.83.83,0,0,1-.33.65.13.13,0,0,0,0,.11,1.09,1.09,0,0,1-.17.13,8.19,8.19,0,0,0-2,1.62A.21.21,0,0,0,107.2,65.74Zm.25,1.34a.64.64,0,0,1-.1-.55,2.06,2.06,0,0,1,.71-1.13,12.54,12.54,0,0,1,1.21-.85,7.05,7.05,0,0,0,.61-.47c.17-.14.4-.34.64-.27s.25.41.19.6-.24.59-.36.88a.19.19,0,0,0,0,.07c-.07.06-.13.13-.21.19a8.22,8.22,0,0,1-.9.59,4,4,0,0,0-.78.65,3,3,0,0,0-.24.26.12.12,0,0,0-.16,0A.45.45,0,0,1,107.45,67.08Zm2,.61a2.9,2.9,0,0,1-.81.29,1,1,0,0,1-.43,0l-.08,0,0,0,0-.07.06-.11a3.55,3.55,0,0,1,.48-.67,6.13,6.13,0,0,1,1.36-1,3.53,3.53,0,0,0,.34-.24c.11-.09.2-.2.32-.28a1,1,0,0,1,.81-.09.67.67,0,0,1,.35.13.38.38,0,0,1,.06.38,1.52,1.52,0,0,1-.56.76.16.16,0,0,0,0,.12,3.47,3.47,0,0,0-.72.48.15.15,0,0,0-.19,0Zm2.85,0a4.63,4.63,0,0,1-.24.43.18.18,0,0,0-.22-.09l-1.3.61a3.85,3.85,0,0,1-1.3.48s-.29,0-.32,0,0-.18.06-.22a1.06,1.06,0,0,1,.42-.39c.18-.11.39-.2.57-.31a4,4,0,0,0,.46-.35,7.86,7.86,0,0,1,.78-.62.15.15,0,0,0,.18,0c.23-.21.63-.57,1-.31S112.37,67.48,112.26,67.69Z" transform="translate(0.4 0.2)"/><path d="M61.76,78.35a8.15,8.15,0,0,0-.54-1.16,3.52,3.52,0,0,0-.77-1,2.29,2.29,0,0,0-1.16-.48c-.47-.07-1-.11-1.45-.14a17.37,17.37,0,0,0-2.7,0,4.85,4.85,0,0,0-2.14.61,3.18,3.18,0,0,0-.65.51.13.13,0,0,0-.09.07.14.14,0,0,0,0,.06l0,0a.14.14,0,0,0,0,.12,17.48,17.48,0,0,0-1,4.81,13.74,13.74,0,0,1-.54,2.53,6.25,6.25,0,0,1-.5,1.16c-.2.4-.43.79-.61,1.19a3.2,3.2,0,0,0-.32,1.22,2,2,0,0,0,.38,1.18,11.84,11.84,0,0,0,.9,1.09c.34.39.68.77,1,1.16.65.75,1.28,1.49,1.93,2.22a8.25,8.25,0,0,0,1.84,1.65,3.54,3.54,0,0,0,1.15.49,1.42,1.42,0,0,0,.68,0,1.83,1.83,0,0,0,.55-.3,9.15,9.15,0,0,0,1.78-1.68,12.34,12.34,0,0,0,2.23-4.59,25.08,25.08,0,0,0,.75-5.6A12.75,12.75,0,0,0,61.76,78.35ZM62,85c-.08.92-.19,1.84-.36,2.75a14,14,0,0,1-1.79,4.81,9.65,9.65,0,0,1-1.48,1.83,9.41,9.41,0,0,1-.92.75,1.71,1.71,0,0,1-.56.27,1.33,1.33,0,0,1-.68-.08,5.26,5.26,0,0,1-2-1.3c-.62-.62-1.17-1.3-1.74-2l-1.94-2.23a8.05,8.05,0,0,1-.85-1.06,1.71,1.71,0,0,1-.21-1.15,8.55,8.55,0,0,1,1-2.31A9.32,9.32,0,0,0,51.28,83,47.38,47.38,0,0,1,52.11,78a6.67,6.67,0,0,1,.4-1c1-1.09,2.59-1.16,4-1.14l1.45.06A13.09,13.09,0,0,1,59.3,76a1.93,1.93,0,0,1,1.1.53,4.15,4.15,0,0,1,.68,1,10.66,10.66,0,0,1,1.05,4.85C62.13,83.26,62.09,84.11,62,85Z" transform="translate(0.4 0.2)"/></g><path class="cls-1" d="M26,136.32a25.76,25.76,0,0,1,9.9,1c2.7.8,5.3,1.9,8,2.8a29.34,29.34,0,0,0,19.4-.4c5.2-2,9.7-5.5,15.1-7.1a31.91,31.91,0,0,1,10.2-1c3.9,0,7.8.3,11.7.5,7.6.4,15.6.4,22.7-2.7l2.4-1.2c.1-.1,0-.2-.1-.2-7,3.9-15,4.2-22.8,4-3.9-.1-7.8-.4-11.7-.5a48,48,0,0,0-10.7.5c-5.4,1.1-10,4.5-15,6.8a28.79,28.79,0,0,1-9,2.5,29.3,29.3,0,0,1-10.6-.8c-2.7-.7-5.4-1.8-8.1-2.7a26.81,26.81,0,0,0-8.8-1.6,24.37,24.37,0,0,0-2.7.1c-.1-.2,0,0,.1,0Z" transform="translate(0.4 0.2)"/><path class="cls-1" d="M174.69,126.44a31.13,31.13,0,0,0,5.48,7.11,21.34,21.34,0,0,0,6.5,4.28,19.56,19.56,0,0,0,7,1.46,18.5,18.5,0,0,0,7.07-1.62,23.47,23.47,0,0,0,6.6-4.77,10.59,10.59,0,0,0,.73-.8c.06-.08,0-.16-.1-.16a24.25,24.25,0,0,1-6.44,5.17,17.36,17.36,0,0,1-7,1.93,16.2,16.2,0,0,1-7-1.13,21.51,21.51,0,0,1-6.59-4,28.39,28.39,0,0,1-5.6-6.7,11,11,0,0,1-.58-1s-.1.08-.1.24Z" transform="translate(0.4 0.2)"/><path class="cls-2" d="M-.4-.2v144h216V-.2ZM8.4,49.6c-6.4,0-6.4-10,0-10S14.8,49.6,8.4,49.6Z" transform="translate(0.4 0.2)"/><path class="cls-1" d="M167.3,117.4c-.1,0-.1,0-.1-.1s0-.1.1-.2l.5-.1c.1,0,.1,0,.2.1s0,.1-.1.2l-.6.1Z" transform="translate(0.4 0.2)"/><path class="cls-1" d="M197.1,121.5c-.1,0-.1,0-.1-.1s0-.1.1-.2l.5-.1c.1,0,.1,0,.2.1s0,.1-.1.2l-.6.1Z" transform="translate(0.4 0.2)"/><path class="cls-1" d="M209.2,51.3c-.1,0-.1,0-.1-.1s0-.1.1-.2l.5-.1c.1,0,.1,0,.2.1s0,.1-.1.2l-.6.1Z" transform="translate(0.4 0.2)"/><path class="cls-1" d="M85.47,134.17h-.6a.1.1,0,1,1,0-.2h.6a.1.1,0,0,1,.1.1C85.67,134.17,85.57,134.17,85.47,134.17Z" transform="translate(0.4 0.2)"/><path class="cls-1" d="M171.44,139.07a20.19,20.19,0,0,1-6.3-.8,25.13,25.13,0,0,0-4.1-.7.1.1,0,0,1,0-.2,19.22,19.22,0,0,1,4.2.7c3.2.7,6.8,1.5,8.8-.2a15.78,15.78,0,0,1-1.6-.7,16.81,16.81,0,0,0-4.1-1.7,3.81,3.81,0,0,0-3.9,1.2c0,.1-.1.1-.2,0s-.1-.1,0-.2a3.46,3.46,0,0,1,1.9-1.3,4.1,4.1,0,0,1,2.2,0,17.58,17.58,0,0,1,4.2,1.7c.8.4,1.4.7,1.7.8.1,0,.1,0,.1.1v.1a5.8,5.8,0,0,1-2.9,1.2Z" transform="translate(0.4 0.2)"/><path class="cls-1" d="M29.62,132.31a20.19,20.19,0,0,1-6.3-.8,25.13,25.13,0,0,0-4.1-.7.1.1,0,1,1,0-.2,19.22,19.22,0,0,1,4.2.7c3.2.7,6.8,1.5,8.8-.2a15.78,15.78,0,0,1-1.6-.7,16.81,16.81,0,0,0-4.1-1.7,3.81,3.81,0,0,0-3.9,1.2c0,.1-.1.1-.2,0s-.1-.1,0-.2a3.46,3.46,0,0,1,1.9-1.3,4.1,4.1,0,0,1,2.2,0,17.58,17.58,0,0,1,4.2,1.7c.8.4,1.4.7,1.7.8.1,0,.1,0,.1.1v.1A4.45,4.45,0,0,1,29.62,132.31Z" transform="translate(0.4 0.2)"/><path class="cls-1" d="M171.14,137.67h0c-4.1-.5-9.8-.8-13.4.9-.1,0-.1,0-.2-.1s0-.1.1-.2a18,18,0,0,1,6.9-1.3,54.42,54.42,0,0,1,6.7.4.1.1,0,0,1,.1.1Z" transform="translate(0.4 0.2)"/><path class="cls-1" d="M29.22,131h0c-4.1-.5-9.8-.8-13.4.9-.1,0-.1,0-.2-.1s0-.1.1-.2a18,18,0,0,1,6.9-1.3,54.42,54.42,0,0,1,6.7.4.1.1,0,0,1,.1.1Z" transform="translate(0.4 0.2)"/><path class="cls-1" d="M76,138.71h0c-.1-.1-.2-.1-.1-.2a5.26,5.26,0,0,1,1.7-1.4,1.93,1.93,0,0,1,1.3,0h.2a4.33,4.33,0,0,1,.5.1c.5.1,1,.2,1.6.3a11.29,11.29,0,0,0,2.6,0,17,17,0,0,0,3.2-1c.1-.1.3-.1.4-.2s.1,0,.2.1,0,.1-.1.2-.3.1-.4.2a20.74,20.74,0,0,1-3.3,1,11.29,11.29,0,0,1-2.6,0l-1.6-.3c-.2,0-.3-.1-.5-.1h-.2a1.39,1.39,0,0,0-1.1,0,4.63,4.63,0,0,0-1.8,1.3Z" transform="translate(0.4 0.2)"/><path class="cls-1" d="M88,136.81a5.65,5.65,0,0,1-1.3,0,6.45,6.45,0,0,1-2.8-1.2c-.4-.3-.8-.5-1.2-.8a3.18,3.18,0,0,0-2.3-.3,5.67,5.67,0,0,0-3,2.4c0,.1-.1.1-.2,0s-.1-.1,0-.2a6.08,6.08,0,0,1,3.1-2.5,3.66,3.66,0,0,1,2.5.3,9.13,9.13,0,0,1,1.3.8,5.14,5.14,0,0,0,2.7,1.2,10.88,10.88,0,0,0,3.1-.3c.3-.1.7-.1,1-.2-1.7-1.3-4.6-3.1-7.3-1.5h-.2v-.2a5.24,5.24,0,0,1,4.1-.4,12.8,12.8,0,0,1,3.7,2.1s.1.1,0,.1l-.1.1c-.4.1-.9.1-1.3.2a9.51,9.51,0,0,1-1.8.4Z" transform="translate(0.4 0.2)"/><path class="cls-1" d="M119.1,20.8h0c-.1,0-.1-.1-.1-.2l.2-.4a.1.1,0,0,1,.1-.1c.1,0,.1.1.1.2l-.3.5Z" transform="translate(0.4 0.2)"/><path class="cls-1" d="M190.5,118.1h0c-.1,0-.1-.1-.1-.2l.2-.4c0-.1.1-.1.1,0s.1.1,0,.2l-.2.4Z" transform="translate(0.4 0.2)"/><path class="cls-1" d="M202.7,47.8h0c-.1,0-.1-.1-.1-.2l.2-.4c0-.1.1-.1.1,0s.1.1,0,.2l-.2.4Z" transform="translate(0.4 0.2)"/><path class="cls-1" d="M150.5,9.3h0c.1,0,.2,0,.2-.1l.1-.5c0-.1,0-.1-.1-.1s-.1,0-.1.1l-.1.5C150.4,9.2,150.4,9.2,150.5,9.3Z" transform="translate(0.4 0.2)"/><path class="cls-1" d="M150.1,128h0c.1.1.2.1.2,0l.3-.4v-.2h-.2l-.3.4v.2Z" transform="translate(0.4 0.2)"/><path class="cls-1" d="M97.6,42.6h0c-.1-.2-.1-.2-.1-.3l1.2-.6c.1,0,.1,0,.1.1V42l-1.2.6Z" transform="translate(0.4 0.2)"/><path class="cls-1" d="M52.9,36h0c-.1-.2-.1-.2,0-.2l.8-.2c.1,0,.1,0,.1.1s0,.1-.1.1l-.8.2Z" transform="translate(0.4 0.2)"/><path class="cls-1" d="M113,23.8a.1.1,0,0,1-.1-.1l-.1-.4c0-.1,0-.1.1-.1s.1,0,.1.1l.1.4c.1,0,0,0-.1.1Z" transform="translate(0.4 0.2)"/><path class="cls-1" d="M184.2,120.5a.1.1,0,0,1-.1-.1l-.1-.4c0-.1,0-.1.1-.1s.1,0,.1.1l.1.5Z" transform="translate(0.4 0.2)"/><path class="cls-1" d="M196.3,50.3a.1.1,0,0,1-.1-.1l-.1-.5c0-.1,0-.1.1-.1s.1,0,.1.1l.1.5c.1,0,0,.1-.1.1Z" transform="translate(0.4 0.2)"/><path class="cls-1" d="M154.1,15h.1l.4-.3a.14.14,0,0,0-.2-.2l-.4.3c.1,0,.1.1.1.2Z" transform="translate(0.4 0.2)"/><path class="cls-1" d="M150.7,134.7l.1.1.5-.1a.1.1,0,1,0,0-.2l-.5.1c-.1,0-.1,0-.1.1Z" transform="translate(0.4 0.2)"/><path class="cls-1" d="M164.8,45.7c0,.1-.1.1,0,0l-.3-.1s-.1-.1,0-.1h.1l.2.2Z" transform="translate(0.4 0.2)"/><path class="cls-1" d="M102.8,15.5c-.1,0-.1,0-.1-.1s0-.1.1-.1h.4c.1,0,.1,0,.1.1s0,.1-.1.1Z" transform="translate(0.4 0.2)"/><path class="cls-1" d="M73.9,40.2h0a.31.31,0,0,1-.1-.2l.4-.3h.2v.2l-.5.3Z" transform="translate(0.4 0.2)"/><path class="cls-1" d="M23,25.4h0l-2.5-1.3c-.1,0-.1-.1,0-.2a.1.1,0,0,1,.1-.1L23,25.1c.1,0,.1.1,0,.2C23.1,25.4,23.1,25.4,23,25.4Z" transform="translate(0.4 0.2)"/><path class="cls-1" d="M131.5,35.7h0l-.5-.2c-.1,0-.1-.1-.1-.2a.1.1,0,0,1,.1-.1l.4.2c.2.1.2.2.1.3Z" transform="translate(0.4 0.2)"/><path class="cls-1" d="M47.7,24.8h0c.1-.1.1-.2,0-.2l-.7-.4c-.1,0-.1,0-.1.1s0,.1.1.2l.7.3Z" transform="translate(0.4 0.2)"/><path class="cls-1" d="M34.3,45.9h0c-.1-.2-.1-.2,0-.3l.7-.3c.1,0,.1,0,.1.1s0,.1-.1.2l-.7.3Z" transform="translate(0.4 0.2)"/><path class="cls-1" d="M70.8,35.3h0c-.1,0-.1-.1-.1-.2l.3-.8a.1.1,0,0,1,.1-.1c.1,0,.1.1.1.2l-.4.9C70.9,35.2,70.9,35.3,70.8,35.3Z" transform="translate(0.4 0.2)"/><path class="cls-1" d="M90.3,19.9h0l-.6-.9v-.2c0-.1.1,0,.2,0l.5.9c0,.1,0,.2-.1.2Z" transform="translate(0.4 0.2)"/><path class="cls-1" d="M31.1,22.3h0c.1,0,.1-.1.1-.2l-.2-.4a.1.1,0,0,0-.1-.1c-.1,0-.1.1,0,.2l.2.4C31,22.2,31,22.3,31.1,22.3Z" transform="translate(0.4 0.2)"/><path class="cls-1" d="M183.3,109.2h0c-.1,0-.1-.1-.1-.2l.2-.5a.1.1,0,0,1,.1-.1c.1,0,.1.1.1.2l-.2.5Z" transform="translate(0.4 0.2)"/><path class="cls-1" d="M134.3,22.8h-.7c-.1,0-.1,0-.1-.1s0-.1.1-.1h.7c.1,0,.1,0,.1.1A.1.1,0,0,1,134.3,22.8Z" transform="translate(0.4 0.2)"/><path class="cls-1" d="M195.2,126.4h-.7a.1.1,0,0,1-.1-.1c0-.1,0-.1.1-.1h.7a.1.1,0,0,1,.1.1c0,.1,0,.1-.1.1Z" transform="translate(0.4 0.2)"/><path class="cls-1" d="M138.4,12.9l.6.4h.2v-.2l-.6-.4h-.2c-.1.1-.1.2,0,.2Z" transform="translate(0.4 0.2)"/><path class="cls-1" d="M140.5,127.5l.3.6c0,.1.1.1.2,0a.1.1,0,0,0,.1-.1l-.3-.6c0-.1-.1-.1-.2,0s-.1,0-.1.1Z" transform="translate(0.4 0.2)"/><path class="cls-1" d="M64.9,36.5h0a.31.31,0,0,1-.1-.2l.4-.3h.2v.2l-.5.3Z" transform="translate(0.4 0.2)"/><path class="cls-1" d="M107.2,36.2h0c-.1-.2-.1-.2,0-.2l.8-.2c.1,0,.1,0,.1.1s0,.1-.1.1l-.8.2Z" transform="translate(0.4 0.2)"/><path class="cls-1" d="M29.8,33.8h0a.31.31,0,0,1-.1-.2,7.7,7.7,0,0,1,2.3-2,18,18,0,0,1,3.4-1.7,9.3,9.3,0,0,1,3.9-.6A6.38,6.38,0,0,1,43,30.8a.14.14,0,0,1,0,.2c0,.1-.1.1-.2,0-2.4-2-5.3-1.6-7.4-.9A13.57,13.57,0,0,0,30,33.5a14.69,14.69,0,0,1,4.7.1c2.5.3,4.9.6,7.1-1.5H42v.2c-2.4,2.2-4.8,1.9-7.3,1.5a13.42,13.42,0,0,0-4.9,0Z" transform="translate(0.4 0.2)"/><path class="cls-1" d="M32.9,32.5h0c-.1-.1-.1-.2,0-.2a16.17,16.17,0,0,1,3.8-.4,38.77,38.77,0,0,0,9.4-1.1c.1,0,.1,0,.1.1s0,.1-.1.1a34.76,34.76,0,0,1-9.4,1.1,24.41,24.41,0,0,0-3.8.4Z" transform="translate(0.4 0.2)"/><path class="cls-1" d="M61.7,26.7a1.27,1.27,0,0,1-.6-.1.1.1,0,1,1,0-.2c2.6.5,4.1-1,5.8-2.7A14.43,14.43,0,0,1,70.2,21a10.22,10.22,0,0,0-7.3.8,6,6,0,0,0-3,4.1.1.1,0,1,1-.2,0,6.2,6.2,0,0,1,1.2-2.6,7.72,7.72,0,0,1,1.9-1.7A9.67,9.67,0,0,1,67,20.4a9.37,9.37,0,0,1,3.5.4l.1.1a.1.1,0,0,1-.1.1A12,12,0,0,0,67,23.8C65.6,25.4,64.1,26.9,61.7,26.7Z" transform="translate(0.4 0.2)"/><path class="cls-1" d="M195.12,15.21a1.76,1.76,0,0,1-.5-.4v-.2a.14.14,0,0,1,.2,0c2,1.8,4,1.2,6.4.6a14.71,14.71,0,0,1,4.2-.6,10.07,10.07,0,0,0-6.8-3,6.51,6.51,0,0,0-4.7,2,.14.14,0,0,1-.2,0v-.2a6.85,6.85,0,0,1,2.3-1.6,7,7,0,0,1,2.5-.5,9.17,9.17,0,0,1,4.2,1.1,8.06,8.06,0,0,1,2.8,2.2v.1l-.1.1a13.6,13.6,0,0,0-4.5.6c-1.8.7-3.9,1.2-5.8-.2Z" transform="translate(0.4 0.2)"/><path class="cls-1" d="M57.7,27.7h0c-.1-.1-.1-.2,0-.2A30.57,30.57,0,0,0,65,23.3a11.44,11.44,0,0,1,2.9-1.8c.1,0,.1,0,.1.1s0,.1-.1.1a13.76,13.76,0,0,0-2.8,1.7,28.31,28.31,0,0,1-7.4,4.3Z" transform="translate(0.4 0.2)"/><path class="cls-1" d="M191.12,14.11h0c0-.2.1-.2.1-.2a33.47,33.47,0,0,0,8.4,0,13.57,13.57,0,0,1,3.4-.1.1.1,0,1,1,0,.2,9.42,9.42,0,0,0-3.3.1,27.43,27.43,0,0,1-8.6,0Z" transform="translate(0.4 0.2)"/><path class="cls-1" d="M9.75,22.62a4.05,4.05,0,0,1-3.2-1.2.14.14,0,0,1,.2-.2c1.8,1.7,4,1.6,6.3-.3a6.31,6.31,0,0,1,2.1-1.3,2.49,2.49,0,0,1,.8-.1,10.11,10.11,0,0,0-2.9-1.2c-1.9-.4-3.3-.1-4.3,1h-.2v-.2a4.45,4.45,0,0,1,2.1-1.2,6.63,6.63,0,0,1,2.4.1,11.18,11.18,0,0,1,3.4,1.5s.1.1,0,.1a.1.1,0,0,1-.1.1c-.7-.1-1.5-.1-3.2,1.3a5.92,5.92,0,0,1-3.1,1.5A.37.37,0,0,1,9.75,22.62Z" transform="translate(0.4 0.2)"/><path class="cls-1" d="M6.85,21.12a7.82,7.82,0,0,1-2.6-.2.1.1,0,0,1,0-.2c2.7.6,4.5-.2,6.2-.8a6.81,6.81,0,0,1,3.4-.8.1.1,0,1,1,0,.2,7,7,0,0,0-3.3.8A10.62,10.62,0,0,1,6.85,21.12Z" transform="translate(0.4 0.2)"/><path class="cls-1" d="M113,22.1a25.76,25.76,0,0,1,9.9,1c2.7.8,5.3,1.9,8,2.8a29.34,29.34,0,0,0,19.4-.4c5.2-2,9.7-5.5,15.1-7.1a31.91,31.91,0,0,1,10.2-1c3.9,0,7.8.3,11.7.5,7.6.4,15.6.4,22.7-2.7l2.4-1.2c.1-.1,0-.2-.1-.2-7,3.9-15,4.2-22.8,4-3.9-.1-7.8-.4-11.7-.5a48,48,0,0,0-10.7.5c-5.4,1.1-10,4.5-15,6.8a28.79,28.79,0,0,1-9,2.5,29.3,29.3,0,0,1-10.6-.8c-2.7-.7-5.4-1.8-8.1-2.7a26.81,26.81,0,0,0-8.8-1.6,21.75,21.75,0,0,0-2.6.1c-.2-.2-.2,0,0,0Z" transform="translate(0.4 0.2)"/><path class="cls-1" d="M25.1,26.8a45.06,45.06,0,0,0,13.7,6,43.63,43.63,0,0,0,14.4,1,46.67,46.67,0,0,0,14.1-3.7,53.43,53.43,0,0,0,12.8-8.2A57.07,57.07,0,0,0,90.5,9.5c.4-.6.7-1.2,1.1-1.8.1-.1-.1-.3-.2-.2a56.24,56.24,0,0,1-10,12.9,49.4,49.4,0,0,1-12.5,8.7A47.57,47.57,0,0,1,55,33.4,43.55,43.55,0,0,1,40.6,33a44.8,44.8,0,0,1-13.8-5.3c-.5-.3-1.1-.7-1.6-1-.2-.2-.2.1-.1.1Z" transform="translate(0.4 0.2)"/><path class="cls-1" d="M164.9,130.6c-.1,0-.1-.1,0,0l-1.2-.9a.21.21,0,0,1,.3-.3l1.1.9a.19.19,0,0,1,0,.3Z" transform="translate(0.4 0.2)"/><path class="cls-1" d="M157,108.6h0c-.2,0-.3-.1-.2-.2l.3-.7c0-.1.2-.1.3-.1s.2.1.1.2l-.3.7c-.1,0-.1.1-.2.1Z" transform="translate(0.4 0.2)"/><path class="cls-1" d="M156.91,119.58a12.15,12.15,0,0,0-2.7,0,3.93,3.93,0,0,0-3,1.7c0,.1,0,.2.1.2s.2,0,.2-.1a3.85,3.85,0,0,1,2.8-1.5,14.75,14.75,0,0,1,6.8,1,22.07,22.07,0,0,1,6.3,3.3,29.32,29.32,0,0,0-4.9.4c-3.7.5-7.9,1-11.1-.9a.83.83,0,0,1-.3-.8c.1-.3.6-.8,2.5-.9a36.11,36.11,0,0,1,8.5.7c.1,0,.2,0,.2-.1s0-.2-.1-.2a36.46,36.46,0,0,0-8.5-.7c-2,.2-2.6.7-2.8,1.1a.84.84,0,0,0,.4,1.1c3.3,2,7.6,1.4,11.3,1a25.24,25.24,0,0,1,5.3-.3c.1,0,.1,0,.2-.1v-.2A23.48,23.48,0,0,0,156.91,119.58Z" transform="translate(0.4 0.2)"/><path class="cls-1" d="M150.91,122.48h0a42.32,42.32,0,0,0-5.4,1.2c-.1,0-.1.1-.1.2s.1.1.2.1a48,48,0,0,1,5.3-1.2c.1,0,.1-.1.1-.2s0-.1-.1-.1Z" transform="translate(0.4 0.2)"/><polygon class="cls-3" points="81.1 109.4 81.2 109.2 81.5 109.4 81.5 109.5 81.1 109.4"/><polygon class="cls-4" points="81.5 109.4 81.6 109.2 81.8 109.2 81.7 109.4 81.5 109.4"/><circle class="cls-5" cx="13.09" cy="127.35" r="4"/><path class="cls-1" d="M109.13,103.66a4.05,4.05,0,0,0-2.9,3.8,3.85,3.85,0,0,0,.8,2.6,3.91,3.91,0,0,0,4.8,1.2,4.07,4.07,0,0,0,1.4-6.4,4.85,4.85,0,0,0-1.3-.9,2.83,2.83,0,0,0-1.8-.4c-.2,0-.8.1-1,.1Zm2.3.5a3.65,3.65,0,0,1,.9,6.5,3.48,3.48,0,0,1-4.4-.5,3.56,3.56,0,0,1,1.6-6A3,3,0,0,1,111.43,104.16Z" transform="translate(0.4 0.2)"/><path class="cls-1" d="M10,122.85a4,4,0,0,1,3.9,2.6,3.61,3.61,0,0,1,.1,2.7,3.92,3.92,0,0,1-4.1,2.7,4.06,4.06,0,0,1-3.4-5.5,3.15,3.15,0,0,1,.9-1.2,2.52,2.52,0,0,1,1.5-1A3,3,0,0,1,10,122.85Zm-1.9,1.2a3.49,3.49,0,0,0,1.3,6.2,3.62,3.62,0,0,0,3.9-1.9,3.46,3.46,0,0,0-3.4-5,2.74,2.74,0,0,0-1.8.7Z" transform="translate(0.4 0.2)"/><path class="cls-1" d="M43,18.2h0c-.1.1-.1.1-.2,0l-.3-.3v-.1h.1l.3.3C43,18.1,43,18.1,43,18.2Z" transform="translate(0.4 0.2)"/><path class="cls-1" d="M171.1,106.1h0c.1.1.1,0,.2,0l.2-.3v-.1h-.1l-.3.4Z" transform="translate(0.4 0.2)"/><path class="cls-1" d="M42.7,24.3l-.1.1-.4-.1a.1.1,0,0,1,0-.2l.4.1c.1,0,.2.1.1.1Z" transform="translate(0.4 0.2)"/><path class="cls-1" d="M171.8,112.3s.1.1.1,0l.4-.1a.1.1,0,1,0,0-.2l-.4.1c-.1,0-.1.1-.1.2Z" transform="translate(0.4 0.2)"/><path class="cls-1" d="M51.6,17.3l-.3.6c0,.1-.1.1-.1,0a.1.1,0,0,1-.1-.1l.3-.6c0-.1.1-.1.1,0S51.6,17.2,51.6,17.3Z" transform="translate(0.4 0.2)"/><circle class="cls-6" cx="199.2" cy="102.49" r="6.2"/><path class="cls-1" d="M203.8,96.09a6.39,6.39,0,0,0-6.5,3.3,6.16,6.16,0,0,0-.6,4.2,6.19,6.19,0,1,0,12-3,7.12,7.12,0,0,0-1.1-2.1,4.54,4.54,0,0,0-2.1-1.8,5.8,5.8,0,0,0-1.7-.6Zm2.7,2.2a5.45,5.45,0,0,1-3.1,9.4,5.66,5.66,0,0,1-5.8-3.6,5.46,5.46,0,0,1,6.2-7.2A4.73,4.73,0,0,1,206.5,98.29Z" transform="translate(0.4 0.2)"/><path d="M91.7,74c0,.1-.1.1-.2.1a.1.1,0,0,1-.1-.1q0-.15.3,0Z" transform="translate(0.4 0.2)"/><path d="M92.4,74.9c0,.1-.1.1-.2.1a.1.1,0,0,1-.1-.1q0-.15.3,0Z" transform="translate(0.4 0.2)"/><path class="cls-1" d="M.06,136.21a5.56,5.56,0,0,1,3.5.61c.95.48,1.87,1.15,2.83,1.7a6.37,6.37,0,0,0,6.85-.25c1.84-1.21,3.43-3.34,5.34-4.31a6.78,6.78,0,0,1,3.6-.61c1.38,0,2.76.19,4.14.31,2.68.24,5.51.24,8-1.64l.85-.73a.07.07,0,0,0,0-.12c-2.47,2.37-5.3,2.55-8,2.43-1.38-.06-2.76-.25-4.14-.31a9.91,9.91,0,0,0-3.78.31c-1.91.67-3.53,2.73-5.3,4.13a7.26,7.26,0,0,1-3.18,1.51A6.22,6.22,0,0,1,7,138.76c-1-.43-1.91-1.09-2.86-1.64a6.09,6.09,0,0,0-3.11-1,5.16,5.16,0,0,0-1,.06c0-.12,0,0,0,0Z" transform="translate(0.4 0.2)"/><path class="cls-1" d="M110.12,31.35h0c.1,0,.2,0,.2-.1l.1-.5c0-.1,0-.1-.1-.1s-.1,0-.1.1l-.1.6Z" transform="translate(0.4 0.2)"/><path class="cls-1" d="M113.72,37.05h0l.5-.3a.14.14,0,1,0-.2-.2l-.4.3a.31.31,0,0,1,.1.2Z" transform="translate(0.4 0.2)"/><path class="cls-1" d="M95.4,68.9l.6.4h.2v-.2l-.6-.4h-.2c-.1.1-.1.1,0,.2Z" transform="translate(0.4 0.2)"/><path class="cls-7" d="M82.9,68.6" transform="translate(0.4 0.2)"/><path class="cls-7" d="M83.07,68.6" transform="translate(0.4 0.2)"/><path class="cls-7" d="M88.23,59.3H15.92a5.59,5.59,0,0,1-5.6-5.6v-.6a5.59,5.59,0,0,1,5.6-5.6h139.6a5.59,5.59,0,0,1,5.6,5.6v.6a5.59,5.59,0,0,1-5.6,5.6H88.23" transform="translate(0.4 0.2)"/><path class="cls-6" d="M32.12,55.4h-16a2,2,0,0,1-2-1.6A1.87,1.87,0,0,1,16,51.6H32a2,2,0,0,1,2,1.6A1.87,1.87,0,0,1,32.12,55.4Z" transform="translate(0.4 0.2)"/><path class="cls-8" d="M153.42,55.4h-16.1a1.9,1.9,0,0,1,0-3.8h16.1a1.9,1.9,0,1,1,0,3.8Z" transform="translate(0.4 0.2)"/><path class="cls-8" d="M79.72,55.3h-37a1.92,1.92,0,1,1,0-3.8h37a2.11,2.11,0,0,1,2.2,1.9A2,2,0,0,1,79.72,55.3Z" transform="translate(0.4 0.2)"/><path class="cls-6" d="M122.22,55.5H97.42a2.1,2.1,0,0,1,0-4.2h24.8a2.05,2.05,0,0,1,2.1,2.1A2,2,0,0,1,122.22,55.5Z" transform="translate(0.4 0.2)"/><path class="cls-1" d="M73.2,119.2h0c.1-.1.1-.2,0-.2l-.7-.4c-.1,0-.1,0-.1.1s0,.1.1.2l.7.3Z" transform="translate(0.4 0.2)"/><path class="cls-1" d="M77.1,111.7l-.3.6c0,.1-.1.1-.1,0a.1.1,0,0,1-.1-.1l.3-.6c0-.1.1-.1.2.1Z" transform="translate(0.4 0.2)"/><path class="cls-1" d="M140,141.9c.1,0,.1-.1,0,0,.1-.1.1-.2,0-.2l-.7-.4c-.1,0-.1,0-.1.1s0,.1.1.2l.7.3Z" transform="translate(0.4 0.2)"/><path class="cls-1" d="M123.4,139.4h0c.1,0,.1-.1.1-.2l-.2-.4a.1.1,0,0,0-.1-.1c-.1,0-.1.1,0,.2l.2.4C123.3,139.4,123.4,139.4,123.4,139.4Z" transform="translate(0.4 0.2)"/><path class="cls-1" d="M135.3,135.3h0c-.1.1-.1.1-.2,0l-.3-.3v-.1h.1l.3.3A.1.1,0,0,1,135.3,135.3Z" transform="translate(0.4 0.2)"/><path class="cls-1" d="M135.1,141.5l-.1.1-.4-.1a.1.1,0,0,1,0-.2l.4.1c0-.1.1,0,.1.1Z" transform="translate(0.4 0.2)"/><path class="cls-1" d="M143.9,134.4l-.3.6c0,.1-.1.1-.1,0a.1.1,0,0,1-.1-.1l.3-.6c0-.1.1-.1.1,0S144,134.3,143.9,134.4Z" transform="translate(0.4 0.2)"/><path class="cls-1" d="M116,12.2h0c.1,0,.1-.1,0,0v-.6a.1.1,0,0,0-.2,0l.2.6Z" transform="translate(0.4 0.2)"/><path class="cls-1" d="M128.47,10.9h0a.14.14,0,0,1-.2,0l-.2-.4v-.1c.1,0,.1,0,.1.1l.3.4Z" transform="translate(0.4 0.2)"/><path class="cls-1" d="M132.37,8.8h0l-.5-.2a.1.1,0,0,1,0-.2l.4.2c.1.1.2.2.1.2Z" transform="translate(0.4 0.2)"/><path class="cls-1" d="M120.4,111.8l-.4.5s-.1.1-.1,0-.1-.1,0-.1l.5-.4c-.1-.1,0-.2,0,0Z" transform="translate(0.4 0.2)"/><path class="cls-1" d="M85.5,74.5h0l.5-.3a.14.14,0,1,0-.2-.2l-.4.3c.1.1,0,.2.1.2Z" transform="translate(0.4 0.2)"/><path class="cls-1" d="M120.72,43h0c-.1,0-.1-.1-.1-.2l.2-.5a.1.1,0,0,1,.1-.1c.1,0,.1.1.1.2l-.3.6C120.82,42.85,120.82,43,120.72,43Z" transform="translate(0.4 0.2)"/><path class="cls-1" d="M69.7,72.5l.6.4h.2v-.2l-.6-.4h-.2v.2Z" transform="translate(0.4 0.2)"/><path class="cls-1" d="M108.52,39.85h0c.1.1.1,0,.2,0l.2-.3v-.1h-.1l-.3.4Z" transform="translate(0.4 0.2)"/><path class="cls-1" d="M130.4,94.3h0c-.1,0-.1-.1-.1-.2l.2-.5a.1.1,0,0,1,.1-.1c.1,0,.1.1.1.2l-.2.5C130.5,94.3,130.5,94.3,130.4,94.3Z" transform="translate(0.4 0.2)"/><path class="cls-1" d="M31,108l.6.4h.2v-.2l-.6-.4H31v.2Z" transform="translate(0.4 0.2)"/><path class="cls-1" d="M118.2,91.3h0c.1.1.1,0,.2,0l.2-.3v-.1h-.1l-.3.4Z" transform="translate(0.4 0.2)"/><path class="cls-1" d="M198.39,25.78a1.27,1.27,0,0,1-.6-.1.1.1,0,1,1,0-.2c2.6.5,4.1-1,5.8-2.7a14.43,14.43,0,0,1,3.3-2.7,10.22,10.22,0,0,0-7.3.8,6,6,0,0,0-3,4.1.1.1,0,0,1-.2,0,6.2,6.2,0,0,1,1.2-2.6,7.72,7.72,0,0,1,1.9-1.7,9.67,9.67,0,0,1,4.2-1.2,9.37,9.37,0,0,1,3.5.4l.1.1a.1.1,0,0,1-.1.1,12,12,0,0,0-3.5,2.8C202.29,24.48,200.79,26,198.39,25.78Z" transform="translate(0.4 0.2)"/><path class="cls-1" d="M194.39,26.78h0c-.1-.1-.1-.2,0-.2a30.57,30.57,0,0,0,7.3-4.2,11.44,11.44,0,0,1,2.9-1.8c.1,0,.1,0,.1.1s0,.1-.1.1a13.76,13.76,0,0,0-2.8,1.7,30.07,30.07,0,0,1-7.4,4.3Z" transform="translate(0.4 0.2)"/><path class="cls-9" d="M182.87,60a8.93,8.93,0,0,0-6.1,2.8l-32,33.3-12-12.3a8.7,8.7,0,0,0-12.6-.2,9.61,9.61,0,0,0-.1,13.2c0,.1.1.1.1.2l18.3,19a8.7,8.7,0,0,0,12.6,0h0l38.3-39.9a9.71,9.71,0,0,0,.2-13.2,9.17,9.17,0,0,0-6.7-2.9Z" transform="translate(0.4 0.2)"/><path class="cls-6" d="M177.87,60a8.93,8.93,0,0,0-6.1,2.8l-32,33.3-12-12.3a8.7,8.7,0,0,0-12.6-.2,9.61,9.61,0,0,0-.1,13.2c0,.1.1.1.1.2l18.3,19a8.7,8.7,0,0,0,12.6,0h0l38.3-39.9a9.71,9.71,0,0,0,.2-13.2,9.17,9.17,0,0,0-6.7-2.9Z" transform="translate(0.4 0.2)"/><path class="cls-1" d="M181.82,139.4a43,43,0,0,0-10.9-8.1,47.42,47.42,0,0,0-12.6-4.5,48.92,48.92,0,0,0-26.6,1.9,46.89,46.89,0,0,0-12,6.6,15,15,0,0,0-1.3,1.1c-.1.1,0,.2.1.2a44.68,44.68,0,0,1,11.8-7.1,49.41,49.41,0,0,1,13.1-3.3,46.25,46.25,0,0,1,13.4.5,47.17,47.17,0,0,1,12.7,4.1,44.18,44.18,0,0,1,11.1,7.7l1.2,1.2c-.1-.1,0-.3,0-.3Z" transform="translate(0.4 0.2)"/><path class="cls-1" d="M182.7,34.9c-.1,0-.1,0-.1-.1s0-.1.1-.2l.5-.1c.1,0,.1,0,.2.1s0,.1-.1.2l-.6.1Z" transform="translate(0.4 0.2)"/><path class="cls-1" d="M187.1,27.1h-.6a.1.1,0,1,1,0-.2h.6a.1.1,0,0,1,.1.1C187.3,27,187.2,27.1,187.1,27.1Z" transform="translate(0.4 0.2)"/><path class="cls-1" d="M176.1,31.4h0c-.1,0-.1-.1-.1-.2l.2-.4c0-.1.1-.1.1,0s.1.1,0,.2l-.2.4Z" transform="translate(0.4 0.2)"/><path class="cls-1" d="M169.8,33.9a.1.1,0,0,1-.1-.1l-.1-.5c0-.1,0-.1.1-.1s.1,0,.1.1l.1.5a.1.1,0,0,1-.1.1Z" transform="translate(0.4 0.2)"/><path class="cls-1" d="M168.9,22.6h0c-.1,0-.1-.1-.1-.2l.2-.5a.1.1,0,0,1,.1-.1c.1,0,.1.1.1.2l-.2.5A.1.1,0,0,0,168.9,22.6Z" transform="translate(0.4 0.2)"/><path class="cls-1" d="M180.8,39.8h-.7a.1.1,0,0,1-.1-.1c0-.1,0-.1.1-.1h.7a.1.1,0,1,1,0,.2Z" transform="translate(0.4 0.2)"/><circle class="cls-5" cx="151.31" cy="35.83" r="6.2"/><path class="cls-1" d="M155.81,29.43a6.39,6.39,0,0,0-6.5,3.3,6.16,6.16,0,0,0-.6,4.2,6.19,6.19,0,1,0,12-3,7.12,7.12,0,0,0-1.1-2.1,4.54,4.54,0,0,0-2.1-1.8,5.8,5.8,0,0,0-1.7-.6Zm2.7,2.2a5.45,5.45,0,0,1-3.1,9.4,5.66,5.66,0,0,1-5.8-3.6,5.46,5.46,0,0,1,6.2-7.2A4.73,4.73,0,0,1,158.51,31.63Z" transform="translate(0.4 0.2)"/><circle class="cls-6" cx="22.39" cy="102.5" r="4.8"/><path class="cls-1" d="M26.51,107.05a4.93,4.93,0,0,1-4.7-3,4.42,4.42,0,0,1-.1-3.2,4.87,4.87,0,0,1,4.8-3.3,4.75,4.75,0,0,1,4.1,6.5,5.56,5.56,0,0,1-1,1.5,3.6,3.6,0,0,1-1.8,1.2A11.15,11.15,0,0,1,26.51,107.05Zm2.2-1.5a4.2,4.2,0,0,0-1.6-7.4,4.36,4.36,0,0,0-4.7,2.3,4.25,4.25,0,0,0,4.2,6,3.24,3.24,0,0,0,2.1-.9Z" transform="translate(0.4 0.2)"/><path class="cls-1" d="M89.79,142.08c-.1,0-.1,0-.1-.1s0-.1.1-.2l.5-.1c.1,0,.1,0,.2.1s0,.1-.1.2l-.6.1Z" transform="translate(0.4 0.2)"/><path class="cls-1" d="M94.19,134.38h-.6a.1.1,0,1,1,0-.2h.6a.1.1,0,0,1,.1.1Z" transform="translate(0.4 0.2)"/><path class="cls-1" d="M83.19,138.68h0c-.1,0-.1-.1-.1-.2l.2-.4c0-.1.1-.1.1,0s.1.1,0,.2l-.2.4Z" transform="translate(0.4 0.2)"/><path class="cls-1" d="M109.83,138.23a.1.1,0,0,1-.1-.1l-.1-.5c0-.1,0-.1.1-.1s.1,0,.1.1l.1.5-.1.1Z" transform="translate(0.4 0.2)"/><path class="cls-1" d="M99,25.94a1.35,1.35,0,0,1-.51-.34.11.11,0,1,1,.09-.19c2.15,1.54,4.14.8,6.39,0a14.06,14.06,0,0,1,4.13-1.08,10.21,10.21,0,0,0-7-2.32,6,6,0,0,0-4.44,2.48.1.1,0,1,1-.18-.08,6.22,6.22,0,0,1,2.18-1.87,7.55,7.55,0,0,1,2.43-.75,9.68,9.68,0,0,1,4.32.66,9.29,9.29,0,0,1,3,1.82l0,.13a.1.1,0,0,1-.13.05A12.07,12.07,0,0,0,105,25.51C103,26.34,101,27.08,99,25.94Z" transform="translate(0.4 0.2)"/><path class="cls-1" d="M94.81,25.14h0c0-.14,0-.23.09-.18a30.61,30.61,0,0,0,8.38-.78,11.42,11.42,0,0,1,3.39-.43c.09,0,.09,0,0,.13s0,.09-.14.05a13.68,13.68,0,0,0-3.25.38,26.85,26.85,0,0,1-8.52.83Z" transform="translate(0.4 0.2)"/><path class="cls-1" d="M76.3,45.9h-.6a.1.1,0,1,1,0-.2h.6c.1,0,.1.1,0,.2C76.4,45.8,76.4,45.9,76.3,45.9Z" transform="translate(0.4 0.2)"/><path class="cls-1" d="M96.39,127.48c-.1,0-.1,0-.1-.1s0-.1.1-.2l.5-.1c.1,0,.1,0,.2.1s0,.1-.1.2l-.6.1Z" transform="translate(0.4 0.2)"/><path class="cls-1" d="M208.7,64.7h-.6a.1.1,0,1,1,0-.2h.6a.1.1,0,1,1,0,.2Z" transform="translate(0.4 0.2)"/><path class="cls-1" d="M89.79,124.08h0c-.1,0-.1-.1-.1-.2l.2-.4c0-.1.1-.1.1,0s.1.1,0,.2l-.2.4Z" transform="translate(0.4 0.2)"/><path class="cls-1" d="M83.49,126.58a.1.1,0,0,1-.1-.1l-.1-.5c0-.1,0-.1.1-.1s.1,0,.1.1l.1.5-.1.1Z" transform="translate(0.4 0.2)"/><path class="cls-1" d="M8.7,42.9H8.1a.1.1,0,1,1,0-.2h.6a.1.1,0,0,1,.1.1Z" transform="translate(0.4 0.2)"/><path class="cls-1" d="M2.1,52.1A.1.1,0,0,1,2,52l-.1-.5c0-.1,0-.1.1-.1s.1,0,.1.1l.1.5c.1,0,0,.1-.1.1Z" transform="translate(0.4 0.2)"/><path class="cls-1" d="M34.64,142.05c-.1,0-.1,0-.1-.1s0-.1.1-.2l.5-.1c.1,0,.1,0,.2.1s0,.1-.1.2l-.6.1Z" transform="translate(0.4 0.2)"/><path class="cls-1" d="M39.14,134.25h-.6a.1.1,0,0,1,0-.2h.6a.1.1,0,0,1,.1.1Z" transform="translate(0.4 0.2)"/><path class="cls-1" d="M21.83,129.75h0c-.1,0-.1-.1-.1-.2l.2-.4c0-.1.1-.1.1,0s.1.1,0,.2l-.2.4Z" transform="translate(0.4 0.2)"/><path class="cls-1" d="M21.74,141.05a.1.1,0,0,1-.1-.1l-.1-.5c0-.1,0-.1.1-.1s.1,0,.1.1l.1.5c.1,0,0,.1-.1.1Z" transform="translate(0.4 0.2)"/><path class="cls-1" d="M74.68,26.32a25.76,25.76,0,0,1,9.9,1c2.7.8,5.3,1.9,8,2.8a29.34,29.34,0,0,0,19.4-.4c5.2-2,9.7-5.5,15.1-7.1a31.91,31.91,0,0,1,10.2-1c3.9,0,7.8.3,11.7.5,7.6.4,15.6.4,22.7-2.7l2.4-1.2c.1-.1,0-.2-.1-.2-7,3.9-15,4.2-22.8,4-3.9-.1-7.8-.4-11.7-.5a48,48,0,0,0-10.7.5c-5.4,1.1-10,4.5-15,6.8a28.79,28.79,0,0,1-9,2.5,29.3,29.3,0,0,1-10.6-.8c-2.7-.7-5.4-1.8-8.1-2.7a26.81,26.81,0,0,0-8.8-1.6,24.37,24.37,0,0,0-2.7.1c-.1-.2,0,0,.1,0Z" transform="translate(0.4 0.2)"/><path d="M132.49,9l-1,.79-.94.77.24-1,.24-1-1,.91c-.53.51-1,1-1,1,0,.18.28,0,.84-.49l.62-.56-.17.7c-.29,1.17-.2,1.17,1.18-.08l.91-.76c.11-.05.16-.14.1-.2A.26.26,0,0,0,132.49,9Z" transform="translate(0.4 0.2)"/><path d="M133.94,13.39l-1.22.08-.12-1c-.12-1-.22-1.28-.34-1.11a6.82,6.82,0,0,0,.32,2.27,8.79,8.79,0,0,0,2.66-.1C135.4,13.33,135.13,13.31,133.94,13.39Z" transform="translate(0.4 0.2)"/><path d="M128.17,8.32a9.71,9.71,0,0,1-1.36.11,2.62,2.62,0,0,0-1.13.17,8.54,8.54,0,0,0,2.79-.08C128.61,8.38,128.42,8.25,128.17,8.32Z" transform="translate(0.4 0.2)"/><path d="M126.89,9.36c-1.18,0-1.62.12-1.47.26a11.29,11.29,0,0,0,1.48,0,11.09,11.09,0,0,0,1.47-.09C128.52,9.39,128.07,9.33,126.89,9.36Z" transform="translate(0.4 0.2)"/><path d="M132,14.13c-.74.6-1.44,1.38-1.36,1.46a7.35,7.35,0,0,0,1.88-1.75C132.5,13.77,132.26,13.89,132,14.13Z" transform="translate(0.4 0.2)"/><path d="M124.61,9.5a11.13,11.13,0,0,0,.23,2.85,8.86,8.86,0,0,0-.11-2.86S124.63,9.45,124.61,9.5Z" transform="translate(0.4 0.2)"/><path d="M129.24,15.17c-.74,0-1.32.07-1.33.23a5,5,0,0,0,1.1,0C130.23,15.43,130.42,15.21,129.24,15.17Z" transform="translate(0.4 0.2)"/><path d="M127.36,14.21a9.16,9.16,0,0,1-1,.77l-.32.19.08-.35a8.87,8.87,0,0,1,.24-1c.09-.33.1-.58,0-.59a17.45,17.45,0,0,0-2.25,1.93s.07.06.16.08.38-.19.65-.48a8.12,8.12,0,0,1,.83-.72c.33-.22.32-.21.08.63-.36,1.22-.31,1.23,1.16.1.8-.63,1.16-1,1-1.09S127.72,13.91,127.36,14.21Z" transform="translate(0.4 0.2)"/><path d="M130.89,16.44s.08.51.2,1.09.26,1.2.29,1.37c.07.44.28.34.23-.11C131.49,17.65,131.07,16.26,130.89,16.44Z" transform="translate(0.4 0.2)"/><path d="M122.68,14.69a12.89,12.89,0,0,1-1.29.55c-1.16.44-1.16.44-1,.56A5.9,5.9,0,0,0,123,14.68C122.94,14.6,122.81,14.6,122.68,14.69Z" transform="translate(0.4 0.2)"/><path d="M118.2,14.77c-.38.4-.59.53-.81.53-.58,0-.57-.17,0-.82.35-.37.51-.61.42-.62A5.79,5.79,0,0,0,116.58,15a6,6,0,0,0-1.08,1.32c0,.09.23-.06.56-.41.5-.52.55-.54.94-.43s.48.14-.2,1a5,5,0,0,0-.46.7c0,.23.27,0,.83-.79.35-.46.88-1.11,1.17-1.42s.51-.62.46-.67S118.48,14.47,118.2,14.77Z" transform="translate(0.4 0.2)"/><path d="M120.31,16.5a3.8,3.8,0,0,0-1,.71c-.91.82-1.12,1.36-.66,1.79a1,1,0,0,0,.54.29c.45,0,1.43-.16,1.43-.3s-.18-.1-.4-.07c-.94.15-1.15.13-1.37-.07a.51.51,0,0,1-.15-.53,4.09,4.09,0,0,1,1.75-1.55c.4-.09.47-.15.34-.27A.74.74,0,0,0,120.31,16.5Z" transform="translate(0.4 0.2)"/><path d="M118.05,16.25c-.25,0-.48.21-.36.33a.29.29,0,0,0,.28,0c.16-.07.2,0,.22.15s-.19.56-.58.67-.36.31,0,.33c.13,0,.23.06.23.13s-.52.67-.81.71-.53-.09-.4-.23a.12.12,0,0,0,0-.18c-.12-.12-.35.13-.3.33s.54.44.88.3,1-.73.85-.95,0-.3.21-.5a.66.66,0,0,0,.22-.63C118.35,16.28,118.32,16.25,118.05,16.25Z" transform="translate(0.4 0.2)"/><path d="M26.5,10.23l.91.64.88.63-.92,0-.91,0,1,.63c.57.34,1.05.61,1.07.61.17,0-.05-.24-.62-.61l-.62-.41h.64c1.08,0,1.06-.09-.34-1-.38-.26-.78-.54-.86-.61s-.17-.1-.2,0A.21.21,0,0,0,26.5,10.23Z" transform="translate(0.4 0.2)"/><path d="M29.92,8l.35,1-.85.34c-.81.32-1.06.48-.88.55a6.25,6.25,0,0,0,1.89-.8,8.28,8.28,0,0,0-.71-2.28C29.53,6.71,29.57,7,29.92,8Z" transform="translate(0.4 0.2)"/><path d="M26.88,14.12a11.29,11.29,0,0,1,.41,1.15,2.49,2.49,0,0,0,.4.94A7.36,7.36,0,0,0,27,13.82C26.82,13.73,26.76,13.93,26.88,14.12Z" transform="translate(0.4 0.2)"/><path d="M28.07,15c.3,1,.48,1.38.57,1.21a10.45,10.45,0,0,0-.34-1.27,11.72,11.72,0,0,0-.41-1.26C27.72,13.57,27.77,14,28.07,15Z" transform="translate(0.4 0.2)"/><path d="M31,9.48a4.29,4.29,0,0,0,1.58.84,6.67,6.67,0,0,0-2-1.22C30.58,9.12,30.74,9.3,31,9.48Z" transform="translate(0.4 0.2)"/><path d="M28.72,16.92a9.74,9.74,0,0,0,2.41-.86,8.2,8.2,0,0,0-2.45.76C28.66,16.87,28.67,16.91,28.72,16.92Z" transform="translate(0.4 0.2)"/><path d="M32.54,11.61c.16.65.37,1.12.51,1.09a3.9,3.9,0,0,0-.21-.95C32.54,10.69,32.3,10.58,32.54,11.61Z" transform="translate(0.4 0.2)"/><path d="M32.15,13.45c.36.25.76.54.89.66l.24.23-.32,0c-.18,0-.58,0-.88,0s-.53,0-.52.12A16,16,0,0,0,33.75,16a.22.22,0,0,0,0-.15c0-.08-.26-.3-.56-.46a6.23,6.23,0,0,1-.83-.55c-.26-.23-.25-.23.53-.22,1.14,0,1.14,0-.18-1-.73-.55-1.12-.77-1.18-.65S31.8,13.21,32.15,13.45Z" transform="translate(0.4 0.2)"/><path d="M33.26,9.89s.42-.19.9-.43,1-.5,1.11-.56c.36-.17.22-.32-.15-.18C34.16,9.09,33.06,9.78,33.26,9.89Z" transform="translate(0.4 0.2)"/><path d="M33.65,17.38a12,12,0,0,1,.77,1c.65.9.65.9.72.76s-1.38-2.1-1.57-2S33.54,17.29,33.65,17.38Z" transform="translate(0.4 0.2)"/><path d="M34.75,21.23c.44.24.6.39.65.58.13.51,0,.54-.71.16-.41-.22-.65-.3-.64-.22a5.19,5.19,0,0,0,1.29.83,5.11,5.11,0,0,0,1.39.62c.07,0-.1-.18-.48-.39-.57-.3-.6-.34-.6-.7s0-.45.93-.07a5.06,5.06,0,0,0,.7.24c.2-.06-.07-.23-.87-.53-.48-.2-1.16-.51-1.5-.69s-.65-.3-.68-.24S34.43,21.06,34.75,21.23Z" transform="translate(0.4 0.2)"/><path d="M35.76,19a3.47,3.47,0,0,0,.86.74c.92.6,1.43.66,1.7.16a1,1,0,0,0,.12-.54c-.07-.39-.47-1.19-.59-1.16s0,.18,0,.36c.34.78.38,1,.25,1.2a.45.45,0,0,1-.42.25A3.58,3.58,0,0,1,36,18.88c-.18-.33-.24-.38-.32-.24A.67.67,0,0,0,35.76,19Z" transform="translate(0.4 0.2)"/><path d="M36.07,21c.07.22.3.37.37.24a.29.29,0,0,0-.08-.24c-.11-.12-.09-.16.07-.23a.59.59,0,0,1,.71.35c.15.27.36.24.3,0s0-.22.06-.23.7.29.81.53,0,.48-.12.4a.1.1,0,0,0-.15,0c-.07.13.2.28.35.18a.6.6,0,0,0,.06-.82c-.27-.37-.85-.66-1-.52s-.27,0-.47-.06a.57.57,0,0,0-.6,0C36,20.75,36,20.79,36.07,21Z" transform="translate(0.4 0.2)"/><path d="M183.84,5.34c.12,1.43-1.5,3.56-4.36,5.78a10.56,10.56,0,0,0-1.19,1,7.65,7.65,0,0,0,2.36.7c2.79.45,4.07.25,5.76-.89a9.29,9.29,0,0,0,2.25-2.42,8.94,8.94,0,0,0,1-3c.06-.7.08-.67-.56-.78-.32,0-.36,0-.44.19s-.13.23-.25.13a.23.23,0,0,1-.09-.25c0-.07-.05-.17-.2-.22s-.5,0-.5.15-.09.14-.19.14-.19-.07-.19-.23-.07-.23-.29-.28c-.47-.09-.53-.08-.59.14s-.4.2-.38-.09,0-.21-.23-.26l-.41-.09c-.1,0-.18,0-.21.19-.08.32-.36.29-.44,0s-.29-.35-.72-.37C183.81,4.85,183.81,4.89,183.84,5.34Zm.6-.21s.08.08.08.18a.44.44,0,0,0,.14.29c.18.15.62.05.62-.14s.09-.14.23-.14.24,0,.24.17a.43.43,0,0,0,.79.2.29.29,0,0,1,.55.13c0,.27.6.36.7.12s.29-.17.36.08a.37.37,0,0,0,.71.06c.06-.12.17-.14.39-.12l.29,0,0,.48A7.66,7.66,0,0,1,186,12c-.46.3-.52.32-.75.2a2.62,2.62,0,0,1-.56-.53c-.36-.42-.5-.44-.5-.06a2,2,0,0,1-.55,1.11c-.18.17-.27.17-1.52.07a15.43,15.43,0,0,1-3.36-.65c-.1-.05.11-.26.7-.7,3-2.28,4.63-4.4,4.64-5.92,0-.42,0-.49.15-.44A1.73,1.73,0,0,0,184.44,5.13Z" transform="translate(0.4 0.2)"/><path d="M184.29,7.21c-.09.13.18.21,1.55.42.45.08,1.12.23,1.5.34s.7.19.79.11.06-.12-.08-.12a3.36,3.36,0,0,1-.73-.18,8.4,8.4,0,0,0-1.36-.3,4.08,4.08,0,0,1-1-.2C184.85,7.14,184.35,7.11,184.29,7.21Z" transform="translate(0.4 0.2)"/><path d="M184,8.19a.22.22,0,0,0,.17.18,20.27,20.27,0,0,0,3.58.73c.49,0,.07-.17-.66-.28a11.64,11.64,0,0,1-2.53-.58c0-.05-.05-.06-.13,0a.16.16,0,0,1-.2-.05C184.11,8,184,8,184,8.19Z" transform="translate(0.4 0.2)"/><path d="M183.46,9c-.13.12.3.38.87.54l.91.26c.37.1.82.11.76,0a.53.53,0,0,0-.32-.13c-.58-.13-.84-.18-1-.23a1.9,1.9,0,0,0-.58-.16c-.19,0-.37-.13-.4-.21S183.56,8.87,183.46,9Z" transform="translate(0.4 0.2)"/><path d="M183.39,10.12c0,.1.33.26.8.37l.6.17c.11,0,.2,0,.2,0s-.24-.23-.9-.44S183.39,10,183.39,10.12Z" transform="translate(0.4 0.2)"/><path d="M195.37,128.34c-.93,1.51-4.11,2.46-8.6,2.58a13.54,13.54,0,0,0-1.92.13,9.62,9.62,0,0,0,1.85,2.43c2.45,2.49,3.88,3.23,6.41,3.33a11.65,11.65,0,0,0,4-.77,11.15,11.15,0,0,0,3.21-2.23c.58-.65.57-.61,0-1.2-.28-.28-.33-.29-.58-.12s-.29.13-.34-.06a.29.29,0,0,1,.09-.31c.09-.05.07-.21,0-.38-.21-.32-.46-.41-.61-.21a.21.21,0,0,1-.29,0c-.13-.1-.14-.2,0-.36s.11-.29-.09-.5c-.4-.42-.47-.46-.69-.29s-.55-.1-.31-.36.12-.24,0-.44l-.34-.39c-.08-.1-.21-.09-.36,0-.31.26-.57,0-.4-.37s0-.56-.45-.89C195.7,127.83,195.66,127.86,195.37,128.34Zm.74.23s0,.14,0,.24a.62.62,0,0,0-.08.4c.08.27.58.49.72.31s.2-.08.34,0,.2.22.11.34a.54.54,0,0,0,.65.78.36.36,0,0,1,.45.53c-.16.29.34.8.61.64s.42,0,.3.34.23.8.68.58c.14-.07.27,0,.47.17l.26.26-.41.44a9.55,9.55,0,0,1-7.58,2.92c-.68-.05-.75-.07-.89-.35a3.33,3.33,0,0,1-.18-.95c-.05-.68-.17-.8-.44-.42a2.53,2.53,0,0,1-1.38.7c-.3,0-.39,0-1.56-1a18.7,18.7,0,0,1-2.89-3.12c-.06-.11.3-.17,1.21-.18,4.64-.1,7.86-1,9-2.52.31-.41.39-.47.48-.33A1.28,1.28,0,0,0,196.11,128.57Z" transform="translate(0.4 0.2)"/><path d="M194.44,130.54c-.18.06,0,.33,1.25,1.56.39.4.94,1,1.24,1.43.41.55.57.71.72.69s.14-.07,0-.17a3.87,3.87,0,0,1-.59-.73,11.41,11.41,0,0,0-1.15-1.29,4.37,4.37,0,0,1-.79-.9C195.06,130.88,194.58,130.48,194.44,130.54Z" transform="translate(0.4 0.2)"/><path d="M193.39,131.27a.3.3,0,0,0,0,.31,25.24,25.24,0,0,0,3,3.35c.49.36.19-.12-.46-.75a14.48,14.48,0,0,1-2.1-2.44c0-.05,0-.1-.11-.13s-.17-.11-.16-.19S193.51,131.11,193.39,131.27Z" transform="translate(0.4 0.2)"/><path d="M192.32,131.68c-.21,0,0,.61.48,1.19.28.34.59.76.72.92.29.37.74.72.75.55a.77.77,0,0,0-.21-.36,10.83,10.83,0,0,1-.81-.94,2.64,2.64,0,0,0-.46-.58.85.85,0,0,1-.25-.5C192.59,131.77,192.5,131.66,192.32,131.68Z" transform="translate(0.4 0.2)"/><path d="M191.41,132.78c-.07.11.14.51.53,1,.17.21.37.48.48.6s.18.18.22.13-.08-.41-.59-1.1S191.5,132.67,191.41,132.78Z" transform="translate(0.4 0.2)"/><path d="M44.9,63.67a2,2,0,0,0-.5.74c0,.13.1,0,.22-.19a1.63,1.63,0,0,1,2.28-.69,2.35,2.35,0,0,0,.92.24c.84,0,1.34.55,1.38,1.51,0,.77.46,2.59.49,2.07a3.71,3.71,0,0,0-.21-1,1.84,1.84,0,0,1-.14-.86A1.74,1.74,0,0,0,48.87,64a1.18,1.18,0,0,0-1-.41,2.52,2.52,0,0,1-1-.23,2.31,2.31,0,0,0-.93-.24A1.26,1.26,0,0,0,44.9,63.67Z" transform="translate(0.4 0.2)"/><path d="M47.6,64.66c-.21.21-.09.4.11.21.43-.38.57.06.15.47s-.47.63,0,.61.38,0,.06-.12l-.36-.1.4-.36c.31-.3.35-.41.22-.6S47.76,64.49,47.6,64.66Z" transform="translate(0.4 0.2)"/><path d="M44.17,64.87c0,.08,0,.16.06.16a.17.17,0,0,0,.17-.16c0-.1,0-.16-.06-.16S44.22,64.77,44.17,64.87Z" transform="translate(0.4 0.2)"/><path d="M43,65.59a1.48,1.48,0,0,0-.5,1.18,2,2,0,0,0,.78,1.73c.27.16.24.08-.15-.39a1.81,1.81,0,0,1,.43-2.82c.33-.17.4-.26.21-.26A1.63,1.63,0,0,0,43,65.59Z" transform="translate(0.4 0.2)"/><path d="M44.19,66.14a1.14,1.14,0,0,0,0,1.68c.36.38.64.43,1,.19.17-.12.12-.14-.19-.06-.56.14-1-.28-1-1A.88.88,0,0,1,45,66.05c.26.08.29.06.11-.07S44.63,65.76,44.19,66.14Z" transform="translate(0.4 0.2)"/><path d="M45.9,66.08a1.35,1.35,0,0,0-.38.75c-.08.46-.08.44.09-.06.22-.69.72-.93,1.22-.58.66.47.37,1.82-.41,1.82a1,1,0,0,1-.55-.31c-.16-.18-.29-.25-.29-.18,0,.22.6.65.91.65s.86-.63.86-1.16a.94.94,0,0,0-.55-1C46.37,65.75,46.25,65.76,45.9,66.08Z" transform="translate(0.4 0.2)"/><path d="M49.26,68.22c-.42,1-2.06,1.47-2.75.86-.14-.11-.3-.06-.58.17a1.49,1.49,0,0,1-1,.33,1,1,0,0,1-.94-.52c-.22-.26-.36-.39-.3-.26a5.3,5.3,0,0,0,.42.58,1.31,1.31,0,0,0,1.72.08c.31-.27.4-.27,1-.08a1.48,1.48,0,0,0,1.22,0c.65-.19,1.52-1,1.52-1.48S49.51,67.63,49.26,68.22Z" transform="translate(0.4 0.2)"/><path d="M45.13,70.6c-.39.51.34,1.29.81.87.3-.25.29-.88,0-1S45.33,70.35,45.13,70.6ZM46,71c.06.44-.35.62-.66.29s-.14-.77.28-.7A.42.42,0,0,1,46,71Z" transform="translate(0.4 0.2)"/><path d="M46.34,71.92a.56.56,0,0,0,.22.93c.26.05.36,0,.43-.36C47.12,71.94,46.77,71.63,46.34,71.92Zm.49.43a.36.36,0,0,1-.25.34c-.27,0-.38-.42-.16-.66S46.83,72,46.83,72.35Z" transform="translate(0.4 0.2)"/><polygon class="cls-3" points="94.06 94.7 94.16 94.5 94.46 94.7 94.46 94.8 94.06 94.7"/><polygon class="cls-4" points="94.46 94.7 94.56 94.5 94.76 94.5 94.66 94.7 94.46 94.7"/><path class="cls-1" d="M90.06,97l-.3.6c0,.1-.1.1-.1,0a.1.1,0,0,1-.1-.1l.3-.6c0-.1.1-.1.2.1Z" transform="translate(0.4 0.2)"/><path class="cls-1" d="M102.75,109.38h0c-.1,0-.1-.1-.1-.2l.2-.4c0-.1.1-.1.1,0s.1.1,0,.2l-.2.4Z" transform="translate(0.4 0.2)"/><path class="cls-1" d="M96.45,111.88a.1.1,0,0,1-.1-.1l-.1-.5c0-.1,0-.1.1-.1s.1,0,.1.1l.1.5-.1.1Z" transform="translate(0.4 0.2)"/><path class="cls-1" d="M149.6,71.45c-.1,0-.1,0-.1-.1s0-.1.1-.2l.5-.1c.1,0,.1,0,.2.1s0,.1-.1.2l-.6.1Z" transform="translate(0.4 0.2)"/><path class="cls-1" d="M143,68h0c-.1,0-.1-.1-.1-.2l.2-.4c0-.1.1-.1.1,0s.1.1,0,.2l-.2.4Z" transform="translate(0.4 0.2)"/><path class="cls-1" d="M136.7,70.45a.1.1,0,0,1-.1-.1l-.1-.5c0-.1,0-.1.1-.1s.1,0,.1.1l.1.5a.1.1,0,0,1-.1.1Z" transform="translate(0.4 0.2)"/><path class="cls-1" d="M147.7,76.35H147a.1.1,0,0,1-.1-.1c0-.1,0-.1.1-.1h.7a.1.1,0,1,1,0,.2Z" transform="translate(0.4 0.2)"/><path class="cls-1" d="M6.83,93.86h0c.2-.1.2-.1.3-.09L7.71,95c0,.1,0,.1-.1.1h-.2l-.58-1.21Z" transform="translate(0.4 0.2)"/><path class="cls-1" d="M9.73,70.22h0a.34.34,0,0,1,.21-.1l.29.41v.2H10l-.29-.5Z" transform="translate(0.4 0.2)"/><path class="cls-1" d="M21.74,81.66h0l.21-.49c0-.1.1-.1.2-.1a.1.1,0,0,1,.1.1l-.21.4c-.1.2-.2.2-.3.09Z" transform="translate(0.4 0.2)"/><path class="cls-1" d="M14.7,67.22h0c0-.1.1-.1.2-.1l.79.32a.1.1,0,0,1,.1.1c0,.1-.1.1-.2.1l-.89-.42C14.8,67.32,14.7,67.32,14.7,67.22Z" transform="translate(0.4 0.2)"/><path class="cls-1" d="M13,103.59h0c.2-.09.2-.09.2,0l.18.8c0,.1,0,.1-.1.1s-.1,0-.1-.1l-.18-.81Z" transform="translate(0.4 0.2)"/><path class="cls-1" d="M12,110.1h0l.29.5a.14.14,0,0,0,.2,0,.14.14,0,0,0,0-.2l-.29-.41a.31.31,0,0,1-.2.1Z" transform="translate(0.4 0.2)"/><path class="cls-1" d="M6,117H6c0-.1.1-.1.2-.09l.5.21a.1.1,0,0,1,.1.1c0,.1-.1.1-.2.09L6,117C6.09,117.07,6,117.07,6,117Z" transform="translate(0.4 0.2)"/><path class="cls-1" d="M9.35,104.84h0c-.1.1,0,.1,0,.2l.29.21h.1v-.1l-.39-.31Z" transform="translate(0.4 0.2)"/></svg>