<?xml version="1.0" encoding="UTF-8"?>
<svg id="Layer_1" data-name="Layer 1" xmlns="http://www.w3.org/2000/svg" viewBox="0 0 820.35 361.25">
  <defs>
    <style>
      .cls-1 {
        stroke-width: 2px;
      }

      .cls-1, .cls-2, .cls-3, .cls-4, .cls-5, .cls-6 {
        stroke: #cfc8e4;
      }

      .cls-1, .cls-2, .cls-4 {
        fill: none;
        stroke-linecap: round;
        stroke-linejoin: round;
      }

      .cls-7, .cls-3 {
        fill: #cfc8e4;
      }

      .cls-8, .cls-9 {
        fill: #fff;
      }

      .cls-2 {
        stroke-width: 8px;
      }

      .cls-10 {
        fill: #dae8a6;
      }

      .cls-9 {
        stroke: #fff;
      }

      .cls-9, .cls-3, .cls-5, .cls-6 {
        stroke-miterlimit: 10;
      }

      .cls-4 {
        stroke-width: 3px;
      }

      .cls-5 {
        fill: #eaebf6;
      }

      .cls-6 {
        fill: #cec7e3;
      }
    </style>
  </defs>
  <path class="cls-8" d="M719.61,217.15c-3.23-11.43-8.49-22.25-15.55-31.98-3.91-5.45-7.84-10.85-10.48-17.01-2.5-5.77-4.04-11.85-5.33-17.95-2.66-12.94-4.27-26.06-7.81-38.88-3.16-11.46-7.5-24.27-17.33-32.17-4.45-3.56-9.93-6.08-15.74-6.35-6.25-.29-12.18,2.01-17.41,4.99-5.69,3.25-10.99,7.22-16.04,11.27-2.61,2.11-5.25,4.22-7.66,6.52-2,1.89-3.88,4.12-4.86,6.64-.85,2.06-.91,4.22.08,6.15-.21.13-.31.38-.23.6.88,4.46,1.71,9.01,2.53,13.45.22,1.04.32,2.09.31,3.15-.07,1.02-.29,2.04-.65,3-.72,1.93-1.63,3.79-2.7,5.56-.51.88-1.09,1.73-1.73,2.52-.34.39-.64.8-.9,1.23-.22.48-.13,1.04.23,1.43.33.32.7.6,1.09.85.39.27.83.56,1.19.82.76.56,1.46,1.2,2.07,1.91.6.78,1.08,1.63,1.42,2.54.39,1.02.77,2.11,1.16,3.15.83,2.13,1.6,4.27,2.41,6.42.36,1.02.75,2.06,1.11,3.07.34.85.67,1.77,1.22,2.52.5.79,1.19,1.45,2.02,1.94.86.48,1.8.82,2.77,1.02.46.1.96.19,1.42.29.18.03.36,0,.52-.07h.21s.03,0,.05.02c.09.09.19.15.31.19.05,0,.1.02.15.02.12.11.27.18.44.19.05,0,.08,0,.1-.02.51.23.97.56,1.34.96.1.16.2.33.28.51.67,1.21,1.42,2.35,2.2,3.51.83,1.63,1.48,3.35,1.94,5.11.65,2.16,1.01,4.39,1.06,6.64.1,2.33-.03,4.6-.91,6.78-1.63,4.14-5.12,7.22-8.46,10.1-1.86,1.6-3.67,3.18-5.38,4.94-1.75,1.82-3.5,3.68-5.25,5.55s-3.5,3.71-5.27,5.55c-.85.87-1.71,1.77-2.5,2.69-.02.05-.04.11-.06.16-.13.75-.26,1.51-.46,2.25-.13.46-.3.91-.5,1.34,0,.05-.02.1-.03.15-.08.87-.23,1.79-.39,2.63-.39,1.29-.86,2.55-1.41,3.78-.01.1-.03.2-.06.29-.07.68-.24,1.35-.5,1.99-.22,1.59-.59,3.16-1.12,4.68-.09.41-.18.81-.27,1.22,0,0,0,.03.02.05-.03.09-.06.17-.09.26-.06.18-.1.36-.13.55l-.05.37v.05-.02c0,.05-.02.11-.02.16v.05s-.02.03-.04.04c-.11.5-.22,1-.34,1.51-1.42,6.93-2.61,13.98-3.67,20.98-.54,3.51-.88,7.07-.67,10.61.08,1.82.23,3.56.25,5.38s-.16,3.63-.34,5.4c-.1.87-.2,1.73-.3,2.63-.04.11-.06.22-.07.33v.22l-.02.05c-.03.12-.07.24-.1.36l-.03.08c-.09.13-.15.28-.2.43-.07.24.02.49.24.63.15.09.34.11.51.06.24-.07.44-.24.54-.46.04-.08.07-.17.1-.26.06-.08.12-.17.16-.27.04-.08.07-.16.09-.24.02-.06.04-.11.06-.17.04-.12.06-.25.05-.38h0c.43-3.3.77-6.57.65-9.87-.08-1.82-.23-3.63-.28-5.45-.02-1.81.07-3.61.28-5.4.36-3.63,1.06-7.22,1.65-10.83.09-.52.18-1.04.26-1.56,0-.08,0-.16.02-.24.02-.1.04-.2.07-.3.48-2.82.97-5.65,1.53-8.45.7-3.51,1.42-6.98,2.3-10.46.44-1.77.93-3.46,1.42-5.21.52-1.7,1.06-3.35,1.47-5.09.13-.54.23-1.07.33-1.61v-.08c0-.13,0-.27.03-.4-.21-.53-.03-1.13.44-1.47.55-.65,1.18-1.26,1.78-1.88,1.75-1.86,3.54-3.73,5.3-5.59s3.5-3.71,5.28-5.55c1.73-1.79,3.57-3.42,5.46-5.06,3.47-2.98,7.01-6.1,8.82-10.29.98-2.15,1.25-4.54,1.19-6.9-.04-2.28-.35-4.55-.93-6.76-.1-.34-.21-.63-.28-.99.65.92,1.32,1.84,1.97,2.81,5.22,7.34,9.82,15.07,13.74,23.11,3.93,8.11,7.4,16.43,10.74,24.78.39,1.02.85,2.06,1.25,3.11.04.1.11.18.21.24.05.1.1.19.15.29.26,2.29.28,4.61.08,6.9-.2,2.36-.7,4.69-1.5,6.93-.4,1.12-.89,2.2-1.47,3.24-.52.87-1.06,1.91-1.96,2.47-.44.28-1,.32-1.48.1-.44-.24-.72-.58-.59-1.04.1-.25-.03-.52-.29-.62-.01,0-.03,0-.05,0-.03-.09-.08-.17-.15-.24l-.34-.32c-.52-4.7-1.71-9.3-3.88-13.57-2.22-4.24-5.4-8.13-9.52-10.85-1.03-.65-2.09-1.25-3.18-1.79-.73-.36-.74-.37-.05-.02.01-.31-.24-.57-.56-.58h-.03c-1.16-.07-2.23-.72-3.16-1.38-.52-.34-1.06-.7-1.6-1.02-.6-.34-1.23-.62-1.89-.85-1.37-.53-2.79-.85-4.21-1.23-1.47-.41-2.97-.74-4.47-.99-1.51-.27-3.04-.38-4.58-.32-1.29.07-2.87.19-3.88,1.02-.88.77-.98,2.25.05,2.93.57.36,1.29.29,1.91.51s1.22.53,1.89.7c1.4.51,2.87.1,4.29.41,1.32.3,2.61.68,3.88,1.14,2.32.75,4.59,1.63,6.8,2.64,2.16,1,4.14,2.33,5.85,3.95.9.87,1.67,1.86,2.3,2.93.75,1.21,1.42,2.39,2.28,3.51.9,1.11,1.86,2.13,2.82,3.22.88.99,1.71,2.03,2.48,3.11,1.47,2.13,2.85,4.38,4.6,6.32.23.27.46.53.67.72.52,5.19.21,10.32-.34,15.46-.62,5.74-1.46,11.45-2.53,17.13-2.07,11.36-5.12,22.6-9.8,33.26-.59,1.31-1.19,2.63-1.84,3.93-.11.18-.19.38-.25.58.21.07.36.15.57.22.1.05.18.11.25.19,5.2-10.54,8.69-21.88,11.07-33.31,1.21-5.84,2.17-11.72,2.92-17.66.75-5.77,1.37-11.58,1.06-17.42.75.6,1.97.87,2.9.51,2.02-.85,3.08-3.39,3.88-5.21,1.68-3.9,2.28-8.09,2.25-12.26,1.22,3.05,2.2,6.19,2.92,9.38,1.02,4.6,1.77,9.25,2.25,13.93.52,4.78.88,9.52,1.29,14.29s.96,9.5,1.81,14.2c.9,5.06,2.46,9.98,3.54,15.02.1.44.21.85.28,1.28-.18.17-.21.43-.08.63,5.27,9.74,19.84,8.41,29.1,6.35,2.38-.53,4.71-1.16,7.06-1.86.9-.34,1.84-.66,2.77-.96.12-.04.24-.06.36-.07,3.11-1.04,6.21-2.23,9.24-3.44,2.5-.99,5.02-2.15,6.6-4.41,1.65-2.25,2.02-5.14,2.25-7.8,2.07-23.68,2.48-48.07-4.06-71.04h.03ZM640.82,239.97c-.67-1.02-1.42-2.11-2.22-3.11-.88-1.09-1.75-2.11-2.69-3.11-.91-1.02-1.75-2.09-2.5-3.22-.75-1.14-1.4-2.35-2.25-3.39-1.45-1.8-3.23-3.34-5.25-4.54-2.02-1.23-4.27-2.15-6.5-3-1.09-.44-2.28-.8-3.39-1.16-1.29-.44-2.61-.9-3.93-1.04-.73-.07-1.46-.1-2.2-.07-.65,0-1.29-.1-1.89-.34-.62-.27-1.21-.58-1.89-.63-.31-.05-.65-.05-.98-.1-.2-.05-.31-.15-.33-.27-.1-.35.02-.72.31-.96.42-.33.93-.53,1.47-.58,1.42-.22,2.87-.24,4.29-.07,2.9.29,5.82,1.09,8.56,1.89,1.29.34,2.51.87,3.62,1.57,1.03.61,1.91,1.38,3.08,1.82.49.19,1,.33,1.53.41-.05.07,0,.27.25.36,9.34,4.27,14.33,13.91,15.74,23.28.02.1.02.24.05.34-1.07-1.27-1.98-2.7-2.89-4.08h.01ZM643.36,202.83c-3.75-7.99-7.94-15.87-12.99-23.19-2.33-3.44-4.94-6.88-7.25-10.44-.1-.24-.23-.48-.31-.63-.49-1.01-1.04-1.98-1.66-2.92-.29-.44-.62-.87-.98-1.26-1.27-2.22-2.35-4.53-3.25-6.9-3-7.99-3.75-16.5-5.07-24.88-.65-4.22-1.47-8.43-2.77-12.53-.62-2.03-1.47-4-2.28-5.96-.83-2.01-1.58-4.02-1.66-6.15-.03-.76.05-1.52.25-2.25,1.42,1.24,2.2,2.98,2.79,4.68.9,2.49,1.75,4.99,2.64,7.49,1.75,4.99,3.6,10.04,5.43,15.02,3.67,10.08,7.45,20.08,11.28,30.09,1.89,4.97,3.86,9.93,5.87,14.82,1.95,4.76,4.23,9.39,6.8,13.87,1.29,2.18,2.56,4.43,3.67,6.69,1.11,2.37,2.07,4.8,3,7.29,1.73,4.92,3.39,9.89,4.63,14.95.25.97.46,1.91.64,2.93-2.8-7.01-5.64-13.94-8.8-20.7h0l.02-.02ZM723.44,275.88c-.15,2.83-.34,5.59-.54,8.45-.2,2.76-.25,5.67-1.08,8.38-.98,3.01-3.29,4.78-6.21,6.01-2.87,1.26-5.9,2.33-8.82,3.35-6.23,2.15-12.72,4-19.42,4.58-5.07.48-10.48.14-14.98-2.33-1.88-.99-3.44-2.45-4.53-4.22.03-.1.03-.2,0-.29-.98-5.11-2.59-10.1-3.6-15.14-.93-4.7-1.5-9.45-1.94-14.24-.44-4.8-.83-9.52-1.29-14.32-.52-4.78-1.06-9.47-2.07-14.17-1-4.61-2.44-9.12-4.32-13.47-.1-.22-.21-.44-.31-.61-.52-4.84-1.84-9.62-3.31-14.27-1.66-5.18-3.25-10.39-5.59-15.36-2.3-4.89-5.41-9.42-7.79-14.32-2.48-5.06-4.45-10.29-6.44-15.54-4.09-10.54-8.15-21.15-12.05-31.8-1.94-5.33-3.88-10.63-5.82-15.96-.96-2.69-1.89-5.4-2.87-8.02-.75-2.13-1.37-4.43-2.66-6.32-.57-.86-1.34-1.59-2.25-2.13-.34-.24-.78.03-.9.34-1.53,4.05.52,8.21,2,12.02,1.63,4,2.66,8.14,3.47,12.36,1.6,8.43,2.17,17.03,4.55,25.29.9,3.07,2.08,6.05,3.54,8.92-.1,0-.21,0-.31-.02-.49-.27-1.06-.34-1.6-.22-1.73-.31-3.5-.7-4.71-2.06-.59-.6-.98-1.41-1.32-2.15-.36-.92-.72-1.86-1.06-2.86-.78-2.11-1.58-4.22-2.33-6.32-.36-1.04-.78-2.11-1.19-3.17-.32-1.01-.75-1.99-1.29-2.91-1.03-1.7-2.59-2.93-4.25-3.97-.31-.19-.75-.36-.96-.63-.15-.27.31-.63.44-.85.66-.8,1.28-1.63,1.84-2.5,1.07-1.77,2.02-3.61,2.82-5.5.37-.97.67-1.97.9-2.98.2-1.06.21-2.15.02-3.22-.31-2.18-.77-4.44-1.19-6.64s-.85-4.41-1.25-6.61c-.08-.44-.2-.85-.25-1.26.31-.12.47-.46.34-.76,0-.02-.02-.04-.03-.06-3.21-5.48,3.39-11.15,7.22-14.44,4.91-4.23,10.08-8.18,15.49-11.82,4.97-3.35,10.35-6.52,16.35-7.68,5.95-1.16,11.98.19,17.09,3.27,10.79,6.42,15.75,18.65,19.17,29.75,3.75,12.09,5.61,24.56,7.84,36.97,2.15,11.8,5,23.53,11.74,33.75,3.39,5.18,7.35,9.98,10.49,15.24,2.92,4.87,5.4,9.97,7.42,15.24,8.15,21.48,8.95,44.74,7.79,67.24h0v-.02Z"/>
  <path class="cls-8" d="M629.15,315.73c-5.53,2.87-11.9,4.1-18.18,3.9-6.28-.18-12.41-1.88-17.82-4.94-5.77-3.29-10.36-8.17-13.19-14-1.46-3.02-2.37-6.25-2.69-9.56-.34-3.63.18-7.29,1.14-10.83,1.03-3.78,2.54-7.44,3.96-11.1,1.53-3.85,3.05-7.68,4.58-11.53.36-.92.72-1.84,1.08-2.76.23-.58-.77-.85-1.03-.24-1.53,3.9-3.07,7.81-4.63,11.72-.39.99-.8,1.98-1.19,2.98v-.02c-.05.11-.12.2-.21.29-.15.48-.36.96-.57,1.43-.05.25-.13.49-.23.72-.02.05-.05.1-.08.15-.05.22-.11.44-.18.66.01,0,.03-.01.03-.02h0c-.65,1.7-1.27,3.39-1.84,5.11-1.19,3.66-2.02,7.49-2,11.34.04,3.4.71,6.77,1.97,9.96,1.27,3.22,3.06,6.22,5.3,8.92,2.1,2.5,4.58,4.7,7.35,6.52,2.66,1.72,5.53,3.1,8.56,4.12,3.05,1.01,6.22,1.67,9.44,1.96,3.21.29,6.44.2,9.62-.27s6.27-1.34,9.21-2.59c.72-.32,1.42-.63,2.12-.99.62-.33.07-1.2-.51-.89v-.04Z"/>
  <path class="cls-8" d="M592.13,235.1c-3.21.27-6.44.63-9.66.72h0c-1.04.03-2.11,0-3.14-.06-5.48-.34-10.94-1.65-16.49-1.1-2.8.3-5.41,1.17-7.93,2.28-2.7,1.12-5.37,2.33-8.1,3.52-2.7,1.14-5.37,2.33-8.1,3.52-1.25.53-2.47,1.06-3.67,1.61-.96.42-1.84.99-2.61,1.67-.73.66-1.22,1.52-1.39,2.46-.07.32.13.63.45.72.13.03.26,0,.38-.04.88.49,1.92.54,2.9.37,1.28-.24,2.4-.93,3.58-1.39.93-.35,1.88-.62,2.86-.8-.08-.5.14-1,.57-1.3.02-.03.05-.03.07-.05.02-.05.06-.09.1-.12-1.08.17-2.15.42-3.2.76-1.2.38-2.27,1.05-3.48,1.43-.88.3-1.96.4-2.82-.12.56-1.45,2.23-2.32,3.71-3,2.55-1.11,5.12-2.25,7.73-3.35s5.2-2.28,7.8-3.36c2.53-1.09,5-2.29,7.68-3.09,5.12-1.51,10.52-.62,15.7-.07,2.41.24,4.88.6,7.32.48h0c3.25-.07,6.51-.43,9.74-.72.27,0,.49-.22.5-.48,0-.26-.21-.49-.48-.49h-.02Z"/>
  <path class="cls-8" d="M590.03,246.94c-1.81,1.43-3.75,2.84-6,3.59-1.25.41-2.58.66-3.87.96-.62.14-1.25.31-1.87.39-.67.07-1.35.08-2.03.04l-4.56-.14s-.09,0-.14,0c-.06-.02-.12-.03-.18-.03-.1.03-.21.03-.32,0-.08,0-.16.02-.23.05-1.87-.22-3.75-.35-5.64-.4-1.5-.03-2.91.16-4.15,1.06-.57.47-1.19.89-1.84,1.26-.67.33-1.36.62-2.08.85-1.53.56-3.03,1.17-4.58,1.64-.63.19-1.38.34-2.05.11-.5-.18-.86-.59-.97-1.09-.09-.59.53-1.01.95-1.31.57-.44,1.11-.87,1.73-1.26,1.19-.82,2.44-1.56,3.73-2.21,2.73-1.38,5.66-2.37,8.7-2.94.15.05.31.02.43-.09.03,0,.06,0,.07-.03.27-.08.42-.36.34-.62h0c-.09-.26-.37-.4-.64-.33-.05,0-.1.03-.13.03-1.93-.65-3.9-1.18-5.9-1.59-.07-.25-.35-.4-.62-.33-.05,0-.09.03-.13.06-.05.03-.12.08-.17.1-.61-.13-1.27-.24-1.88-.34-.05-.22-.27-.36-.5-.33-4.03.04-8.02.75-11.79,2.11-1.06.38-2.09.82-3.1,1.3-.23.16-.31.45-.18.7.16.22.46.3.71.18,3.67-1.7,7.62-2.78,11.68-3.18-1.18.45-2.33.91-3.5,1.36s-2.35.88-3.5,1.39c-.98.46-1.91,1.01-2.79,1.64-.84.59-1.69,1.2-2.64,1.51-.51.22-1.07.3-1.61.22-.28-.09-.72-.45-.4-.76.47-.46-.25-1.15-.75-.7-.38.37-.49.92-.29,1.39.21.54.71.93,1.3,1.03,1.14.22,2.4-.29,3.39-.84-.07.34.01.69.23.96.32.39.82.6,1.33.56,1.01.02,2-.48,2.83-.99.57-.36,1.12-.75,1.66-1.16.07.47.37.88.79,1.12.85.48,1.77,0,2.39-.61.71-.66,1.35-1.43,2.06-2.11.71-.67,1.47-1.3,2.27-1.87.75-.56,1.54-1.07,2.36-1.53,1.55.33,3.09.72,4.64,1.16-2.26.56-4.45,1.35-6.54,2.34-1.36.64-2.67,1.38-3.91,2.21-.62.41-1.27.88-1.86,1.34-.54.41-1.19.85-1.55,1.43-.72,1.2.2,2.59,1.41,3.06,1.56.57,3.34-.29,4.79-.8,1.53-.56,3.14-1.05,4.61-1.76.68-.36,1.32-.79,1.91-1.27.58-.46,1.26-.78,2-.92.86-.11,1.74-.13,2.61-.05.96.05,1.9.1,2.87.17,1.95.16,3.9.42,5.82.78.06,0,.13,0,.19,0,.1.03.2.05.3.06.06,0,.12,0,.17-.03h.2c1.39.23,2.8.25,4.2.08,2.65-.37,5.17-1.41,7.54-2.62l.23-.11c.16-.07.32-.15.47-.24l.79-.36c.42-.16.82-.39,1.16-.67.11-.12.16-.28.13-.44.02-.02.04-.04.05-.06.02-.03.04-.06.05-.1l.04-.03c.2-.19.2-.49,0-.68h0c-.05-.05-.11-.09-.18-.11.21-.16.41-.32.62-.48.48-.4-.23-1.08-.72-.68l.04-.05ZM554.18,245c-.2.15-.4.28-.59.44-.02-.16-.12-.29-.26-.37.28-.03.58-.04.86-.07h0ZM548.43,249.22c-1,.7-1.93,1.47-2.95,2.09-.48.22-.98.4-1.5.51-.15.03-1.14.08-.92-.3.14-.21.08-.48-.13-.62-.03-.02-.06-.03-.09-.04.72-.46,1.39-1,2.13-1.42,1.14-.68,2.42-1.11,3.68-1.59,1.2-.45,2.38-.93,3.58-1.39l-3.8,2.75h0ZM552.63,248.33c-.39.38-.79.77-1.18,1.17-.31.36-.63.71-.98,1.04-.22.21-.64.56-1,.43-.18-.05-.5-.33-.34-.48.17-.16.18-.42.03-.6.97-.7,1.93-1.42,2.9-2.09,1.06-.77,2.16-1.57,3.25-2.35.07-.06.14-.13.2-.2.33.06.64.11.97.17-1.38.84-2.67,1.81-3.85,2.9h0Z"/>
  <path class="cls-8" d="M438.81,269.22c-8.16,2.22-16.34,4.44-24.54,6.65-3.97,1.08-7.95,2.18-12.04,2.73-4.1.55-8.25.69-12.37,1.17-7.75.93-15.39,2.49-22.96,4.3-7.67,1.82-15.24,3.85-22.91,5.67s-15.39,3.42-23.24,4.35c-.97.12-1.92.19-2.9.29-.62.07-.65,1.03,0,.96,7.85-.74,15.59-2.18,23.24-3.94,7.7-1.75,15.27-3.78,22.94-5.64,7.67-1.86,15.37-3.59,23.19-4.69,4.02-.57,8.05-.84,12.07-1.2,4.11-.41,8.17-1.17,12.14-2.25,8.2-2.18,16.42-4.45,24.61-6.67,1-.26,2.02-.55,3.02-.84.65-.12.4-1.08-.25-.88h0Z"/>
  <path class="cls-8" d="M592.43,234.19c.05-.07.11-.14.16-.21.29-.46.46-.97.52-1.51,0-.12-.01-.23-.05-.34-.19.69-.4,1.38-.63,2.06Z"/>
  <line class="cls-9" x1="423.84" y1="199.81" x2="509.27" y2="194.36"/>
  <line class="cls-9" x1="438.91" y1="268.67" x2="423.84" y2="199.81"/>
  <line class="cls-9" x1="528.68" y1="253.61" x2="438.91" y2="268.67"/>
  <line class="cls-9" x1="509.27" y1="194.36" x2="528.68" y2="253.61"/>
  <line class="cls-9" x1="429.59" y1="203.47" x2="507.59" y2="198.5"/>
  <line class="cls-9" x1="523.96" y1="249.61" x2="507.59" y2="198.5"/>
  <line class="cls-9" x1="429.59" y1="203.47" x2="443.38" y2="263.12"/>
  <line class="cls-9" x1="523.96" y1="249.61" x2="443.38" y2="263.12"/>
  <line class="cls-8" x1="439.39" y1="269.15" x2="500.12" y2="291.62"/>
  <line class="cls-9" x1="528.68" y1="253.61" x2="581.45" y2="267.21"/>
  <line class="cls-8" x1="500.12" y1="291.62" x2="580.2" y2="273.26"/>
  <line class="cls-9" x1="455.33" y1="271.73" x2="487.56" y2="283.28"/>
  <line class="cls-9" x1="563.56" y1="266.49" x2="487.38" y2="283.3"/>
  <line class="cls-9" x1="455.03" y1="271.63" x2="530.03" y2="257.93"/>
  <line class="cls-9" x1="563.56" y1="266.49" x2="530.03" y2="257.93"/>
  <line class="cls-9" x1="438.76" y1="270.7" x2="499.5" y2="293.17"/>
  <line class="cls-9" x1="499.72" y1="293.17" x2="579.23" y2="275.03"/>
  <line class="cls-9" x1="413.79" y1="264.22" x2="413.09" y2="265.96"/>
  <line class="cls-9" x1="469.12" y1="272.78" x2="530.43" y2="261.14"/>
  <line class="cls-9" x1="475.99" y1="274.93" x2="536.2" y2="263.34"/>
  <line class="cls-9" x1="483.81" y1="277.56" x2="544.5" y2="264.82"/>
  <line class="cls-9" x1="490.2" y1="279.79" x2="550.67" y2="266.97"/>
  <path class="cls-8" d="M413.87,263.77h0c.05-.23-.05-.46-.25-.59-.02-.02-.05-.03-.08-.03l-.17-.08c-.28-.07-.56.08-.64.35-.08.4-.14.83-.2,1.26-.03.19-.03.38-.06.59,0,.11-.03.19-.03.29v.08s-.03.11-.03.16c-.08.26.07.53.33.61h.03c.07.05.16.08.25.08.29,0,.53-.23.53-.51h0c.03-.16.03-.32.06-.48,0-.08.03-.16.03-.24v-.16c.02-.15.06-.31.11-.46.03-.08.06-.13.08-.21.01-.03.02-.05.03-.08,0-.03.03-.05.03-.08.06-.17.05-.35-.03-.51h.01Z"/>
  <path class="cls-8" d="M418.3,256.93c-.09,0-.17.02-.25.05-.26.13-.37.43-.24.68.09.17.27.28.46.28.09,0,.17-.02.25-.05.26-.13.36-.44.23-.69-.09-.16-.26-.27-.45-.27Z"/>
  <path class="cls-8" d="M431.94,266.74c-.07-.11-.18-.18-.31-.19-.07-.03-.15-.05-.22-.05-.62,0-.67.83-.17.99.09.12.24.19.39.19.3,0,.54-.24.53-.52,0-.16-.09-.32-.23-.41h.01Z"/>
  <path class="cls-8" d="M490.28,279.33c-.6,0-.6.91,0,.91s.6-.91,0-.91Z"/>
  <path class="cls-8" d="M476.09,274.45c-.6,0-.6.91,0,.91s.6-.91,0-.91Z"/>
  <path class="cls-8" d="M469.12,272.35c-.6,0-.6.91,0,.91.26,0,.47-.2.47-.45s-.21-.45-.47-.45h0Z"/>
  <path class="cls-8" d="M563.46,266.04h-.1c-.6,0-.6.91,0,.91h.1c.26,0,.47-.2.47-.45s-.21-.45-.47-.45h0Z"/>
  <path class="cls-8" d="M550.52,266.54c-.6,0-.6.91,0,.91s.6-.91,0-.91Z"/>
  <path class="cls-8" d="M544.37,264.39c-.6,0-.6.91,0,.91s.6-.91,0-.91Z"/>
  <path class="cls-8" d="M535.98,262.93c-.6,0-.6.91,0,.91s.6-.91,0-.91Z"/>
  <path class="cls-4" d="M482.53,228.16l1.39-1.15c.47-.41.5-1.1.07-1.55-.14-.14-.31-.25-.51-.31l-7.47-2.03c-.59-.16-1.2.16-1.37.72-.05.17-.06.34-.02.51l1.58,6.89c.12.56.7.92,1.29.8.19-.04.37-.13.51-.25l1.17-.99"/>
  <line class="cls-1" x1="448.75" y1="257.74" x2="478.09" y2="252.84"/>
  <ellipse class="cls-10" cx="477.13" cy="252.84" rx="2.53" ry="2.41"/>
  <path class="cls-5" d="M570.18,255.32c-2.95.93-5.9,1.86-8.84,2.77-.57.19-.32,1.05.25.86,2.95-.93,5.9-1.86,8.84-2.77.57-.17.32-1.05-.25-.86h0Z"/>
  <path class="cls-5" d="M579.15,261.09c-1.6.48-3.2.93-4.77,1.41-.57.17-.32,1.03.25.86,1.6-.48,3.2-.93,4.77-1.41.57-.14.32-1.04-.25-.86Z"/>
  <path class="cls-5" d="M575.68,255.61c-1.98,2.08-4.38,3.74-7.06,4.9-.57.24-.16,1.06.39.81,2.82-1.22,5.35-3,7.43-5.2.14-.21.08-.48-.12-.63-.22-.11-.49-.06-.64.13h0Z"/>
  <path class="cls-8" d="M776.94,294.76c-11.96,2.22-22.42,8.65-31.48,16.23-4.7,3.94-8.98,8.25-13.32,12.54-4.55,4.5-9.46,8.52-15.95,10.08-6.61,1.59-13.56,1.01-20.3.68l-22.49-1.11-44.77-2.2c-12.11-.6-27.42-1.1-34.48-12.31-.73-1.16-1.3-2.4-1.72-3.69-.19-.59-1.15-.34-.96.25,1.65,5.13,5.73,9.14,10.55,11.73,5.73,3.08,12.36,4.06,18.83,4.54,7.43.54,14.9.78,22.34,1.15l22.85,1.12,22.85,1.13c7.08.35,14.29,1.07,21.37.55,3.25-.24,6.51-.8,9.56-1.96,2.91-1.1,5.52-2.74,7.91-4.65,4.9-3.92,8.99-8.7,13.6-12.93,8.96-8.26,19.24-15.83,31.34-19.2,1.49-.41,3-.76,4.52-1.04.64-.12.37-1.05-.25-.93v.02Z"/>
  <path class="cls-8" d="M782.52,36.27c-25.36-7.96-50.91-15.88-77.32-19.67-25.42-3.65-50.84-2.6-75.67,4.28-23.97,6.64-45.91,17.92-68.21,28.68-22.89,11.08-46.63,20.69-72.55,20.55-27.23-.16-54.3-7.96-80.7-13.81-26.54-5.89-53.11-11.81-79.78-17.17-52.09-10.49-104.74-18.98-157.92-20.78-25.72-.86-51.76-.56-77.32,2.73-21.47,2.73-43.18,8.06-61.83,19.47-4.41,2.7-8.59,5.73-12.53,9.08-.33.26.13.72.46.46,17.79-15,40.12-22.69,62.75-26.67,24.7-4.31,50.15-5.03,75.18-4.7,53.34.69,106.32,8.45,158.61,18.65,26.21,5.1,52.29,10.82,78.37,16.57,25.22,5.59,50.58,12.43,76.26,15.62,12.5,1.55,25.13,1.84,37.56-.23,11.74-1.91,23.12-5.72,34.1-10.29,22.63-9.37,43.8-21.84,66.73-30.62,24.43-9.31,49.92-14.44,76.1-13.15,26.8,1.32,52.95,8.09,78.5,15.82,6.31,1.91,12.6,3.85,18.91,5.85.56.1.76-.53.3-.66h0Z"/>
  <path class="cls-8" d="M196.36,50.37c-9.08-3.19-18.15-6.35-27.46-8.88-9.18-2.5-18.58-4.31-28.05-4.83-9.34-.49-18.68.43-27.82,2.3-9.24,1.91-18.25,4.77-27.07,8.09s-17.5,7.17-26.11,11.02c-1.05.46-2.14.95-3.16,1.41-.39.16-.07.72.33.56,8.65-3.88,17.27-7.76,26.11-11.21,8.68-3.39,17.53-6.41,26.61-8.52s18.42-3.35,27.76-3.19c9.5.13,18.91,1.74,28.12,4.08s18.28,5.39,27.3,8.55l3.35,1.18c.33.23.49-.43.1-.56h0Z"/>
  <path class="cls-8" d="M495.54,63.88c-18.58-4.35-37.53-6.96-56.6-7.79-19.34-.79-38.54.69-57.65,3.49-19.27,2.83-38.41,6.58-57.81,8.55-18.65,1.9-37.44,1.82-56.07-.23-18.7-2.08-37.12-6.15-54.95-12.14-2.2-.76-4.44-1.51-6.64-2.33-.39-.16-.56.49-.16.62,17.52,6.4,35.66,10.93,54.13,13.52,18.33,2.57,36.88,3.21,55.35,1.91,19.3-1.38,38.28-4.9,57.35-7.89,19.27-3.06,38.58-5.26,58.11-5.06,19.4.27,38.73,2.43,57.72,6.45,2.37.49,4.7,1.02,7.07,1.55.39.13.56-.53.16-.62v-.03Z"/>
  <path class="cls-7" d="M739.15,28.69c-48.8,4.08-97.18-5.39-145.85-7.07-48.34-1.68-96.69,3.72-144.08,12.99-24.34,4.77-48.47,10.82-73.07,14.11-23.88,3.19-48.06,3.55-72.02,1.05-47.72-5-91.65-23.84-137.33-37.16C126.25.77,81.29-6.27,40.45,8.3c-4.62,1.67-9.15,3.6-13.55,5.79-.39.2-.03.76.33.56C67.41-5.21,114.34-.84,156.37,10.37c44.96,12,87.81,31.28,134.05,38.31,23.37,3.52,47.06,4.31,70.61,2.37,23.84-2.01,47.23-7.2,70.61-12.14,47.69-10.1,96.16-17,145-16.9,48.31.1,96.19,9.44,144.54,8.32,5.99-.13,11.97-.46,17.96-.95.46-.1.46-.76.03-.69h-.02Z"/>
  <path class="cls-7" d="M618.39,43.89c9.6,1.38,18.88,4.24,27.99,7.43s18.15,6.81,27.39,9.7c9.01,2.8,18.32,5,27.79,5.33,8.99.3,17.97-.9,26.57-3.55,8.51-2.63,16.53-6.67,23.71-11.94.89-.66,1.81-1.35,2.66-2.07.33-.26-.1-.76-.43-.49-7,5.62-14.91,10-23.38,12.96-8.52,2.99-17.48,4.51-26.51,4.51-9.47-.03-18.75-1.94-27.79-4.64-9.18-2.73-18.09-6.22-27.1-9.47-8.91-3.19-17.99-6.18-27.33-7.89-1.18-.2-2.37-.39-3.55-.56-.43-.03-.46.62-.03.69h.01Z"/>
  <path class="cls-8" d="M448.47,70.7h-1.55c-.17,0-.34.07-.46.2s-.19.29-.2.46c0,.36.29.66.66.66h1.55c.17,0,.34-.07.46-.2s.19-.29.2-.46c-.01-.36-.3-.65-.66-.66Z"/>
  <path class="cls-6" d="M787.48,167.59c-4.32.2-8.65-2.7-10.15-6.75-.85-2.7-1.09-4.49-.23-7.21,1.29-4.52,5.82-7.63,10.37-7.43,6.91.47,11.47,7.87,8.88,14.62-.22.9-1.28,2.26-2.18,3.37-1.29,1.58-2.18,2.05-3.89,2.68-.81.26-2.36.74-2.79.72h-.01ZM792.26,164.24c6.07-4.72,3.89-15.06-3.47-16.65-4.1-.88-8.22,1.34-10.18,5.17-3.03,6.51,1.96,13.72,9.09,13.49,1.51,0,3.04-.7,4.56-2.02h0Z"/>
  <path class="cls-8" d="M794.67,167.9c-4.33.2-8.65-2.7-10.15-6.75-.85-2.7-1.09-4.49-.23-7.21,1.28-4.52,5.82-7.63,10.36-7.43,6.91.47,11.47,7.87,8.88,14.62-.22.9-1.28,2.26-2.18,3.38-1.29,1.57-2.18,2.04-3.89,2.67-.83.27-2.36.74-2.79.72ZM799.44,164.55c6.07-4.72,3.89-15.06-3.47-16.65-4.1-.88-8.22,1.34-10.15,5.17-3.03,6.5,1.96,13.72,9.09,13.49,1.51,0,3.04-.69,4.56-2.02h-.03Z"/>
  <path class="cls-8" d="M736.64,49.3c-5.07,3.45-10.68,6.05-16.6,7.68-5.89,1.62-12,2.29-18.1,1.98-6.2-.33-12.23-1.76-18-4.01-5.91-2.31-11.54-5.37-17.07-8.42s-11.06-6.13-16.88-8.58c-.69-.31-1.38-.57-2.1-.86-.29-.12-.41.33-.12.45,5.99,2.34,11.66,5.44,17.26,8.51s11.16,6.2,17.07,8.66c5.72,2.38,11.71,4.05,17.88,4.58,6.08.52,12.21.07,18.15-1.34,5.96-1.39,11.66-3.75,16.86-6.99.64-.38,1.29-.83,1.88-1.24.26-.19.02-.6-.24-.43h0Z"/>
  <path class="cls-8" d="M12.98,31.68c-3.03-.41-5.32-1.93-7.32-4.72-.12-.16-.08-.39.08-.51s.39-.08.51.08c0,.01.02.03.03.04,3.55,5.2,9.09,6.15,15.83,2.67,2.36-1.31,4.32-1.93,5.94-2.1.69-.06,1.38,0,2.05.19-1.29-1.31-3.74-3.15-6.56-4.55-4.51-2.03-8.16-2.03-11.23.17,0,0-.24-.05-.5-.12,0,0,.05-.24.12-.5,1.75-1.15,3.78-1.79,5.87-1.86,2.05.15,4.05.68,5.91,1.55,3.77,1.86,6.82,4.6,7.65,5.58,0,0,.19.31-.05.24-.05.24-.31.19-.31.19-1.69-.62-3.67-1.05-8.66,1.5-3.22,1.65-5.99,2.34-8.51,2.05-.26.14-.57.18-.86.1h0Z"/>
  <path class="cls-8" d="M6.56,26.39c-2.05-.19-4.22-.93-6.37-1.91-.24-.05-.19-.31-.19-.31.05-.24.31-.19.31-.19,6.39,2.96,11.3,1.93,15.86,1.36,3-.64,5.96-1.05,8.89-.14.24.05.19.31.19.31-.05.24-.31.19-.31.19-2.67-.83-5.39-.38-8.63.21-3,.64-6.2.98-9.75.48Z"/>
  <path class="cls-8" d="M507.02,43.14c-2.89,1-4.84,2.93-6.25,6.06-.07.19.02.4.21.48s.4-.02.48-.21c2.46-5.79,7.7-7.8,15-5.72,2.58.81,4.6,1.05,6.22.88.69-.08,1.36-.29,1.98-.6-1,1.53-3.05,3.82-5.53,5.75-4.03,2.86-7.61,3.58-11.04,2.05l-.48.21s.1.21.21.48c1.94.77,4.05,1.01,6.1.67,1.97-.55,3.83-1.46,5.48-2.67,3.34-2.55,5.79-5.84,6.41-6.96,0,0,.12-.33-.1-.21-.06-.12-.21-.17-.33-.12-1.55.93-3.39,1.74-8.78.24-3.48-.98-6.32-1.12-8.75-.33-.27-.13-.59-.12-.86.02l.03-.02Z"/>
  <path class="cls-8" d="M501.78,49.58c-1.98.6-3.96,1.74-5.87,3.12-.13.06-.18.21-.12.33s.21.18.33.12c5.68-4.15,10.71-4.1,15.28-4.44,3.08.05,6.06-.14,8.75-1.6.13-.06.18-.21.12-.33s-.21-.18-.33-.12h0c-2.46,1.34-5.2,1.43-8.51,1.48-3.08-.07-6.27.24-9.66,1.43h.01Z"/>
  <path class="cls-8" d="M143.62,360.35c-.25,0-.45.2-.45.45s.2.45.45.45.45-.2.45-.45-.2-.45-.45-.45Z"/>
  <ellipse class="cls-10" cx="356.77" cy="173.17" rx="10.2" ry="10.6"/>
  <path class="cls-8" d="M347.28,162.68c4.25-.15,8.48,2.74,9.92,6.75.81,2.67,1.03,4.43.15,7.1-1.31,4.43-5.82,7.45-10.27,7.2-6.8-.53-11.2-7.85-8.58-14.47.23-.88,1.28-2.22,2.16-3.3,1.28-1.54,2.16-1.99,3.85-2.59.83-.25,2.34-.7,2.77-.68h0ZM342.55,165.92c-6.02,4.58-3.98,14.78,3.25,16.41,4.03.91,8.11-1.23,10.04-4.98,3.05-6.37-1.79-13.52-8.79-13.37-1.49,0-3,.65-4.51,1.94h.01Z"/>
  <circle class="cls-6" cx="372.38" cy="199.79" r="8.77"/>
  <path class="cls-8" d="M366.93,190.11c3.72-.05,7.12,2.55,8.27,6.11.74,2.23.69,3.77-.05,5.93-1.28,3.67-5.37,6.11-9.28,5.48-5.66-.72-9.3-7.07-6.83-12.41.49-.99,1.21-1.86,2.1-2.53,1.17-1.28,1.83-1.67,3.4-2.02.75-.36,1.56-.55,2.39-.56h0ZM362.63,192.5c-5.45,3.46-4.12,12.09,2.18,13.74,3.42.83,6.99-.69,8.74-3.75,2.92-5.37-.96-11.48-6.91-11.32-1.45-.05-2.88.42-4.01,1.33h0Z"/>
  <path class="cls-5" d="M547.14,288.91c-.1-.31-.42-.48-.73-.41-7,2.87-14.12,5.4-21.36,7.59-2.08.62-4.13,1.23-6.24,1.79-.73.21-.41,1.32.32,1.14,7.3-1.99,14.5-4.34,21.56-7.03,2.02-.76,4.04-1.55,6.04-2.37.3-.08.49-.38.41-.69h0v-.02Z"/>
  <path class="cls-8" d="M777.63,230.02c-.34,0-.62.28-.62.62s.28.62.62.62.62-.28.62-.62-.28-.62-.62-.62Z"/>
  <path class="cls-8" d="M739.54,172.22c-.34,0-.62.28-.62.62s.28.62.62.62.62-.28.62-.62-.28-.62-.62-.62Z"/>
  <path class="cls-8" d="M760.32,251.7c-.34,0-.62.28-.62.62s.28.62.62.62.62-.28.62-.62-.28-.62-.62-.62Z"/>
  <path class="cls-8" d="M717,172.56c-.09-.33-.43-.53-.76-.44h-.02c-.71.25-1.46.5-2.17.71-.33.1-.52.44-.43.77s.43.53.76.44h.02l2.17-.71c.33-.1.52-.44.43-.77Z"/>
  <path class="cls-8" d="M722.08,160.01l-.71-.71c-.05-.05-.12-.09-.19-.12-.08-.04-.16-.06-.25-.06s-.18,0-.25.06c-.06.03-.15.06-.19.12-.11.12-.17.27-.19.43,0,.16.07.32.19.43l.71.71c.05.05.12.09.19.12.08.04.16.06.25.06s.18,0,.25-.06c.06-.03.15-.06.19-.12.11-.12.17-.27.19-.43,0-.16-.07-.32-.19-.43Z"/>
  <path class="cls-8" d="M757.01,269.44c-.11-.12-.27-.18-.43-.19h-.71c-.09,0-.18.01-.25.06-.06.03-.15.06-.19.12-.05.05-.09.12-.12.19-.04.08-.06.16-.06.25,0,.16.06.32.19.43.11.12.27.18.43.19h.71c.09,0,.18-.01.25-.06.06-.03.15-.06.19-.12.05-.05.09-.12.12-.19.04-.08.06-.16.06-.25-.02-.16-.08-.31-.19-.43Z"/>
  <path class="cls-8" d="M365.36,161c-.03-.07-.07-.17-.14-.2-.13-.12-.3-.19-.47-.2-.18,0-.35.08-.47.2l-.78.78c-.06.06-.1.13-.14.2-.04.08-.07.18-.07.27-.01.1.01.19.07.27.03.07.07.17.14.2.13.12.3.19.47.2.18,0,.35-.08.47-.2l.78-.78c.06-.06.1-.13.14-.2.09-.17.09-.37,0-.54h0Z"/>
  <path class="cls-8" d="M372.77,214.01c-.37,0-.68.3-.68.68s.3.68.68.68.68-.3.68-.68-.3-.68-.68-.68Z"/>
  <path class="cls-8" d="M373.29,237.94c-.09-.35-.45-.56-.8-.46h-.02c-.75.26-1.54.52-2.29.75-.35.11-.55.47-.46.82s.45.56.8.46h.02l2.29-.75c.35-.11.55-.47.46-.82Z"/>
  <path class="cls-8" d="M464.17,115.3c-.32,0-.57.26-.57.57s.26.57.57.57.57-.26.57-.57-.26-.57-.57-.57Z"/>
  <path class="cls-8" d="M436.23,167.9c-.12-.13-.29-.2-.47-.2h-.78c-.1,0-.19,0-.27.07-.07.03-.17.07-.2.14-.06.06-.1.13-.14.2-.04.08-.07.18-.07.27,0,.18.07.35.2.47.12.13.29.2.47.2h.78c.1,0,.19,0,.27-.07.07-.03.17-.07.2-.14.06-.06.1-.13.14-.2.04-.08.07-.18.07-.27-.02-.17-.09-.34-.2-.47Z"/>
  <path class="cls-8" d="M818.39,254.6c-.36,0-.65.29-.65.65s.29.65.65.65c.82,0,.82-1.31,0-1.31h0Z"/>
  <path class="cls-8" d="M801.04,242.26c-.36,0-.65.29-.65.65s.29.65.65.65.65-.29.65-.65-.29-.65-.65-.65Z"/>
  <path class="cls-8" d="M820.15,247.5c-.12-.12-.29-.19-.46-.2h-.75c-.09,0-.18,0-.26.07-.07.03-.16.07-.2.13-.05.06-.1.12-.13.2-.04.08-.06.17-.07.26,0,.17.07.34.2.46.12.12.29.19.46.2h.75c.09,0,.18,0,.26-.07.07-.03.16-.07.2-.13.05-.06.1-.12.13-.2.04-.08.06-.17.07-.26-.02-.17-.08-.33-.2-.46Z"/>
  <path class="cls-6" d="M339.41,207.19c-3.25.15-6.51-2.03-7.64-5.08-.64-2.04-.82-3.38-.17-5.43.97-3.4,4.38-5.74,7.8-5.59,5.2.35,8.63,5.92,6.68,11-.17.68-.96,1.7-1.64,2.54-.97,1.19-1.64,1.54-2.92,2.02-.61.2-1.78.56-2.1.54h0ZM343,204.67c4.57-3.56,2.93-11.34-2.61-12.53-3.09-.66-6.19,1.01-7.66,3.89-2.28,4.9,1.47,10.33,6.84,10.16,1.14,0,2.29-.53,3.43-1.52h0Z"/>
  <path class="cls-8" d="M344.82,207.43c-3.26.15-6.51-2.03-7.64-5.08-.64-2.04-.82-3.38-.17-5.43.97-3.4,4.38-5.74,7.8-5.59,5.2.35,8.63,5.92,6.68,11-.17.68-.97,1.7-1.64,2.54-.97,1.18-1.64,1.54-2.93,2.01-.62.2-1.78.56-2.1.54h0ZM348.41,204.91c4.57-3.56,2.92-11.34-2.62-12.53-3.09-.66-6.19,1.01-7.64,3.89-2.28,4.89,1.47,10.33,6.84,10.15,1.14,0,2.29-.52,3.43-1.52h-.01,0Z"/>
  <path class="cls-5" d="M433.92,282.03c-5.21,1.63-10.52,2.91-15.86,4.01-5.34,1.11-10.72,2-16.08,2.89-5.4.89-10.8,1.74-16.18,2.71-5.32.98-10.63,2.06-15.86,3.45-5.25,1.35-10.4,3.07-15.4,5.14l-1.82.78c-.48.22-.07.91.41.69,4.97-2.16,10.09-3.95,15.32-5.36,5.21-1.43,10.5-2.58,15.82-3.58s10.67-1.87,16.03-2.73c5.36-.87,10.76-1.76,16.1-2.82s10.63-2.26,15.84-3.8c.65-.2,1.3-.39,1.93-.59.48-.17.26-.95-.24-.8h-.01Z"/>
  <path class="cls-5" d="M455.42,286.35c-4.58,1.91-9.28,3.51-14.08,4.79-4.79,1.32-9.65,2.39-14.54,3.38-4.88,1-9.76,1.89-14.64,2.84s-9.76,1.97-14.58,3.21c-4.82,1.2-9.56,2.7-14.19,4.49-.56.22-1.15.46-1.71.69-.48.2-.26.98.22.78,4.6-1.86,9.31-3.43,14.1-4.71,4.82-1.3,9.68-2.34,14.56-3.32s9.76-1.87,14.64-2.84c4.88-.98,9.76-2,14.58-3.25,4.81-1.23,9.53-2.76,14.15-4.58.33-.13.65-.26,1-.41-.33.85-.82,1.63-1.43,2.3-.78.89-1.63,1.74-2.47,2.56-1.65,1.61-3.41,3.15-5.21,4.58-3.64,2.87-7.52,5.44-11.59,7.68-4.11,2.27-8.35,4.29-12.69,6.05-3.86,1.58-7.77,2.99-11.72,4.34-2.08.35-4.14.74-6.2,1.19-3.75.85-7.46,2.02-10.74,4.06-.39.24-.13.89.3.74,4.6-1.35,9.18-2.71,13.73-4.19,1.04-.33,2.06-.67,3.1-1.02,1.06-.17,2.13-.35,3.21-.52,7.46-1.19,14.99-2.08,22.5-2.86,4.23-.43,8.48-.85,12.71-1.24.52-.04.52-.87,0-.82-7.61.72-15.23,1.43-22.82,2.36-3.73.46-7.46.95-11.17,1.54,2.02-.72,4.04-1.48,6.03-2.28,4.42-1.74,8.73-3.73,12.91-5.97,4.15-2.2,8.11-4.74,11.85-7.59,1.87-1.43,3.64-2.93,5.36-4.53.87-.8,1.71-1.65,2.52-2.49s1.67-1.76,2.21-2.8c.28-.51.47-1.07.56-1.65.09-.28-.15-.65-.46-.52h0ZM397.47,318.8c1.7-.66,3.44-1.21,5.21-1.63.15-.04.3-.07.48-.11-1.91.59-3.8,1.17-5.68,1.74h-.01Z"/>
  <path class="cls-5" d="M478.5,293.81c-3.8,1.82-7.81,3.12-11.85,4.32s-8.11,2.23-12.13,3.51c-2.26.74-4.51,1.54-6.68,2.47-.19.12-.25.37-.15.56.12.2.37.26.56.15,3.86-1.67,7.92-2.89,11.95-4.04,4.04-1.15,8.11-2.21,12.08-3.6,2.24-.77,4.45-1.66,6.6-2.67.5-.24.09-.95-.39-.72v.02Z"/>
  <path class="cls-5" d="M492.31,299.73c-3.99,1.48-7.98,2.93-11.98,4.36-4.01,1.43-8.01,2.84-12.04,4.23s-8.05,2.76-12.08,4.08c-4.04,1.32-8.07,2.65-12.13,3.95s-8.11,2.56-12.17,3.8c-.5.15-1,.3-1.52.46s-.28.93.22.78c4.08-1.24,8.14-2.49,12.19-3.77s8.09-2.59,12.13-3.93c4.04-1.32,8.07-2.69,12.08-4.06s8.03-2.78,12.04-4.21,8.01-2.89,12-4.36c.5-.17,1-.37,1.48-.54s.25-.98-.22-.78h0Z"/>
  <path class="cls-5" d="M388.88,314.17c-.06-.25-.29-.31-.52-.29-4.24.61-8.44,1.35-12.61,2.22-4.17.87-8.3,1.9-12.38,3.06-2.31.65-4.62,1.36-6.9,2.1-.5.17-.29.99.23.82,4.05-1.32,8.16-2.52,12.3-3.57s8.29-1.95,12.47-2.71c2.37-.42,4.74-.82,7.11-1.15.2-.02.35-.2.33-.41,0-.03,0-.05-.02-.07h-.01Z"/>
  <path class="cls-5" d="M403.23,296.95c-.07-.24-.32-.38-.56-.32-1.31.49-2.63.95-3.94,1.43-.24.06-.38.31-.32.55h0c.07.24.32.38.56.32,1.31-.49,2.63-.95,3.94-1.43.24-.07.37-.32.32-.56h0Z"/>
  <path class="cls-8" d="M373.14,333.07h-1.11c-.13,0-.25.05-.33.14-.08.09-.13.21-.14.33,0,.26.21.47.47.47h1.11c.13,0,.25-.05.33-.14.08-.09.13-.21.14-.33,0-.26-.21-.47-.47-.47Z"/>
  <path class="cls-5" d="M465.72,292.53c-.06-.21-.28-.34-.49-.28h0c-3.51,1.48-7.03,2.97-10.57,4.45,1.67-2.4,3.7-4.53,6.01-6.31.19-.12.25-.37.15-.56-.12-.19-.37-.25-.56-.15-2.78,2.13-5.16,4.74-7.03,7.7-.17.28.13.74.46.61,3.91-1.65,7.83-3.3,11.74-4.95.21-.06.35-.28.3-.5h0Z"/>
  <path class="cls-8" d="M332.7,36.59c.22,0,.39-.18.39-.39s-.18-.39-.39-.39-.39.18-.39.39.18.39.39.39Z"/>
  <path class="cls-8" d="M295.21,18.91c-.29,0-.52.23-.52.52s.23.52.52.52.52-.23.52-.52-.23-.52-.52-.52Z"/>
  <path class="cls-8" d="M276.81,73.49c-.29,0-.52.23-.52.52s.23.52.52.52c.65,0,.65-1.04,0-1.04Z"/>
  <path class="cls-8" d="M728.76,140.02c-.29,0-.52.23-.52.52s.23.52.52.52c.65,0,.65-1.04,0-1.04h0Z"/>
  <path class="cls-8" d="M749.29,150.6c-.03-.05-.05-.13-.1-.16-.1-.09-.23-.14-.36-.16-.14,0-.27.06-.36.16l-.6.6s-.08.1-.1.16c-.03.06-.05.14-.05.21s.01.15.05.21c.03.05.05.13.1.16.1.09.23.14.36.16.14,0,.27-.06.36-.16l.6-.6s.08-.1.1-.16c.07-.13.07-.29,0-.42h0Z"/>
  <path class="cls-8" d="M314.14,47.97c-.29,0-.52.23-.52.52s.23.52.52.52.52-.23.52-.52-.23-.52-.52-.52Z"/>
  <path class="cls-8" d="M717.25,147.86c-.29,0-.52.23-.52.52s.23.52.52.52.52-.23.52-.52-.23-.52-.52-.52Z"/>
  <path class="cls-8" d="M282.33,38.9c-.16-.65-1.17-.44-1.02.23s1.17.42,1.02-.23Z"/>
  <path class="cls-8" d="M278.01,20.45c.25-.12.35-.42.23-.67,0-.01-.01-.03-.02-.04-.34-.55-.68-1.09-.96-1.64-.14-.25-.45-.34-.7-.21-.25.12-.35.42-.23.67,0,.01.01.03.02.04l.96,1.64c.15.23.45.32.7.21Z"/>
  <path class="cls-8" d="M271,98.6c-.27-.16-.62-.08-.78.19s-.08.62.19.78.62.08.78-.19.08-.62-.19-.78Z"/>
  <path class="cls-8" d="M546.26,107.79c-.27-.16-.62-.08-.78.19s-.08.62.19.78.62.08.78-.19.08-.62-.19-.78Z"/>
  <path class="cls-8" d="M491.14,147.16c-.27-.16-.62-.08-.78.19s-.08.62.19.78.62.08.78-.19.08-.62-.19-.78Z"/>
  <path class="cls-8" d="M528.32,97.27c.09-.3-.09-.62-.39-.71h-.01c-.68-.15-1.38-.31-2.05-.48-.31-.08-.62.1-.71.4s.09.62.39.71h.01l2.05.48c.31.08.62-.1.71-.4Z"/>
  <path class="cls-8" d="M555.64,88.84l-.24-.98c-.02-.07-.05-.14-.09-.2-.05-.07-.11-.14-.18-.18-.07-.05-.16-.08-.24-.08-.07,0-.16-.03-.22,0-.15.05-.29.15-.38.27-.08.14-.11.31-.07.47l.24.98c.02.07.05.14.09.2.05.07.11.14.18.18.07.05.16.08.24.08.07,0,.16.03.22,0,.15-.05.29-.15.38-.27.08-.14.11-.31.07-.47Z"/>
  <path class="cls-8" d="M480.04,159.57c-.03-.15-.13-.27-.25-.35l-.56-.34c-.06-.05-.14-.07-.22-.07-.06,0-.15-.03-.21,0-.07.02-.13.05-.19.09-.07.04-.12.1-.17.17-.08.13-.1.29-.06.43.03.15.13.27.25.35l.56.34c.06.05.14.07.22.07.06,0,.15.03.21,0,.07-.02.13-.05.19-.09.07-.04.12-.1.17-.17.06-.13.09-.28.06-.43Z"/>
  <path class="cls-8" d="M287.67,123.89c-.28-.17-.66-.08-.83.2s-.08.66.2.83c.64.39,1.27-.64.63-1.03h0Z"/>
  <path class="cls-8" d="M283.59,119.45c-.28-.17-.66-.08-.83.2s-.08.66.2.83.66.08.83-.2.08-.66-.2-.83Z"/>
  <path class="cls-8" d="M292.45,119.14c-.04-.15-.13-.29-.27-.37l-.59-.36c-.07-.05-.15-.08-.24-.07-.07,0-.16-.03-.22,0-.07.02-.14.05-.2.09-.07.04-.13.1-.18.17-.09.13-.11.3-.06.45.04.15.13.29.27.37l.59.36c.07.05.15.08.24.07.07,0,.16.03.22,0,.07-.02.14-.05.2-.09.07-.04.13-.1.18-.17.07-.14.09-.3.06-.45Z"/>
  <path class="cls-8" d="M553.16,77.24c-.23-.14-.52-.07-.66.16s-.07.52.16.66c.51.31,1.01-.51.5-.82Z"/>
  <path class="cls-8" d="M586.83,73.11c0-.06.02-.14,0-.19-.04-.13-.12-.24-.23-.32-.12-.07-.26-.09-.39-.06l-.82.2c-.06.02-.12.04-.17.08-.06.04-.11.09-.15.15-.04.06-.07.13-.06.21,0,.06-.02.14,0,.19.04.13.12.24.23.32.12.07.26.09.39.06l.82-.2c.06-.02.12-.04.17-.08.13-.08.21-.21.22-.36h0Z"/>
  <path class="cls-8" d="M557.82,75.95c-.25-.15-.57-.07-.72.18s-.07.57.18.72.57.07.72-.18.07-.57-.18-.72Z"/>
  <path class="cls-8" d="M296.02,259.02c-.34,0-.62.28-.62.62s.28.62.62.62.62-.28.62-.62-.28-.62-.62-.62Z"/>
  <path class="cls-8" d="M307.66,213.19c-.34,0-.62.28-.62.62s.28.62.62.62.62-.28.62-.62-.28-.62-.62-.62Z"/>
  <path class="cls-8" d="M254.08,214.07c-.08-.29-.38-.46-.67-.39h0c-.63.22-1.28.44-1.91.63-.29.09-.46.39-.38.68s.38.46.67.39h0l1.91-.63c.29-.09.46-.39.38-.68Z"/>
  <path class="cls-8" d="M258.31,177.7l-.63-.63s-.1-.08-.16-.11c-.07-.03-.14-.05-.22-.05s-.15,0-.22.05c-.05.03-.14.05-.16.11-.09.11-.15.24-.16.38,0,.14.06.28.16.38l.63.63s.1.08.16.11c.07.03.14.05.22.05s.15,0,.22-.05c.05-.03.14-.05.16-.11.09-.11.15-.24.16-.38,0-.14-.06-.28-.16-.38Z"/>
  <path class="cls-8" d="M296.88,180.99c-.29,0-.52.23-.52.52s.23.52.52.52c.65,0,.65-1.04,0-1.04h0Z"/>
  <path class="cls-8" d="M254.06,166.99c-.25,0-.46.21-.46.46s.21.46.46.46.46-.21.46-.46-.21-.46-.46-.46Z"/>
  <path class="cls-8" d="M93.83,65.48c0-.34-.28-.62-.62-.62s-.62.28-.62.62.28.62.62.62.62-.28.62-.62Z"/>
  <path class="cls-8" d="M160.99,71.89c.33-.09.53-.43.44-.76v-.02c-.25-.71-.5-1.46-.71-2.17-.1-.33-.44-.52-.77-.43s-.53.43-.44.76v.02l.71,2.17c.1.33.44.52.77.43Z"/>
  <path class="cls-8" d="M202.24,76.69l.71-.71c.05-.05.09-.12.12-.19.04-.08.06-.16.06-.25s0-.18-.06-.25c-.03-.06-.06-.15-.12-.19-.12-.11-.27-.17-.43-.19-.16,0-.32.07-.43.19l-.71.71c-.05.05-.09.12-.12.19-.04.08-.06.16-.06.25s0,.18.06.25c.03.06.06.15.12.19.12.11.27.17.43.19.16,0,.32-.07.43-.19Z"/>
  <path class="cls-8" d="M76.08,62.17c.12-.11.18-.27.19-.43v-.71c0-.09-.01-.18-.06-.25-.03-.06-.06-.15-.12-.19-.05-.05-.12-.09-.19-.12-.08-.04-.16-.06-.25-.06-.16,0-.32.06-.43.19-.12.11-.18.27-.19.43v.71c0,.09.01.18.06.25.03.06.06.15.12.19.05.05.12.09.19.12.08.04.16.06.25.06.16-.02.31-.08.43-.19Z"/>
  <path class="cls-8" d="M193.53,83.65c0-.29-.23-.52-.52-.52s-.52.23-.52.52c0,.65,1.04.65,1.04,0h0Z"/>
  <path class="cls-8" d="M214.39,71.86c0-.29-.23-.52-.52-.52s-.52.23-.52.52.23.52.52.52.52-.23.52-.52Z"/>
  <path class="cls-7" d="M440.83,24.52c-8.26,2.44-16.84,3.57-25.45,3.34-8.74-.18-17.44-1.27-25.95-3.23-8.49-1.98-16.88-4.39-25.12-7.24-8.3-2.84-16.48-5.9-24.78-8.85-8.3-2.95-16.65-5.62-25.23-7.8-1.06-.28-2.12-.56-3.17-.72-.67-.17-1,.89-.28,1.06,8.61,2.07,17.1,4.58,25.45,7.52,8.41,2.9,16.65,6.01,25.01,8.97,8.35,2.95,16.71,5.57,25.28,7.63,8.48,2.07,17.13,3.33,25.84,3.79,8.63.41,17.28-.42,25.67-2.45,1.06-.28,2.06-.5,3.12-.89.61-.22.28-1.34-.39-1.11v-.02Z"/>
  <path class="cls-7" d="M640.42,8.66c-8.64-1.8-17.36-3.12-26.14-3.95-8.84-.83-17.71-1.18-26.59-1.05-8.82.15-17.63.78-26.39,1.9-8.77,1.13-17.47,2.72-26.06,4.76-8.63,2.09-17.14,4.65-25.5,7.67-1.05.36-2.06.77-3.11,1.17-.48.16-.28.97.2.77,33.1-12.54,68.57-17.58,103.85-14.77,8.82.69,17.59,1.89,26.27,3.59,1.09.24,2.14.4,3.23.65.56.16.81-.61.24-.73h0Z"/>
  <path class="cls-8" d="M794.71,12.37c-3.27-1.28-6.44-.85-10.03,1.15-.22.13-.3.4-.19.63.09.2.33.28.53.19.02,0,.03-.02.05-.03,6.57-3.82,12.62-1.75,17.34,6.03,1.61,2.81,3.22,4.64,4.72,5.73.65.45,1.38.77,2.15.95-2.05.76-5.56,1.42-9.19,1.39-5.67-.3-9.33-2.35-11.13-6.57,0,0-.27-.08-.57-.16,0,0-.08.3-.19.63,1.04,2.23,2.71,4.12,4.8,5.43,2.13.99,4.44,1.55,6.79,1.64,4.83.05,9.46-1.31,10.85-1.91,0,0,.38-.22.08-.3.05-.15-.03-.32-.18-.38h0c-2.05-.25-4.28-.9-7.77-6.63-2.26-3.68-4.61-6.05-7.33-7.17-.11-.32-.38-.55-.71-.6l-.02-.02Z"/>
  <path class="cls-8" d="M785.24,14.68c-2.15-.95-4.74-1.36-7.44-1.47-.27-.08-.38.22-.38.22-.05.15.03.32.18.38h0c8.1.33,12.41,4.25,16.63,7.5,2.62,2.43,5.34,4.58,8.78,5.24.27.08.38-.22.38-.22.05-.15-.03-.32-.18-.38h0c-3.16-.57-5.62-2.62-8.51-5.15-2.64-2.45-5.64-4.66-9.46-6.11h0Z"/>
  <path class="cls-8" d="M221.03,17.58c-3.91-.5-6.74-2.64-9.1-6.53-.12-.23-.04-.55.18-.7.23-.15.51-.09.63.14h0c4.18,7.28,11.29,8.52,20.35,3.5,3.19-1.88,5.8-2.79,7.88-3.06.9-.08,1.79-.01,2.65.22-1.54-1.83-4.59-4.39-8.15-6.33-5.7-2.77-10.43-2.72-14.62.42,0,0-.34-.06-.63-.14,0,0,.08-.37.18-.7,2.38-1.66,5.08-2.6,7.81-2.72,2.65.19,5.21.89,7.56,2.08,4.73,2.56,8.46,6.38,9.46,7.74,0,0,.23.42-.08.37-.04.18-.2.31-.37.29h-.04c-2.13-.85-4.69-1.44-11.38,2.27-4.35,2.38-7.99,3.42-11.27,3.06-.34.17-.72.2-1.06.09Z"/>
  <path class="cls-8" d="M213.17,10.19c-2.65-.22-5.43-1.23-8.11-2.6-.17-.04-.28-.23-.23-.42s.23-.32.41-.28h0c8.05,4.05,14.52,2.52,20.5,1.65,3.98-.98,7.85-1.59,11.57-.36.17.04.28.23.23.42-.05.19-.23.32-.41.28h0c-3.42-1.15-6.97-.44-11.27.44-3.95.99-8.15,1.51-12.69.86h0Z"/>
  <path class="cls-8" d="M409.94,92.95c-.25-.15-.67.07-.93.5s-.27.9-.02,1.06.67-.07.93-.5.27-.9.02-1.06Z"/>
  <path class="cls-8" d="M334.99,106.77c-.25-.15-.58-.07-.73.18s-.07.58.18.73.58.07.73-.18.07-.58-.18-.73Z"/>
  <path class="cls-8" d="M253.27,140.54c-.22-.14-.51-.06-.65.16s-.06.51.16.65.51.06.65-.16.06-.51-.16-.65Z"/>
  <path class="cls-8" d="M318.21,96.94c.08-.28-.08-.58-.36-.66h-.01c-.64-.14-1.3-.29-1.92-.44-.29-.07-.58.09-.67.38-.08.28.08.58.36.66h.01l1.92.44c.29.07.58-.09.67-.38Z"/>
  <path class="cls-8" d="M397.6,84.2c-.28-.17-.73.08-1.01.55s-.29.98-.02,1.15.73-.08,1.01-.55.29-.98.02-1.15Z"/>
  <path class="cls-8" d="M407.88,81.09c0-.22-.06-.38-.19-.47l-.57-.35c-.06-.06-.15-.07-.25-.04-.08.01-.18,0-.25.08-.09.05-.17.11-.25.19-.1.09-.18.19-.26.31-.14.22-.22.47-.21.69,0,.22.06.38.19.47l.57.35c.06.06.15.07.25.04.08-.01.18,0,.25-.08.09-.05.17-.11.25-.19.1-.09.18-.19.26-.31.12-.23.19-.47.21-.69Z"/>
  <path class="cls-8" d="M338.41,100c-.21-.13-.49-.06-.62.15s-.06.49.15.62c.48.29.95-.48.47-.77Z"/>
  <path class="cls-8" d="M37.73,100.61c-.23.12-.33.4-.21.63s.4.33.63.21.33-.4.21-.63-.4-.33-.63-.21Z"/>
  <path class="cls-8" d="M27.93,66.83c-.26.13-.37.45-.24.72s.45.37.72.24.37-.45.24-.72-.45-.37-.72-.24Z"/>
  <path class="cls-8" d="M35.87,67.62c-.32.16-.44.55-.28.86s.55.44.86.28.44-.55.28-.86-.55-.44-.86-.28Z"/>
  <path class="cls-8" d="M10.69,75.84c-.2-.22-.53-.24-.75-.04h-.01c-.45.47-.93.95-1.39,1.39-.21.21-.23.54-.03.76s.53.24.75.04h.01l1.39-1.39c.21-.21.23-.54.03-.76Z"/>
  <path class="cls-8" d="M38.87,101.25c-.14-.05-.3-.04-.43.03l-.58.29c-.08.03-.14.08-.18.15-.04.05-.1.11-.1.18-.02.07-.03.13-.02.2,0,.08.02.16.05.23.06.14.18.24.33.28.14.05.3.04.43-.03l.58-.29c.08-.03.14-.08.18-.15.04-.05.1-.11.1-.18.02-.07.03-.13.02-.2,0-.08-.02-.16-.05-.23-.08-.12-.19-.22-.33-.28Z"/>
  <path class="cls-8" d="M62.72,100.02c-.25.12-.34.42-.22.67s.42.34.67.22c.56-.28.11-1.17-.45-.89Z"/>
  <path class="cls-8" d="M57.83,100.92c-.25.12-.34.42-.22.67s.42.34.67.22.34-.42.22-.67-.42-.34-.67-.22Z"/>
  <path class="cls-8" d="M61.49,94.59c-.12-.04-.26-.03-.38.02l-.51.26c-.07.02-.12.07-.16.13-.03.04-.09.1-.09.16-.02.06-.02.12-.02.18,0,.07.02.14.05.2.06.12.16.21.29.24.12.04.26.03.38-.02l.51-.26c.07-.02.12-.07.16-.13.03-.04.09-.1.09-.16.02-.06.02-.12.02-.18,0-.07-.02-.14-.05-.2-.07-.11-.17-.19-.29-.24Z"/>
  <path class="cls-8" d="M7.12,46.2c-.22.11-.31.38-.2.6s.38.31.6.2c.5-.25.1-1.06-.4-.8Z"/>
  <path class="cls-8" d="M262.49,333.5c.04-.29-.16-.56-.45-.61s-.56.16-.61.45.16.56.45.61.56-.16.61-.45Z"/>
  <path class="cls-8" d="M300.05,349.44c.04-.29-.16-.56-.45-.61s-.56.16-.61.45.16.56.45.61.56-.16.61-.45Z"/>
  <path class="cls-8" d="M302.72,330.17c.29-.03.51-.3.47-.59h0c-.12-.65-.23-1.32-.32-1.95-.04-.29-.31-.5-.6-.47s-.51.3-.47.59h0s.32,1.95.32,1.95c.04.29.31.5.6.47Z"/>
  <path class="cls-8" d="M246.6,356.96c.05-.31-.16-.6-.47-.64s-.6.16-.64.47c-.11.7,1.01.87,1.12.17h0Z"/>
  <path class="cls-8" d="M248.98,351.85c.05-.31-.16-.6-.47-.64s-.6.16-.64.47.16.6.47.64.6-.16.64-.47Z"/>
  <path class="cls-8" d="M252.42,359.4c.12-.09.2-.22.23-.36l.1-.64c.02-.08,0-.16-.02-.23-.02-.06-.03-.15-.09-.18-.04-.05-.09-.1-.15-.14-.06-.05-.14-.08-.21-.09-.15-.03-.3.01-.42.11-.12.09-.2.22-.23.36l-.1.64c-.02.08,0,.16.02.23.02.06.03.15.09.18.04.05.09.1.15.14.06.05.14.08.21.09.15,0,.29-.03.42-.11Z"/>
  <path class="cls-8" d="M328.92,344.47c.04-.25-.13-.48-.38-.51s-.48.13-.51.38c-.09.56.8.69.89.14h0Z"/>
  <path class="cls-8" d="M454.86,15.85c-2.7-1.77-4.19-4.27-4.85-7.86,0-.22.16-.4.38-.41.2,0,.37.14.4.33,1.01,6.59,5.89,10.03,13.92,9.78,2.85-.18,5,.13,6.64.71.68.27,1.31.64,1.87,1.11-.63-1.84-2.15-4.72-4.19-7.35-3.39-3.99-6.87-5.66-10.81-4.98,0,0-.2-.15-.43-.35,0,0,.15-.2.35-.43,2.2-.3,4.44.01,6.47.91,1.9,1.08,3.58,2.5,4.95,4.19,2.75,3.49,4.42,7.5,4.78,8.84,0,0,.05.38-.15.2-.09.11-.26.14-.38.05-1.34-1.36-3.03-2.68-8.97-2.53-3.84.1-6.8-.51-9.07-1.92-.33.02-.65-.09-.91-.3h0Z"/>
  <path class="cls-8" d="M451.14,7.84c-1.87-1.11-3.61-2.8-5.2-4.72-.12-.09-.14-.26-.05-.38.09-.12.26-.14.38-.05h0c4.75,5.74,9.93,7,14.53,8.54,3.16.76,6.19,1.72,8.56,3.92.12.09.14.26.05.38s-.26.14-.38.05c-2.17-2.02-4.98-2.83-8.36-3.74-3.16-.73-6.37-1.87-9.52-3.99h-.01Z"/>
  <circle class="cls-6" cx="745.03" cy="91.17" r="12.06"/>
  <path class="cls-8" d="M737.54,77.87c5.12-.07,9.8,3.51,11.37,8.41,1.02,3.07.95,5.19-.07,8.15-1.75,5.04-7.38,8.41-12.76,7.53-7.79-.99-12.79-9.72-9.39-17.07.68-1.37,1.67-2.56,2.89-3.47,1.61-1.75,2.52-2.3,4.68-2.78,1.03-.5,2.15-.76,3.29-.77h0ZM731.62,81.16c-7.49,4.75-5.67,16.63,3,18.9,4.71,1.15,9.61-.95,12.03-5.15,4.02-7.38-1.32-15.79-9.5-15.57-2-.07-3.96.58-5.52,1.83h-.01Z"/>
  <path class="cls-8" d="M354.06,101.31c-.35,0-.64.29-.64.64s.29.64.64.64.64-.29.64-.64-.29-.64-.64-.64Z"/>
  <path class="cls-8" d="M350.63,119.66c-.12-.12-.28-.19-.45-.19h-.74c-.09,0-.18.01-.26.06-.06.03-.16.06-.19.13-.05.06-.1.12-.13.19-.04.08-.06.17-.06.26,0,.17.07.33.19.45.12.12.28.19.45.19h.74c.09,0,.18-.01.26-.06.06-.03.16-.06.19-.13.05-.06.1-.12.13-.19.04-.08.06-.17.06-.26-.02-.17-.08-.32-.19-.45Z"/>
  <path class="cls-8" d="M373.96,127.13c.14-.1.23-.25.26-.41l.11-.73c.02-.09.01-.18-.02-.26-.02-.07-.04-.17-.1-.21-.05-.06-.11-.11-.17-.16-.07-.05-.16-.09-.24-.1-.17-.03-.34.01-.47.12-.14.1-.23.25-.26.41l-.11.73c-.02.09-.01.18.02.26.02.07.04.17.1.21.05.06.11.11.17.16.07.05.16.09.24.1.17,0,.33-.03.47-.12Z"/>
  <path class="cls-8" d="M806.6,75.21c-.25-.15-.58-.07-.73.18s-.07.58.18.73.58.07.73-.18.07-.58-.18-.73Z"/>
  <path class="cls-8" d="M794.03,66.84c-.28-.17-.63-.08-.8.2s-.08.63.2.8.63.08.8-.2.08-.63-.2-.8Z"/>
  <path class="cls-8" d="M802.6,66.54c-.04-.15-.13-.28-.26-.36l-.57-.35c-.07-.05-.15-.08-.23-.07-.06,0-.15-.03-.21,0-.07.02-.13.05-.19.09-.07.04-.13.1-.17.17-.08.13-.11.29-.06.44.04.15.13.28.26.36l.57.35c.07.05.15.08.23.07.06,0,.15.03.21,0,.07-.02.13-.05.19-.09.07-.04.13-.1.17-.17.07-.14.09-.29.06-.44Z"/>
  <path class="cls-8" d="M762.69,69.78c-.21-.13-.49-.06-.62.15s-.06.49.15.62c.48.29.95-.48.47-.77Z"/>
  <path class="cls-8" d="M778.33,71.09c-.35,0-.64.29-.64.64s.29.64.64.64.64-.29.64-.64-.29-.64-.64-.64Z"/>
  <path class="cls-8" d="M774.91,89.44c-.12-.12-.28-.19-.45-.19h-.74c-.09,0-.18.01-.26.06-.06.03-.16.06-.19.13-.05.06-.1.12-.13.19-.04.08-.06.17-.06.26,0,.17.07.33.19.45.12.12.28.19.45.19h.74c.09,0,.18-.01.26-.06.06-.03.16-.06.19-.13.05-.06.1-.12.13-.19.04-.08.06-.17.06-.26-.02-.17-.08-.32-.19-.45Z"/>
  <path class="cls-8" d="M815.89,315.87c-.25-.15-.58-.07-.73.18s-.07.58.18.73.58.07.73-.18.07-.58-.18-.73Z"/>
  <path class="cls-8" d="M803.32,307.5c-.28-.17-.63-.08-.8.2s-.08.63.2.8.63.08.8-.2.08-.63-.2-.8Z"/>
  <path class="cls-8" d="M811.89,307.21c-.04-.15-.13-.28-.26-.36l-.57-.35c-.07-.05-.15-.08-.23-.07-.06,0-.15-.03-.21,0-.07.02-.13.05-.19.09-.07.04-.13.1-.17.17-.08.13-.11.29-.06.44.04.15.13.28.26.36l.57.35c.07.05.15.08.23.07.06,0,.15.03.21,0,.07-.02.13-.05.19-.09.07-.04.13-.1.17-.17.07-.14.09-.29.06-.44Z"/>
  <path class="cls-8" d="M771.98,310.44c-.21-.13-.49-.06-.62.15s-.06.49.15.62c.48.29.95-.48.47-.77Z"/>
  <path class="cls-8" d="M787.62,311.75c-.35,0-.64.29-.64.64s.29.64.64.64.64-.29.64-.64-.29-.64-.64-.64Z"/>
  <path class="cls-8" d="M784.2,330.1c-.12-.12-.28-.19-.45-.19h-.74c-.09,0-.18.01-.26.06-.06.03-.16.06-.19.13-.05.06-.1.12-.13.19-.04.08-.06.17-.06.26,0,.17.07.33.19.45.12.12.28.19.45.19h.74c.09,0,.18-.01.26-.06.06-.03.16-.06.19-.13.05-.06.1-.12.13-.19.04-.08.06-.17.06-.26-.02-.17-.08-.32-.19-.45Z"/>
  <path class="cls-8" d="M785.06,202.32c-.25-.15-.58-.07-.73.18s-.07.58.18.73.58.07.73-.18.07-.58-.18-.73Z"/>
  <path class="cls-8" d="M772.48,193.95c-.28-.17-.63-.08-.8.2s-.08.63.2.8.63.08.8-.2.08-.63-.2-.8Z"/>
  <path class="cls-8" d="M781.05,193.66c-.04-.15-.13-.28-.26-.36l-.57-.35c-.07-.05-.15-.08-.23-.07-.06,0-.15-.03-.21,0-.07.02-.13.05-.19.09-.07.04-.13.1-.17.17-.08.13-.11.29-.06.44.04.15.13.28.26.36l.57.35c.07.05.15.08.23.07.06,0,.15.03.21,0,.07-.02.13-.05.19-.09.07-.04.13-.1.17-.17.07-.14.09-.29.06-.44Z"/>
  <path class="cls-8" d="M741.14,196.89c-.21-.13-.49-.06-.62.15s-.06.49.15.62c.48.29.95-.48.47-.77h0Z"/>
  <path class="cls-8" d="M756.79,198.2c-.35,0-.64.29-.64.64s.29.64.64.64.64-.29.64-.64-.29-.64-.64-.64Z"/>
  <path class="cls-8" d="M753.36,216.55c-.12-.12-.28-.19-.45-.19h-.74c-.09,0-.18,0-.26.06-.06.03-.16.06-.19.13-.05.06-.1.12-.13.19-.04.08-.06.17-.06.26,0,.17.07.33.19.45s.28.19.45.19h.74c.09,0,.18,0,.26-.06.06-.03.16-.06.19-.13.05-.06.1-.12.13-.19.04-.08.06-.17.06-.26-.02-.17-.08-.32-.19-.45Z"/>
  <path class="cls-8" d="M291.16,284.54c-.25-.15-.58-.07-.73.18s-.07.58.18.73.58.07.73-.18.07-.58-.18-.73Z"/>
  <path class="cls-8" d="M247.24,279.12c-.21-.13-.49-.06-.62.15s-.06.49.15.62c.48.29.95-.48.47-.77Z"/>
  <path class="cls-8" d="M259.46,298.77c-.12-.12-.28-.19-.45-.19h-.74c-.09,0-.18.01-.26.06-.06.03-.16.06-.19.13-.05.06-.1.12-.13.19-.04.08-.06.17-.06.26,0,.17.07.33.19.45.12.12.28.19.45.19h.74c.09,0,.18-.01.26-.06.06-.03.16-.06.19-.13.05-.06.1-.12.13-.19.04-.08.06-.17.06-.26-.02-.17-.08-.32-.19-.45Z"/>
  <path class="cls-8" d="M571.26,323.29c-.25-.15-.58-.07-.73.18s-.07.58.18.73.58.07.73-.18.07-.58-.18-.73Z"/>
  <path class="cls-8" d="M558.68,314.92c-.28-.17-.63-.08-.8.2s-.08.63.2.8.63.08.8-.2.08-.63-.2-.8Z"/>
  <path class="cls-8" d="M567.25,314.63c-.04-.15-.13-.28-.26-.36l-.57-.35c-.07-.05-.15-.08-.23-.07-.06,0-.15-.03-.21,0-.07.02-.13.05-.19.09-.07.04-.13.1-.17.17-.08.13-.11.29-.06.44.04.15.13.28.26.36l.57.35c.07.05.15.08.23.07.06,0,.15.03.21,0,.07-.02.13-.05.19-.09.07-.04.13-.1.17-.17.07-.14.09-.29.06-.44Z"/>
  <path class="cls-8" d="M527.34,317.87c-.21-.13-.49-.06-.62.15s-.06.49.15.62c.48.29.95-.48.47-.77Z"/>
  <path class="cls-8" d="M542.99,319.18c-.35,0-.64.29-.64.64s.29.64.64.64.64-.29.64-.64-.29-.64-.64-.64Z"/>
  <path class="cls-8" d="M539.56,337.52c-.12-.12-.28-.19-.45-.19h-.74c-.09,0-.18.01-.26.06-.06.03-.16.06-.19.13-.05.06-.1.12-.13.19-.04.08-.06.17-.06.26,0,.17.07.33.19.45.12.12.28.19.45.19h.74c.09,0,.18-.01.26-.06.06-.03.16-.06.19-.13.05-.06.1-.12.13-.19.04-.08.06-.17.06-.26-.02-.17-.08-.32-.19-.45Z"/>
  <rect class="cls-9" x="50.55" y="107.69" width="178.63" height="178.63"/>
  <line class="cls-9" x1="197.98" y1="298.93" x2="197.98" y2="320.32"/>
  <line class="cls-9" x1="197.98" y1="319.88" x2="19.24" y2="319.88"/>
  <line class="cls-9" x1="19.24" y1="213.96" x2="19.24" y2="319.88"/>
  <circle class="cls-10" cx="19.24" cy="192.66" r="8.22"/>
  <circle class="cls-6" cx="19.24" cy="171.56" r="8.22"/>
  <circle class="cls-10" cx="19.24" cy="150.78" r="8.22"/>
  <path class="cls-10" d="M204.35,262.45h-103.81c-7.56,0-13.41-5.85-13.41-13.41v-76.31c0-7.21,5.85-13.41,13.41-13.41h103.81c7.21,0,13.41,5.85,13.41,13.41v76.31c0,7.56-5.85,13.41-13.41,13.41Z"/>
  <path class="cls-3" d="M89.09,167.61h-3.28c-1.97,0-3.28-1.32-3.28-3.28v-3.28c0-1.97,1.32-3.28,3.28-3.28h3.28c1.97,0,3.28,1.32,3.28,3.28v3.28c0,1.96-1.31,3.28-3.28,3.28ZM112.05,164.34v-3.28c0-1.97-1.32-3.28-3.28-3.28h-3.28c-1.97,0-3.28,1.32-3.28,3.28v3.28c0,1.97,1.32,3.28,3.28,3.28h3.28c1.96,0,3.27-1.32,3.27-3.28h.01ZM131.73,164.34v-3.28c0-1.97-1.32-3.28-3.28-3.28h-3.28c-1.97,0-3.28,1.32-3.28,3.28v3.28c0,1.97,1.32,3.28,3.28,3.28h3.28c1.96,0,3.27-1.32,3.27-3.28h0ZM151.41,164.34v-3.28c0-1.97-1.32-3.28-3.28-3.28h-3.28c-1.97,0-3.28,1.32-3.28,3.28v3.28c0,1.97,1.32,3.28,3.28,3.28h3.28c1.98,0,3.27-1.32,3.27-3.28h0ZM171.11,164.34v-3.28c0-1.97-1.32-3.28-3.28-3.28h-3.28c-1.97,0-3.28,1.32-3.28,3.28v3.28c0,1.97,1.32,3.28,3.28,3.28h3.28c1.96,0,3.27-1.32,3.27-3.28h0ZM190.79,164.34v-3.28c0-1.97-1.32-3.28-3.28-3.28h-3.28c-1.97,0-3.28,1.32-3.28,3.28v3.28c0,1.97,1.32,3.28,3.28,3.28h3.28c1.96,0,3.27-1.32,3.27-3.28h0Z"/>
  <path class="cls-3" d="M89.09,236.52h-3.28c-1.97,0-3.28-1.32-3.28-3.28v-3.28c0-1.97,1.32-3.28,3.28-3.28h3.28c1.97,0,3.28,1.32,3.28,3.28v3.28c0,1.96-1.31,3.28-3.28,3.28ZM112.05,233.25v-3.28c0-1.97-1.32-3.28-3.28-3.28h-3.28c-1.97,0-3.28,1.32-3.28,3.28v3.28c0,1.97,1.32,3.28,3.28,3.28h3.28c1.96,0,3.27-1.32,3.27-3.28h.01ZM131.73,233.25v-3.28c0-1.97-1.32-3.28-3.28-3.28h-3.28c-1.97,0-3.28,1.32-3.28,3.28v3.28c0,1.97,1.32,3.28,3.28,3.28h3.28c1.96,0,3.27-1.32,3.27-3.28h0ZM151.41,233.25v-3.28c0-1.97-1.32-3.28-3.28-3.28h-3.28c-1.97,0-3.28,1.32-3.28,3.28v3.28c0,1.97,1.32,3.28,3.28,3.28h3.28c1.98,0,3.27-1.32,3.27-3.28h0ZM171.11,233.25v-3.28c0-1.97-1.32-3.28-3.28-3.28h-3.28c-1.97,0-3.28,1.32-3.28,3.28v3.28c0,1.97,1.32,3.28,3.28,3.28h3.28c1.96,0,3.27-1.32,3.27-3.28h0ZM190.79,233.25v-3.28c0-1.97-1.32-3.28-3.28-3.28h-3.28c-1.97,0-3.28,1.32-3.28,3.28v3.28c0,1.97,1.32,3.28,3.28,3.28h3.28c1.96,0,3.27-1.32,3.27-3.28h0Z"/>
  <path class="cls-2" d="M151.41,250.42h-65.99c-7.59-.03-13.73-6.17-13.76-13.76v-79.05c.03-7.59,6.17-13.73,13.76-13.76h6.88"/>
  <path class="cls-2" d="M111.88,143.85h80.08c7.59.03,13.73,6.17,13.76,13.76v79.05c-.03,7.59-6.17,13.73-13.76,13.76h-20.97"/>
  <path class="cls-2" d="M150.73,204.69l6.53-3.44c3.09-1.71,3.09-6.18,0-7.91l-27.5-14.79c-3.09-1.71-6.53.68-6.53,3.79v29.56c0,3.44,3.79,5.5,6.53,3.79l5.5-3.09"/>
  <circle class="cls-10" cx="792.66" cy="281.36" r="9.36"/>
  <path class="cls-8" d="M780.74,283.1c2.47,3.1,6.92,4.3,10.59,2.98,2.29-.93,3.64-1.96,4.96-4.06,2.11-3.61,1.59-8.43-1.44-11.37-3.77-3.63-9.78-3.52-13.41.25-.63.65-1.16,1.39-1.57,2.19-.39.66-.75,2.17-.93,3.46-.24,1.84-.12,2.59.51,4.15.39.93.99,2.11,1.29,2.41h0ZM780.02,277.86c-.57-6.95,7.58-11.52,13.09-7.25,3.07,2.23,4.09,6.47,2.77,9.96-2.53,5.87-10.23,6.83-14.26,1.65-1.02-1.14-1.41-2.53-1.59-4.36h-.01Z"/>
  <path class="cls-8" d="M66.26,330.53c-.36,0-.65.29-.65.65s.29.65.65.65c.82,0,.82-1.31,0-1.31h0Z"/>
  <path class="cls-8" d="M59.98,328.7c-.36,0-.65.29-.65.65s.29.65.65.65.65-.29.65-.65-.29-.65-.65-.65Z"/>
  <path class="cls-8" d="M68.02,323.44c-.12-.12-.29-.19-.46-.2h-.75c-.09,0-.18.01-.26.07-.07.03-.16.07-.2.13-.05.06-.1.12-.13.2-.04.08-.06.17-.07.26,0,.17.07.34.2.46.12.12.29.19.46.2h.75c.09,0,.18-.01.26-.07.07-.03.16-.07.2-.13.05-.06.1-.12.13-.2.04-.08.06-.17.07-.26-.02-.17-.08-.33-.2-.46Z"/>
  <path class="cls-8" d="M19.14,333.6c-.28-.17-.63-.08-.8.2s-.08.63.2.8.63.08.8-.2.08-.63-.2-.8Z"/>
  <path class="cls-8" d="M27.71,333.31c-.04-.15-.13-.28-.26-.36l-.57-.35c-.07-.05-.15-.08-.23-.07-.06,0-.15-.03-.21,0-.07.02-.13.05-.19.09-.07.04-.13.1-.17.17-.08.13-.11.29-.06.44.04.15.13.28.26.36l.57.35c.07.05.15.08.23.07.06,0,.15.03.21,0,.07-.02.13-.05.19-.09.07-.04.13-.1.17-.17.07-.14.09-.29.06-.44Z"/>
  <path class="cls-8" d="M3.45,337.86c-.35,0-.64.29-.64.64s.29.64.64.64.64-.29.64-.64-.29-.64-.64-.64Z"/>
  <path class="cls-8" d="M119.36,332.73c.28.17.63.08.8-.2s.08-.63-.2-.8-.63-.08-.8.2-.08.63.2.8Z"/>
  <path class="cls-8" d="M110.79,333.03c.04.15.13.28.26.36l.57.35c.07.05.15.08.23.07.06,0,.15.03.21,0,.07-.02.13-.05.19-.09.07-.04.13-.1.17-.17.08-.13.11-.29.06-.44-.04-.15-.13-.28-.26-.36l-.57-.35c-.07-.05-.15-.08-.23-.07-.06,0-.15-.03-.21,0-.07.02-.13.05-.19.09-.07.04-.13.1-.17.17-.07.14-.09.29-.06.44Z"/>
  <path class="cls-8" d="M135.05,328.48c.35,0,.64-.29.64-.64s-.29-.64-.64-.64-.64.29-.64.64.29.64.64.64Z"/>
  <circle class="cls-10" cx="271.06" cy="317.82" r="10.51"/>
  <path class="cls-8" d="M253.59,324.5c2.77,3.48,7.77,4.83,11.89,3.35,2.57-1.05,4.09-2.2,5.58-4.56,2.37-4.05,1.79-9.46-1.62-12.77-4.24-4.08-10.98-3.95-15.06.28-.7.73-1.3,1.56-1.77,2.45-.44.74-.84,2.43-1.05,3.89-.27,2.06-.14,2.91.57,4.66.44,1.05,1.12,2.37,1.45,2.7h0ZM252.78,318.62c-.64-7.81,8.51-12.94,14.7-8.14,3.45,2.5,4.6,7.26,3.11,11.18-2.84,6.59-11.49,7.67-16.02,1.86-1.15-1.28-1.59-2.84-1.78-4.9h0Z"/>
  <path class="cls-8" d="M463.87,329.63c-.1-.36-.47-.57-.83-.48h-.02l-2.37.81c-.36.11-.57.48-.47.84s.47.57.83.48h.02l2.37-.81c.36-.1.57-.47.48-.83v-.02h-.01Z"/>
</svg>