<?xml version="1.0" encoding="UTF-8"?> <svg xmlns="http://www.w3.org/2000/svg" width="2294" height="608" viewBox="0 0 2294 608" fill="none"> <circle cx="1445.5" cy="492.442" r="32.5" fill="#CDC8FE"></circle> <path d="M1982.67 29.9418C1980 33.1418 1982.27 37.2751 1986.67 37.2751C1989.33 37.2751 1990.8 36.4751 1991.33 34.6085C1992.4 31.2751 1990 27.9418 1986.67 27.9418C1985.33 27.9418 1983.6 28.8751 1982.67 29.9418Z" fill="#181818"></path> <path d="M1500.53 44.6084C1491.2 46.6084 1482.4 50.7417 1477.87 55.2751C1473.73 59.4084 1473.6 66.6084 1477.47 72.7417L1480.27 77.2751L1475.2 85.0084C1463.87 102.075 1460 120.475 1464.67 134.742C1466.53 140.475 1469.07 143.808 1476.53 151.142C1491.33 165.408 1494.53 167.142 1504 166.208C1511.47 165.542 1512.27 165.808 1517.87 170.075C1523.33 174.208 1532 184.475 1532 186.875C1532 187.408 1529.2 187.942 1525.73 187.942C1518.13 187.942 1511.73 190.742 1499.47 199.142C1490.4 205.275 1490 205.542 1481.47 205.008C1473.6 204.608 1472.67 204.875 1472.27 207.275C1471.47 212.075 1468 213.275 1456 213.275C1439.6 213.275 1430.8 210.608 1416.4 201.008C1409.2 196.342 1397.47 190.342 1388 186.608C1378.8 182.875 1366.93 176.875 1360.27 172.475C1348 164.342 1326.13 143.275 1319.47 133.142C1317.2 129.942 1313.33 125.008 1310.8 122.208C1305.2 116.342 1300.67 115.808 1288.93 119.808C1282.53 122.075 1278.53 122.342 1259.6 121.942C1235.2 121.408 1231.73 122.208 1230.67 128.608C1230.13 131.675 1228.93 132.875 1224.67 134.475C1221.73 135.542 1218.67 137.408 1217.73 138.608C1213.6 143.808 1218 150.608 1225.6 150.608C1228 150.608 1229.47 151.408 1230 153.142C1231.07 156.608 1238.93 159.142 1244.93 157.942C1248.8 157.275 1250 157.542 1251.6 159.808C1254.4 163.942 1260.8 163.275 1272.27 157.942C1277.73 155.275 1285.33 152.875 1289.07 152.342C1300.13 151.142 1298 154.475 1282.4 163.142C1268.4 170.742 1264.13 178.742 1271.33 183.408C1274.27 185.408 1275.6 185.408 1280.4 184.075C1283.47 183.142 1289.73 180.342 1294.27 177.808C1301.6 173.808 1303.47 173.275 1312.53 173.275H1322.67L1333.47 182.875C1361.2 207.808 1371.33 215.008 1395.73 227.142C1415.33 237.008 1421.47 239.275 1434.13 241.942C1448.27 244.875 1481.73 245.542 1494.53 243.142C1500 242.075 1504.67 241.542 1505.07 241.808C1505.33 242.208 1504.93 245.408 1504.13 249.142C1500.4 266.608 1510.27 284.342 1528.27 292.608C1535.33 295.808 1536 296.475 1538.13 303.008C1540.67 311.142 1548.27 326.742 1552.4 332.475C1554 334.742 1559.07 341.008 1563.73 346.208L1572.13 355.942L1187.33 356.208C975.733 356.475 802.667 356.342 802.667 355.942C802.8 355.542 803.6 353.808 804.667 351.942C805.733 350.075 806.667 347.408 806.667 345.942C806.667 344.475 807.867 340.875 809.333 337.942C810.8 335.008 811.867 331.408 812 329.808C812 328.342 812.933 325.142 814.133 322.742C816 318.875 816 318.208 814.133 315.275C810.933 310.342 806 310.875 800.533 316.742C798 319.275 796 321.942 796 322.608C796 324.608 787.2 329.275 783.467 329.275C778.133 329.275 779.333 327.275 786.667 324.075C794.4 320.742 796.933 315.542 792.533 312.342C789.467 310.075 784.133 311.142 775.6 315.675C767.867 319.808 763.333 325.275 756.933 338.075C752 347.942 747.333 352.075 738.8 354.608C736.667 355.142 712.667 355.942 685.6 356.075L636.267 356.475L630.267 351.008C627.067 348.075 621.733 343.808 618.533 341.808C615.333 339.675 612.4 337.942 612.133 337.675C611.867 337.542 613.467 335.942 615.467 334.075C619.2 331.008 619.333 330.475 618.933 320.608C618.533 311.408 618.8 310.075 622 306.475C625.867 301.808 626.267 298.342 623.2 295.942C620.267 293.408 615.067 283.942 614 279.008C613.333 275.542 613.867 273.808 616.8 269.808C621.867 263.142 622.8 252.208 618.8 243.408C616.667 238.475 614.933 236.742 610.4 234.608C604.933 232.208 600.8 231.542 595.467 231.808C593.733 231.942 593.2 232.742 593.733 234.475C594.533 237.808 592.4 238.608 582.933 238.608C560.667 238.742 534.8 250.208 529.867 262.208C526.933 269.008 527.6 271.942 534.533 286.075C540 297.142 541.2 300.875 541.733 309.275C542.267 314.742 542.133 319.942 541.6 320.742C541.067 321.675 533.867 322.475 523.333 323.008C504.4 323.675 498.667 325.142 478.667 334.075C468 338.875 466.533 339.142 453.067 339.408C445.067 339.542 438 339.675 437.2 339.808C436.4 339.808 436 341.542 436.267 343.542C436.8 348.475 433.733 349.142 404.667 350.608C389.733 351.275 378.133 352.608 374 353.808C368 355.675 347.2 355.942 183.733 355.942C0.4 355.942 0 355.942 0 358.608C0 361.275 0.533333 361.275 178.133 361.542L356.267 361.942L345.333 368.475C330.8 377.275 322.4 379.942 304.133 381.275C295.6 381.942 286 383.008 282.667 383.808C279.333 384.608 271.733 385.142 265.733 385.275C252.267 385.275 250.667 385.808 250.667 390.875C250.667 393.942 251.467 395.142 254.933 396.475C259.067 398.208 259.067 398.342 256.133 399.808C248.933 403.675 256.8 414.075 264.8 411.275C267.867 410.075 269.067 410.475 271.6 412.875C275.333 416.742 278.133 416.742 285.733 412.742L291.867 409.408L291.733 413.142C291.6 415.275 292 417.542 292.533 418.475C294 420.742 299.2 420.208 305.6 417.408C308.8 415.942 313.067 414.342 315.067 413.942C317.067 413.542 321.6 410.208 325.067 406.475L331.333 399.808L353.333 395.942C365.467 393.808 391.2 388.608 410.667 384.608C430.133 380.475 449.333 376.742 453.333 376.342L460.667 375.542L455.333 381.408C448.933 388.608 439.867 396.742 426.4 407.808C420.667 412.342 416 416.608 416 417.142C416 417.808 412.267 418.608 407.6 418.875C397.867 419.675 391.467 422.742 373.067 434.875C358.4 444.742 347.067 449.408 327.867 453.275C310.133 456.875 286.267 458.208 279.2 455.942C259.6 449.675 232.667 431.675 202.267 404.342C187.733 391.275 186.4 390.608 179.867 394.342C175.467 396.875 174.667 397.008 174.667 395.275C174.667 391.808 168.533 386.608 164.267 386.608C162.133 386.608 156.8 388.475 152.533 390.608C147.067 393.408 141.333 395.008 133.467 396.075C118.667 397.808 114.933 399.542 103.2 410.075C94.6667 417.675 93.3333 419.542 93.3333 423.408C93.3333 425.808 92.8 428.208 92 428.608C89.7333 429.942 90.5333 438.075 93.0667 440.342C96.5333 443.542 100.133 443.142 106.133 439.142C114 433.675 119.333 431.808 134.533 429.142C156 425.275 162.667 426.075 162.667 432.475C162.667 440.208 216.933 481.142 247.867 496.875C269.2 507.808 298.267 515.942 315.467 515.942C318.667 515.942 321.333 516.608 321.333 517.275C321.333 518.742 310.133 533.008 307.067 535.542C306 536.342 301.333 536.875 295.467 536.608C286.267 536.342 284.533 535.808 269.867 527.942C238.667 511.408 212.4 494.608 181.2 471.142C162.267 456.875 160 455.808 155.867 460.742C154.533 462.475 153.733 461.942 151.067 457.275C147.333 451.008 142.133 447.942 135.333 447.942C131.067 447.942 129.333 449.142 120.267 458.742C109.2 470.342 102.533 474.475 89.3333 477.942C79.6 480.475 70.1333 485.008 64.4 489.808C61.4667 492.342 60.1333 494.742 59.6 499.142C59.0667 502.342 57.4667 507.142 56 509.808C54.4 512.342 53.6 515.142 54 516.075C54.5333 516.875 54.2667 519.942 53.3333 522.742C52 526.742 51.8667 528.742 53.0667 531.275C55.4667 536.475 60.6667 535.675 70.9333 528.208C75.7333 524.608 86.5333 518.608 94.9333 514.875C103.2 511.142 112.4 506.742 115.333 505.275C124.4 500.608 134.667 502.342 134.667 508.475C134.667 512.608 145.333 522.475 163.2 534.875C182.4 548.075 198.267 556.742 235.067 573.808C252.8 582.075 271.2 591.275 276 594.342C296.933 607.675 296 607.275 305.333 607.142C325.867 606.875 349.067 591.275 400.667 543.275C422.4 523.008 441.333 506.608 450.133 500.342L454.267 497.408L460.667 500.742C464.267 502.475 468.533 503.942 470.267 503.942C479.867 503.942 492 493.942 513.6 468.342C533.067 445.275 561.067 415.275 577.6 400.075C583.867 394.075 589.333 389.275 589.733 389.275C590 389.275 593.067 391.942 596.267 395.275C603.333 402.342 607.867 403.142 611.2 397.942C612.933 395.408 614 394.875 615.733 395.808C620.4 398.208 638.933 403.942 648.933 405.942C662.4 408.742 682.533 408.742 693.333 405.942C703.333 403.408 712.8 398.742 732.267 387.142C751.733 375.408 760.8 371.408 779.867 365.942L796.133 361.275H1185.87H1575.6L1580.53 376.208C1594 417.142 1618.27 451.675 1646.53 469.942C1656.4 476.342 1671.6 484.075 1678.67 486.475C1682.27 487.675 1685.2 490.608 1691.73 499.942C1710.67 527.142 1744.93 562.608 1774 585.008C1788.67 596.475 1790.27 597.275 1795.87 597.275C1805.47 597.142 1811.07 593.675 1821.73 581.275C1838.13 562.208 1860.8 544.075 1887.87 528.742L1898.93 522.342H1915.87C1936.13 522.342 1953.2 525.542 1974.93 533.408C1983.2 536.475 1992.53 539.008 1995.47 539.275C2002.13 539.808 2009.6 542.875 2015.2 547.142C2023.2 553.275 2031.73 556.608 2061.33 565.408C2066.8 567.008 2073.47 569.808 2076 571.408C2078.53 573.142 2082.13 574.608 2084.13 574.608C2089.87 574.608 2091.73 571.142 2091.33 561.008C2091.07 553.675 2090.27 550.875 2086.93 545.675C2084.8 542.208 2082.53 537.942 2082.13 536.342C2080.8 531.942 2077.87 530.208 2070 529.142C2060.8 527.942 2055.73 524.342 2050.27 514.875C2044.53 505.142 2038.93 501.275 2030.4 501.275C2022.8 501.275 2014.4 505.142 2011.2 509.942C2009.6 512.475 2007.87 513.275 2004.53 513.275C2000.67 513.275 2000 512.875 2000 510.075C2000 508.075 1999.07 506.475 1997.73 506.075C1992.53 504.608 1964.13 497.275 1963.47 497.275C1963.07 497.275 1962.67 496.742 1962.67 496.075C1962.67 494.742 1978.93 491.942 1986.8 491.942C1989.87 491.942 1996.13 492.608 2000.8 493.542C2008.13 494.875 2009.6 494.742 2012.53 492.742C2019.33 488.342 2014.8 479.942 2004.13 476.742C2000.67 475.675 1995.2 473.542 1992.13 471.942C1987.73 469.808 1985.2 469.275 1981.2 469.942C1972.53 471.408 1962.93 467.675 1953.47 459.275C1944.4 451.275 1941.07 449.808 1933.73 451.275C1926.8 452.608 1920.67 459.142 1918 468.475C1916.27 474.475 1915.2 476.075 1913.6 475.542C1912.27 475.142 1906 473.275 1899.33 471.275C1887.73 467.808 1886.67 467.675 1866 468.608C1845.33 469.408 1844.27 469.275 1833.33 465.808C1818.13 461.142 1801.33 453.408 1781.73 442.342L1765.47 433.142L1757.47 417.808C1747.07 397.942 1738 384.475 1726.4 371.542L1717.07 361.275H2005.2C2292.4 361.275 2293.33 361.275 2293.33 358.608C2293.33 355.942 2292.4 355.942 2002 355.942H1710.53L1703.6 350.742C1699.73 347.942 1689.87 341.942 1681.6 337.275C1666.8 328.875 1644 312.742 1643.07 309.808C1642.8 308.875 1644.13 307.942 1646 307.408C1651.73 305.942 1649.73 302.342 1639.07 295.275C1628 287.942 1621.07 279.542 1618.53 270.208C1616.67 263.408 1617.73 233.675 1620.13 221.542C1621.87 213.275 1621.87 213.008 1625.6 213.808C1633.33 215.275 1644 221.542 1649.2 227.542C1653.73 232.608 1655.2 233.408 1658 232.742C1662.27 231.675 1668.4 234.742 1682.67 245.408C1699.47 257.808 1703.07 259.142 1719.2 258.208C1727.87 257.808 1739.73 255.808 1752.67 252.742C1772.67 247.942 1784.67 246.742 1789.2 249.275C1790.53 249.942 1792.4 252.475 1793.33 254.875C1794.27 257.275 1796.8 261.675 1798.93 264.608C1801.07 267.542 1804.13 272.075 1805.73 274.608C1807.47 277.142 1810 279.408 1811.6 279.675C1815.6 280.208 1819.07 274.608 1818.4 268.608C1818.13 266.075 1818.27 263.942 1818.93 263.942C1819.47 263.942 1822.93 266.608 1826.67 269.942C1835.6 277.942 1842.67 277.808 1842.67 269.542C1842.67 266.742 1843.07 266.475 1846.53 267.275C1850.27 268.075 1854.67 265.542 1854.67 262.475C1854.67 261.808 1856.67 261.275 1859.2 261.275C1864 261.275 1868 258.475 1868 255.142C1868 251.408 1861.87 246.875 1854.67 245.408C1845.07 243.408 1828.27 236.475 1823.07 232.475C1814.53 226.075 1811.87 225.542 1787.47 226.208C1767.73 226.875 1761.2 226.475 1738.93 223.275C1724.67 221.408 1711.47 220.075 1709.47 220.608C1705.6 221.408 1706.67 222.075 1664.93 191.542C1639.73 173.008 1626.4 166.608 1609.73 164.608L1601.73 163.675L1602.4 157.808C1602.8 154.475 1602.4 151.142 1601.47 150.075C1600.27 148.742 1600.4 147.942 1602 146.608C1603.07 145.675 1604 144.208 1604 143.275C1604 142.342 1605.2 140.075 1606.8 138.075C1609.2 135.008 1610.53 134.608 1617.73 134.475C1622.27 134.475 1628.93 133.942 1632.53 133.542L1638.93 132.608L1641.87 124.475C1646 113.008 1651.2 104.742 1660.27 95.0084C1667.6 87.1417 1669.73 82.4751 1666.67 80.6084C1664.13 79.0084 1665.33 77.2751 1668.8 77.2751C1674.8 77.2751 1688.27 59.2751 1686.27 54.0751C1685.47 52.0751 1683.6 52.7417 1672.8 58.6084C1658.8 66.2084 1647.2 69.2751 1632.53 69.2751C1617.87 69.2751 1603.6 65.9417 1574.27 55.8084C1559.47 50.6084 1543.2 45.5417 1538.27 44.4751C1527.2 42.2084 1511.47 42.2084 1500.53 44.6084ZM1540.8 49.2751C1546.8 50.6084 1560 54.8751 1570.13 58.6084C1617.87 76.2084 1644.27 77.6751 1670.93 64.0751C1681.33 58.8751 1681.33 58.8751 1679.2 62.4751C1674.4 70.7417 1672.67 71.9417 1663.33 74.3417C1652.67 77.0084 1650.93 79.8084 1659.07 81.6751C1661.73 82.3417 1664 83.4084 1664 84.0751C1664 85.8084 1648 103.008 1645.33 104.208C1642.27 105.542 1620.27 105.408 1611.07 103.942C1606.53 103.142 1597.73 101.142 1591.6 99.2751C1576.67 95.0084 1577.07 95.0084 1576.4 96.8751C1576.13 97.6751 1580 99.6751 1586.27 101.675C1603.2 107.142 1609.07 108.208 1626.8 109.142L1643.6 109.942L1641.73 114.475L1639.87 119.008L1628.27 118.075C1621.87 117.675 1615.47 117.142 1614.13 116.875C1610.53 116.475 1610 119.408 1613.6 120.475C1615.33 120.875 1621.6 121.675 1627.6 122.075C1637.87 123.008 1638.4 123.142 1637.47 125.808C1636 129.542 1630.4 130.475 1609.33 130.475C1563.73 130.742 1531.33 119.942 1501.47 94.6084C1491.87 86.3417 1478.67 68.7417 1478.67 64.0751C1478.67 50.6084 1512.67 42.4751 1540.8 49.2751ZM1493.87 92.7417C1498.93 97.5417 1505.33 103.008 1508.13 104.875C1511.6 107.142 1515.07 111.408 1518.53 117.942C1521.47 123.275 1526.93 130.742 1530.53 134.475C1534.93 139.008 1539.07 145.275 1542.53 152.608C1552.13 173.142 1560 181.008 1569.2 179.675C1573.33 179.142 1573.47 179.275 1572.67 182.475C1570.53 191.008 1558.93 206.342 1551.87 210.075C1542.4 214.875 1533.33 209.942 1533.33 200.075C1533.33 194.875 1535.07 191.942 1536.67 194.608C1537.07 195.275 1538 195.942 1538.8 195.942C1543.6 195.942 1532.67 177.675 1522.53 169.008C1516.53 163.675 1516.27 163.275 1518.27 161.008C1521.73 157.142 1519.07 156.475 1512.67 159.675C1505.2 163.275 1498 163.408 1492.53 160.075C1487.87 157.275 1482.13 146.608 1480.53 137.942C1479.6 132.742 1479.73 132.608 1482.27 134.875C1484.93 137.275 1488 138.075 1488 136.342C1488 135.808 1486.4 133.675 1484.4 131.675L1480.8 127.808L1486.4 122.742C1492.8 116.875 1493.33 113.542 1489.2 106.742C1487.33 103.542 1486.13 102.608 1485.07 103.675C1484 104.742 1484.27 106.075 1485.87 108.475C1489.07 113.542 1488.53 116.608 1483.47 120.475C1480.93 122.342 1478.4 123.942 1477.87 123.942C1476.13 123.942 1478.53 101.942 1481.33 92.8751C1482.8 87.9417 1484.27 83.9417 1484.4 83.9417C1484.53 83.9417 1488.8 87.9417 1493.87 92.7417ZM1476.27 95.5417C1473.47 105.808 1473.47 127.542 1476.4 137.942C1477.6 142.208 1478.27 146.208 1477.87 146.608C1477.47 147.008 1475.6 145.408 1473.87 143.275C1464.8 131.942 1464.27 115.275 1472.4 98.0751C1475.07 92.4751 1477.47 87.9417 1477.87 87.9417C1478.13 87.9417 1477.47 91.4084 1476.27 95.5417ZM1531.07 118.742C1548 127.408 1567.33 132.342 1590.53 134.075C1597.2 134.608 1602.67 135.142 1602.67 135.275C1602.67 138.075 1599.2 143.942 1597.6 144.075C1594 144.208 1590.53 145.008 1589.73 145.808C1588.4 147.008 1591.87 150.342 1595.47 151.142C1598.4 151.942 1598.8 152.608 1598.4 157.008C1598 161.808 1597.87 161.942 1590.67 163.008C1582.93 164.208 1556.93 163.408 1553.07 161.942C1551.07 161.142 1543.6 147.942 1544.53 146.875C1544.8 146.742 1549.33 148.608 1554.8 151.275C1566 156.475 1574 158.608 1573.2 156.075C1572.8 155.142 1568.27 152.742 1562.93 150.608C1550.67 145.542 1540.13 138.875 1532.93 131.275C1527.47 125.675 1520.27 114.608 1522 114.608C1522.4 114.608 1526.53 116.475 1531.07 118.742ZM1307.2 125.675C1309.47 128.075 1313.87 133.808 1317.07 138.208C1323.47 147.408 1332 155.675 1347.07 167.675C1359.87 177.808 1370.67 183.808 1388.27 190.875C1395.87 193.808 1406.27 199.142 1411.33 202.608C1429.73 215.008 1439.33 217.942 1459.07 217.142L1470.4 216.608L1471.07 225.942C1471.33 231.008 1472.13 236.342 1472.67 237.542C1474 241.008 1466.8 241.808 1449.6 240.075C1431.07 238.208 1420.93 235.142 1400.4 225.142C1380.8 215.542 1364.13 204.742 1350.27 192.475C1344.53 187.408 1336.13 180.075 1331.73 176.208L1323.47 169.275H1312.8C1302.67 169.275 1301.33 169.675 1290.13 175.275C1277.6 181.675 1273.73 182.475 1272.53 179.275C1271.2 175.942 1275.33 171.408 1283.87 166.742C1300.67 157.808 1304 151.675 1296.27 143.942C1291.07 138.742 1285.33 137.408 1261.33 135.942C1239.07 134.475 1234.27 133.275 1234.93 129.542C1235.33 127.542 1238.13 127.142 1262.67 126.608C1283.87 126.075 1291.2 125.408 1295.33 123.675C1302.53 120.742 1302.4 120.608 1307.2 125.675ZM1245.33 139.142L1258 140.742L1249.07 143.008C1239.87 145.275 1222 146.075 1220.8 144.208C1219.73 142.342 1222.13 139.808 1226.13 138.608C1231.2 137.142 1230.53 137.142 1245.33 139.142ZM1272.67 142.475C1271.87 143.142 1266.13 145.808 1259.6 148.475C1248.53 153.008 1236.67 154.875 1234.13 152.342C1233.73 151.808 1241.87 149.275 1252.27 146.475C1274 140.875 1274.4 140.875 1272.67 142.475ZM1291.07 144.875L1295.33 147.275L1290.67 147.675C1284.13 148.208 1273.73 151.675 1267.07 155.542C1261.6 158.608 1254.93 159.275 1254.27 156.742C1254.13 156.075 1258.27 153.675 1263.33 151.542C1271.73 148.075 1285.33 142.742 1286.4 142.608C1286.67 142.608 1288.67 143.675 1291.07 144.875ZM1577.33 167.942L1586 168.075L1578.67 171.942C1568.53 177.275 1564.27 177.142 1558.53 171.142L1554 166.208L1561.33 167.142C1565.33 167.542 1572.53 167.942 1577.33 167.942ZM1614.8 169.275C1627.2 171.675 1647.47 182.475 1663.73 195.542C1668.93 199.808 1669.33 200.608 1669.33 206.608C1669.33 211.542 1668.4 214.342 1665.07 219.408C1658.4 229.142 1657.2 229.408 1650 222.742C1643.07 216.342 1631.87 210.742 1624 209.675C1618 208.875 1618.67 207.675 1615.33 227.142C1612.67 242.608 1612.8 264.075 1615.33 273.008C1618 281.675 1625.6 291.275 1635.07 297.808C1639.33 300.742 1642.53 303.275 1642.27 303.408C1642.13 303.675 1636.67 305.542 1630.27 307.675C1611.47 314.075 1594.8 325.808 1580.53 342.875C1576.93 347.142 1573.6 350.608 1573.07 350.608C1571.47 350.608 1556.93 332.342 1551.73 323.808C1549.07 319.408 1545.33 311.275 1543.33 305.542C1538.53 291.542 1538.67 291.675 1531.87 289.808C1524 287.542 1514.4 279.008 1510.53 271.008C1504.8 259.142 1507.47 243.275 1517.33 229.275C1520.53 224.875 1520.67 223.942 1518.13 223.942C1517.07 223.942 1514.4 226.875 1512.13 230.342L1508 236.742L1494.4 239.142L1480.8 241.542L1478.4 238.608C1475.33 234.875 1474.4 229.275 1474.93 218.608L1475.33 209.942L1484.13 209.142C1492 208.475 1494 207.675 1504.53 200.608C1514.27 194.075 1517.2 192.742 1523.2 192.208L1530.4 191.675L1529.73 197.542C1528.93 204.875 1531.73 211.008 1537.33 213.942C1545.6 218.208 1553.6 215.542 1563.07 205.408C1568.8 199.275 1578.67 181.808 1578.67 177.808C1578.67 175.008 1596.13 168.742 1605.47 168.075C1606.67 167.942 1610.93 168.608 1614.8 169.275ZM1688.67 213.808C1696.93 219.808 1701.73 224.342 1701.47 225.408C1700.27 228.875 1700.67 236.608 1702 237.008C1702.8 237.275 1703.73 235.142 1704.13 232.475C1705.07 227.275 1708.13 223.942 1712.13 223.942C1713.47 223.942 1725.47 225.542 1738.93 227.408C1759.47 230.208 1767.2 230.742 1788 230.342L1812.67 229.942L1819.47 234.742C1827.2 240.208 1838.93 245.275 1852.8 249.275C1862.13 251.942 1866.13 255.275 1861.87 256.875C1857.47 258.608 1847.47 255.942 1833.73 249.408C1818.27 242.075 1814.27 241.408 1810.4 244.875C1806.93 247.942 1807.47 254.075 1812 262.475C1814.67 267.542 1815.47 270.342 1814.8 272.475C1814.13 273.942 1813.07 275.275 1812.4 275.275C1810.67 275.275 1799.33 258.875 1796.8 252.742C1793.6 245.142 1789.73 243.408 1776.93 244.342C1770.93 244.742 1758.53 247.008 1749.33 249.275C1730.13 254.208 1712.13 255.808 1703.6 253.275C1700.4 252.475 1692.93 248.075 1687.2 243.808C1681.47 239.408 1674 234.208 1670.67 232.342C1667.33 230.475 1664.4 228.742 1664.13 228.475C1663.87 228.342 1665.6 225.408 1668 222.075C1670.8 218.208 1672.53 213.942 1672.93 210.075C1673.33 206.742 1674 203.942 1674.53 203.942C1674.93 204.075 1681.33 208.475 1688.67 213.808ZM1830 251.808C1835.87 254.742 1843.07 258.075 1845.87 259.275C1849.73 260.742 1850.8 261.675 1849.73 262.742C1848 264.475 1838.4 260.208 1827.6 253.008C1823.07 250.075 1820.8 249.275 1819.87 250.208C1818.8 251.275 1820 252.742 1824.13 255.275C1832.13 260.208 1838.67 266.608 1838.67 269.542C1838.67 273.542 1834.27 272.342 1828.8 266.742C1826 263.942 1821.33 260.475 1818.53 259.142C1813.2 256.875 1810.93 252.742 1812.53 248.608C1813.73 245.408 1818.67 246.342 1830 251.808ZM610.8 282.075C611.733 285.542 614.4 290.875 616.933 294.208L621.333 300.075L617.867 304.742C614.533 309.008 614.4 310.075 614.933 318.742C615.6 326.875 615.333 328.608 613.2 330.742C609.733 334.208 602 333.942 594.667 330.208C589.733 327.808 588 325.808 584.667 318.742C581.867 313.008 579.2 309.542 576.533 308.208C570.133 305.008 568 302.475 568 297.942C568 289.275 575.733 287.675 580.267 295.408C585.467 304.342 593.333 303.942 593.333 294.742C593.333 291.275 594.267 288.875 596.133 287.142C598.267 285.275 598.8 283.542 598.267 280.342L597.467 275.942H603.333H609.333L610.8 282.075ZM577.467 314.208C580 317.275 584.267 326.742 583.6 327.542C583.2 327.808 577.333 327.142 570.533 326.075C563.6 325.008 555.2 323.675 551.6 323.275C548.133 322.742 545.6 321.942 546 321.275C546.4 320.608 548.667 320.742 551.067 321.408C556.667 323.008 565.6 323.008 569.867 321.275C572.533 320.342 573.333 319.142 573.333 315.942C573.333 311.408 574.667 310.875 577.467 314.208ZM1649.73 322.475C1657.2 328.208 1670 336.608 1678 341.275C1700.4 354.075 1706.4 358.608 1718.93 371.808C1733.87 387.408 1744.27 403.275 1757.33 429.942C1772.53 460.742 1785.07 497.542 1793.47 535.275C1796.4 548.742 1798.53 553.008 1801.33 551.275C1802.27 550.608 1802.53 548.075 1802 543.408L1801.07 536.475L1811.47 528.208C1827.33 515.675 1834.27 512.608 1856.53 507.942C1883.73 502.208 1903.73 494.742 1908.93 488.075C1910.4 486.208 1911.2 486.475 1915.33 490.875C1918.8 494.608 1920 497.142 1920 500.475C1920 505.008 1919.73 505.275 1904.4 513.408C1862 535.942 1836.53 555.275 1813.2 582.475C1806.4 590.475 1805.6 591.008 1799.07 591.542C1792.27 592.208 1792.13 592.208 1780 582.875C1740.8 552.742 1705.07 513.808 1684.27 478.608C1669.73 453.942 1654.8 417.275 1645.87 384.075C1642 369.675 1640.93 367.808 1638 370.742C1636.27 372.342 1636.27 373.542 1638 379.942C1639.07 383.942 1639.6 387.408 1639.33 387.675C1638.93 388.075 1636 387.275 1632.67 386.075C1626.67 383.675 1624 384.075 1624 387.142C1624 390.075 1627.6 392.208 1634.93 393.808L1641.73 395.408L1648.67 415.275C1656.8 438.742 1661.6 450.208 1670.4 467.275L1676.8 479.808L1672.13 477.808C1647.47 467.542 1625.87 449.275 1609.87 425.142C1599.2 409.008 1592 393.942 1584.53 371.142L1578.53 353.008L1585.6 344.875C1589.47 340.475 1596.53 333.542 1601.33 329.675C1610 322.475 1629.2 311.942 1633.73 311.942C1635.07 311.942 1642.27 316.608 1649.73 322.475ZM790.267 316.875C790.533 317.542 788 319.275 784.667 320.475C773.467 324.875 771.867 333.275 782.267 333.275C789.333 333.275 795.867 329.542 800.933 322.342C805.333 316.208 809.467 314.208 811.333 317.275C812.8 319.808 806.667 327.675 799.867 332.075C795.467 334.875 793.6 336.742 794.533 337.675C795.333 338.475 797.467 337.942 800.8 336.075C803.467 334.475 806 333.408 806.267 333.808C807.6 335.008 803.733 339.942 800 341.942C797.733 343.142 796 344.475 796 345.142C796 347.275 797.733 347.808 800.133 346.475C803.2 344.875 803.2 345.542 800.8 350.342C798.267 355.408 790.933 359.142 775.733 363.142C759.2 367.408 750.533 371.542 726.8 385.808C702.667 400.208 691.333 404.208 673.333 404.208C666.4 404.342 656.8 403.542 652 402.742C639.333 400.342 614.667 392.075 614.667 390.208C614.667 386.742 622.533 372.208 625.733 369.675C634.267 363.008 636.133 363.008 649.6 369.808C660.267 375.275 663.2 376.075 670.4 376.208C677.6 376.342 680 375.675 689.067 370.875C699.2 365.542 706.4 363.675 723.867 361.808C734.533 360.742 745.733 357.008 751.333 352.742C753.733 350.875 758 344.875 761.067 339.008C767.333 327.142 774.667 319.275 782.133 316.608C787.733 314.608 789.6 314.608 790.267 316.875ZM574.667 330.608C583.067 332.075 591.733 334.342 593.867 335.408C596 336.342 598.4 337.275 599.2 337.275C603.2 337.275 620.133 347.008 627.067 353.275L634.8 360.342L629.733 362.608C622.4 365.808 617.067 372.608 612.133 385.008C609.6 391.008 607.067 396.342 606.4 396.742C604.4 398.075 598.8 393.542 593.733 386.475C589.067 379.808 585.6 378.475 586.4 383.542C586.667 385.408 583.6 389.008 576 395.942C562.133 408.342 531.333 441.142 513.333 462.608C496 483.275 484.133 494.875 477.2 497.942C474.4 499.275 471.733 500.075 471.333 499.808C471.067 499.408 471.467 495.275 472.267 490.608C473.467 483.408 473.333 480.742 471.6 474.608C467.867 462.208 457.6 445.542 446.667 434.475C437.2 424.875 434.133 423.008 421.333 419.008C419.733 418.608 420.133 417.808 422.667 415.808C452.133 392.208 465.733 377.808 474.667 361.008C481.067 349.008 477.733 348.075 470.8 359.808C464.8 369.942 461.867 372.342 456.267 371.675C453.067 371.275 452.267 370.075 449.067 360.875C447.067 355.142 444.533 349.142 443.333 347.542C440.133 343.008 440.8 342.608 449.067 343.408C459.333 344.475 469.733 342.342 483.067 336.475C503.067 327.675 509.6 326.475 536 327.142C552.133 327.542 564.133 328.608 574.667 330.608ZM443.467 356.875C444.667 360.475 446.533 365.275 447.467 367.675C448.8 371.142 448.933 372.208 447.6 372.608C444.133 373.808 362.533 390.475 349.333 392.608C341.6 393.942 331.733 396.208 327.333 397.942C322.4 399.675 314.533 401.142 306.933 401.675C294.933 402.608 292.8 403.275 280.8 410.208C279.333 411.142 276.933 411.942 275.733 411.942C270.8 411.942 273.6 407.675 282.4 401.942C287.333 398.742 293.067 394.608 295.333 392.742C298.533 389.942 298.8 389.275 297.067 388.608C294.667 387.675 289.333 389.942 289.333 391.808C289.333 393.408 272.4 404.075 266.667 406.208C261.867 407.942 257.333 407.408 257.333 405.142C257.333 404.475 261.067 402.208 265.733 400.208C270.4 398.075 277.733 394.075 282 391.275C289.067 386.742 290.933 386.208 300 385.942C321.6 385.142 331.333 381.808 355.333 367.142C371.333 357.275 376.933 355.942 404.667 354.475C417.867 353.942 430.533 352.742 432.667 352.075C440 349.808 440.933 350.208 443.467 356.875ZM688.133 366.875C680.133 371.275 677.067 372.342 671.467 372.342C664.133 372.208 652 368.208 646.667 363.942L643.333 361.275H670.667H698L688.133 366.875ZM273.333 391.542C270.267 393.675 258.8 394.342 255.867 392.475C252.4 390.342 255.867 389.275 265.6 389.275C276.4 389.275 276.533 389.275 273.333 391.542ZM168.533 392.742C169.867 394.075 170.667 397.142 170.667 401.142C170.667 406.342 171.333 408.208 174.133 411.142C176.133 413.008 178.267 414.608 178.8 414.608C180.8 414.608 180.133 417.142 176.533 422.608C172.533 428.608 171.6 428.875 165.333 425.675C158.533 422.342 150.133 422.208 134.4 425.142C120.933 427.542 110.933 431.275 102.533 436.742C100.533 437.942 98 438.608 96.8 438.208C94.4 437.275 93.8667 431.275 96 429.942C96.8 429.542 97.3333 427.142 97.3333 424.742C97.3333 420.875 98.6667 419.142 106.933 412.075C118.133 402.208 119.067 401.808 134.267 399.942C142.4 398.875 148.133 397.275 153.333 394.608C161.733 390.208 165.6 389.675 168.533 392.742ZM181.333 404.742C181.333 409.808 179.333 410.342 176.8 406.075C175.6 404.342 175.867 403.408 177.867 401.808C181.333 399.275 181.333 399.275 181.333 404.742ZM205.467 414.075C232.8 438.075 263.067 457.275 279.867 461.542C284.933 462.742 286 463.808 287.733 468.208C289.067 471.675 290.533 473.275 292.4 473.275C294.667 473.275 294.933 472.608 294.267 468.075C293.467 461.942 294.667 461.275 306.933 461.275C317.467 461.275 338.533 457.008 351.733 452.208C357.867 449.942 368.667 444.208 376 439.408C394.533 427.275 399.333 425.008 408.667 424.208C425.067 423.008 437.467 429.275 449.333 445.008C455.6 453.275 465.6 471.808 467.2 477.942C467.733 480.075 464.8 482.875 452 492.342C434.267 505.542 417.467 519.942 388.8 547.008C356.667 577.142 334.133 593.542 316.933 599.542C304.4 603.942 299.867 603.142 286.933 594.875C270.667 584.475 269.067 583.675 235.467 568.075C191.467 547.675 163.867 531.275 147.067 515.408C138.8 507.808 138.4 505.275 143.067 491.942C146.533 482.475 150.933 474.742 157.333 467.408L161.467 462.742L175.067 473.142C206.8 497.275 236.133 516.208 268.267 533.275C283.333 541.142 284 541.675 283.067 545.008C281.467 551.542 281.867 553.942 284.8 554.342C286.933 554.608 287.867 553.542 289.467 548.342L291.333 541.942H299.867H308.4L315.2 533.942C328.267 518.475 358.267 489.808 378.4 473.408C389.467 464.342 398.667 456.075 398.667 455.008C398.667 454.075 397.733 452.875 396.667 452.475C393.6 451.275 360.667 478.075 338 500.075L326 511.808L312.667 510.475C268.4 506.075 229.067 485.808 176.133 440.342L171.733 436.608L176 431.942C182.133 425.408 188 412.475 188 405.542C188 398.608 187.2 398.208 205.467 414.075ZM317.467 407.942C315.733 409.408 313.067 410.608 311.467 410.608C310 410.742 306.267 411.808 303.333 413.275C300.4 414.742 297.6 415.808 297.067 415.942C294.933 415.942 296.133 412.342 299.067 409.542C301.733 407.008 306.133 406.075 316.667 405.542L320.667 405.408L317.467 407.942ZM1786.93 452.075C1798.67 458.875 1830.4 471.675 1841.2 473.942C1847.73 475.408 1852.4 475.408 1861.87 474.342C1875.47 472.875 1886.8 473.542 1896.8 476.608C1903.07 478.475 1903.6 478.875 1902.93 481.942C1901.73 488.342 1885.6 494.875 1855.07 501.275C1844.4 503.542 1833.2 506.742 1830.13 508.208L1824.53 510.875L1808.8 507.675L1793.07 504.608L1786 483.275C1782.13 471.542 1777.47 458.075 1775.47 453.408C1773.6 448.608 1772 444.608 1772 444.342C1772 443.675 1775.87 445.675 1786.93 452.075ZM144.4 455.275C146.133 457.142 148.4 460.342 149.333 462.475C150.667 465.942 150.4 467.008 145.333 474.742C142.4 479.275 138.8 486.742 137.467 491.142L134.933 499.275L128.4 498.875C124.533 498.608 119.867 499.275 117.2 500.342C92.1333 511.275 78.6667 518.075 70.2667 523.942C60 531.142 56 531.808 56 526.742C56 525.275 56.6667 523.675 57.4667 523.142C58.2667 522.742 58.6667 520.475 58.2667 518.075C57.8667 515.408 58.5333 512.742 60 510.608C61.3333 508.742 62.8 504.342 63.3333 500.875C64.6667 491.808 71.7333 487.142 93.4667 480.742C101.733 478.208 107.333 475.542 113.2 471.275C117.6 467.942 121.333 464.875 121.333 464.342C121.333 463.675 123.6 460.742 126.533 457.542C132.8 450.608 138.933 449.942 144.4 455.275ZM1949.87 461.275C1959.33 470.208 1967.6 473.808 1979.33 473.942C1985.6 473.942 1989.73 474.742 1992 476.208C1993.87 477.408 1998.13 479.142 2001.6 479.942C2008.67 481.808 2012.8 485.408 2011.47 488.742C2010.8 490.475 2009.6 490.742 2004.93 490.075C1984.13 486.742 1971.6 488.075 1943.73 496.608C1926.13 502.075 1925.33 502.075 1925.33 498.475C1925.33 495.008 1923.2 490.875 1918.93 486.342C1916.27 483.408 1915.87 482.342 1917.2 480.875C1918 479.808 1920 474.875 1921.73 469.808C1924 462.608 1925.6 460.075 1929.2 457.675C1936.67 452.608 1941.73 453.542 1949.87 461.275ZM468.8 489.542C468.4 490.475 467.867 492.875 467.467 494.875C466.533 499.008 464.667 499.542 460.667 496.475C458.133 494.608 458.133 494.475 462 491.275C466.4 487.808 469.6 487.008 468.8 489.542ZM1964.53 503.275C1970 505.142 1975.6 506.608 1976.8 506.608C1978.13 506.608 1982.67 507.675 1986.93 508.875C1995.47 511.408 1997.07 514.075 1995.33 523.808C1993.6 533.808 1992.67 534.208 1980.27 529.408C1961.47 522.208 1940.93 517.808 1922.4 517.008C1918.13 516.742 1914.67 516.475 1914.67 516.342C1914.67 516.208 1916.67 515.008 1919.07 513.808C1921.33 512.608 1924.53 510.608 1926 509.275C1928.67 506.875 1947.87 500.075 1952.27 499.942C1953.6 499.942 1959.07 501.408 1964.53 503.275ZM2039.07 507.942C2040.93 509.408 2044.67 514.208 2047.33 518.608C2052.8 527.675 2059.87 532.608 2069.33 534.075C2076.53 535.142 2078.13 536.208 2079.33 540.875C2079.73 542.742 2081.6 546.208 2083.47 548.608C2086.13 552.075 2086.67 554.342 2086.67 561.675C2086.67 566.608 2086.13 570.608 2085.47 570.608C2084.67 570.608 2080.13 568.475 2075.07 565.942C2070.13 563.408 2065.33 561.275 2064.4 561.275C2063.6 561.275 2054.8 558.608 2044.93 555.408C2032.8 551.542 2024.4 547.942 2019.07 544.342C2014.8 541.542 2008.53 538.075 2005.07 536.742C1997.87 534.075 1998.13 534.608 2000.27 525.408C2001.73 519.142 2002.13 518.608 2005.73 518.608C2008.53 518.608 2010.93 517.142 2014.53 513.275C2017.2 510.475 2020.8 507.542 2022.67 506.742C2028.27 504.475 2035.33 505.008 2039.07 507.942ZM1811.73 513.675L1818.8 515.275L1809.47 522.875C1804.27 527.142 1799.47 530.608 1798.93 530.608C1798.27 530.608 1797.07 527.408 1796.13 523.542C1795.33 519.808 1794.27 515.142 1793.73 513.408C1792.93 510.342 1793.07 510.208 1798.8 511.142C1802 511.675 1807.87 512.742 1811.73 513.675Z" fill="#181818"></path> <path d="M1546.93 264.208C1548 267.275 1557.87 273.142 1564.67 274.742C1572.53 276.475 1586 274.475 1589.33 271.142C1591.2 269.142 1590.8 269.008 1584.67 270.075C1571.07 272.342 1563.47 271.542 1556 266.875C1548.67 262.342 1546.13 261.542 1546.93 264.208Z" fill="#181818"></path> <path d="M694.667 393.142C692.8 394.475 690.133 395.808 688.8 396.075C684.933 396.875 684.533 399.942 688.267 399.942C692.4 399.942 700 395.142 700 392.608C700 389.942 698.8 390.075 694.667 393.142Z" fill="#181818"></path> <path d="M386.667 371.008C386.667 373.675 393.867 376.475 398.133 375.408C402.533 374.208 401.6 371.675 396.533 371.275C394.4 371.008 391.333 370.475 389.733 369.942C387.467 369.275 386.667 369.542 386.667 371.008Z" fill="#181818"></path> <path d="M2172.67 53.4084C2172.4 54.4751 2171.87 61.0084 2171.73 67.9417L2171.33 80.6084L2158.4 81.0084C2151.2 81.1417 2145.33 81.9417 2145.33 82.6084C2145.33 83.2751 2151.2 84.0751 2158.4 84.2084L2171.33 84.6084L2172 97.6751C2172.4 105.008 2173.2 110.608 2174 110.608C2174.8 110.608 2175.6 105.008 2176 97.6751L2176.67 84.6084L2188.4 84.2084C2194.8 84.0751 2200 83.2751 2200 82.6084C2200 81.9417 2194.8 81.1417 2188.4 81.0084L2176.67 80.6084L2176.27 67.2751C2175.87 54.8751 2174.4 48.8751 2172.67 53.4084Z" fill="#181818"></path> <path d="M473.867 109.275C468 111.542 469.067 119.942 475.333 119.942C479.067 119.942 482.933 116.475 482.4 113.542C481.733 110.475 477.067 108.075 473.867 109.275Z" fill="#181818"></path> <path d="M236.8 120.075C236.4 122.342 236 127.142 236 130.742V137.142L227.067 137.542C222 137.808 218 138.475 218 139.275C218 139.942 222 140.742 227.067 141.008L236 141.408V149.942C236 158.875 236.8 162.608 238.8 162.608C239.467 162.608 240 157.808 240 151.942V141.275L246.4 141.142C254.133 141.008 260.267 139.275 257.333 138.208C256.267 137.675 252 137.142 248 137.008L240.667 136.608L240.267 126.208C239.867 115.675 238.267 112.742 236.8 120.075Z" fill="#181818"></path> <path d="M127.733 286.608C114 293.942 110.4 312.075 120.4 323.542C135.333 340.475 162.667 330.475 162.667 307.942C162.667 290.342 143.2 278.475 127.733 286.608ZM149.333 291.808C155.733 296.342 158.933 302.608 158.267 309.408C157.2 321.008 147.867 328.875 136.533 327.542C128.933 326.742 123.333 322.475 120.667 315.275C117.733 307.675 118.8 301.408 124.267 295.275C130.8 287.808 141.6 286.342 149.333 291.808Z" fill="#181818"></path> <path d="M1451.6 450.075C1451.07 450.609 1450.67 457.542 1450.67 465.409V479.809L1438 480.209C1421.33 480.742 1420.93 483.142 1437.33 483.942L1450 484.609L1450.4 498.342C1450.67 508.475 1451.2 511.942 1452.4 511.542C1453.47 511.275 1454.13 506.609 1454.4 497.542L1454.8 483.942H1468.8C1479.47 483.942 1482.8 483.542 1482.4 482.209C1482 481.142 1477.6 480.475 1468.27 480.209L1454.67 479.809L1454.53 466.875C1454.53 454.075 1453.47 448.209 1451.6 450.075Z" fill="#181818"></path> <path d="M861.333 480.075C851.867 481.142 838.533 485.542 836 488.609C833.6 491.409 836.533 491.275 846.133 487.809C858.4 483.409 875.733 482.875 891.2 486.475C898.133 488.075 906.8 490.875 910.267 492.742C918.4 496.875 919.867 496.742 928.4 492.075C937.6 486.875 952.667 483.942 969.6 483.942C980.8 483.942 985.067 484.609 992.667 487.409C1004.27 491.542 1006 491.809 1006 489.275C1006 488.075 1002.13 485.809 996 483.409C986.667 479.542 984.933 479.409 968.667 479.542C949.333 479.675 934.667 482.609 924.533 488.609L918.933 491.942L912.4 488.742C898.4 481.942 877.867 478.342 861.333 480.075Z" fill="#181818"></path> <path d="M1316.8 523.275C1312.27 527.808 1315.2 535.942 1321.33 535.942C1328.27 535.942 1331.87 529.142 1327.07 525.008C1323.2 521.542 1319.2 521.008 1316.8 523.275ZM1324.67 529.275C1324.67 530.342 1323.33 531.408 1321.73 531.675C1319.33 532.075 1318.67 531.408 1318.67 529.275C1318.67 527.142 1319.33 526.475 1321.73 526.875C1323.33 527.142 1324.67 528.208 1324.67 529.275Z" fill="#181818"></path> <path d="M1115.33 542.075C1100.4 545.008 1097.73 545.942 1090 551.275L1081.6 557.008L1078.8 554.075C1070.8 545.542 1052.93 540.475 1041.6 543.408C1034.13 545.408 1036.93 547.008 1048.27 547.275C1061.33 547.542 1066.8 549.542 1075.07 557.142C1078.27 560.208 1081.47 562.608 1082 562.608C1082.53 562.608 1085.07 560.742 1087.73 558.475C1095.73 551.408 1105.87 547.542 1118 547.008C1131.47 546.342 1132.8 545.942 1130.67 543.275C1129.07 541.408 1121.87 540.875 1115.33 542.075Z" fill="#181818"></path> </svg> 