<?xml version="1.0" encoding="UTF-8"?>
<!DOCTYPE svg PUBLIC "-//W3C//DTD SVG 1.1//EN" "http://www.w3.org/Graphics/SVG/1.1/DTD/svg11.dtd">
<!-- Creator: CorelDRAW 2021 (64-Bit) -->
<svg xmlns="http://www.w3.org/2000/svg" xml:space="preserve" width="7.61999cm" height="5.07999cm" version="1.1" style="shape-rendering:geometricPrecision; text-rendering:geometricPrecision; image-rendering:optimizeQuality; fill-rule:evenodd; clip-rule:evenodd"
viewBox="0 0 7619.98 5079.98"
 xmlns:xlink="http://www.w3.org/1999/xlink"
 xmlns:xodm="http://www.corel.com/coreldraw/odm/2003">
 <defs>
  <style type="text/css">
   <![CDATA[
    .str3 {stroke:#181818;stroke-width:26.46;stroke-miterlimit:22.9256}
    .str0 {stroke:#181818;stroke-width:20;stroke-miterlimit:22.9256}
    .str1 {stroke:#181818;stroke-width:8.82;stroke-linecap:round;stroke-linejoin:round;stroke-miterlimit:22.9256}
    .str2 {stroke:#181818;stroke-width:25.86;stroke-miterlimit:10}
    .str4 {stroke:#181818;stroke-width:19.39;stroke-miterlimit:10}
    .fil0 {fill:none}
    .fil9 {fill:#848484}
    .fil8 {fill:#888886}
    .fil4 {fill:white}
    .fil7 {fill:#00002D;fill-rule:nonzero}
    .fil2 {fill:#181818;fill-rule:nonzero}
    .fil10 {fill:#CDC8FE;fill-rule:nonzero}
    .fil5 {fill:#DEFBA1;fill-rule:nonzero}
    .fil3 {fill:#E2EAFF;fill-rule:nonzero}
    .fil6 {fill:#FF5B5B;fill-rule:nonzero}
    .fil1 {fill:white;fill-rule:nonzero}
    .fil11 {fill:white;fill-opacity:0.788235}
   ]]>
  </style>
 </defs>
 <g id="Слой_x0020_1">
  <metadata id="CorelCorpID_0Corel-Layer"/>
  <rect class="fil0" x="-0" y="-0" width="7619.98" height="5079.98"/>
  <path class="fil1" d="M5571.12 2334.62l-4915.98 0c-117.57,0 -213.77,-96.2 -213.77,-213.77 0,-117.57 96.2,-213.77 213.77,-213.77l4915.98 0c117.57,0 213.78,96.2 213.78,213.77 0,117.57 -96.21,213.77 -213.78,213.77z"/>
  <path class="fil2 str0" d="M655.14 1913.99c-115.03,0 -208.61,93.59 -208.61,208.62 0,115.03 93.58,208.62 208.61,208.62l4915.98 0c115.02,0 208.62,-93.59 208.62,-208.62 0,-115.03 -93.6,-208.62 -208.62,-208.62l-4915.98 0zm4915.98 427.54l-4915.98 0c-120.71,0 -218.92,-98.2 -218.92,-218.92 0,-120.72 98.21,-218.92 218.92,-218.92l4915.98 0c120.72,0 218.89,98.2 218.89,218.92 0,120.72 -98.17,218.92 -218.89,218.92z"/>
  <path class="fil3" d="M1260.7 2185.06l-569.23 0c-37.04,0 -67.06,-30.02 -67.06,-67.06 0,-37.03 30.02,-67.05 67.06,-67.05l569.23 0c37.04,0 67.07,30.02 67.07,67.05 0,37.04 -30.03,67.06 -67.07,67.06z"/>
  <path class="fil3" d="M5215.6 2187.08l-569.23 0c-37.04,0 -67.06,-30.02 -67.06,-67.05 0,-37.04 30.02,-67.06 67.06,-67.06l569.23 0c37.04,0 67.07,30.02 67.07,67.06 0,37.03 -30.03,67.05 -67.07,67.05z"/>
  <path class="fil3" d="M2652.55 2185.06l-1103.88 0c-37.04,0 -67.05,-30.02 -67.05,-67.06 0,-37.03 30.01,-67.05 67.05,-67.05l1103.88 0c37.03,0 67.04,30.02 67.04,67.05 0,37.04 -30.01,67.06 -67.04,67.06z"/>
  <path class="fil3" d="M4199.51 2191.74l-970.87 0c-45.7,0 -82.73,-33.11 -82.73,-73.96 0,-40.85 37.03,-73.97 82.73,-73.97l970.87 0c45.7,0 82.76,33.12 82.76,73.97 0,40.84 -37.06,73.96 -82.76,73.96z"/>
  <path class="fil4" d="M2599.95 2292.87c2.75,-38.83 -0.83,-86.85 3.57,-119.91 4.4,-33.06 32.3,-45.38 33.62,-65.67 1.32,-20.29 -23.79,-49.55 -18.06,-83.07 5.73,-33.52 30.13,-86.73 51.16,-117.14 21.03,-30.41 38.71,-38.02 42.05,-59.27 3.34,-21.25 -9.98,-44.4 -14.69,-58.54 -4.71,-14.15 -0.81,-19.28 11.28,-30.23 12.1,-10.94 32.39,-27.71 64.15,-36.08 31.76,-8.39 74.99,-8.39 133.66,2.21 58.66,10.58 132.77,31.75 197.61,54.25 64.84,22.5 131,59.81 193.64,74.81 62.64,15 121.75,7.66 177.33,-0.27 55.58,-7.93 97.05,-30 111.61,-31.75 14.55,-1.77 2.2,16.75 -8.38,33.08 -10.6,16.32 -19.42,30.43 -39.27,37.94 -19.85,7.49 -50.73,8.38 -56.91,14.12 -6.17,5.72 12.36,16.31 21.18,26.46 8.82,10.14 7.94,19.84 -11.46,40.58 -19.41,20.72 -57.35,52.49 -77.64,79.84 -20.29,27.34 -22.94,50.28 -31.31,63.07 -8.39,12.8 -22.51,15.44 -48.09,16.77 -25.58,1.32 -62.64,1.33 -86.46,3.53 -23.82,2.2 -20.9,16.02 -28.4,25.71 -7.5,9.69 -25.43,15.32 -26.3,31.19 -0.87,15.87 11.16,25.62 10.72,37.52 -0.44,11.9 -13.37,26 -23.07,29.97 -9.7,3.97 -25.58,4.85 -68.36,-1.55 -42.78,-6.41 -112.46,-20.1 -127.96,-11.58 -15.51,8.51 23.18,39.23 48.78,52.36 25.6,13.13 38.13,8.67 62.39,0.82 24.25,-7.85 60.23,-19.1 109.27,-14.82 49.02,4.27 111.08,24.05 151.79,44.52 19.73,9.92 34.45,20 37.37,31.13 16.26,9.55 34.48,20.76 54.95,34.73 35.47,24.2 77.67,56.66 114.91,87.83 37.23,31.17 69.51,61.05 106.53,97.44 37.02,36.39 78.78,79.3 111.9,114.75 33.11,35.46 57.56,63.48 73.96,86.6 16.41,23.12 24.76,41.34 28.4,53.68 3.64,12.35 2.56,18.82 8.93,27.47 6.38,8.66 20.19,19.52 34.44,34.61 14.25,15.09 28.93,34.42 37.47,61.04 8.55,26.62 10.96,60.53 17.88,92.05 6.92,31.52 18.36,60.66 25.82,80.28 7.46,19.63 10.95,29.76 9.38,32.82 -1.57,3.06 -8.19,-0.94 -17.08,-3.69 -8.88,-2.74 -20.03,-4.22 -28.68,-4.5 -8.65,-0.28 -14.82,0.66 -24.66,-3.42 -9.84,-4.08 -23.37,-13.16 -30.13,-17.71 -6.76,-4.54 -6.76,-4.54 -10.74,-3.08 -3.97,1.47 -11.91,4.39 -14.62,-5.4 -2.71,-9.78 -0.18,-32.29 0.51,-47.56 0.7,-15.26 -0.43,-23.28 -9.28,-20.46 -8.84,2.82 -25.4,16.48 -37.92,22.57 -12.51,6.09 -20.99,4.6 -25.95,-2.22 -4.95,-6.82 -6.37,-18.98 -3.58,-40.14 2.8,-21.15 9.82,-51.32 14.43,-74.32 4.62,-23 6.83,-38.84 2.23,-44.86 -4.59,-6.02 -15.98,-2.21 -40.72,-21.67 -24.75,-19.45 -62.84,-62.16 -108.62,-107.03 -45.79,-44.87 -99.28,-91.89 -142.72,-125.94 -43.44,-34.05 -76.85,-55.11 -107.84,-71.73 -31,-16.61 -59.6,-28.76 -80.34,-35.91 -20.75,-7.15 -33.65,-9.29 -40.1,-10.36 -6.45,-1.07 -6.45,-1.07 9.5,35.99 15.95,37.06 47.86,111.18 73.13,177.89 25.26,66.72 43.88,126.04 51.98,161.49 8.1,35.46 5.66,47.05 9.45,64.49 3.79,17.44 13.81,40.73 32.77,79.16 18.95,38.44 46.86,92.03 61.8,129.27 14.93,37.24 16.91,58.13 12.11,84.43 -4.81,26.31 -16.38,58.02 -50.5,112.19 -34.13,54.17 -90.81,130.78 -129.44,179.1 -38.63,48.33 -59.23,68.35 -69.35,84.27 -10.12,15.93 -9.78,27.74 1.02,28.68 10.8,0.95 32.05,-8.98 64.9,-22.25 32.85,-13.26 77.31,-29.87 135.41,-46.08 58.1,-16.21 129.86,-32.03 172.55,-38.54 42.69,-6.5 56.33,-3.69 66.83,-10.23 10.5,-6.53 17.88,-22.42 24.17,-42.51 6.29,-20.09 11.5,-44.38 21.18,-61.25 9.68,-16.87 23.83,-26.32 38.68,-27.24 14.86,-0.91 30.41,6.7 51.66,16.8 21.26,10.1 48.21,22.68 73.15,34.07 24.95,11.4 47.89,21.6 64.6,23.73 16.71,2.14 27.19,-3.8 36.2,-2.44 9.02,1.37 16.58,10.04 28.95,14.52 12.38,4.48 29.59,4.78 48.38,12.23 18.79,7.45 39.16,22.04 45.41,33.21 6.25,11.18 -1.62,18.93 -12.97,20.81 -11.35,1.88 -26.16,-2.1 -49.84,-4.35 -23.67,-2.25 -56.21,-2.76 -90.72,1.09 -34.51,3.86 -71.01,12.07 -102.96,23.42 -31.95,11.36 -59.36,25.84 -80.41,31.9 -21.04,6.06 -35.72,3.68 -41.87,7.15 -6.16,3.48 -3.8,12.8 -5.01,21.33 -1.22,8.54 -6.03,16.28 -32.98,27.28 -26.96,11.01 -76.07,25.28 -129.02,45.32 -52.96,20.04 -109.75,45.87 -172.59,76.94 -62.85,31.07 -131.73,67.4 -178.22,90.78 -46.49,23.38 -70.58,33.83 -92.67,55.14 -22.1,21.31 -42.19,53.5 -65.88,98.33 -23.7,44.83 -50.99,102.3 -80.34,168.98 -29.36,66.69 -60.78,142.57 -82.36,189.49 -21.59,46.93 -33.34,64.9 -43.99,78.29 -10.65,13.4 -20.19,22.22 -16.03,40.2 4.15,17.99 22,45.12 35.01,65.94 13.01,20.83 21.16,35.35 22.91,47.72 1.74,12.38 -2.93,22.62 -17.27,31.76 -14.34,9.14 -38.35,17.18 -63.8,25.15 -25.45,7.98 -52.35,15.9 -73.35,27.75 -21,11.86 -36.1,27.66 -53.24,40 -17.15,12.35 -36.34,21.23 -55.88,28.85 -19.55,7.62 -39.47,13.98 -54.78,11.93 -15.32,-2.05 -26.04,-12.51 -28.59,-22.56 -2.56,-10.04 3.05,-19.69 21.8,-37.3 18.75,-17.61 50.64,-43.18 69.01,-67.54 18.37,-24.36 23.21,-47.49 32.04,-74.24 8.83,-26.74 21.65,-57.1 31.95,-84.65 10.29,-27.54 18.06,-52.28 32.62,-117.58 14.55,-65.3 35.89,-171.16 53.15,-257.78 17.26,-86.62 30.45,-153.99 43.74,-214.79 13.29,-60.8 26.68,-115.02 39.35,-173.88 12.66,-58.85 24.6,-122.35 40.36,-186.44 15.75,-64.08 35.31,-128.77 49.92,-181.12 14.6,-52.34 24.25,-92.36 22.73,-130.86 -1.52,-38.49 -14.21,-75.46 -23.69,-98.15 -9.48,-22.68 -15.77,-31.07 -20.93,-37.67 -5.16,-6.6 -9.21,-11.4 -19.71,-47.87 -10.5,-36.46 -27.46,-104.59 -48.09,-169.21 -20.63,-64.61 -44.93,-125.71 -60.91,-164.08 -15.98,-38.37 -23.64,-54 -30.54,-63.33 -6.9,-9.32 -13.03,-12.34 -36.52,-4.12 -23.49,8.23 -64.34,27.7 -108.86,47.17 -44.53,19.47 -92.74,38.95 -124.91,48.82 -32.18,9.87 -48.31,10.15 -59.56,4.48 -11.26,-5.66 -17.63,-17.26 -19.85,-36.56 -2.22,-19.3 -0.3,-46.29 6.68,-89.91 6.97,-43.62 19,-103.85 27.78,-155.77 8.77,-51.92 14.31,-95.52 23.11,-123.26 8.8,-27.74 27.38,-39.54 32.9,-51.49 5.52,-11.95 -0.44,-23.79 5.16,-38.36zm300.72 30.4l-7.17 -10.47c-32.24,-46.31 -54.3,-64.22 -77.68,-74.49 -23.38,-10.28 -48.08,-12.93 -64.4,-12.49 -16.33,0.44 -24.26,3.96 -38.38,13.23 -12.34,8.09 -29.37,20.57 -37.68,41.9l0.6 2.71c3.71,18.54 -1.63,34.75 -5.39,60.96 -3.76,26.21 -5.94,62.41 -9.16,96.74 -3.23,34.33 -7.51,66.79 -10.82,92.87 -3.31,26.08 -5.64,45.79 -3.51,55.35 2.13,9.56 8.72,8.97 24.39,1.21 15.66,-7.75 40.39,-22.67 61.02,-39.38 20.62,-16.7 37.13,-35.18 49.31,-53.95 12.17,-18.77 20,-37.83 35.11,-54.5 15.1,-16.67 37.48,-30.96 53.44,-40.79 15.95,-9.83 25.49,-15.19 29.71,-21.08 4.22,-5.89 7.76,-13.1 6.44,-24.34 -1.32,-11.24 -7.28,-23.44 -5.83,-33.48z"/>
  <path class="fil2" d="M6547.71 3789.01c-2.42,0.24 -4.64,-1.44 -5.04,-3.89 -0.42,-2.54 1.31,-4.92 3.85,-5.35l18.31 -2.97c2.53,-0.42 4.93,1.3 5.34,3.84 0.42,2.54 -1.31,4.93 -3.84,5.35l-18.32 2.99c-0.09,0.01 -0.19,0.02 -0.3,0.03z"/>
  <path class="fil2" d="M7091.66 1047.48c-2.42,0.24 -4.64,-1.44 -5.04,-3.89 -0.42,-2.54 1.31,-4.92 3.85,-5.35l18.31 -2.97c2.53,-0.42 4.93,1.3 5.34,3.84 0.42,2.54 -1.31,4.93 -3.84,5.35l-18.32 2.99c-0.09,0.01 -0.19,0.02 -0.3,0.03z"/>
  <path class="fil2" d="M7396.9 1816.54c-2.42,0.24 -4.64,-1.44 -5.04,-3.89 -0.42,-2.54 1.31,-4.92 3.85,-5.35l18.31 -2.97c2.53,-0.42 4.93,1.3 5.34,3.84 0.42,2.54 -1.31,4.93 -3.84,5.35l-18.32 2.99c-0.09,0.01 -0.19,0.02 -0.3,0.03z"/>
  <path class="fil2" d="M7125.25 4019.56c-0.18,0.02 -0.35,0.04 -0.54,0.04l-19.97 -0.26c-2.57,-0.03 -4.62,-2.13 -4.59,-4.72 0.02,-2.56 2.11,-4.63 4.71,-4.6l19.97 0.26c2.58,0.01 4.63,2.13 4.6,4.72 -0.02,2.39 -1.86,4.33 -4.18,4.56z"/>
  <path class="fil2" d="M6678.87 3201.81c-1.08,0.1 -2.21,-0.17 -3.16,-0.84 -2.1,-1.5 -2.58,-4.41 -1.09,-6.5l19.71 -27.58c1.49,-2.1 4.4,-2.57 6.49,-1.09 2.1,1.51 2.58,4.41 1.09,6.51l-19.71 27.57c-0.81,1.14 -2.03,1.8 -3.33,1.93z"/>
  <path class="fil2" d="M5108.14 3442.5c-2.14,0.21 -4.22,-1.09 -4.9,-3.22 -0.79,-2.44 0.56,-5.08 3,-5.86l19.02 -6.13c2.45,-0.79 5.07,0.56 5.86,3 0.79,2.46 -0.55,5.08 -3,5.86l-19.02 6.14c-0.31,0.11 -0.64,0.18 -0.96,0.21z"/>
  <path class="fil2" d="M4663.36 3665.83c-0.17,0.02 -0.35,0 -0.51,0.01l-31.27 -0.31c-2.58,-0.03 -4.64,-2.14 -4.61,-4.7 0.02,-2.59 2.13,-4.64 4.7,-4.62l31.27 0.31c2.57,0.03 4.64,2.13 4.61,4.72 -0.01,2.4 -1.85,4.36 -4.19,4.59z"/>
  <path class="fil2" d="M4830.52 4085.58c-0.67,0.07 -1.38,-0.02 -2.07,-0.28 -2.41,-0.9 -3.65,-3.57 -2.74,-5.99l9.93 -26.74c0.9,-2.41 3.57,-3.65 6,-2.75 2.41,0.9 3.63,3.59 2.74,5.99l-9.95 26.75c-0.63,1.73 -2.19,2.85 -3.91,3.02z"/>
  <path class="fil2" d="M6058.83 3323.55c-1.01,0.1 -2.08,-0.13 -3,-0.73 -2.15,-1.43 -2.75,-4.31 -1.35,-6.45l10.15 -15.55c1.4,-2.15 4.29,-2.76 6.44,-1.34 2.17,1.41 2.76,4.29 1.36,6.45l-10.15 15.52c-0.81,1.23 -2.09,1.96 -3.45,2.1z"/>
  <path class="fil2" d="M6733.73 3996.86c-67.75,6.74 -148.98,-11.14 -223.88,-27.62 -54.43,-11.98 -105.85,-23.3 -145.29,-23.52 -2.56,-0.03 -4.64,-2.11 -4.62,-4.7 0.01,-2.56 2.09,-4.63 4.69,-4.62 40.41,0.25 92.29,11.64 147.23,23.75 112.27,24.71 239.07,52.59 308.92,-5.5 -13.59,-4.16 -32.58,-14.22 -55.36,-26.26 -41.53,-21.98 -93.2,-49.32 -144.88,-59.75 -60.16,-12.16 -105.27,1.84 -137.91,42.79 -1.61,2.02 -4.53,2.35 -6.55,0.75 -2.01,-1.61 -2.34,-4.54 -0.74,-6.56 18.61,-23.33 41.65,-38.76 68.47,-45.86 22.97,-6.06 49.4,-6.15 78.58,-0.26 52.99,10.71 105.34,38.39 147.39,60.66 26.69,14.13 49.76,26.33 61.26,27.2 1.83,0.15 3.4,1.35 4.02,3.07 0.63,1.74 0.17,3.66 -1.14,4.94 -26.31,25.43 -60.99,37.58 -100.19,41.49z"/>
  <path class="fil2" d="M7277.68 1255.34c-67.75,6.74 -148.98,-11.14 -223.88,-27.62 -54.43,-11.98 -105.85,-23.3 -145.29,-23.52 -2.56,-0.03 -4.64,-2.11 -4.62,-4.7 0.01,-2.56 2.09,-4.63 4.69,-4.62 40.41,0.25 92.29,11.64 147.23,23.75 112.27,24.71 239.07,52.59 308.92,-5.5 -13.59,-4.16 -32.58,-14.22 -55.36,-26.26 -41.53,-21.98 -93.2,-49.32 -144.88,-59.75 -60.16,-12.16 -105.27,1.84 -137.91,42.79 -1.61,2.02 -4.53,2.35 -6.55,0.75 -2.01,-1.61 -2.34,-4.54 -0.74,-6.56 18.61,-23.33 41.65,-38.76 68.47,-45.86 22.97,-6.06 49.4,-6.15 78.58,-0.26 52.99,10.71 105.34,38.39 147.39,60.66 26.69,14.13 49.76,26.33 61.26,27.2 1.83,0.15 3.4,1.35 4.02,3.07 0.63,1.74 0.17,3.66 -1.14,4.94 -26.31,25.43 -60.99,37.58 -100.19,41.49z"/>
  <path class="fil2" d="M6721.27 3948.61c-0.34,0.04 -0.71,0.03 -1.06,0 -144.96,-18.78 -344.46,-28.56 -471.65,31.47 -2.31,1.1 -5.1,0.11 -6.2,-2.22 -1.1,-2.32 -0.1,-5.1 2.23,-6.2 59.8,-28.23 141.15,-43.8 241.81,-46.27 70.92,-1.74 149.99,2.97 235,13.97 2.55,0.33 4.36,2.67 4.02,5.22 -0.27,2.19 -2.04,3.82 -4.15,4.03z"/>
  <path class="fil2" d="M7265.22 1207.09c-0.34,0.04 -0.71,0.03 -1.06,0 -144.96,-18.78 -344.46,-28.56 -471.65,31.47 -2.31,1.1 -5.1,0.11 -6.2,-2.22 -1.1,-2.32 -0.1,-5.1 2.23,-6.2 59.8,-28.23 141.15,-43.8 241.81,-46.27 70.92,-1.74 149.99,2.97 235,13.97 2.55,0.33 4.36,2.67 4.02,5.22 -0.27,2.19 -2.04,3.82 -4.15,4.03z"/>
  <path class="fil2" d="M5089.96 3703.98c-1.09,0.11 -2.22,-0.18 -3.19,-0.87 -2.08,-1.5 -2.54,-4.4 -1.04,-6.5 16.85,-23.29 41.01,-37.81 60.18,-47.84 13.45,-7.05 31.15,-2.7 45.38,0.76 1.95,0.48 3.8,0.94 5.58,1.34 6.18,1.42 12.44,2.92 18.49,4.35 18.03,4.29 36.67,8.72 55.25,11.56 31.39,4.77 61.83,4.89 90.5,0.32 39.28,-6.26 77.51,-20.47 114.48,-34.24 4.79,-1.78 9.6,-3.58 14.39,-5.33 2.42,-0.9 5.1,0.33 5.99,2.75 0.89,2.41 -0.35,5.09 -2.76,5.97 -4.78,1.77 -9.57,3.56 -14.38,5.35 -37.38,13.92 -76.06,28.31 -116.27,34.7 -29.6,4.71 -61.02,4.6 -93.35,-0.3 -18.96,-2.91 -37.8,-7.39 -56.02,-11.73 -6.03,-1.43 -12.26,-2.91 -18.4,-4.32 -1.81,-0.41 -3.73,-0.88 -5.71,-1.37 -12.71,-3.11 -28.52,-6.98 -38.85,-1.56 -18.26,9.57 -41.24,23.33 -56.95,45.04 -0.81,1.14 -2.04,1.8 -3.32,1.92z"/>
  <path class="fil2" d="M5514.99 3635.26c-15.3,1.52 -30.65,2.04 -45.91,0.87 -39.78,-3.06 -70.29,-23.84 -99.81,-43.94 -13.93,-9.49 -28.32,-19.31 -43.61,-27.22 -27.11,-14.02 -55.31,-17.91 -81.53,-11.22 -49.16,12.56 -84.32,53.04 -105.14,84.8 -1.42,2.14 -4.3,2.75 -6.45,1.33 -2.16,-1.43 -2.75,-4.3 -1.35,-6.45 21.75,-33.13 58.58,-75.4 110.64,-88.69 28.47,-7.28 58.95,-3.13 88.11,11.98 15.78,8.16 30.43,18.14 44.58,27.77 29.8,20.31 57.97,39.48 95.28,42.36 36.63,2.81 74.46,-4.65 111.05,-11.84 11.58,-2.28 23.5,-4.63 35.28,-6.63 -58.53,-46.37 -162.58,-107.67 -255.84,-53.49 -2.23,1.31 -5.08,0.54 -6.37,-1.68 -1.3,-2.21 -0.54,-5.06 1.69,-6.37 42.78,-24.85 91.61,-29.21 145.11,-12.94 41.45,12.6 86.2,38.13 129.42,73.85 1.41,1.17 2.01,3.06 1.52,4.84 -0.49,1.76 -1.98,3.08 -3.8,3.35 -14.87,2.24 -30.29,5.27 -45.22,8.21 -22.21,4.37 -44.91,8.85 -67.65,11.11z"/>
  <g>
   <path class="fil2" d="M2430.56 3794.42c172.29,12.11 344.14,2.4 515.04,-19.18 0.19,-2.79 0.32,-5.48 0.41,-8.08 -126.42,16.1 -253.42,25.62 -381.07,24.37 -44.39,-0.41 -88.72,-2.27 -132.96,-5.4 -5.35,-0.37 -6.79,7.92 -1.42,8.29zm1736.64 -243.89c115.63,-16.9 151.25,-16.88 268.22,-20.94 279.94,-9.69 554.93,36.78 828.34,86.98 223.18,40.95 449.6,81.64 678.17,61.17 269.59,-24.15 518.9,-136.64 741.41,-289.28 36.2,-24.82 71.67,-50.66 106.62,-77.2 4.32,-3.28 -0.58,-10.03 -4.92,-6.72 -229.31,174.07 -487.76,315.91 -774.71,356.85 -228.29,32.55 -456.18,-0.89 -680.12,-41.25 -256.1,-46.19 -512.22,-95.71 -773.92,-100.03 -162.27,-2.66 -243,0.18 -403.36,24.15 5.04,1.82 9.79,3.92 14.27,6.27z"/>
   <path id="_1" class="fil2" d="M2941.81 3775.03l7.58 0.42 -3.37 3.56 -16.03 1.99 -16.05 1.91 -16.06 1.85 -16.06 1.77 -16.06 1.7 -16.07 1.61 -16.07 1.53 -16.09 1.45 -16.08 1.37 -16.09 1.29 -16.1 1.19 -16.1 1.11 -16.11 1.01 -16.11 0.91 -16.11 0.83 -16.12 0.72 -16.13 0.63 -16.12 0.53 -16.14 0.43 -16.14 0.32 -16.14 0.22 -16.14 0.1 -16.16 0 -16.14 -0.11 -16.16 -0.23 -16.17 -0.34 -16.16 -0.47 -16.16 -0.58 -16.18 -0.7 -16.17 -0.82 -16.18 -0.95 -16.18 -1.07 0.64 -7.58 16.12 1.07 16.12 0.95 16.11 0.82 16.12 0.7 16.12 0.58 16.1 0.45 16.11 0.34 16.1 0.23 16.1 0.11 16.1 0 16.1 -0.1 16.08 -0.22 16.1 -0.32 16.08 -0.41 16.08 -0.53 16.07 -0.63 16.08 -0.72 16.07 -0.83 16.07 -0.91 16.05 -1.01 16.06 -1.11 16.06 -1.19 16.05 -1.27 16.04 -1.37 16.05 -1.45 16.03 -1.53 16.03 -1.61 16.04 -1.68 16.02 -1.77 16.02 -1.85 16.01 -1.91 16.01 -1.99 -3.37 3.56zm7.58 0.42l-0.22 3.16 -3.15 0.4 3.37 -3.56zm-2.95 -4.52l-0.86 -7.54 4.22 3.85 -0.01 0.26 -0.01 0.25 -0.01 0.24 -0.01 0.25 0 0.17 -0.01 0.32 -0.02 0.32 -0.01 0.18 -0.01 0.25 -0.01 0.24 -0.01 0.25 -0.01 0.25 -0.01 0.25 -0.01 0.26 -0.01 0.32 -0.02 0.25 -0.01 0.18 -0.01 0.32 -0.02 0.26 -0.01 0.18 -0.01 0.33 -0.02 0.25 -0.01 0.26 -0.02 0.26 -0.01 0.25 -0.02 0.33 -0.02 0.19 -0.01 0.26 -0.02 0.33 -0.02 0.19 -0.01 0.26 -0.02 0.3 -7.58 -0.42 0.02 -0.22 0.01 -0.26 0.02 -0.33 0.02 -0.19 0.01 -0.26 0.02 -0.33 0.02 -0.19 0.01 -0.25 0.02 -0.26 0.01 -0.26 0.02 -0.25 0.01 -0.19 0.01 -0.32 0.02 -0.26 0.01 -0.18 0.01 -0.32 0.02 -0.25 0.01 -0.18 0.01 -0.26 0.01 -0.25 0.01 -0.25 0.01 -0.25 0.01 -0.24 0.01 -0.25 0.01 -0.32 0.02 -0.18 -0.01 -0.16 0.02 -0.33 0.01 -0.25 0.01 -0.24 0.01 -0.25 0.01 -0.22 4.22 3.85zm-0.86 -7.54l4.37 -0.56 -0.15 4.41 -4.22 -3.85zm-380.73 31.94l0.18 -7.6 0 0 11.95 0.09 11.94 0.02 11.93 -0.04 11.94 -0.1 11.93 -0.16 11.94 -0.22 11.92 -0.27 11.92 -0.33 11.91 -0.39 11.91 -0.45 11.91 -0.5 11.92 -0.56 11.9 -0.61 11.89 -0.66 11.91 -0.72 11.89 -0.77 11.88 -0.82 11.89 -0.87 11.88 -0.91 11.89 -0.96 11.87 -1.02 11.88 -1.06 11.86 -1.11 11.88 -1.15 11.85 -1.2 11.87 -1.25 11.86 -1.27 11.85 -1.33 11.85 -1.37 11.85 -1.41 11.84 -1.45 11.84 -1.49 0.86 7.54 -11.86 1.49 -11.88 1.45 -11.87 1.41 -11.87 1.37 -11.89 1.33 -11.88 1.29 -11.89 1.25 -11.89 1.2 -11.9 1.15 -11.9 1.11 -11.9 1.06 -11.91 1.02 -11.91 0.96 -11.92 0.93 -11.91 0.87 -11.92 0.82 -11.93 0.77 -11.93 0.72 -11.93 0.66 -11.94 0.61 -11.94 0.56 -11.95 0.5 -11.95 0.45 -11.95 0.39 -11.96 0.35 -11.96 0.27 -11.96 0.22 -11.97 0.16 -11.98 0.1 -11.97 0.04 -11.98 -0.02 -11.99 -0.09 0 0zm-133.18 -5.41l0.62 -7.58 0.01 0 4.14 0.29 4.15 0.28 4.13 0.28 4.14 0.26 4.15 0.26 4.14 0.26 4.15 0.24 4.15 0.24 4.14 0.23 4.14 0.22 4.14 0.21 4.16 0.21 4.14 0.19 4.15 0.19 4.15 0.19 4.14 0.17 4.15 0.17 4.15 0.15 4.15 0.15 4.15 0.15 4.15 0.13 4.14 0.12 4.15 0.11 4.16 0.11 4.15 0.1 4.16 0.1 4.15 0.08 4.15 0.08 4.15 0.07 4.15 0.06 4.15 0.05 4.16 0.04 -0.18 7.6 -4.16 -0.04 -4.17 -0.05 -4.17 -0.06 -4.17 -0.07 -4.17 -0.08 -4.17 -0.08 -4.16 -0.1 -4.17 -0.1 -4.16 -0.11 -4.17 -0.11 -4.16 -0.14 -4.17 -0.13 -4.17 -0.15 -4.15 -0.15 -4.17 -0.15 -4.17 -0.17 -4.16 -0.17 -4.17 -0.19 -4.15 -0.19 -4.16 -0.19 -4.16 -0.21 -4.16 -0.21 -4.16 -0.22 -4.16 -0.23 -4.15 -0.24 -4.17 -0.24 -4.16 -0.26 -4.15 -0.26 -4.16 -0.26 -4.15 -0.28 -4.15 -0.28 -4.16 -0.29 0.01 0zm0.62 -7.58l0.01 0 0.43 0.03 -0.44 -0.03zm-1.41 8.29l-0.64 7.58 0.01 0 -0.86 -0.11 -0.84 -0.19 -0.82 -0.28 -0.75 -0.37 -0.71 -0.45 -0.66 -0.54 -0.55 -0.59 -0.48 -0.65 -0.4 -0.69 -0.31 -0.71 -0.22 -0.71 -0.15 -0.67 -0.09 -0.74 -0.03 -0.74 0.04 -0.67 0.09 -0.67 0.15 -0.73 0.21 -0.67 0.22 -0.6 0.32 -0.68 0.38 -0.64 0.41 -0.58 0.5 -0.6 0.53 -0.52 0.57 -0.47 0.67 -0.45 0.68 -0.37 0.77 -0.33 0.85 -0.25 0.81 -0.14 0.84 -0.07 0.87 0.01 -0.62 7.58 -0.11 -0.01 -0.1 0.01 -0.07 0.02 0.01 -0.01 -0.01 0.01 -0.06 0.03 -0.01 0.01 -0.05 0.05 -0.05 0.04 -0.02 0.02 -0.05 0.08 -0.04 0.06 -0.02 0.06 -0.06 0.14 -0.03 0.09 -0.01 0.05 -0.01 0.11 0 0.09 -0.01 0.04 0.01 0.02 0.01 0.05 0 0.01 -0.01 -0.03 -0.04 -0.05 -0.04 -0.07 -0.03 -0.03 -0.08 -0.06 -0.05 -0.03 -0.01 -0.01 -0.02 0 0.06 0.01 0.1 0.01 0.01 0zm-0.01 0l0.01 0 0.5 0.03 -0.51 -0.03zm2004.47 -264.83l0.16 7.58 0 0 -10.73 0.37 -10.3 0.35 -9.87 0.33 -9.47 0.32 -9.12 0.31 -8.79 0.31 -8.48 0.31 -8.23 0.31 -7.97 0.31 -7.76 0.33 -7.58 0.34 -7.42 0.36 -7.31 0.39 -7.2 0.4 -7.14 0.44 -7.11 0.48 -7.11 0.5 -7.13 0.55 -7.18 0.59 -7.27 0.65 -7.39 0.7 -7.51 0.75 -7.7 0.81 -7.91 0.88 -8.13 0.95 -8.41 1.02 -8.69 1.1 -9.01 1.16 -9.38 1.27 -9.75 1.34 -10.15 1.44 -10.6 1.54 -1 -7.52 10.62 -1.54 10.19 -1.44 9.77 -1.34 9.4 -1.27 9.05 -1.18 8.73 -1.1 8.43 -1.02 8.17 -0.95 7.95 -0.88 7.74 -0.83 7.57 -0.75 7.43 -0.7 7.31 -0.65 7.22 -0.59 7.17 -0.57 7.15 -0.5 7.15 -0.48 7.18 -0.44 7.24 -0.4 7.33 -0.39 7.46 -0.36 7.6 -0.34 7.78 -0.33 7.99 -0.31 8.23 -0.31 8.5 -0.31 8.79 -0.31 9.12 -0.31 9.49 -0.32 9.87 -0.33 10.28 -0.35 10.73 -0.37 0 0zm829.16 87.04l-1.48 7.46 0 0 -25.63 -4.68 -25.64 -4.67 -25.65 -4.62 -25.66 -4.57 -25.67 -4.51 -25.68 -4.44 -25.7 -4.36 -25.71 -4.26 -25.71 -4.17 -25.74 -4.07 -25.74 -3.95 -25.76 -3.81 -25.78 -3.68 -25.79 -3.54 -25.8 -3.36 -25.83 -3.22 -25.84 -3.04 -25.86 -2.84 -25.88 -2.66 -25.9 -2.45 -25.92 -2.24 -25.94 -2.01 -25.97 -1.79 -25.98 -1.54 -26 -1.29 -26.03 -1.02 -26.06 -0.75 -26.08 -0.47 -26.1 -0.19 -26.13 0.12 -26.16 0.42 -26.18 0.74 -0.16 -7.58 26.28 -0.76 26.24 -0.42 26.23 -0.12 26.18 0.19 26.16 0.47 26.14 0.77 26.11 1.02 26.08 1.29 26.06 1.54 26.03 1.79 26 2.03 25.98 2.24 25.96 2.45 25.94 2.66 25.92 2.86 25.9 3.04 25.87 3.22 25.86 3.38 25.83 3.54 25.82 3.68 25.8 3.83 25.78 3.95 25.76 4.07 25.75 4.17 25.73 4.28 25.72 4.36 25.7 4.44 25.69 4.51 25.68 4.57 25.67 4.62 25.64 4.67 25.65 4.7 0 0zm677.14 61.12l0.58 7.56 0 0 -21.49 1.75 -21.47 1.4 -21.45 1.05 -21.44 0.75 -21.43 0.42 -21.41 0.12 -21.39 -0.18 -21.38 -0.45 -21.36 -0.74 -21.34 -0.98 -21.33 -1.23 -21.31 -1.46 -21.29 -1.7 -21.28 -1.9 -21.26 -2.11 -21.25 -2.3 -21.22 -2.48 -21.21 -2.64 -21.18 -2.81 -21.17 -2.95 -21.15 -3.09 -21.13 -3.21 -21.12 -3.32 -21.09 -3.43 -21.07 -3.52 -21.07 -3.59 -21.03 -3.67 -21.02 -3.71 -20.99 -3.77 -20.98 -3.8 -20.95 -3.83 -20.94 -3.84 1.48 -7.46 20.92 3.84 20.95 3.81 20.96 3.8 20.99 3.77 21 3.71 21.01 3.67 21.03 3.59 21.05 3.5 21.05 3.43 21.08 3.32 21.09 3.19 21.11 3.09 21.11 2.95 21.14 2.79 21.15 2.64 21.16 2.48 21.17 2.28 21.2 2.11 21.2 1.9 21.21 1.68 21.23 1.46 21.25 1.23 21.26 0.98 21.26 0.72 21.28 0.45 21.29 0.18 21.31 -0.12 21.31 -0.42 21.32 -0.73 21.35 -1.05 21.35 -1.4 21.35 -1.73 0 0zm739.58 -288.62l4.24 6.24 0 0 -20.98 14.22 -21.13 13.97 -21.29 13.72 -21.43 13.45 -21.61 13.2 -21.75 12.9 -21.89 12.62 -22.06 12.32 -22.19 12.02 -22.35 11.7 -22.49 11.38 -22.64 11.04 -22.78 10.7 -22.92 10.36 -23.07 9.99 -23.21 9.63 -23.34 9.25 -23.48 8.86 -23.63 8.47 -23.76 8.06 -23.89 7.66 -24.03 7.23 -24.15 6.8 -24.29 6.37 -24.42 5.91 -24.55 5.46 -24.67 4.99 -24.81 4.52 -24.92 4.03 -25.05 3.54 -25.18 3.04 -25.28 2.53 -0.58 -7.56 25.14 -2.51 25.02 -3.02 24.89 -3.52 24.78 -4.01 24.65 -4.5 24.53 -4.95 24.41 -5.44 24.28 -5.87 24.15 -6.33 24.03 -6.76 23.89 -7.19 23.77 -7.62 23.62 -8.02 23.51 -8.43 23.36 -8.82 23.24 -9.21 23.09 -9.57 22.95 -9.95 22.82 -10.3 22.68 -10.66 22.54 -11 22.39 -11.32 22.25 -11.66 22.11 -11.96 21.96 -12.28 21.81 -12.56 21.67 -12.86 21.51 -13.14 21.37 -13.41 21.21 -13.66 21.05 -13.93 20.9 -14.16 0 0zm106.47 -77.09l4.54 6.02 0 0 -3.28 2.49 -3.29 2.49 -3.28 2.48 -3.3 2.47 -3.29 2.48 -3.31 2.46 -3.29 2.46 -3.3 2.47 -3.32 2.45 -3.3 2.45 -3.33 2.45 -3.31 2.44 -3.33 2.43 -3.32 2.44 -3.32 2.42 -3.34 2.42 -3.34 2.42 -3.34 2.4 -3.34 2.41 -3.35 2.4 -3.35 2.4 -3.36 2.38 -3.35 2.39 -3.37 2.38 -3.38 2.38 -3.36 2.36 -3.37 2.36 -3.39 2.37 -3.39 2.34 -3.38 2.34 -3.4 2.35 -3.39 2.33 -4.24 -6.24 3.39 -2.33 3.38 -2.33 3.38 -2.34 3.37 -2.34 3.37 -2.35 3.37 -2.36 3.36 -2.36 3.36 -2.36 3.35 -2.38 3.35 -2.37 3.34 -2.38 3.35 -2.4 3.33 -2.38 3.34 -2.41 3.34 -2.4 3.32 -2.4 3.32 -2.42 3.32 -2.42 3.32 -2.42 3.31 -2.43 3.31 -2.44 3.31 -2.43 3.3 -2.45 3.3 -2.45 3.3 -2.45 3.29 -2.46 3.29 -2.46 3.29 -2.46 3.28 -2.47 3.28 -2.48 3.27 -2.47 3.28 -2.49 0 0zm-0.38 -0.7l-4.54 -6.02 -0.01 0 0.72 -0.49 0.75 -0.42 0.8 -0.33 0.82 -0.25 0.86 -0.14 0.82 -0.05 0.78 0.04 0.78 0.13 0.78 0.21 0.68 0.26 0.68 0.34 0.61 0.4 0.54 0.4 0.54 0.48 0.47 0.5 0.44 0.55 0.4 0.61 0.3 0.56 0.3 0.62 0.26 0.75 0.17 0.67 0.12 0.72 0.05 0.78 -0.02 0.73 -0.1 0.77 -0.18 0.77 -0.27 0.79 -0.38 0.76 -0.45 0.74 -0.54 0.67 -0.59 0.61 -0.67 0.56 -4.54 -6.02 0.09 -0.08 0.05 -0.05 0.02 -0.03 0.01 0 -0.02 0.02 -0.01 0.03 0 -0.01 0 -0.01 0 -0.05 0.01 0 -0.02 -0.04 -0.01 -0.09 0 0.01 -0.04 -0.08 -0.08 -0.14 -0.02 -0.03 -0.06 -0.07 -0.05 -0.06 -0.04 -0.04 -0.08 -0.06 -0.03 -0.02 -0.02 0 -0.02 -0.02 0.04 0.01 0.02 0.01 0 0 0.02 -0.01 0.04 0 0.02 -0.01 -0.02 0.01 -0.07 0.04 -0.1 0.07 -0.01 0zm0.01 0l-0.01 0 2.14 -1.62 -2.13 1.62zm-776.51 357.6l-0.96 -7.52 0 0 26.73 -4.12 26.57 -4.69 26.4 -5.26 26.24 -5.82 26.07 -6.35 25.91 -6.88 25.73 -7.39 25.58 -7.9 25.41 -8.38 25.24 -8.87 25.08 -9.32 24.9 -9.78 24.75 -10.22 24.57 -10.65 24.42 -11.06 24.24 -11.47 24.08 -11.85 23.9 -12.23 23.74 -12.6 23.58 -12.95 23.41 -13.28 23.23 -13.63 23.08 -13.92 22.9 -14.23 22.74 -14.53 22.56 -14.8 22.4 -15.07 22.23 -15.31 22.06 -15.56 21.89 -15.79 21.73 -16 21.55 -16.19 4.54 6.02 -21.61 16.25 -21.79 16.04 -21.95 15.83 -22.14 15.6 -22.29 15.37 -22.48 15.11 -22.64 14.86 -22.82 14.57 -22.98 14.29 -23.16 13.98 -23.33 13.67 -23.49 13.34 -23.68 13.01 -23.84 12.64 -24.02 12.29 -24.18 11.91 -24.36 11.51 -24.52 11.12 -24.69 10.69 -24.87 10.28 -25.04 9.82 -25.2 9.38 -25.38 8.91 -25.55 8.44 -25.72 7.94 -25.89 7.43 -26.05 6.92 -26.23 6.39 -26.4 5.84 -26.56 5.3 -26.73 4.73 -26.91 4.14 0 0zm-681.32 -41.27l1.44 -7.48 0 0 21 3.76 21.01 3.71 21.04 3.65 21.07 3.58 21.07 3.48 21.09 3.39 21.12 3.29 21.12 3.17 21.15 3.05 21.15 2.91 21.18 2.75 21.19 2.6 21.2 2.43 21.22 2.24 21.22 2.06 21.24 1.86 21.25 1.63 21.26 1.42 21.27 1.18 21.28 0.93 21.28 0.67 21.29 0.42 21.3 0.13 21.31 -0.16 21.31 -0.45 21.32 -0.76 21.32 -1.09 21.33 -1.42 21.33 -1.76 21.33 -2.11 21.33 -2.48 21.34 -2.85 0.96 7.52 -21.46 2.87 -21.47 2.48 -21.45 2.13 -21.45 1.78 -21.45 1.42 -21.44 1.09 -21.42 0.78 -21.43 0.45 -21.41 0.16 -21.4 -0.13 -21.39 -0.42 -21.38 -0.69 -21.36 -0.93 -21.35 -1.18 -21.34 -1.42 -21.33 -1.65 -21.32 -1.86 -21.3 -2.06 -21.28 -2.26 -21.26 -2.43 -21.25 -2.6 -21.22 -2.77 -21.21 -2.91 -21.19 -3.05 -21.18 -3.19 -21.14 -3.29 -21.13 -3.39 -21.11 -3.5 -21.09 -3.58 -21.06 -3.65 -21.03 -3.71 -21.02 -3.76 0 0zm-773.32 -99.97l0.24 -7.6 0 0 24.56 0.54 24.51 0.8 24.5 1.04 24.47 1.27 24.42 1.51 24.41 1.73 24.38 1.95 24.35 2.14 24.32 2.33 24.3 2.53 24.27 2.7 24.25 2.86 24.23 3.02 24.21 3.18 24.19 3.31 24.17 3.44 24.15 3.58 24.13 3.68 24.13 3.78 24.1 3.88 24.08 3.97 24.09 4.05 24.07 4.12 24.04 4.17 24.05 4.23 24.04 4.27 24.03 4.3 24.02 4.33 24.03 4.34 24.01 4.35 24.01 4.35 24 4.34 -1.44 7.48 -24.02 -4.34 -24.01 -4.35 -24.01 -4.35 -24.01 -4.34 -24.02 -4.33 -24.03 -4.3 -24.02 -4.27 -24.03 -4.23 -24.04 -4.17 -24.05 -4.12 -24.05 -4.03 -24.06 -3.97 -24.08 -3.88 -24.09 -3.78 -24.11 -3.68 -24.11 -3.56 -24.13 -3.44 -24.15 -3.31 -24.15 -3.16 -24.19 -3.02 -24.19 -2.86 -24.23 -2.7 -24.24 -2.51 -24.26 -2.33 -24.29 -2.14 -24.32 -1.93 -24.33 -1.73 -24.36 -1.51 -24.39 -1.27 -24.42 -1.04 -24.45 -0.78 -24.48 -0.54 0 0zm-401.91 16.78l-2.66 7.14 0.82 -7.32 14.82 -2.2 14.38 -2.06 13.98 -1.95 13.6 -1.83 13.25 -1.73 12.94 -1.61 12.64 -1.5 12.4 -1.4 12.15 -1.31 11.97 -1.2 11.78 -1.1 11.65 -1.02 11.53 -0.93 11.45 -0.84 11.41 -0.75 11.36 -0.67 11.39 -0.6 11.41 -0.51 11.48 -0.45 11.57 -0.38 11.69 -0.32 11.84 -0.25 12.03 -0.18 12.24 -0.13 12.48 -0.07 12.74 -0.02 13.05 0.03 13.38 0.07 13.73 0.12 14.12 0.16 14.54 0.2 14.99 0.23 -0.24 7.6 -14.97 -0.23 -14.52 -0.2 -14.1 -0.16 -13.71 -0.12 -13.36 -0.07 -13.01 -0.03 -12.72 0.02 -12.44 0.07 -12.2 0.13 -11.99 0.18 -11.8 0.25 -11.65 0.3 -11.53 0.38 -11.42 0.45 -11.37 0.51 -11.33 0.6 -11.32 0.67 -11.35 0.75 -11.39 0.84 -11.49 0.91 -11.59 1.02 -11.74 1.1 -11.91 1.2 -12.11 1.29 -12.34 1.4 -12.6 1.5 -12.9 1.61 -13.21 1.71 -13.58 1.83 -13.94 1.95 -14.34 2.06 -14.8 2.18 0.82 -7.32zm-2.66 7.14l-14.1 -5.09 14.92 -2.23 -0.82 7.32zm15.1 -1.06l1 7.52 -2.3 -0.39 -0.42 -0.22 -0.37 -0.2 -0.43 -0.21 -0.42 -0.22 -0.42 -0.2 -0.43 -0.22 -0.39 -0.19 -0.4 -0.2 -0.42 -0.19 -0.42 -0.2 -0.46 -0.21 -0.41 -0.2 -0.41 -0.18 -0.45 -0.21 -0.41 -0.19 -0.42 -0.18 -0.44 -0.19 -0.45 -0.19 -0.45 -0.2 -0.42 -0.18 -0.4 -0.17 -0.45 -0.17 -0.47 -0.2 -0.45 -0.18 -0.44 -0.18 -0.43 -0.17 -0.44 -0.17 -0.45 -0.16 -0.49 -0.19 -0.44 -0.17 -0.44 -0.16 -0.46 -0.17 2.66 -7.14 0.48 0.17 0.5 0.18 0.5 0.19 0.45 0.17 0.47 0.18 0.48 0.19 0.51 0.19 0.48 0.2 0.45 0.18 0.45 0.18 0.47 0.19 0.5 0.21 0.48 0.2 0.45 0.2 0.45 0.19 0.46 0.21 0.46 0.2 0.47 0.21 0.43 0.19 0.49 0.22 0.45 0.22 0.42 0.19 0.46 0.22 0.44 0.21 0.46 0.22 0.47 0.23 0.43 0.22 0.44 0.22 0.42 0.22 0.43 0.21 0.47 0.24 0.42 0.22 -2.3 -0.39zm1 7.52l-1.22 0.18 -1.08 -0.57 2.3 0.39z"/>
  </g>
  <path class="fil2" d="M4218.03 740.79c-0.65,0.05 -1.32,-0.06 -1.96,-0.39 -1.93,-0.97 -2.79,-3.45 -1.89,-5.5l6.48 -14.88c0.9,-2.07 3.2,-2.94 5.14,-1.96 1.95,0.98 2.79,3.45 1.89,5.51l-6.47 14.88c-0.61,1.39 -1.85,2.23 -3.19,2.34z"/>
  <path class="fil2" d="M6859.24 926.21c-0.66,0 -1.32,-0.16 -1.92,-0.54 -1.85,-1.13 -2.51,-3.66 -1.44,-5.64l7.66 -14.3c1.06,-1.99 3.42,-2.68 5.28,-1.54 1.87,1.13 2.51,3.66 1.44,5.64l-7.65 14.31c-0.72,1.34 -2.03,2.07 -3.37,2.07z"/>
  <path class="fil2" d="M7164.48 1695.27c-0.66,0 -1.32,-0.16 -1.92,-0.54 -1.85,-1.13 -2.51,-3.66 -1.44,-5.64l7.66 -14.3c1.06,-1.99 3.42,-2.68 5.28,-1.54 1.87,1.13 2.51,3.66 1.44,5.64l-7.65 14.31c-0.72,1.34 -2.03,2.07 -3.37,2.07z"/>
  <path class="fil2" d="M5323.52 333.79c0.54,0.39 1.17,0.64 1.88,0.69 2.16,0.18 4.18,-1.49 4.48,-3.71l2.22 -16.08c0.32,-2.22 -1.19,-4.17 -3.36,-4.35 -2.18,-0.18 -4.18,1.49 -4.48,3.72l-2.24 16.07c-0.2,1.5 0.42,2.87 1.5,3.66z"/>
  <path class="fil2" d="M5309.67 4521.37c0.29,0.59 0.73,1.11 1.34,1.48 1.84,1.15 4.4,0.6 5.69,-1.24l9.37 -13.24c1.3,-1.84 0.86,-4.26 -0.98,-5.41 -1.85,-1.17 -4.4,-0.61 -5.69,1.23l-9.38 13.24c-0.88,1.24 -0.95,2.74 -0.35,3.94z"/>
  <path class="fil2" d="M4285.22 2984.29c0.32,0.23 0.7,0.38 1.12,0.41 1.29,0.11 2.5,-0.89 2.68,-2.22l1.33 -9.59c0.18,-1.33 -0.72,-2.49 -2.01,-2.6 -1.3,-0.11 -2.5,0.89 -2.68,2.22l-1.33 9.59c-0.12,0.9 0.25,1.71 0.89,2.19z"/>
  <path class="fil2" d="M709.12 4586.97c-0.22,0.31 -0.52,0.57 -0.9,0.74 -1.15,0.52 -2.58,-0.01 -3.18,-1.17l-4.34 -8.41c-0.61,-1.16 -0.16,-2.53 1,-3.04 1.16,-0.53 2.59,0 3.19,1.17l4.35 8.4c0.4,0.79 0.32,1.66 -0.12,2.31z"/>
  <path class="fil2" d="M3459.45 1511.59c-1.52,0.13 -3.04,-0.72 -3.77,-2.26 -0.99,-2.03 -0.24,-4.52 1.65,-5.55l42.19 -22.82c1.9,-1.02 4.24,-0.2 5.22,1.84 0.99,2.04 0.24,4.53 -1.66,5.56l-42.18 22.8c-0.46,0.26 -0.95,0.39 -1.45,0.43z"/>
  <path class="fil2" d="M1881.23 1278.72c-1.67,-0.14 -3.11,-1.44 -3.45,-3.28 -0.41,-2.23 0.95,-4.42 3.05,-4.9l27.67 -6.14c2.1,-0.47 4.14,0.97 4.55,3.2 0.42,2.24 -0.95,4.43 -3.05,4.89l-27.67 6.15c-0.37,0.09 -0.74,0.11 -1.1,0.08z"/>
  <path class="fil2" d="M4002.99 845.32c-1.73,0.14 -3.4,-0.98 -4,-2.82l-5.02 -15.63c-0.7,-2.16 0.37,-4.51 2.41,-5.22 2.01,-0.73 4.22,0.45 4.91,2.62l5.04 15.62c0.69,2.16 -0.38,4.51 -2.41,5.24 -0.3,0.1 -0.62,0.16 -0.93,0.19z"/>
  <path class="fil2" d="M6636.44 1013c-1.74,0 -3.31,-1.26 -3.76,-3.14l-3.73 -15.99c-0.53,-2.21 0.73,-4.45 2.81,-5.01 2.07,-0.55 4.18,0.79 4.69,3.01l3.76 15.99c0.51,2.21 -0.75,4.46 -2.83,5.02 -0.31,0.07 -0.63,0.12 -0.94,0.12z"/>
  <path class="fil2" d="M6941.68 1782.06c-1.74,0 -3.31,-1.26 -3.76,-3.14l-3.73 -15.99c-0.53,-2.21 0.73,-4.45 2.81,-5.01 2.07,-0.55 4.18,0.79 4.69,3.01l3.76 15.99c0.51,2.21 -0.75,4.46 -2.83,5.02 -0.31,0.07 -0.63,0.12 -0.94,0.12z"/>
  <path class="fil2" d="M5452.56 535.09c1.4,1.02 3.41,0.93 4.88,-0.32l12.43 -10.73c1.73,-1.48 2.03,-4.04 0.67,-5.71 -1.34,-1.67 -3.84,-1.82 -5.56,-0.33l-12.44 10.71c-1.72,1.49 -2.03,4.05 -0.68,5.73 0.21,0.24 0.44,0.46 0.7,0.65z"/>
  <path class="fil2" d="M5331.6 4759.47c0.77,1.55 2.6,2.4 4.48,1.96l15.97 -3.8c2.22,-0.52 3.66,-2.65 3.22,-4.76 -0.42,-2.1 -2.57,-3.38 -4.78,-2.85l-15.98 3.78c-2.21,0.53 -3.66,2.66 -3.23,4.77 0.07,0.31 0.18,0.62 0.32,0.9z"/>
  <path class="fil2" d="M4362.24 3104.44c0.84,0.61 2.04,0.56 2.92,-0.19l7.42 -6.41c1.03,-0.88 1.21,-2.41 0.4,-3.4 -0.8,-1 -2.3,-1.09 -3.32,-0.2l-7.43 6.39c-1.03,0.89 -1.21,2.42 -0.4,3.42 0.12,0.15 0.26,0.28 0.41,0.39z"/>
  <path class="fil2" d="M677.21 4722.7c-0.57,0.83 -1.7,1.17 -2.75,0.77l-8.91 -3.49c-1.24,-0.48 -1.9,-1.83 -1.48,-3.01 0.41,-1.18 1.76,-1.74 3,-1.26l8.92 3.48c1.23,0.48 1.89,1.83 1.48,3.01 -0.07,0.18 -0.16,0.35 -0.26,0.5z"/>
  <path class="fil2" d="M3641.26 554.47c-2.09,0.17 -3.97,-1.48 -4.18,-3.75 -0.22,-2.27 1.33,-4.28 3.45,-4.49l15.36 -1.51c2.11,-0.2 4.03,1.46 4.25,3.73 0.21,2.28 -1.34,4.29 -3.45,4.51l-15.36 1.51c-0.02,0 -0.05,0 -0.07,0z"/>
  <path class="fil2" d="M2622.81 1424.32c-0.96,-0.08 -1.9,-0.55 -2.59,-1.4 -1.39,-1.72 -1.2,-4.33 0.43,-5.83l12.64 -11.68c1.63,-1.5 4.08,-1.32 5.47,0.39 1.38,1.73 1.2,4.34 -0.43,5.84l-12.64 11.68c-0.83,0.76 -1.86,1.09 -2.88,1z"/>
  <path class="fil2" d="M780.52 936.3c-0.47,-0.04 -0.93,-0.16 -1.37,-0.4l-86.13 -44.65c-1.91,-1 -2.69,-3.47 -1.75,-5.53 0.96,-2.06 3.29,-2.91 5.2,-1.93l86.12 44.66c1.92,1 2.71,3.47 1.75,5.52 -0.73,1.59 -2.28,2.46 -3.82,2.33z"/>
  <path class="fil2" d="M4653.85 1266.45c-0.63,0.06 -1.28,-0.06 -1.9,-0.36l-14.11 -6.8c-1.96,-0.95 -2.85,-3.4 -1.99,-5.48 0.86,-2.08 3.16,-3 5.11,-2.05l14.12 6.81c1.97,0.93 2.85,3.39 1.99,5.46 -0.6,1.43 -1.85,2.31 -3.22,2.42z"/>
  <path class="fil2" d="M1697.57 880.58c1.35,-0.12 2.6,-1 3.19,-2.4 0.87,-2.08 -0.01,-4.53 -1.96,-5.48l-25.76 -12.55c-1.96,-0.96 -4.25,-0.05 -5.12,2.03 -0.87,2.07 0.01,4.53 1.97,5.48l25.75 12.55c0.63,0.3 1.29,0.42 1.93,0.37z"/>
  <path class="fil2" d="M1224.71 1627.2c-1.59,0.13 -3.15,-0.8 -3.86,-2.42 -0.89,-2.09 -0.05,-4.54 1.9,-5.48l25.59 -12.34c1.93,-0.94 4.24,-0.01 5.14,2.08 0.89,2.08 0.05,4.53 -1.89,5.46l-25.59 12.35c-0.43,0.2 -0.85,0.32 -1.29,0.35z"/>
  <path class="fil2" d="M2513.74 1250.97c-0.38,-0.04 -0.76,-0.13 -1.12,-0.29 -1.99,-0.85 -2.92,-3.26 -2.11,-5.38l11.01 -28.57c0.82,-2.11 3.08,-3.15 5.06,-2.3 1.98,0.84 2.92,3.25 2.1,5.37l-11 28.57c-0.67,1.73 -2.29,2.74 -3.94,2.6z"/>
  <path class="fil2" d="M3200.24 710.63c-1.13,-0.1 -2.22,-0.72 -2.89,-1.82l-18.82 -30.5c-1.18,-1.9 -0.68,-4.47 1.12,-5.74 1.8,-1.27 4.19,-0.77 5.37,1.14l18.82 30.49c1.17,1.9 0.66,4.48 -1.13,5.75 -0.76,0.53 -1.63,0.75 -2.47,0.68z"/>
  <path class="fil2" d="M1111.74 792.65c0.49,-0.05 0.98,-0.19 1.45,-0.44 1.89,-1.05 2.62,-3.54 1.62,-5.57l-7.76 -15.78c-1,-2.03 -3.34,-2.84 -5.24,-1.79 -1.88,1.04 -2.61,3.53 -1.61,5.57l7.76 15.78c0.75,1.52 2.27,2.36 3.78,2.23z"/>
  <path class="fil2" d="M6602.96 613.52c-0.5,0 -1,-0.1 -1.48,-0.31 -1.98,-0.89 -2.92,-3.31 -2.09,-5.42l6.38 -16.37c0.82,-2.11 3.09,-3.12 5.07,-2.24 1.96,0.88 2.9,3.3 2.08,5.41l-6.39 16.39c-0.62,1.58 -2.05,2.54 -3.57,2.54z"/>
  <path class="fil2" d="M4752.82 810.98c-0.07,0 -23.74,1.57 -23.74,1.57 -2.13,0.14 -3.99,-1.59 -4.15,-3.87 -0.15,-2.26 1.42,-4.21 3.53,-4.38 0.06,-0.01 23.74,-1.58 23.74,-1.58 2.13,-0.13 3.99,1.6 4.15,3.88 0.15,2.26 -1.43,4.21 -3.53,4.38z"/>
  <path class="fil2" d="M7024.22 1220.11c-0.06,0 -23.78,-0.36 -23.78,-0.36 -2.14,-0.03 -3.85,-1.91 -3.82,-4.19 0.03,-2.27 1.75,-4.08 3.87,-4.08 0.06,0 23.79,0.35 23.79,0.35 2.13,0.04 3.84,1.91 3.82,4.2 -0.04,2.27 -1.77,4.08 -3.88,4.08z"/>
  <path class="fil2" d="M4896.23 462.12c0.05,0.03 19.86,13.08 19.86,13.08 1.79,1.17 4.26,0.58 5.53,-1.33 1.24,-1.88 0.84,-4.36 -0.91,-5.55 -0.05,-0.03 -19.87,-13.08 -19.87,-13.08 -1.79,-1.17 -4.26,-0.58 -5.52,1.32 -1.25,1.9 -0.84,4.37 0.91,5.56z"/>
  <path class="fil2" d="M4973.02 4505.11c0.03,0.06 10.95,21.12 10.95,21.12 0.99,1.9 3.43,2.59 5.46,1.54 2.01,-1.03 2.87,-3.39 1.92,-5.28 -0.02,-0.06 -10.94,-21.13 -10.94,-21.13 -0.99,-1.89 -3.44,-2.58 -5.47,-1.54 -2.01,1.05 -2.86,3.4 -1.92,5.29z"/>
  <path class="fil2" d="M4102.36 3068.13c0.03,0.03 11.6,8.19 11.6,8.19 1.05,0.73 2.53,0.43 3.32,-0.68 0.78,-1.11 0.59,-2.59 -0.43,-3.33 -0.03,-0.02 -11.61,-8.19 -11.61,-8.19 -1.04,-0.73 -2.53,-0.43 -3.32,0.68 -0.78,1.11 -0.58,2.59 0.44,3.33z"/>
  <path class="fil2" d="M2304.14 1295.09c-1.11,-0.1 -2.17,-0.7 -2.85,-1.75 -1.21,-1.87 -0.75,-4.45 1.01,-5.76l12.74 -9.45c1.77,-1.32 4.18,-0.86 5.39,1.01 1.2,1.87 0.75,4.45 -1.01,5.76l-12.74 9.46c-0.77,0.57 -1.67,0.8 -2.54,0.73z"/>
  <path class="fil2" d="M3797.7 1283.77c-1.89,0.16 -3.65,-1.18 -4.1,-3.19 -0.5,-2.22 0.77,-4.45 2.85,-4.96l27.41 -6.78c2.08,-0.52 4.17,0.88 4.68,3.1 0.5,2.22 -0.77,4.45 -2.86,4.96l-27.4 6.77c-0.2,0.05 -0.39,0.09 -0.58,0.1z"/>
  <path class="fil2" d="M1066.41 1198.88c-1.25,-0.11 -2.38,-0.84 -3.01,-2.04 -0.82,-1.5 -0.64,-3.4 0.42,-4.74 18.48,-23.17 47.29,-48.57 81.13,-71.55 37.99,-25.8 79.83,-46.85 120.97,-60.89 48.53,-16.55 94.76,-23.11 137.37,-19.52 49.68,4.25 93.24,22.23 129.76,53.44 1.66,1.42 1.91,4.02 0.57,5.81 -1.36,1.79 -3.79,2.09 -5.46,0.67 -83.76,-71.6 -187.59,-57.2 -259.95,-32.52 -83.45,28.47 -155.2,80.89 -191.16,121.19 58.97,-9.6 113.85,-2.9 167.01,3.58 88.35,10.79 171.79,20.96 252.12,-52.66 1.63,-1.49 4.07,-1.31 5.46,0.41 1.38,1.74 1.18,4.34 -0.45,5.84 -82.92,76 -168,65.63 -258.1,54.63 -55.87,-6.81 -113.66,-13.86 -175.66,-1.7 -0.35,0.07 -0.68,0.08 -1.02,0.05z"/>
  <path class="fil2" d="M1174.25 1154.93c-1.51,-0.13 -2.87,-1.2 -3.35,-2.84 -0.64,-2.17 0.5,-4.5 2.54,-5.21 28.16,-9.75 74.44,-10.93 133.04,-12.43 87.04,-2.22 206.24,-5.28 331.47,-39.7 2.07,-0.57 4.18,0.76 4.69,2.96 0.51,2.22 -0.76,4.47 -2.84,5.05 -126.1,34.66 -245.81,37.73 -333.22,39.96 -57.96,1.48 -103.74,2.65 -130.82,12.03 -0.5,0.17 -1.02,0.23 -1.51,0.18z"/>
  <path class="fil2" d="M2192.37 947.44c-6.85,-0.59 -13.91,-1.57 -21.22,-2.96 -2.09,-0.4 -3.48,-2.56 -3.07,-4.8 0.4,-2.25 2.42,-3.75 4.53,-3.34 93.07,17.83 145.28,-33.96 205.72,-93.93 34.97,-34.69 71.05,-70.47 118.03,-94.85 -58.68,-18.44 -170.84,-21.09 -258.69,29.31 -56.36,32.33 -92.46,80.55 -107.32,143.33 -0.52,2.21 -2.63,3.58 -4.71,3.04 -2.06,-0.53 -3.33,-2.77 -2.8,-4.99 8.04,-33.97 22.35,-64.26 42.55,-90.02 18.2,-23.21 41.3,-42.94 68.67,-58.64 52.94,-30.37 110.27,-39.48 149.03,-41.78 46.36,-2.74 93.15,2.91 125.18,15.14 1.48,0.58 2.49,2.06 2.53,3.74 0.04,1.69 -0.88,3.25 -2.34,3.94 -50.26,23.77 -88.19,61.41 -124.89,97.81 -54.93,54.5 -107.05,106.2 -191.2,99z"/>
  <path class="fil2" d="M3806.98 1628.25c-5.62,-3.95 -11.22,-8.36 -16.83,-13.24 -1.61,-1.41 -1.72,-3.97 -0.24,-5.7 1.49,-1.74 3.98,-2.01 5.6,-0.6 71.4,62.31 142.6,43.89 225.02,22.57 47.69,-12.34 96.88,-25.07 149.75,-22.44 -41.39,-45.5 -136.92,-104.32 -238.2,-105.07 -64.97,-0.48 -120.46,22.96 -164.93,69.7 -1.57,1.65 -4.08,1.77 -5.6,0.25 -1.52,-1.5 -1.48,-4.06 0.09,-5.72 24.07,-25.29 51.7,-44.23 82.12,-56.3 27.42,-10.87 57.31,-16.27 88.87,-16.04 61.03,0.46 115.13,21.48 149.77,39.03 41.43,21 78.99,49.47 100.49,76.17 0.99,1.25 1.11,3.03 0.3,4.51 -0.82,1.48 -2.4,2.36 -4,2.22 -55.39,-4.8 -107.13,8.59 -157.17,21.54 -74.91,19.37 -145.99,37.76 -215.04,-10.88z"/>
  <path class="fil2" d="M2049.56 984.47c-1.48,-0.12 -2.82,-1.15 -3.32,-2.75 -0.69,-2.15 0.39,-4.51 2.43,-5.27 106.46,-39.77 193.35,-102.67 256.8,-148.59 42.82,-31 76.64,-55.47 101.73,-62.77 2.08,-0.61 4.19,0.69 4.73,2.89 0.55,2.21 -0.69,4.48 -2.77,5.09 -23.82,6.93 -57.18,31.07 -99.38,61.62 -63.81,46.18 -151.2,109.43 -258.63,149.56 -0.53,0.2 -1.07,0.27 -1.59,0.22z"/>
  <path class="fil2" d="M3664.97 1588.26c-1.21,-0.86 -1.85,-2.42 -1.48,-4.05 0.49,-2.21 2.62,-3.7 4.75,-3.33 111.99,19.32 218.75,8.79 296.69,1.1 52.62,-5.19 94.16,-9.28 119.51,-2.94 2.1,0.52 3.27,2.71 2.63,4.89 -0.64,2.18 -2.86,3.52 -4.96,2.99 -24.07,-6.02 -65.04,-1.99 -116.9,3.13 -78.38,7.73 -185.74,18.31 -298.75,-1.18 -0.56,-0.09 -1.06,-0.31 -1.49,-0.61z"/>
  <path class="fil2" d="M719.93 1516.33c-40.97,3.33 -79.33,-11.22 -114.17,-43.37 -1.62,-1.5 -1.82,-4.11 -0.43,-5.83 1.39,-1.73 3.84,-1.91 5.47,-0.4 64.89,59.86 140.09,55.88 223.53,-11.84 28.95,-23.49 53.29,-38.22 74.39,-45.01 11.1,-3.58 20.49,-4.72 28.84,-4.65 -21.26,-12.61 -59,-31.48 -101.44,-41.15 -66.04,-15.05 -116.97,-2.66 -151.38,36.83 -1.45,1.66 -3.9,1.74 -5.48,0.17 -1.57,-1.56 -1.67,-4.17 -0.23,-5.84 19.73,-22.64 45,-37 75.11,-42.7 24.8,-4.68 52.9,-3.53 83.53,3.45 56.29,12.82 104.61,41.59 118.48,51.59 1.51,1.09 2.12,3.15 1.47,4.95 -0.65,1.8 -2.4,2.86 -4.2,2.56 -23.87,-4.11 -52.37,-3.9 -114.35,46.41 -37.5,30.42 -74.31,48.5 -109.4,53.72 -3.26,0.48 -6.51,0.85 -9.74,1.11z"/>
  <path class="fil2" d="M617.12 1465.28c-27.77,2.26 -58.25,0.75 -92.42,-6.81 -2.09,-0.47 -3.46,-2.66 -3.04,-4.9 0.41,-2.23 2.44,-3.66 4.55,-3.2 93.66,20.76 159.51,-5.32 217.61,-28.31 40.32,-15.97 78.39,-31.04 119.41,-27.4 2.14,0.19 3.74,2.19 3.58,4.47 -0.15,2.27 -2,3.97 -4.15,3.78 -39.29,-3.5 -74.87,10.59 -116.08,26.9 -38.02,15.05 -79.31,31.4 -129.46,35.47z"/>
  <path class="fil2" d="M804.26 1454.46c117.44,-9.67 233.89,1.36 347.9,34.68 95.31,27.85 187.1,67.88 281.96,97.33 223.87,69.49 464.58,70.05 683.49,-14.18 183.21,-70.5 343.82,-195.44 532.37,-251.79 117.35,-35.07 239.99,-37.91 361.43,-36.83 138.11,1.24 276.07,11.14 414.05,17.64 268.83,12.66 549.37,15.18 801.57,-95.05 29.12,-12.73 57.56,-26.99 85.45,-42.5 3.95,-2.19 -0.1,-8.3 -4.03,-6.12 -245.97,136.8 -529.7,149.05 -802.64,139.6 -137.59,-4.76 -275,-15.06 -412.59,-19.3 -125.23,-3.86 -254.59,-7.36 -377.84,18.36 -191.78,40.04 -352.44,157.58 -528.95,238.79 -100.97,46.48 -207.04,78.24 -316.98,89.62 -124.23,12.86 -250.89,3.09 -372.63,-28.09 -96.73,-24.78 -189.36,-63.79 -284.06,-95.95 -101.62,-34.5 -205.5,-56.29 -312.1,-57.38 -32.39,-0.34 -64.74,1.09 -97.01,3.75 -4.46,0.37 -3.87,7.79 0.61,7.42l0 0z"/>
  <path class="fil2" d="M899.82 1009c141.19,78.55 293.25,134.04 449.98,166.14 155.14,31.76 314.47,40.56 472.4,27.57 157.69,-12.99 314.01,-47.88 463.67,-103.85 148.02,-55.35 289.45,-131.59 418.27,-227.69 128.67,-96.01 244.44,-212.05 340.52,-344.7 11.87,-16.41 23.43,-33.06 34.71,-49.93 2.63,-3.92 -3.05,-8.18 -5.67,-4.25 -91.38,136.64 -202.9,257.23 -328.62,358.08 -125.45,100.63 -264.44,181.44 -410.59,241.54 -146.88,60.4 -301.07,99.85 -457.13,117.9 -156.83,18.14 -315.73,14.52 -471.11,-11.68 -156.28,-26.35 -308.92,-75.79 -451.46,-148.17 -17.67,-8.97 -35.17,-18.31 -52.52,-27.95 -3.95,-2.21 -6.36,4.81 -2.45,6.99l0 0z"/>
  <path class="fil2" d="M2820.99 942.78c-1.23,-0.1 -2.38,-0.83 -3.02,-2.05 -1.06,-1.97 -0.4,-4.5 1.45,-5.65 0.75,-0.45 74.61,-46.3 142.43,-121.22 1.49,-1.66 3.94,-1.72 5.48,-0.14 1.53,1.58 1.55,4.2 0.06,5.84 -68.62,75.82 -143.39,122.21 -144.14,122.67 -0.72,0.44 -1.51,0.62 -2.26,0.55z"/>
  <path class="fil2" d="M6357.72 871.95c-2.47,-0.15 -4.6,-2.08 -5.09,-4.79 -0.56,-3.21 1.44,-6.32 4.45,-6.94 306.64,-63.61 534.01,-154.41 596.09,-188.42 2.72,-1.49 6.07,-0.36 7.45,2.55 1.38,2.9 0.29,6.49 -2.45,7.98 -79.59,43.6 -318.06,131.22 -599.05,189.52 -0.48,0.1 -0.94,0.13 -1.4,0.1z"/>
  <path class="fil5" d="M660.51 2486.46c47.27,0 85.58,-38.32 85.58,-85.58 0,-47.27 -38.31,-85.59 -85.58,-85.59 -47.27,0 -85.58,38.32 -85.58,85.59 0,47.26 38.31,85.58 85.58,85.58z"/>
  <path class="fil5" d="M660.51 2736.22c47.27,0 85.58,-38.32 85.58,-85.58 0,-47.27 -38.31,-85.59 -85.58,-85.59 -47.27,0 -85.58,38.32 -85.58,85.59 0,47.26 38.31,85.58 85.58,85.58z"/>
  <path class="fil5" d="M660.51 2985.97c47.27,0 85.58,-38.31 85.58,-85.57 0,-47.28 -38.31,-85.6 -85.58,-85.6 -47.27,0 -85.58,38.32 -85.58,85.6 0,47.26 38.31,85.57 85.58,85.57z"/>
  <path class="fil2" d="M660.51 3747.2l181.66 0c4.12,0 7.46,-3.34 7.46,-7.46 0,-4.08 -3.34,-7.42 -7.46,-7.42l-174.21 0 0 -656.88c0,-4.12 -3.34,-7.46 -7.45,-7.46 -4.12,0 -7.45,3.34 -7.45,7.46l0 664.3c0,4.12 3.33,7.46 7.45,7.46z"/>
  <polygon class="fil1" points="976.26,3891.66 2130.42,3891.66 2130.42,2471.6 976.26,2471.6 "/>
  <path class="fil2" d="M983.71 3884.24l1139.25 0 0 -1405.19 -1139.25 0 0 1405.19zm1146.71 14.88l-1154.16 0c-4.12,0 -7.45,-3.34 -7.45,-7.46l0 -1420.07c0,-4.11 3.33,-7.46 7.45,-7.46l1154.16 0c4.11,0 7.45,3.35 7.45,7.46l0 1420.07c0,4.12 -3.34,7.46 -7.45,7.46z"/>
  <polygon class="fil5" points="1109.03,4042.83 2263.19,4042.83 2263.19,2622.77 1109.03,2622.77 "/>
  <g>
   <path id="path1971" class="fil0 str1" d="M2248.87 3625.1c-215.2,-9.82 -392.01,19.83 -520.65,54.98"/>
   <path id="path1975" class="fil0 str1" d="M2241.52 3786.21c-181.76,-15.78 -361.16,-52.69 -534.51,-110.26 -42.07,-13.97 -87.63,-27.52 -136.53,-40.04"/>
   <path id="path1979" class="fil0 str1" d="M1495.46 3618.16c-110.65,-24.07 -236.11,-42.18 -375.32,-48.54"/>
   <path id="path1983" class="fil0 str1" d="M1724.73 3563.22c122.94,-1.54 226.89,-89.34 250.86,-207.71"/>
   <path id="path1987" class="fil0 str1" d="M1883.16 3100.84c-41.35,-33.06 -93.15,-53.83 -150.09,-56.43 -143.2,-6.53 -264.58,104.25 -271.11,247.45 -6.3,138.05 96.45,255.83 232.16,269.96"/>
   <path id="path1991" class="fil0 str1" d="M1979.52 3278.3c-4.31,-44.33 -19.79,-85.61 -43.79,-120.77"/>
   <path id="path1995" class="fil0 str1" d="M1567.06 2902.87c-108.25,55.17 -184.61,165.33 -190.54,295.37 -8.79,192.64 140.25,355.93 332.89,364.73 192.64,8.79 355.93,-140.25 364.72,-332.9 5.93,-130.04 -60.07,-246.7 -162.85,-311.49"/>
   <path id="path1999" class="fil0 str1" d="M1711.63 3561.14c24.19,-20.42 235.03,-211.44 85.27,-549.88"/>
   <path id="path2003" class="fil0 str1" d="M1640.52 3054.89c7.43,-16.22 15.79,-32.77 25.17,-49.62"/>
   <path id="path2007" class="fil0 str1" d="M1961.54 3574.47c0,0 133.85,-6.88 222.43,-119.32"/>
   <path id="path2011" class="fil0 str1" d="M1342.61 2938.41c0,0 94.6,-144.4 308.37,-134.64"/>
   <path id="path2015" class="fil0 str1" d="M1308.28 2826.07c0,0 -56.58,42.94 -73.6,116.52"/>
   <line id="path2019" class="fil0 str1" x1="2070.86" y1="3279.65" x2="2121.35" y2= "3231.32" />
   <line id="path2023" class="fil0 str1" x1="2027.1" y1="3035.42" x2="2030.93" y2= "2951.55" />
   <line id="path2027" class="fil0 str1" x1="2071.08" y1="3209.89" x2="2033.4" y2= "3180.85" />
   <path id="path2031" class="fil0 str1" d="M1484.66 3406.12c2.89,-12.8 16.59,-63.59 57.62,-96.31"/>
   <line id="path2035" class="fil0 str1" x1="1481.06" y1="3199.72" x2="1469.91" y2= "3117.58" />
   <line id="path2039" class="fil0 str1" x1="1412.96" y1="3052.32" x2="1397.84" y2= "2983.41" />
   <line id="path2043" class="fil0 str1" x1="1804.21" y1="3435.87" x2="1760.34" y2= "3319.76" />
   <path id="path2047" class="fil0 str1" d="M1848.17 3298.73c0,0 35.45,-12.04 56.28,-44.4"/>
   <line id="path2051" class="fil0 str1" x1="1391.99" y1="3323.95" x2="1354.16" y2= "3317.15" />
   <line id="path2055" class="fil0 str1" x1="1487.21" y1="2826.73" x2="1440" y2= "2807.8" />
   <line id="path2059" class="fil0 str1" x1="1257.95" y1="2880.26" x2="1210.86" y2= "2890.93" />
   <line id="path2063" class="fil0 str1" x1="2122.35" y1="3517.07" x2="2193.9" y2= "3520.34" />
   <line id="path2067" class="fil0 str1" x1="2026.57" y1="3558.07" x2="2044.65" y2= "3498.89" />
   <path id="path2071" class="fil0 str1" d="M1576.54 3216.45c0,0 46.27,-112.62 166.81,-95.89"/>
   <line id="path2075" class="fil0 str1" x1="1608.94" y1="3171.09" x2="1667.23" y2= "3177.8" />
   <path id="path2079" class="fil0 str1" d="M1744.72 3512.28c0,0 -97.73,-30.64 -123.75,-138.81"/>
   <line id="path2083" class="fil0 str1" x1="1655.19" y1="3441.61" x2="1675.57" y2= "3394.17" />
  </g>
  <path class="fil5 str2" d="M5151.35 2723.29c-412.63,-240.14 -552.48,-769.37 -312.39,-1181.9 240.21,-412.74 769.38,-552.47 1182.02,-312.31 412.53,240.07 552.41,769.21 312.21,1181.94 -240.09,412.52 -769.32,552.36 -1181.84,312.27zm1007.58 -1731.28c-543.61,-316.39 -1240.64,-132.2 -1557.03,411.41 -316.32,543.53 -132.15,1240.55 411.48,1556.94 543.54,316.32 1240.56,132.15 1556.88,-411.38 316.36,-543.63 132.2,-1240.64 -411.33,-1556.97z"/>
  <path class="fil6 str0" d="M6094.12 1969.18c0,293.31 -237.84,531.13 -531.16,531.13 -293.4,0 -531.22,-237.82 -531.22,-531.13 0,-293.4 237.82,-531.23 531.22,-531.23 293.32,0 531.16,237.83 531.16,531.23z"/>
  <g>
   <path class="fil1" d="M5655.47 1672.33l0 246c0,13.33 -1.41,26.63 -4.2,39.68l-37.04 172.58c-2.3,10.78 -11.79,18.47 -22.83,18.47l-53.64 0c-11.04,0 -20.58,-7.69 -22.87,-18.47l-37.01 -172.58c-2.82,-13.05 -4.23,-26.35 -4.23,-39.68l0 -246c0,-12.9 10.46,-23.36 23.35,-23.36l135.11 0c12.94,0 23.36,10.46 23.36,23.36z"/>
   <path class="fil1" d="M5610.3 2246.17l0 60.79c0,7.02 -5.7,12.71 -12.72,12.71l-66.05 0c-6.98,0 -12.67,-5.69 -12.67,-12.71l0 -60.79c0,-7.01 5.69,-12.7 12.67,-12.7l66.05 0c7.02,0 12.72,5.69 12.72,12.7z"/>
   <path class="fil7" d="M5647.12 1672.33l0 246c0,12.72 -1.37,25.48 -4.01,37.91l-37 172.6c-1.51,6.86 -7.69,11.86 -14.71,11.86l-53.64 0c-7.07,0 -13.21,-5 -14.71,-11.86l-37 -172.6c-2.69,-12.43 -4.06,-25.18 -4.06,-37.91l0 -246c0,-8.28 6.76,-15.01 15.01,-15.01l135.11 0c8.3,0 15.01,6.73 15.01,15.01zm-181.82 0l0 246c0,13.91 1.48,27.85 4.37,41.42l37.05 172.6c3.13,14.52 16.16,25.06 31.04,25.06l53.64 0c14.84,0 27.91,-10.54 31.04,-25.07l37 -172.59c2.92,-13.59 4.42,-27.52 4.42,-41.42l0 -246c0,-17.48 -14.26,-31.72 -31.75,-31.72l-135.11 0c-17.48,0 -31.7,14.24 -31.7,31.72z"/>
   <path class="fil7" d="M5601.91 2306.96c0,2.4 -1.94,4.35 -4.33,4.35l-66.05 0c-2.38,0 -4.33,-1.95 -4.33,-4.35l0 -60.79c0,-2.4 1.95,-4.34 4.33,-4.34l66.05 0c2.39,0 4.33,1.94 4.33,4.34l0 60.79zm-4.33 -81.85l-66.05 0c-11.61,0 -21.02,9.45 -21.02,21.06l0 60.79c0,11.62 9.41,21.07 21.02,21.07l66.05 0c11.62,0 21.06,-9.45 21.06,-21.07l0 -60.79c0,-11.61 -9.44,-21.06 -21.06,-21.06z"/>
  </g>
  <path class="fil2" d="M4678.87 4123.39c-1.25,0.14 -2.56,-0.03 -3.78,-0.55l-27.71 -11.48c-3.58,-1.51 -5.15,-5.34 -3.53,-8.59 1.62,-3.26 5.84,-4.7 9.41,-3.22l27.7 11.55c3.57,1.45 5.14,5.29 3.52,8.56 -1.06,2.15 -3.24,3.47 -5.61,3.73z"/>
  <path class="fil2" d="M4987.32 3680.96c-1.19,0.13 -2.41,-0.02 -3.59,-0.46l-28.07 -10.78c-3.6,-1.4 -5.28,-5.2 -3.76,-8.5 1.52,-3.29 5.68,-4.84 9.28,-3.45l28.07 10.79c3.61,1.39 5.29,5.2 3.77,8.49 -1.01,2.2 -3.25,3.64 -5.7,3.91z"/>
  <path class="fil2" d="M5831.38 4613.1c-0.71,-0.28 -1.39,-0.66 -2.03,-1.16l-40.28 -32.02c-3.06,-2.42 -3.65,-6.6 -1.3,-9.33 2.33,-2.73 6.72,-2.97 9.77,-0.54l40.28 32.04c3.06,2.41 3.64,6.58 1.31,9.32 -1.85,2.16 -5,2.75 -7.75,1.69z"/>
  <path class="fil2" d="M5553.73 3838.27c-1.07,0.11 -2.16,-0.02 -3.22,-0.35 -3.71,-1.21 -5.61,-4.91 -4.28,-8.27l10.24 -26.17c1.33,-3.35 5.4,-5.09 9.1,-3.89 3.68,1.2 5.59,4.9 4.28,8.28l-10.28 26.12c-0.93,2.4 -3.25,3.99 -5.84,4.28z"/>
  <path class="fil2" d="M3450.57 4402.81c-34.02,-3.73 -65.85,-3.84 -93.94,0.21 -50.87,7.35 -86.89,27.29 -107.08,59.28 -1.57,2.47 -0.64,5.63 2.07,7.07 2.71,1.4 6.17,0.57 7.74,-1.91 18.4,-29.15 51.72,-47.4 99.04,-54.25 63.29,-9.12 147.89,3.05 238.26,34.3 83.4,28.85 161.88,70.36 222.9,117.74 -51.19,-2.13 -110.65,5.36 -173.19,13.21 -131.1,16.49 -279.68,35.16 -392.01,-31.99 -7.91,-5.65 -15.13,-16.11 -9.68,-27.19 4.74,-9.6 22.7,-26.49 89.75,-31.79 68.92,-5.42 169.23,3.09 298.16,25.33 3.09,0.53 6.04,-1.32 6.61,-4.12 0.59,-2.82 -1.44,-5.51 -4.51,-6.05 -129.94,-22.39 -231.28,-30.95 -301.24,-25.44 -69.16,5.44 -92.06,23.58 -99.1,37.85 -7.67,15.55 1.13,31.14 13.25,39.71 116.27,69.62 267.17,50.66 400.32,33.91 68.91,-8.65 133.98,-16.83 187.47,-12.06 2.44,0.21 4.75,-1.03 5.74,-3.05 0.98,-2.02 0.43,-4.42 -1.39,-5.92 -105.29,-86.7 -262.34,-150.95 -389.17,-164.84z"/>
  <path class="fil2" d="M3293.39 4482.81c-0.54,-0.06 -1.1,-0.05 -1.67,0.04 -30.27,4.9 -131.49,23.82 -189.95,41.48 -2.97,0.92 -4.58,3.84 -3.59,6.55 0.97,2.7 4.18,4.17 7.15,3.26 53.59,-16.2 149.13,-34.77 188.37,-41.12 3.08,-0.5 5.14,-3.17 4.59,-5.99 -0.45,-2.29 -2.5,-3.96 -4.9,-4.22z"/>
  <path class="fil2" d="M708.93 4230.02c179.28,-52.46 372.66,-61.97 559.68,-60.2 196.94,1.89 393.63,19.09 588.57,43.96 141.61,18.07 282.61,40.37 422.61,67.02 79.05,15.05 156.77,33.76 237.84,37.84 106.91,5.41 211.88,-7.31 314.89,-30.32l0.78 -11.9c-71.97,16.03 -145.03,27.08 -219.47,30.68 -95.5,4.65 -186.47,-8.87 -279.1,-27.46 -120.88,-24.26 -242.7,-44.76 -364.93,-62.37 -189.37,-27.27 -380.31,-47.5 -571.91,-55.59 -191.89,-8.11 -387.99,-6.18 -576.76,29.61 -39.52,7.5 -78.61,16.69 -117.03,27.93 -7.82,2.28 -2.96,13.07 4.83,10.8zm2337.95 -2.77c86.24,-28.91 171,-61.37 254.28,-92.4 121.43,-45.23 250.02,-90.4 445.84,-119.77 439.26,-65.88 1001.73,-80.03 1507.24,-25.63 397.32,42.77 771.06,123.89 943.86,282.96 5.8,5.31 13.63,-3.89 7.89,-9.15 -416.02,-382.98 -2187.67,-400.65 -2792.9,-182.19 -119.35,43.08 -239.57,91.93 -362.23,133.27l-3.98 12.91z"/>
  <path class="fil2" d="M2285.24 4637.37c-111.83,12.24 -245.74,4.73 -407.97,-22.78 -153.82,-26.09 -307.57,-65.68 -443.22,-100.61 -124.72,-32.11 -232.44,-59.85 -307.86,-68.69 -3.9,-0.46 -6.65,-3.68 -6.15,-7.24 0.5,-3.57 4.06,-6.04 7.94,-5.58 76.48,8.95 184.65,36.79 309.93,69.04 274.1,70.59 615.2,158.45 878.02,118.8 3.88,-0.59 7.53,1.8 8.17,5.33 0.64,3.52 -1.98,6.87 -5.83,7.45 -10.8,1.63 -21.81,3.05 -33.03,4.28z"/>
  <polygon class="fil8" points="6805.17,4761.32 6807.85,4754.88 6820.73,4760.24 6818.05,4766.68 "/>
  <polygon class="fil8" points="687.81,4846.99 685.09,4843.97 679.05,4849.42 681.77,4852.44 "/>
  <polygon class="fil9" points="6820.73,4760.24 6823.41,4753.8 6829.85,4756.48 6827.17,4762.92 "/>
  <polygon class="fil9" points="679.05,4849.42 676.32,4846.39 673.3,4849.12 676.02,4852.14 "/>
  <circle class="fil10" transform="matrix(-0.132531 0.046752 0.046752 0.132531 706.075 4565.45)" r="1005.41"/>
  <path class="fil2" d="M7192.72 4456.63c-2.32,-0.55 -23.38,1.36 -46.94,4.41 -51.85,7.1 -95.88,24.61 -141.09,56.68l-33.35 23.41 -39.2 -2.86 -39.72 -2.74 38.85 -23.51c48.51,-29.54 65.2,-43.7 86.19,-73.15 19.66,-28.04 18.96,-36.15 -4.73,-38.61 -79.78,-7.06 -151.98,34.9 -170.12,99.49l-7.93 28.79 -67.36 -18.08c-37.33,-9.35 -73.84,-19.94 -81.19,-23.27 -15.75,-6.41 -14,-8.45 19.88,-22.06 27.3,-11.02 83.52,-55.46 95.53,-75.77 12.84,-21.56 5.78,-26.07 -36.98,-22.64 -63.28,5.27 -120.49,37.82 -133.37,76.5 -8,25.99 -10.85,25.54 -94.2,-24.8 -52.26,-31.88 -64.4,-36.91 -64.22,-28.69 0.06,7.71 15.51,20.23 53.25,43.81 29.28,17.7 62.7,36.72 73.15,41.58l20.23 9.26 1.4 36.05c1.41,31.08 4.14,40.93 18.67,69.1 19.89,37.47 50.52,68.67 80.14,82.99 24.5,11.08 36.52,5.68 31.85,-15.34 -6.3,-28.35 -40.19,-103.98 -55.94,-125.27 -8.17,-11.94 -14.94,-22.58 -14.12,-23.84 2.04,-3.22 99.5,26.35 105.11,31.71 2.68,2.17 8.22,14.7 12.83,28.01 19.3,54.62 56.22,99.3 98.63,119.08 20.88,9.69 71.33,11.12 77.16,2.68 6.54,-10.26 -63.58,-87.79 -109.54,-121.08 -12.53,-9.32 -22.11,-17.68 -20.76,-19.05 0.81,-1.3 10.73,-1.32 22.27,1.07 10.91,2 40.07,4.32 64.05,5.6 23.97,1.28 51.61,6.7 62.17,12.08 27.94,14.16 52.26,17.02 85.85,9.55 49.23,-11.48 102.13,-53.52 115.43,-92.83 6.06,-17.34 5.36,-25.45 -1.88,-28.26zm-33.06 51.97c-31.37,37.3 -86.02,61.55 -123.41,54.45l-17.27 -3.35 24.5 -8.75c13.18,-5.12 29.04,-13.06 34.53,-18.13 9.09,-8.63 5.71,-8.99 -29.92,-3.26l-39.96 6.11 33.54 -20.09c25.31,-15.01 45.72,-22.31 85.61,-31.18 59.32,-13.19 62.01,-11.01 32.38,24.2zm-194.58 -42.68c-40.99,31.17 -74.12,50.64 -75.63,43.83 -0.48,-2.12 5.3,-8.36 12.88,-13.89 17.15,-12.08 31.43,-34.55 20.41,-32.1 -4.2,0.94 -18.66,10.23 -32.77,21.09 -14.12,10.82 -26.59,19.13 -27.88,18.3 -1.29,-0.83 1.81,-9.2 6.24,-19.03 13.24,-27.15 50.04,-52.43 90.98,-61.53 65.61,-14.59 66.9,-3.85 5.77,43.33zm-25 212.13c-5.08,-0.53 -11.2,-0.82 -13.83,-0.24 -9.45,2.1 -56.39,-28.2 -70.69,-45.43 -19.82,-24.76 -20.24,-34.04 -0.81,-18.53 13.18,9.75 16.16,10.74 14.52,3.38 -1.16,-5.23 -7.41,-15.99 -14,-23.33 -32.37,-39.07 18.55,-0.81 66.03,49.24 28.7,29.97 32.42,36.83 18.78,34.91zm-214.59 -244.23c-18.84,11.88 -60.1,27 -64.53,26.87 -4.03,-0.76 25.69,-13.28 38.16,-21.58 12.49,-8.27 22.11,-17.02 21.41,-20.17 -1.51,-6.81 -38.96,8.12 -56.05,22.91 -14.92,12.16 -19.77,7.7 -7.99,-8.68 13.41,-18.97 48.06,-36.58 89.53,-45.8l40.01 -8.32 -12.95 16.1c-6.77,9.19 -28.23,26.64 -47.59,38.67zm-12.53 213.74c-27.87,-16.37 -53.55,-52.55 -64.57,-89.76l-9.68 -33.63 17.38 28.61c9.51,15.53 20.59,30.71 24.97,33.04 7.58,4.35 4.84,-5.5 -14.76,-54.02l-7.24 -17.69 16.16 20.66c18.44,23.46 41.94,72.19 49.11,101.99l5.08 20.36 -16.45 -9.56z"/>
  <path class="fil2" d="M3666.95 675.2c-1.73,1.02 -13.34,14.39 -25.8,29.9 -27.19,34.37 -43.62,70.49 -52.31,116.08l-6.57 33.49 -25.33 21.01 -25.57 21.39 9.82 -36.73c12.16,-45.99 14.02,-64.22 9.61,-94.19 -4.4,-28.33 -9.53,-32.82 -25.26,-20.57 -52.27,42.03 -71.54,109.25 -45.01,158.79l11.91 21.98 -51.17 28.17c-27.97,16.01 -56.16,30.79 -62.53,33.05 -13.23,5.26 -13.36,3.01 -0.79,-24.86 10.09,-22.5 18.26,-81.95 13.73,-101.18 -4.76,-20.47 -11.64,-19.1 -35.47,7.78 -35.16,39.89 -50.83,92.74 -36.16,123.58 10.24,20.33 8.27,21.72 -71.28,39.67 -50.05,11.07 -60.3,15.07 -55.42,19.93 4.51,4.62 21.1,3.22 57.58,-4.43 27.94,-6.3 59.16,-14.21 68.29,-17.33l17.59 -6.15 21.76 20.96c18.88,17.96 26.25,22.31 51.36,30.9 33.76,11.08 70.35,12.16 96.55,3.62 21.22,-7.52 25.35,-17.75 10.33,-27.74 -20.25,-13.46 -84.59,-39.47 -106.45,-43.19 -11.86,-2.48 -22.13,-4.98 -22.36,-6.21 -0.64,-3.13 75.37,-41.82 81.87,-41.83 2.88,-0.24 13.49,4.11 24,9.47 43.35,21.79 91.56,27.35 128.65,14.69 18.23,-6.26 49.53,-34.66 48.15,-43.15 -2,-9.98 -89.33,-16.13 -136.39,-9.57 -12.98,1.65 -23.62,2.15 -23.6,0.54 -0.26,-1.26 5.72,-7.01 14.08,-12.27 7.75,-5.12 26.7,-20.64 41.92,-33.78 15.22,-13.13 35.06,-25.89 44.56,-28.77 25.08,-7.66 41.43,-20.04 57.38,-44.04 23.07,-35.5 30.63,-91.58 15.85,-123.03 -6.4,-13.99 -11.52,-18.48 -17.52,-15.98zm10.18 50.57c2.69,40.73 -16.24,87.08 -42.94,104.48l-12.37 8 9.72 -19.5c4.99,-10.74 9.96,-24.74 10.33,-30.98 0.49,-10.49 -1.77,-8.75 -19.96,15.39l-20.58 26.87 8.59 -31.6c6.58,-23.74 14.67,-39.99 33.62,-68.49 28.17,-42.38 31.05,-42.63 33.59,-4.17zm-142.27 87.11c-6.67,42.61 -15.38,73.59 -20.25,70.35 -1.51,-1.01 -1.65,-8.13 -0.28,-15.86 3.35,-17.24 -1.06,-39.1 -6.29,-31.23 -1.99,3 -5.34,17 -7.56,31.75 -2.25,14.73 -4.96,26.98 -6.22,27.23 -1.26,0.24 -4.24,-6.61 -7.27,-15.11 -7.76,-24.08 -0.2,-60.7 19.24,-89.95 31.17,-46.87 38.18,-41.13 28.63,22.82zm107.97 142.61c-3.37,2.63 -7.24,6.01 -8.48,7.88 -4.49,6.75 -50.42,15.69 -69.05,13.58 -26.34,-3.45 -31.98,-8.82 -11.25,-10.72 13.62,-1.76 15.99,-2.89 10.73,-6.38 -3.74,-2.49 -13.75,-5.36 -21.98,-5.97 -42.22,-4.82 10.72,-11.25 68.44,-8.57 34.72,1.45 40.95,3.43 31.59,10.18zm-271.28 -22.99c-4.49,18.1 -20.64,51.17 -23.39,53.67 -2.87,1.87 7.82,-22.93 10.53,-35.18 2.74,-12.24 3.48,-23.11 1.23,-24.6 -4.87,-3.24 -18.82,27.51 -20.56,46.35 -1.96,16.01 -7.47,16.12 -9.86,-0.6 -2.9,-19.24 7.8,-49.97 27.49,-79.6l19.34 -28.24 1.52 17.23c1.25,9.48 -1.59,32.47 -6.3,50.97zm116.43 136.34c-26.32,6.3 -62.82,-0.66 -91.07,-16.74l-25.35 -14.69 27.09 7.2c14.75,3.85 30.25,6.59 34.25,5.46 7.1,-1.77 -0.27,-6.12 -40.26,-24.06l-14.63 -6.48 21.75 3.1c24.74,3.47 67.2,19.26 88.83,33.1l14.87 9.35 -15.48 3.76z"/>
  <path class="fil2" d="M5377.36 4183.52c-100.5,-18.58 -207.73,33.1 -254.64,121.78 -30.52,58.88 -37.19,99.47 -26.67,160.46 18.21,107.12 111.32,189.85 221.12,196.01 160.32,10.31 287.24,-140.33 250.75,-299.05 -4.67,-18.7 -22.76,-55.85 -42.17,-81.22 -27.2,-38.04 -42.97,-51.96 -80.35,-70.38 -25.66,-13.3 -55.91,-25.15 -68.04,-27.6zm103.67 88.2c127.88,122.78 46.63,349.75 -130.37,362.39 -96.7,7.34 -189.35,-54.09 -218.8,-146.91 -49.81,-157.01 83.5,-303.38 248.85,-273.22 34.9,6.6 66.57,24.93 100.32,57.74z"/>
  <path class="fil2" d="M4321.43 2783.08c-58.36,17.77 -100.99,74.6 -101.49,134.48 0,39.58 7.61,62.93 29.94,92.36 39.07,51.76 111.13,70.03 171.01,43.14 87.8,-38.57 113.68,-153.26 50.75,-227.35 -7.61,-8.63 -27.4,-23.34 -44.66,-31.46 -24.86,-12.69 -37.04,-15.73 -61.91,-15.23 -17.25,0 -36.54,2.03 -43.64,4.06zm79.17 18.27c101.49,29.94 120.77,172.54 30.44,227.85 -49.22,30.45 -115.19,23.35 -156.3,-17.76 -69.52,-69.52 -39.07,-183.7 56.84,-213.13 20.3,-6.09 42.12,-5.08 69.02,3.04z"/>
  <path class="fil2" d="M610.37 4413.36c59.54,-2.6 117.29,35.91 137.21,90.91 12.87,36.47 13.44,60.45 2.43,94.83 -19.17,60.38 -79.63,100.64 -143.54,95.32 -93.42,-7 -154.53,-104.25 -120.64,-192.97 4.21,-10.42 17.66,-30.41 30.92,-43.5 18.78,-19.77 29.01,-26.53 52.09,-34.15 15.9,-5.6 34.32,-10 41.53,-10.44zm-67 42.56c-83.78,60.57 -55.2,198.22 46,219.82 55.25,12.06 113.72,-15.93 138.23,-67.16 41.46,-86.65 -23.7,-181.95 -121.63,-177.89 -20.69,0.98 -40.46,9.01 -62.6,25.23z"/>
  <path class="fil2" d="M7169.25 2444.69c23.98,8.99 69.54,38.36 81.53,52.74 10.79,12.59 2.39,28.18 -16.19,28.18 -14.38,0.6 -22.78,14.98 -126.48,225.99 -61.14,124.09 -118.69,236.19 -127.68,248.78 -20.99,28.77 -40.77,37.16 -67.74,28.77 -25.78,-8.99 -44.36,-32.37 -44.36,-56.35 0,-11.99 41.96,-99.51 122.89,-258.36 107.3,-208.61 122.28,-241.58 116.89,-253.57 -3.6,-7.8 -4.8,-16.79 -3,-19.78 5.39,-7.8 38.36,-6 64.14,3.6zm-1.2 29.96c14.99,7.8 29.37,14.39 32.97,14.39 3,0 -5.99,-6.59 -20.98,-14.39 -14.99,-7.79 -29.97,-14.38 -32.97,-14.38 -3.6,0 6,6.59 20.98,14.38zm-90.51 117.5c-29.38,59.94 -53.36,109.7 -52.15,110.3 1.19,1.2 19.17,3 40.16,3.59l37.76 1.8 47.36 -92.91c25.78,-50.96 47.36,-94.12 47.36,-97.11 0,-3 -46.76,-27.58 -64.15,-33.57 -1.2,-0.6 -26.37,47.95 -56.34,107.9zm-46.76 140.87c-1.2,1.2 7.19,2.39 19.18,2.39 11.99,0 23.38,-2.99 25.18,-6.58 2.99,-4.21 -3,-4.8 -19.18,-1.8 -12.59,2.39 -23.98,4.79 -25.18,5.99zm-87.52 128.88c-28.18,56.35 -50.95,107.3 -50.95,112.7 0,11.39 14.38,26.37 29.97,31.77 23.98,8.39 35.37,-6.6 95.91,-127.09l59.94 -119.88 -41.95 0 -41.97 0 -50.95 102.5z"/>
  <path class="fil2" d="M4534.89 373.91c24.62,7.02 72.41,32.61 85.52,45.97 11.78,11.68 4.67,27.89 -13.85,29.4 -14.29,1.76 -21.49,16.78 -107.77,235.48 -50.9,128.63 -99.18,245.03 -107.12,258.3 -18.59,30.38 -37.62,40.34 -65.19,34.16 -26.42,-6.87 -46.84,-28.67 -48.78,-52.57 -0.97,-11.95 33.77,-102.58 101.57,-267.46 90.06,-216.61 102.33,-250.69 95.98,-262.2 -4.21,-7.48 -6.14,-16.34 -4.59,-19.47 4.75,-8.21 37.76,-9.09 64.23,-1.61zm1.23 29.97c15.56,6.55 30.44,11.96 34.02,11.67 2.99,-0.25 -6.5,-6.09 -22.07,-12.64 -15.57,-6.56 -31.04,-11.92 -34.03,-11.68 -3.59,0.3 6.51,6.09 22.08,12.65zm-80.71 124.43c-24.42,62.13 -44.3,113.66 -43.05,114.16 1.29,1.1 19.36,1.44 40.32,0.33l37.79 -1.26 39.68 -96.45c21.57,-52.87 39.58,-97.63 39.34,-100.62 -0.24,-2.99 -48.84,-23.7 -66.65,-28.27 -1.25,-0.5 -22.41,49.94 -47.43,112.11zm-35.2 144.2c-1.1,1.29 7.37,1.8 19.31,0.83 11.95,-0.97 23.06,-4.88 24.56,-8.61 2.65,-4.43 -3.37,-4.54 -19.26,-0.24 -12.35,3.41 -23.51,6.72 -24.61,8.02zm-76.8 135.54c-23.52,58.44 -42.1,111.07 -41.66,116.45 0.92,11.35 16.48,25.13 32.44,29.24 24.59,6.43 34.72,-9.44 85.32,-134.43l50.04 -124.35 -41.83 3.4 -41.82 3.4 -42.49 106.29z"/>
  <path class="fil2" d="M2685.4 2330.71c-8.6,-44.69 8.77,-73.44 16.42,-86.16 1.24,-2.27 20.57,-15.29 40.02,-28.01 -4.75,-2.49 -9.49,-5.84 -14.16,-10.25 -5.48,3.13 -10.94,6.37 -16.16,9.75 -31.74,20.56 -54.31,46.21 -41.39,118.01 5.05,-0.92 10.15,-2.04 15.27,-3.34zm-1.59 -354.12c-5.5,8.33 -10.03,18.62 -12.52,29.54 -8.2,35.22 -35.98,97.1 -51.83,116.39 -25.37,31.67 -27.55,41.43 -25.9,130.51 0.78,30.55 0.9,52.44 -0.24,73.73 4.78,2.45 9.79,4.4 14.99,5.94 1.49,-23.41 1.78,-47.87 1.45,-81.91l-0.61 -90.09 19.04 -25.19c17.78,-23.5 34.62,-56.79 49.04,-96.13 0.42,-10.35 1.27,-20.63 2.37,-30.93 1.13,-10.65 2.53,-21.31 4.21,-31.86zm-3.9 118.02c-23.41,46.96 -24.83,60.46 -12.42,73.28 7.63,8.04 20.33,9.88 37.25,5.58 -2.06,-4.09 -4.06,-8.4 -5.97,-12.86 -5.34,1.38 -10.98,1.16 -16.6,-0.77 -10.02,-3.33 -9.51,-15.65 2.37,-42.01 -1.17,-4.76 -2.21,-9.51 -3.1,-14.22 -0.57,-3.01 -1.08,-6.01 -1.53,-9zm7.45 33.77c-0.21,2.03 0.25,3.51 1.34,4.52l-1.34 -4.52z"/>
  <path class="fil2" d="M3823.23 2918.86c3.31,6.07 5.75,11.91 7.57,17.23 10.8,31.57 -8,79.96 -17.82,113.48 -2.94,11.57 1.13,31.4 4.28,36.46 8.25,12.32 32.58,6.64 47.95,-11.36 6.52,-7.56 12.91,-12.93 14.52,-11.14 1.32,1.47 2.2,18.06 1.87,37.23 -0.88,45.87 16.75,64.72 40.18,42.43 7.93,-7.54 9.66,-7.18 15.83,4.39 6.86,12.32 24.78,17.46 33.47,9.19 1.88,-1.8 8.27,2.2 14.45,9.08 11.71,13.05 29.41,16.38 38.86,7.38 10.57,-10.07 8.47,-38.96 -4.94,-62.5 -17.75,-31.5 -39.09,-95.89 -40.43,-120.81 -2.71,-40.49 -7.68,-49.16 -69.09,-113.72 -7.23,-7.49 -13.72,-14.29 -19.67,-20.66 -1.46,4.46 -3.78,9.14 -8.04,14.58 5.33,5.83 11.05,12.02 17.28,18.68l61.31 66 3 31.44c3.37,35.76 17.62,81.33 40.13,129.83 15.19,32.57 15.5,52.44 0.57,45.16 -15.64,-7.28 -32.48,-41.67 -47.49,-96.65 -16.92,-61.82 -24.79,-74.51 -44.06,-75.67 -17.16,-1.17 -33.22,16.84 -45.98,51.81 -7.85,20.94 -13.83,30.66 -21.51,34.6 -5.79,2.12 -12.16,2.84 -13.78,1.02 -14.16,-15.75 6.49,-55.49 16.28,-93.17 6.38,-24.58 8.16,-48.06 -8.95,-74.22 -5.9,4.71 -10.22,7.92 -15.79,9.91zm117.9 142.05c6,23.88 14.11,52.44 17.54,63.3 5.27,14.45 5.24,19.87 -0.4,19.83 -9.13,-0.02 -20.46,-37.63 -26.4,-86.43 -2.74,-20.22 -6.01,-28.55 -10.92,-28.57 -5.64,-0.02 -6.86,7.19 -3.97,25.25 5.53,35.06 3.35,70.12 -4.96,78.02 -11.34,10.8 -18.68,-4.41 -16.15,-34.39 1.12,-15.16 -0.46,-37.21 -3.51,-48.42 -6.58,-20.62 -0.41,-37.94 15.21,-44.73 11.99,-5.37 21.41,10.58 33.56,56.14z"/>
  <path class="fil2" d="M3968.5 3614.56c10.06,-6.31 70.08,-17.84 100.63,-18.65 13.04,-0.34 39.72,1.78 59.67,5.22 31.3,4.84 37.53,4.1 49.76,-4.73 28.4,-19.46 8.21,-54.64 -37.5,-67.04 -14.83,-4.14 -38.31,-12.59 -51.54,-19.04 -18.93,-8.58 -29.75,-10.55 -46.67,-7.27 -36.68,7.21 -77.9,-7.57 -119.05,-42.2 -39.44,-32.97 -53.76,-38.83 -84.79,-31.77 -29.29,6.45 -54.6,34.91 -64.9,74.86 -2.09,8.05 -26.88,64.16 -26.86,64.36 0.35,5.53 6.64,10.7 14.88,20.11 8.25,9.42 16.77,25.16 22.21,36.9 5.43,11.75 11.14,17.48 11.77,25.87 0.63,8.39 5.36,17.89 11.5,17.73 6.14,-0.17 10.38,-7.95 37.19,-17.89 26.8,-9.94 68.72,-22.53 102.12,-31.21 7.52,-1.96 14.61,-3.71 21.58,-5.25zm-59.77 -144.8c41.2,36.89 76.75,51.26 126.62,50.51 26.65,-0.71 44.28,2.22 54.1,8.19 8.09,4.88 26.37,11.77 41.21,14.79 30.25,7.13 48.22,21.96 42.94,36.28 -2.65,7.44 -7.73,8.71 -27.64,6.4 -88.76,-11.82 -141.86,-4.74 -259.34,34.67 -74.17,25.21 -80.95,30.25 -81.36,14.95 -0.19,-7.08 -24.34,-47.48 -31.01,-54.19 -20.39,-21.31 5.83,-40.02 15.86,-72.17 8.84,-30.85 15.35,-41.79 30.38,-52.4 31.17,-22.37 52.78,-18.98 88.24,12.97z"/>
  <path class="fil2" d="M2730.84 4641.23c-1.06,11.11 -29.38,60.09 -48.05,81.68 -7.97,9.21 -26.66,26.17 -42.2,37.63 -23.89,18.35 -27.22,23.13 -27.54,37.41 -1.62,32.47 40.78,41.92 80.17,18.67 12.88,-7.47 34.86,-18.03 48.67,-22.86 19.21,-7.35 27.73,-13.49 35.68,-27.32 17.17,-30.05 55.72,-48.63 110.93,-53.99 52.73,-5.28 66.73,-11.26 80.44,-37.31 13.13,-24.46 5.22,-60.78 -21.88,-94.39 -5.45,-6.79 -36.96,-61.09 -37.13,-61.22 -4.88,-3.43 -13.21,-2.53 -26.36,-3.09 -13.15,-0.58 -31.79,-5.15 -45.11,-9.2 -13.33,-4.05 -21.77,-3.93 -29.23,-9.06 -7.46,-5.13 -18.45,-8.18 -22.2,-3.84 -3.75,4.34 0.12,12.42 -8.5,37.48 -8.62,25.06 -24.58,62.29 -38.44,91.06 -3.11,6.47 -6.13,12.52 -9.25,18.35zm159.7 54.92c-57.13,3.9 -91.74,18.85 -122.71,53.69 -16.28,18.83 -29.91,29.03 -41.16,31.83 -9.23,2.33 -26.61,10.35 -38.55,18.57 -25.17,16.1 -49.03,18.63 -57.73,5.5 -4.58,-6.77 -2.44,-11.11 12.12,-23.29 66.18,-53.3 93.86,-94.57 135.12,-201.63 25.77,-67.82 25.83,-75.84 38.96,-65.96 6.08,4.56 55.37,14.74 65.25,14.6 30.84,0.1 29.97,30.58 50.68,58.83 20.36,26.56 25.44,38.31 24.84,55.69 -0.92,36.32 -17.46,48.95 -66.82,52.17z"/>
  <path class="fil2" d="M2808.39 1705.52c-41.34,5.43 -81.1,20.32 -102.42,38.46 -19.48,16.54 -22.59,47.84 -7.9,75.91l10.59 20.72 -24.8 31.88c-55.34,70.31 -78.67,149.06 -63.36,212.82 2.68,11.32 6.11,20.63 11.68,30.49 2.99,-5.46 6.58,-11.09 10.05,-16.94l0.74 -1.24c-18.65,-48.87 -10.4,-109.3 24.1,-169.23 13.6,-23.44 25.64,-42.33 27.39,-42.19 1.13,0.09 -2.97,14.95 -9.65,32.52 -12.53,34.64 -19.93,101.25 -17.94,150.45 0.7,2.16 1.12,5.22 1.4,8.63 0.42,4.99 0.55,10.75 0.77,17.12 0.41,2.97 0.87,5.8 1.4,8.46 3.05,15.56 4.61,30.21 4.03,35.88 0.8,3.3 1.73,6.68 2.8,10.14 3.85,12.52 9.55,26.11 13.7,38.8 39.61,42.48 54.56,48.58 89.67,47.96 32.76,-0.27 36.15,1.17 59.02,21.73 48.51,43.3 51.98,63.09 61.77,87.87 3.67,9.31 0.26,30.47 16.08,31.72 20.89,1.7 -16.09,-81.3 -57.18,-122.6 -24.26,-25.33 -25.23,-27.16 -15.73,-36.33 16.42,-15.61 5.08,-19.45 -23.92,-7.78 -33.78,13.04 -65.17,11.08 -87.82,-5.36 -19.3,-13.82 -40.53,-62.29 -44.44,-100.58 -2.22,-22.97 -1.6,-23.51 8.66,-12.74 10.73,11.39 23.81,15.95 24.42,8.4 0.19,-2.32 -6.02,-12.17 -14.03,-21.59l-14.31 -18.1 26.17 -20.08c29.93,-23.29 33.42,-37.61 17.83,-68.67 -7.02,-14.59 -11.91,-19.08 -16.91,-14.81 -5.03,4.26 -4.31,10.17 1.8,21.18 12.15,23.19 8.72,36.35 -14.68,51.4 -11.72,7.23 -23.29,13.31 -25.6,13.12 -7.58,-0.61 10.62,-95.55 26.01,-134.04 8.14,-20.96 15.95,-37.85 16.51,-37.81 0.57,0.05 17.75,18.96 38.14,41.65 20.33,22.68 46.27,48.73 57.8,57.85 14.31,11.09 27.91,30.89 40.68,60.56 10.92,24.25 32.06,58.68 46.41,76.2 17.56,21.29 33.38,50.04 45.86,83.18 34.56,92.78 66.05,129.8 106.58,127.24 3.64,-0.18 6.58,-0.29 8.91,-0.25 1.19,-7.63 6.58,-8.78 11.88,-14.47 -27.6,7.66 -46.42,-4.27 -64.24,-26.19l-17.98 -23.08 31.58 6.65c18.62,3.4 149.31,7.85 156.25,4.97 22.26,-9.24 21.69,-9.99 25.85,-31.13 2.91,-14.37 2.34,-29.02 -1.33,-34 -4.76,-6.23 -3.9,-9.66 3.53,-14.91 10.24,-7.58 11.81,-22.6 23.9,-35.46 11.54,-12.5 17.46,-13.78 48.86,-11.82 19.76,1.6 48.95,1.62 64.76,1.16l28.2 -1.82 15.66 -34.37c22.02,-48.47 47.58,-82.62 90.49,-121.81 34.68,-31.66 45.61,-51.23 32.95,-60.43 -10.5,-7.87 -4.67,-14.99 10.44,-13.76 26.13,2.11 91.11,-71.51 84.24,-94.85 -2.78,-9 -11.17,-6.75 -60.24,14.98 -63.64,28.17 -115.22,37.42 -179.09,32.26 -63.82,-5.17 -124.78,-24.71 -248.9,-79.16 -62.61,-27.86 -131.66,-55.65 -152.75,-62.03 -47.39,-13.77 -115.87,-19.32 -164.34,-12.73zm173.67 34.51c25.65,7.93 81.62,31.16 124.4,50.98 201.65,93.44 316.07,109.13 436.94,59.32 47.11,-18.97 47.11,-18.97 36.57,-4.05 -23.82,34.29 -31.77,38.91 -73.28,46.07 -47.35,7.86 -55.91,19.43 -21.13,30.43 11.34,3.83 20.85,9.27 20.62,12.18 -0.61,7.55 -76.33,76.79 -88.39,81.07 -13.79,4.73 -109.52,-3.6 -149.05,-13.23 -19.5,-5.08 -57.1,-16.89 -83.13,-27.17 -63.49,-23.85 -61.75,-23.7 -65.33,-15.81 -1.46,3.39 14.68,13.45 41.28,24.38 71.79,29.77 96.97,36.46 173.82,46.79l72.87 9.4 -9.75 19.07 -9.68 19.08 -50.19 -8.14c-27.71,-4 -55.4,-8.57 -61.14,-10.21 -15.52,-3.01 -18.86,9.57 -3.56,15.49 7.38,2.34 34.4,8.03 60.38,11.89 44.38,7.69 46.64,8.45 41.66,19.73 -7.72,15.74 -32.43,17.84 -124.16,10.41 -198.62,-14.91 -335.87,-73.34 -456.95,-194.16 -38.88,-39.38 -90.15,-120.66 -88.51,-140.98 4.75,-58.62 155.63,-82.05 275.71,-42.54zm-66.84 299.02c70.65,43.69 153.07,71.99 253.47,87.71 28.85,4.66 52.48,8.92 52.43,9.5 -0.98,12.19 -18.15,36.51 -25.17,36.52 -15.72,-0.68 -31.12,1.58 -34.87,4.77 -6.23,4.76 7.71,20.5 23.1,25.26 12.48,4.51 13.98,7.54 10.69,26.56 -3.43,20.77 -4.04,21.29 -35.77,23.4 -34.12,2.5 -147.03,-10.15 -163.31,-17.89 -8.43,-4.18 -36.31,-64.29 -31.87,-68.6 1.21,-0.49 20.27,9.23 43.15,22.77 46.93,26.59 81.01,38.69 78.42,27.38 -1.41,-4.2 -20.29,-16.25 -42.79,-27.42 -51.59,-26.37 -95.13,-59.11 -123.8,-94.74 -21.8,-26.31 -49.24,-77.03 -41.71,-76.42 1.74,0.14 19.06,9.73 38.03,21.2z"/>
  <path class="fil0 str3" d="M3451.37 2982.76c19.64,47 39.28,94 64.41,137.64 25.12,43.65 55.71,83.96 56.61,133.86 0.92,49.91 -27.87,109.41 -67.48,168.37 -39.59,58.95 -90.02,117.36 -131.42,169.33 -41.4,51.97 -73.78,97.52 -67.94,104.62 5.85,7.1 49.91,-24.23 91.55,-44.44 41.65,-20.22 80.86,-29.32 129.88,-40.97 49.01,-11.65 107.84,-25.85 148.86,-34.53 41.01,-8.68 64.22,-11.84 82.98,1.31 18.76,13.16 33.07,42.64 41.95,65.95 8.89,23.3 12.36,40.45 -7.31,51.2 -19.66,10.77 -62.46,15.16 -118.24,32.82 -55.77,17.67 -124.52,48.62 -199.48,87.44 -74.95,38.82 -156.1,85.5 -223.64,117.08 -67.54,31.57 -121.47,48.05 -164.65,32.88 -43.18,-15.16 -75.6,-61.94 -76.19,-116.9 -0.58,-54.97 30.7,-118.11 62.13,-195.3 31.43,-77.19 63.02,-168.41 90,-229.77 26.98,-61.37 49.32,-92.85 67.15,-119.22 17.84,-26.35 31.16,-47.57 44.48,-68.79"/>
  <path class="fil0 str3" d="M3021.7 3133.09c19.01,66.03 38.01,132.04 33.78,190.41 -4.22,58.36 -31.68,109.06 -63.58,225.46 -31.9,116.42 -68.22,298.54 -99.39,456.91 -31.16,158.36 -57.16,292.98 -73.61,372.17 -16.44,79.18 -23.34,102.95 -21.63,115.07 1.71,12.12 12.01,12.6 32.38,18.89 20.36,6.29 50.78,18.37 76.36,7.53 25.57,-10.84 46.31,-44.6 76.54,-115.39 30.23,-70.78 69.97,-178.6 106.4,-257.73 36.44,-79.12 69.59,-129.56 102.73,-180"/>
  <path class="fil0 str0" d="M3431.13 2995.52c-28.15,17.34 -83.67,39.19 -149.17,62.19 -65.48,23.02 -140.94,47.2 -188.68,62.7 -47.73,15.51 -67.72,22.35 -81.13,14.16 -13.39,-8.19 -20.19,-31.4 -27.49,-68.27 -7.29,-36.87 -15.09,-87.4 -35.52,-150.52 -20.43,-63.13 -53.5,-138.85 -72.9,-183.32 -19.39,-44.47 -25.11,-57.69 -41.39,-55.95 -16.27,1.75 -43.1,18.44 -83.27,39.06 -40.18,20.61 -93.73,45.13 -137.11,61.97 -43.38,16.84 -76.6,26 -95.19,16.62 -18.59,-9.38 -22.54,-37.28 -18.84,-76.11 3.69,-38.83 15.04,-88.6 26.16,-142.97 11.13,-54.37 22.04,-113.36 31.48,-154.7 9.46,-41.33 17.44,-65.01 29.14,-77.09 11.71,-12.06 27.13,-12.53 43.87,-15.22 16.74,-2.7 34.8,-7.63 42.79,-4.97 8,2.66 5.96,12.91 2.59,30.08 -3.37,17.17 -8.06,41.24 -11.72,70.32 -3.65,29.09 -6.29,63.16 -11.72,97.22 -5.42,34.05 -13.64,68.07 -10.42,79.01 3.23,10.94 17.91,-1.19 39.75,-13.7 21.83,-12.51 50.84,-25.4 76.34,-52.85 25.5,-27.44 47.51,-69.46 70.79,-96.6 23.29,-27.15 47.84,-39.43 75.87,-54.97 28.03,-15.52 59.56,-34.3 104.26,-51.66 44.71,-17.35 102.6,-33.3 146.33,-41.43 43.74,-8.12 73.3,-8.43 121.6,10.13 48.29,18.56 115.32,55.96 177.79,99.11 62.47,43.14 120.37,92.01 182.33,150.88 61.97,58.87 128,127.76 174.31,178.41 46.32,50.66 72.93,83.11 77.44,109.18 4.52,26.08 -13.06,45.79 -31.24,61.64 -18.17,15.86 -36.95,27.84 -51.69,25.1 -14.75,-2.74 -25.47,-20.22 -52.69,-55.23 -27.22,-35.02 -70.95,-87.58 -129.46,-139.99 -58.5,-52.41 -131.79,-104.66 -192.78,-137.19 -60.98,-32.51 -109.67,-45.29 -124.48,-42.89 -14.8,2.4 4.28,19.97 33.75,79.02 29.48,59.06 69.35,159.6 91.1,220.81 21.74,61.22 25.34,83.1 26.74,100.47 1.4,17.37 0.62,30.21 -27.54,47.55z"/>
  <path class="fil0 str0" d="M3081.65 3057.96c63.69,-22.6 127.38,-45.22 177.38,-64.37 49.99,-19.14 86.27,-34.84 107.1,-48.86 20.82,-14 26.19,-26.33 31.55,-38.67"/>
  <path class="fil2" d="M1530.71 648.15c-0.24,0.55 -0.61,1.04 -1.14,1.41 -1.62,1.14 -3.97,0.77 -5.24,-0.83l-9.18 -11.56c-1.28,-1.6 -1,-3.82 0.62,-4.97 1.62,-1.15 3.96,-0.77 5.23,0.83l9.19 11.56c0.86,1.08 1.01,2.43 0.52,3.56z"/>
  <path class="fil2" d="M6173.19 505.28c0.28,0.53 0.7,0.99 1.26,1.31 1.7,1 4.01,0.43 5.14,-1.28l8.17 -12.29c1.13,-1.71 0.67,-3.9 -1.04,-4.9 -1.72,-1.01 -4.02,-0.43 -5.15,1.28l-8.17 12.29c-0.76,1.15 -0.79,2.52 -0.21,3.59z"/>
  <path class="fil2" d="M1522.89 865.56c-0.63,1.45 -2.24,2.31 -3.97,2.01l-14.71 -2.65c-2.04,-0.35 -3.46,-2.22 -3.17,-4.16 0.28,-1.92 2.17,-3.2 4.21,-2.83l14.7 2.63c2.04,0.36 3.46,2.23 3.18,4.17 -0.05,0.28 -0.13,0.57 -0.24,0.83z"/>
  <path class="fil2" d="M6199.52 721.23c0.75,1.39 2.43,2.12 4.13,1.67l14.43 -3.89c2,-0.53 3.25,-2.51 2.8,-4.42 -0.44,-1.89 -2.43,-3 -4.43,-2.46l-14.43 3.87c-1.99,0.54 -3.25,2.52 -2.81,4.43 0.08,0.28 0.18,0.55 0.31,0.8z"/>
  <path class="fil2" d="M1835.7 616.27c-0.02,0.05 -8.87,19.74 -8.87,19.74 -0.8,1.77 -2.98,2.53 -4.88,1.68 -1.88,-0.84 -2.78,-2.93 -2.01,-4.7 0.02,-0.05 8.87,-19.75 8.87,-19.75 0.8,-1.77 2.98,-2.52 4.88,-1.68 1.89,0.85 2.77,2.95 2.01,4.71z"/>
  <circle class="fil10" transform="matrix(0.197572 0.0951136 -0.0951136 0.197572 6181.58 472.418)" r="1005.41"/>
  <path class="fil2" d="M1493.16 303.94c90.36,-21.98 190.39,19.52 237.52,97.69 30.71,51.93 38.84,88.47 32.38,144.41 -11.1,98.24 -91.48,178.12 -190.91,189.3 -145.13,17.52 -268.07,-112.88 -242.99,-258.92 3.29,-17.23 17.84,-51.89 34.18,-75.93 22.77,-35.94 36.39,-49.39 69.41,-68.02 22.64,-13.38 49.52,-25.68 60.41,-28.53zm-89.69 85.39c-109.93,118.04 -24.59,320.1 136.85,322.59 88.21,1.75 169.26,-58.76 191.3,-144.58 37.27,-145.17 -91.28,-271.36 -239.96,-235.55 -31.36,7.76 -59.2,26.02 -88.19,57.54z"/>
  <path class="fil2" d="M6355.95 252.88c-91.9,-14.2 -188.03,35.68 -228.32,117.59 -26.17,54.36 -31.15,91.46 -19.94,146.65 19.44,96.93 106.34,169.67 206.36,172.32 146.09,5.08 257.47,-135.33 220.02,-278.7 -4.75,-16.88 -22.2,-50.18 -40.53,-72.74 -25.76,-33.86 -40.47,-46.1 -74.96,-61.85 -23.7,-11.4 -51.53,-21.37 -62.63,-23.27zm96.65 77.43c119.6,108.23 51.8,316.84 -108.83,333.08 -87.75,9.27 -173.66,-44.1 -202.94,-127.74 -49.52,-141.46 67.8,-278.15 218.99,-255.16 31.91,5.06 61.21,20.89 92.78,49.82z"/>
  <path class="fil10 str4" d="M5095.94 3008.55l-863.78 1481.25c-35.09,60.06 -112.26,80.46 -172.41,45.46 -40.27,-23.42 -62.75,-65.77 -62.75,-109.15 0,-21.61 5.54,-43.48 17.21,-63.44l864.81 -1482.97c35.94,27.04 73.89,52.28 113.73,75.53 33.88,19.7 68.27,37.5 103.19,53.32z"/>
  <path class="fil11" d="M5592.07 1116.9c472.15,0 854.89,382.74 854.89,854.89 0,472.15 -382.74,854.89 -854.89,854.89 -472.15,0 -854.89,-382.74 -854.89,-854.89 0,-472.15 382.74,-854.89 854.89,-854.89zm-29.11 321.05c308.75,0 531.16,222.48 531.16,531.23 0,308.75 -209.7,517.94 -516.09,530.92 -306.39,12.98 -557.51,-226.71 -557.51,-535.46 0,-308.75 233.69,-526.69 542.44,-526.69z"/>
 </g>
</svg>
