<?xml version="1.0" encoding="UTF-8"?>
<!DOCTYPE svg PUBLIC "-//W3C//DTD SVG 1.1//EN" "http://www.w3.org/Graphics/SVG/1.1/DTD/svg11.dtd">
<!-- Creator: CorelDRAW 2021 (64-Bit) -->
<svg xmlns="http://www.w3.org/2000/svg" xml:space="preserve" width="7.62cm" height="5.08cm" version="1.1" style="shape-rendering:geometricPrecision; text-rendering:geometricPrecision; image-rendering:optimizeQuality; fill-rule:evenodd; clip-rule:evenodd"
viewBox="0 0 7620 5080"
 xmlns:xlink="http://www.w3.org/1999/xlink"
 xmlns:xodm="http://www.corel.com/coreldraw/odm/2003">
 <defs>
  <style type="text/css">
   <![CDATA[
    .str0 {stroke:#181818;stroke-width:7.62;stroke-miterlimit:10}
    .fil5 {fill:#CDC8FE}
    .fil4 {fill:#DEFBA1}
    .fil6 {fill:#E2EAFF}
    .fil0 {fill:#FAF6D7}
    .fil1 {fill:#FCF9E0}
    .fil2 {fill:#FCFAEA}
    .fil3 {fill:#FFFEF7}
    .fil8 {fill:white}
    .fil7 {fill:#181818;fill-rule:nonzero}
   ]]>
  </style>
 </defs>
 <g id="Слой_x0020_1">
  <metadata id="CorelCorpID_0Corel-Layer"/>
  <g id="_1935523129920">
   <rect class="fil0" x="-0" y="-0" width="7619.99" height="5080"/>
   <path class="fil1" d="M2281.23 0l5338.76 0 0 5080 -5127.4 0c-636.88,-706.28 -1024.69,-1641.52 -1024.69,-2667.43 0,-906.9 303.07,-1742.91 813.33,-2412.57z"/>
   <path class="fil2" d="M3106.31 0l4481.24 0c10.87,10.02 21.71,20.06 32.44,30.21l0 4807.98c-90.74,85.83 -186.32,166.59 -286.32,241.81l-3973.48 0c-802.68,-603.7 -1321.85,-1564.09 -1321.85,-2645.8 0,-962.89 411.45,-1829.56 1067.97,-2434.2z"/>
   <path class="fil3" d="M4048.42 0l2597.02 0c390.43,208.72 724.71,508.63 974.55,871.23l0 3125.94c-354.13,514.04 -878.08,901.9 -1490.83,1082.83l-1564.46 0c-1142.44,-337.25 -1976.27,-1394.06 -1976.27,-2645.8 0,-1053.99 591.2,-1969.77 1459.99,-2434.2z"/>
   <circle class="fil4" cx="1143.39" cy="4324.1" r="236.49"/>
   <circle class="fil5" cx="4286.55" cy="3901.31" r="276.1"/>
   <circle class="fil6" cx="2536.84" cy="3448.57" r="276.1"/>
   <path class="fil7 str0" d="M5656.67 4503.51c-80.43,9.69 -165.24,22.37 -238.14,59.56 -34.7,17.72 -78.37,49.74 -89.84,89.01 -2.49,8.56 -3.68,16.24 1.1,24.26 15.76,26.49 67.3,37.5 94.75,44.29 125.92,31.16 262.88,42.77 392.39,49.68l276.02 7.39c208.55,0.26 425.25,-6.22 629.19,-53.4 33.84,-7.84 85.67,-17.63 112.97,-40.28 6.65,-5.53 9.12,-14.11 9.67,-22.48 1.2,-18.05 -9.19,-34.73 -20.8,-47.84 -98.24,-110.89 -384.33,-123.67 -528.8,-131.55 -10.04,-0.57 -31.37,-4.1 -39.98,-0.24 1.3,6.89 0.12,15.21 -2.77,21.6 -5.65,12.52 -18.35,21.61 -31.12,25.65 -58.39,18.41 -238.44,22.23 -287.79,-6.45 -14.58,-8.48 -15.4,-19.61 -18.95,-34.68 -86.02,-0.31 -172.52,5.22 -257.9,15.48zm-342.72 177.49l-1.28 -2.56c-15.05,0.89 -37.78,15.41 -47.6,26.43 -6.89,7.73 -11.42,16.05 -10.09,26.69 2.11,16.74 22.33,31.39 35.25,40.29 12.4,6.93 25.93,12.49 39.28,17.26 83.31,29.85 177.49,40.87 265.06,50.96l306.73 21.51c247.92,10.24 499.74,3.81 745.4,-32.69 77.76,-11.55 160.14,-22.64 231.52,-57.05 18.51,-8.94 56.27,-30.68 42.34,-56.3 -12.16,-22.35 -35.98,-30.09 -58.69,-37.03l-5.93 6.02c-7.53,7.83 -13.99,14.24 -23.56,19.49 -36.05,19.76 -79.59,28.78 -119.34,37.85 -86.84,19.86 -175.18,29.86 -263.82,37.04l-297.11 12.95c-192.22,1.72 -383.55,-3.44 -574.28,-29.1 -61.8,-8.31 -126.02,-16.31 -185.75,-34.67 -27.64,-8.5 -64.21,-19.86 -78.13,-47.09zm876.6 -203.32l-163.92 -0.93c-26.22,0.05 -54.71,-2.43 -80.46,2.09 -4.73,2.9 -9.09,6.65 -10.61,12.26 -1.83,6.79 -1.43,11.32 1.42,17.51 15.12,8.69 31.01,10.78 47.94,13.33 50.87,6.56 207.05,14.67 246.4,-14.01 7.95,-5.78 8.12,-12.08 9.2,-20.99 -11.06,-11.3 -35.09,-8.75 -49.97,-9.26zm115.52 -131.5c113.74,-113.32 213.47,-250.09 283.82,-394.61 -2.28,0.31 -0.9,-0.12 -3.51,2.65l-84.76 97.14c-65.53,72.62 -136.97,142.57 -214.13,202.87 -47.78,37.32 -97.8,69.58 -149.25,101.54 -4.87,13.08 -11.49,24.16 -18.81,35.97l32.03 14.51c16.25,9.66 28.33,20.72 40.76,34.81 42.11,-24.74 79.42,-60.58 113.85,-94.88zm306.96 -462.18c10.3,-13.08 22.17,-25.84 30.48,-40.31 16.39,-28.63 29.18,-60.48 43.23,-90.39l130.9 -315.08 -656.02 880.23 120.65 -89.17c99.31,-80.9 185.52,-173.16 269.22,-269.71l61.54 -75.57zm105.66 -148.16c38.98,-58.34 72.97,-122.34 104.75,-184.91 26.29,-51.75 52.78,-103.18 72.54,-157.92 -11.09,-1.06 -21.91,-4.08 -32.72,-6.65l-5.91 -0.8c-9.85,13.2 -15.66,34.31 -22,49.8l-76.6 195.74c-18.23,43.18 -42.98,86.32 -57.61,130.54l17.55 -25.8zm278.15 -383.51c30.11,-21.4 53.47,-59.38 59.32,-95.87 6.46,-40.34 -1.71,-80.58 -26.57,-113.67 -26.33,-35.04 -62.32,-51.6 -104.94,-57.8 -35.48,-1.75 -65.65,3.26 -95.81,22.73 -70.61,45.59 -74.16,141.12 -30.36,206.94 25.28,38 58.61,55.41 102.72,63.59 35.4,1.02 66.23,-5.03 95.64,-25.92zm-159.58 -283.97c-23.61,-85.37 -35.77,-137.62 -70.14,-224.62 -135.78,-343.64 -379.03,-642.36 -683.07,-851.97l-19.7 11.13 210.39 404.16 48.27 93.28c2.87,5.61 5.59,11.96 8.47,18.29 2.53,7.64 6.62,14.99 9.9,21.18 7.22,13.62 10.42,21.64 19.64,32.86 9.22,11.22 24.44,25.64 48.08,48.08 15.83,15.03 6.94,7.9 12.5,22.93 1.1,2.96 10.94,11.29 13.7,14.15l53.58 55.99 343.03 366.7c3.76,3.68 1.5,2.41 6.9,3.65 1.57,-6.3 0.1,-9.87 -1.55,-15.81zm-717.08 -1172.71c4.94,-33.77 -6.31,-69.62 -26.12,-96.79 -31.39,-43.12 -88.28,-66.54 -141,-62.69 -38.7,2.83 -79.04,20.34 -104.41,50.11 -24.97,29.34 -37.81,68.24 -34.03,106.58 3.47,35.35 24.84,72.64 52.47,94.89 30.83,24.81 68.93,34.36 107.81,30.31l1.76 -3.41 -5.72 -13.78c-2.89,-1.2 -5.2,-1.77 -8.33,-2.04 -22.02,-1.97 -41.79,-9.97 -60.09,-22.33 -27.73,-18.72 -42.11,-46.94 -47.62,-79.43 -5.96,-35.16 5.11,-66.27 25.27,-94.53 16.98,-19.25 35.23,-32.4 60.04,-39.66 32.12,-9.43 67.17,-5.75 96.6,10.19 28.41,15.38 49.02,40.51 58.2,71.56 11.77,39.75 4.46,83.02 -21.37,115.84 -8.52,10.82 -18,17.81 -24.81,30.17 9.21,-2.2 16.23,-5.48 23.9,-11.12 26.95,-19.84 42.68,-51.14 47.45,-83.87zm-783.04 -626.6l0.33 1.59 246.76 -167.1 55.7 -43.24c8.36,-7.06 18.83,-20.96 28.45,-25.49 3.76,-1.78 6.93,-2.37 11.02,-2.63 14.4,-0.89 28.81,5.16 42,10.32 63.32,24.8 114.59,69.75 163.33,115.88 44.8,45.37 85.27,96.63 117.61,151.63 8.61,14.64 16.88,29.72 24.24,45.05 2.9,10.77 6.75,22.58 10.87,34.96 3.3,9.91 6.79,20.19 10.25,30.28l-115.17 125.64c-92.37,106.06 -172.97,226.9 -228.24,356.48l71.29 -3.32 20.1 -1.08c1.17,-0.95 2.86,-1.48 3.55,-2.83 0.46,-0.92 -0.31,-10.25 -0.32,-11.96 -0.12,-10.51 0.97,-20.5 2.97,-30.81 8.53,-44.03 31.94,-80.17 69.5,-104.98 85,-56.07 216.9,-18.68 255.09,77.74 15.6,39.49 12.56,77.67 -4.24,116.17 -6.67,15.32 -15.99,27.28 -26.58,40.03 81.89,59.65 161.08,122.12 234.63,191.89 126.7,120.21 239.61,258.67 328.66,409.05 89.56,151.25 158.24,323.29 202.38,493.16l3.95 -1c45,-11.13 93.81,-4.82 133.34,19.67 34.01,21.06 61.15,56.48 70.17,95.65 9.77,42.45 3.48,88.87 -20.01,126.01 -23.56,37.26 -58.34,64.35 -101.98,73.64l-34.53 6.21c-59.47,144.68 -136.28,284.89 -218.8,417.64l-50.96 75.15c-14.01,22.4 -25.17,46.72 -37.6,70l-56.71 100.16c-70.02,118.55 -160.79,237.34 -262.94,329.84 -29.59,26.8 -61.46,48.78 -92.53,73.53l213.77 12.31c111.65,8.18 229.92,21.14 333.49,65.79 32.69,14.09 66.39,31.83 90.83,58.29 12.37,13.4 23,29.34 27.72,47.09 1.3,4.89 1.47,14.43 6.26,15.87 22.87,6.88 58.73,23.51 70.13,45.49 25.48,48.99 -25.34,68.65 -68.89,86.85 -51,21.27 -106.53,31.91 -160.72,41.48 -248.79,44.03 -506.16,49.1 -758.11,43.53 -139.7,-3.09 -602.02,-23.3 -688.99,-112.95 -10.67,-10.99 -17.71,-24.83 -17.51,-40.4 0.18,-14.46 10.12,-28.51 20.47,-37.84 10.58,-9.56 22.59,-14.16 35.7,-19 2.57,-0.97 11.37,-3.25 13.04,-4.71 0.69,-0.61 0.37,-1.82 0.58,-2.73 9.66,-43.05 44.99,-77.36 81.38,-99.97 68.54,-42.56 154.87,-57.93 233.78,-68.63l9.99 -1.33c37.16,-3.89 74.35,-7.75 106.93,-11.34 37.97,-3.05 76.02,-5.03 114.12,-5.81 5.92,-0.11 48.62,0.51 51.56,-2.44 1.08,-1.08 1.27,-2.75 1.9,-4.13 -8.81,-22.67 9.17,-73.4 69.18,-90.73 6.81,-1.97 16.95,-1.52 22.98,-4.08 11.14,-4.72 156.85,-202.8 177.58,-230.2l443.54 -592.14 97.89 -131.92 32.56 -41.93c12.73,-16.13 23.64,-30.24 37.29,-44.13 -0.7,-4.71 0.07,-3.33 -2.27,-6.82 -34.81,-51.75 -42.15,-125.79 -14.98,-181.13 0.54,-1.09 1.59,-2.05 1.63,-3.28 0,-0.06 -44.29,-45.61 -48.8,-50.31l-306.62 -322.91 -89.36 -91.78c-14.56,-14.88 -30.96,-29.48 -43.9,-45.65 -9.41,-11.76 -12.86,-25.87 -16.78,-40.05l-1.53 1.09c-2.43,-15.09 -7.62,-28.66 -16.05,-43.05 -1.19,-2.03 -2.45,-4.09 -3.77,-6.16l-264.78 -510.33c-49.5,5.14 -89.38,-2.83 -128.79,-35.14 -26.09,-21.38 -45.13,-51.52 -52.99,-84.37l-106.74 7.16 -51.17 143.07c-1.23,3.95 10.3,108.81 11.36,126.17 4.49,152.39 -18.64,323.37 -98.65,455.59 -17.9,29.58 -43.83,64.89 -74.34,82.58 -29.61,17.18 -65.86,14.8 -97.71,5.46 -63.82,-18.7 -122.14,-55.87 -176.64,-93.08 -129.94,-88.74 -245.41,-196.91 -352.44,-311.84 -91.87,-98.64 -176.82,-201 -256.97,-309.39 -57.43,-77.67 -114.86,-158.19 -160.83,-243.32 -35.22,-65.19 -73.82,-141.64 -75.01,-217.28 -0.23,-16.36 0.2,-32.55 5.03,-48.33 12.26,-40.08 49.71,-62.91 84.97,-81.05 155.21,-79.84 350.98,-82.3 514.76,-28.91l57.14 21.65c6.4,2.66 16.29,8.8 22.58,9.79 3.42,0.53 68.92,-33.35 76.25,-37.06l124.62 -69.42c7.14,-4.16 14.42,-8.28 21.72,-12.43 15.82,-5.44 30.18,-13.87 43.69,-23.56 8.01,-5.74 15.72,-11.94 23.34,-19.13zm685.3 112.61c-65.04,-135.59 -182.25,-279.79 -326.83,-333.15 -3.93,-0.4 -6.71,-0.56 -10.68,0l0.29 1.81c3.81,13.73 23.02,35.32 31.78,47.41 80.93,111.57 182.79,206.62 296.87,283.74l6.98 3.12 1.59 -2.93zm-955.84 58.16c204,106.88 368.07,286.07 491.38,477.71l73.18 133.1c12.22,-36.58 23.95,-73.81 38.69,-109.44 60.98,-147.39 143.42,-279.4 246.61,-400.67l116.08 -127.25c-47.86,-33.84 -95.61,-66.2 -140.72,-103.89 -88.48,-73.83 -156.78,-159.45 -222.73,-253.12 -35.09,33.71 -79.24,62.03 -118.76,90.32 -153.32,109.74 -314.72,209.46 -483.73,293.24zm-271.12 -59.5c-123.43,-7.17 -245.86,11.76 -355.09,72.24 19.68,4.47 38.31,6.48 57.63,13.31 28.38,9.99 54.98,24.81 81.05,39.62 54.76,31.12 106.87,67.95 156.57,106.62 135.13,105.17 254.6,223.09 367.59,351.49 140.12,159.26 268.73,334.74 360.42,526.76 21.35,45.45 44.55,95.27 50.35,145.69 1.58,13.64 0.35,28 -0.11,41.71 85.9,-110.31 114.46,-249.8 124.51,-386.4 3.67,-49.68 6.62,-145.06 -5.19,-193.98 -4.05,-16.87 -13.96,-34.74 -21.38,-50.56 -50.16,-107.04 -120.42,-209.32 -197.55,-298.69 -160.84,-186.35 -364.13,-348.99 -618.8,-367.81zm430.81 758.43c-84.24,-117.99 -185.25,-227.56 -288.92,-328.52 -25.5,12.71 -47.83,31.74 -64.75,54.6 -30.19,40.84 -41,92.36 -32.62,141.93 10.24,60.56 45.94,115.2 96.21,150.35 54.47,38.11 117.52,48.64 182.24,37.05 39.49,-7.98 77.31,-29.69 107.84,-55.41zm-829.31 -652.57c-18.89,20.17 -19.05,54.8 -17.84,80.79 2.53,53.62 26.55,108.72 50.04,156.26 53.69,108.75 124.12,206.82 196.47,303.7l141.77 180.39c76.17,88.36 157.46,174.06 243.35,253.01 89.4,82.16 307.46,269.74 428.25,263.71 19.67,-0.98 35.76,-7.55 48.62,-23.05 14.54,-17.53 11.52,-44.34 10.31,-65.5 -10.81,-61.57 -37.87,-121.11 -66.46,-176.24 -33.47,-64.57 -70.87,-125.99 -110.77,-186.72 -27.33,-41.61 -54.14,-83.35 -85.68,-121.94l-26.97 20.92c-53.71,37.32 -120.82,50.16 -184.97,38.17 -67.29,-12.58 -125.59,-53.1 -163.45,-110 -31.31,-47.1 -45.01,-110.4 -33.33,-165.88 12.8,-60.78 48.72,-102.61 99.56,-135.73 -87.42,-88.51 -189.31,-171.24 -292.74,-240.4 -55.71,-37.23 -118.6,-77.38 -185.82,-88.02l-7.46 -0.49c-16.03,-0.36 -31.8,5.22 -42.88,17.02zm1594.79 527.24l6.1 1.34c16.61,-4.9 31.41,-10.88 46.3,-19.74 0,0 -24.37,-52.38 -28.19,-60.66 -4.26,-9.2 -6.83,-17.32 -17.9,-19.65 -7.09,-1.45 -15.07,-0.43 -19.73,4.66 -1.53,1.32 -2.88,2.86 -4.05,4.57 -6.6,9.46 -6.2,19.52 -4.06,30.36 0.62,3.19 1.57,6.55 3.03,9.49 4.53,17.66 10.46,33.04 18.5,49.63zm-31.19 -90.99c3.09,-7.49 7.57,-14.62 14.78,-18.76 9.27,-5.32 19.93,-6.44 30.09,-3.22 23.89,7.62 22.53,24.35 28.97,43.86 2.77,8.35 7.66,16.47 11.79,24.21 17.05,-15.3 30.69,-32.49 35.7,-55.45 7.23,-33.19 2.53,-68.9 -16.63,-97.45 -17.6,-26.29 -44.07,-36.08 -73.56,-42.78 -26.74,-3.39 -51.19,1.94 -74.1,16.13 -23.17,14.36 -40.31,38.31 -46.5,64.83 -6.87,29.43 -0.99,59.3 15.57,84.6 18.14,27.71 45.63,40.87 77.28,47.19l-4.88 -21.48c-3.25,-13.88 -0.36,-27.72 1.49,-41.68zm114.84 252.23l108.24 208.01 61.72 119.64c10.18,19.55 19.6,41.39 32.55,59.19 16.35,-12.13 30.97,-14.97 50.55,-18.99l-277.24 -533.61 -51.33 20.76c22.53,49.4 50.16,96.96 75.51,145zm325.3 467.09c-26.54,-27.2 -46.21,-49.91 -64.25,-83.64 -15.14,0.93 -35.26,3.6 -46.81,13.96 -2.31,6.45 -3.16,10.67 -2.37,17.56 0.56,4.85 1.2,10.86 3.34,15.33 2.87,5.99 10.14,11.09 14.79,15.91 15.14,15.66 29.61,30.97 46.86,44.45 4.63,1.19 9.57,1.98 14.36,1.53 15.31,-1.46 25.33,-13.88 34.08,-25.1zm-37.8 41.08l-2.68 0.55c11.59,15.94 28.02,30.3 41.8,44.41l79.77 82.24 296.67 313.63c1.34,1.91 3.24,2.81 5.18,4.06 12.57,-13.27 25.59,-23.96 40.37,-34.7l-412.04 -438.38c-13.98,14.01 -29.62,23.92 -49.07,28.19zm-352.21 1703.11l37.9 6.91 4.22 0.88c24.25,-14.36 55.99,-31.79 75.1,-52.66 18.12,-19.8 32.59,-45.85 48.89,-67.58l116.8 -153.69 414.38 -559.5 96.27 -131.3c11.86,-15.95 22.48,-34.91 36.78,-48.6l1.61 -1.49c-1.97,-5.42 -14.07,-11.56 -19.11,-15.33 -8.92,-6.7 -17.05,-14.69 -25.16,-22.33l-787.68 1044.69zm-21.19 75.79l69.64 -0.6 124.84 1.53c-4.71,-9.03 -9.87,-18.01 -16.78,-25.58 -20.56,-22.57 -50.41,-30.9 -79.67,-33.11 -4.71,-0.33 -10.94,-1.08 -16.19,-0.49 -8.39,-2.53 -18.28,-4.4 -27.25,-5.73 -16.36,-2.42 -29.69,-3.03 -41.51,-3.33 -11.81,-0.3 -22.11,-0.3 -32.11,2.73 -9.99,3.03 -19.69,9.08 -27.87,18.47 -8.18,9.39 -14.84,22.12 -17.27,31.2 -2.42,9.09 -0.6,14.55 4.25,16.67 4.85,2.12 12.72,0.91 29.08,0 8.48,-0.47 19.24,-0.86 30.84,-1.76z"/>
   <path class="fil8" d="M4794.71 5080l-4794.71 0 0 -1489.74 4863.6 -1787.83c13.88,-4.63 66.54,-10.78 55.48,-4.98 -72.14,37.78 -102.04,110.81 -106.26,166.79 -6.94,92.38 36.29,192.16 181.49,246.87 48.64,18.33 107.55,9.23 141.36,1.32 42.11,-9.86 58.93,-25.84 104.51,-51.98l-445.47 2919.55z"/>
   <circle class="fil4" cx="1045.24" cy="4307.55" r="217.58"/>
   <circle class="fil5" cx="3472.3" cy="4227.26" r="260.02"/>
   <circle class="fil6" cx="2564.23" cy="3453.92" r="217.58"/>
   <g>
    <path class="fil7" d="M3653.82 4312.12c-2.06,0.88 -6.86,17.9 -10.75,37.84 -6.91,35.86 -11.17,47.84 -14.29,40.49 -0.88,-2.07 -0.27,-5.7 1.39,-8.04 1.66,-2.34 5.37,-18.65 8.34,-36.26 7.58,-45.66 7.53,-44.12 1.93,-41.74 -2.77,1.18 -6.26,14.37 -7.78,29.31 -1.48,14.94 -5.04,32.05 -7.86,38.04 -2.81,5.95 -1.87,-8.23 2.11,-31.54 3.96,-23.33 6.79,-43.29 6.32,-44.41 -0.48,-1.12 -4.45,0.16 -8.87,2.82 -5.38,3.24 -10.19,16.47 -14.66,40.34 -3.68,19.53 -7.71,35.08 -8.97,34.58 -2.99,-1.24 15.15,-89.91 18.73,-91.49 1.53,-0.69 10.72,5.43 20.45,13.62 9.71,8.16 15.95,15.57 13.91,16.44zm1.92 26.05c-1.78,8.14 -4.1,15.18 -5.14,15.62 -1.05,0.45 -0.41,-5.88 1.35,-14.01 1.81,-8.15 4.12,-15.19 5.15,-15.62 1.04,-0.45 0.45,5.86 -1.36,14.01zm8.64 36.59c-3.27,1.39 -5.6,0.35 -5.2,-2.26 0.39,-2.64 2.34,-5.47 4.3,-6.3 1.96,-0.84 4.27,0.18 5.16,2.27 0.88,2.06 -1.05,4.92 -4.26,6.29zm-16.03 9.08c-1.54,2.17 -3.53,2.24 -4.41,0.16 -0.89,-2.07 -0.36,-5.57 1.19,-7.74 1.52,-2.2 3.51,-2.27 4.4,-0.17 0.89,2.08 0.36,5.56 -1.18,7.75zm-29.16 10.07c-2.34,4.52 -4.4,5.77 -5.48,3.23 -1.95,-4.57 2.97,-12.97 6.72,-11.48 1.38,0.55 0.8,4.26 -1.24,8.25zm-15.24 6.58c-2.04,3.99 -4.36,5.48 -5.26,3.36 -0.9,-2.09 0.03,-7.03 2.04,-10.94 2.06,-4 4.41,-5.46 5.31,-3.34 0.88,2.06 -0.05,7 -2.09,10.92zm-13.12 3.83c-0.72,6.8 -1.62,6.22 -5.1,-3.17 -3.73,-10.15 2.96,-53.27 17.15,-110.59 2.3,-9.19 1.95,-16.11 -0.79,-16.52 -2.61,-0.4 -10.36,27.02 -17.3,60.92 -6.87,33.9 -13.65,61.22 -15,60.65 -1.86,-0.75 21.54,-115.44 26.61,-130.51 0.83,-2.49 11.77,3.79 13.58,7.81 0.55,1.15 -4.54,28.86 -11.33,61.59 -6.75,32.67 -11.09,59.91 -9.61,60.49 1.47,0.6 2.26,4.81 1.79,9.33zm-21.52 14.69c-5.2,2.21 -7.68,2.25 -5.54,0.11 2.17,-2.16 6.43,-3.98 9.49,-4.04 3.03,-0.06 1.28,1.7 -3.95,3.93zm-19.74 6.15c-0.81,-1.91 1.24,-11.58 4.55,-21.52l6.02 -18.06 -1.48 15.51c-1.62,16.51 -6.65,29.8 -9.09,24.07zm-12.89 -18.38c-2.01,0.85 -1.65,-8.38 0.81,-20.52 2.46,-12.13 5.13,-22.32 5.92,-22.65 0.78,-0.33 0.41,8.88 -0.85,20.5 -1.21,11.6 -3.89,21.82 -5.88,22.67zm-3.57 16.06c-2.36,13.68 -4.22,16.87 -6.59,11.3 -0.74,-1.75 0.95,-8 3.76,-13.89l5.08 -10.69 -2.25 13.28zm-17.9 19.77c-1.7,0.81 -0.73,-9.12 2.2,-22.04 2.92,-12.95 10.17,-46.24 16.09,-73.99 5.91,-27.75 11.69,-50.88 12.87,-51.38 2.56,-1.09 0.46,10.74 -15.45,86.17 -6.91,32.87 -14,60.41 -15.71,61.24zm-18.74 -7.96c4.38,-8.82 4.96,-9.19 3.08,-1.99 -1.52,5.8 -0.87,8.18 1.92,6.99 2.33,-1 4.99,-0.11 5.88,1.97 0.88,2.07 -6.91,7.43 -17.34,11.87l-18.96 8.07 4.49 -28.56c2.46,-15.69 5.35,-28.2 6.43,-27.76 1.06,0.44 0.62,9.06 -0.93,19.21 -4.59,29.47 -4.65,30.35 -0.91,28.76 1.96,-0.83 5.23,-13.25 7.31,-27.6 2.05,-14.33 4.62,-25.68 5.77,-25.25 1.12,0.45 0.61,9.63 -1.13,20.41 -3.91,24.05 -2.66,28 4.39,13.88zm-34.4 30.61c-1.79,0.82 -2.46,-3.37 -1.5,-9.31 0.96,-5.96 3.33,-21.05 5.27,-33.55 1.94,-12.5 4.74,-23.31 6.26,-23.95 1.54,-0.66 0.62,13.78 -2.01,32.05 -2.64,18.3 -6.28,33.92 -8.02,34.76zm-0.44 -109.33c0.88,2.06 0.5,8.15 -0.84,13.48 -1.33,5.36 -3.16,8.05 -4.05,5.96 -0.89,-2.09 -0.51,-8.18 0.82,-13.54 1.35,-5.32 3.18,-7.99 4.07,-5.9zm35.75 30.8c-1.26,-2.96 7.98,-73.67 10.68,-81.7 1.04,-3.13 2.19,-3.62 3.1,-1.32 1.67,4.26 -12.04,87.03 -13.78,83.02zm17.93 0.83c1.9,-3.72 1.79,2.54 -0.29,13.9 -2.07,11.32 -4.47,20.92 -5.36,21.3 -2.74,1.17 1.94,-28.1 5.65,-35.2zm-37 -11.89c-2.2,5.85 -2.2,-5.46 0.03,-25.16 5.86,-51.45 10.33,-66.13 6.9,-22.54 -1.59,20.34 -4.71,41.81 -6.93,47.7zm10.95 -21.43c1.33,-11.04 2.81,-24.95 3.28,-30.9 0.46,-5.94 2.13,-10.29 3.69,-9.66 1.56,0.63 0.99,14.15 -1.33,30.03 -4.69,32.63 -9.45,41.42 -5.64,10.53zm-54.19 122.64c-11.46,4.88 -21.35,7.67 -21.97,6.23 -2.07,-4.86 6.55,-39.94 10.18,-41.48 1.97,-0.84 2.42,6.13 1,15.48 -1.43,9.34 -1.4,17.45 0.03,18.05 4.06,1.64 12.6,-40.85 19.25,-95.88 11.49,-94.8 26.33,-178.17 33.39,-187.7 5.07,-6.82 6.07,-7.37 3.45,-1.93 -2.05,4.21 -5.92,18.68 -8.62,32.15 -8.57,42.81 -36.59,248.24 -34,249.33 1.38,0.55 2.98,-2.14 3.57,-6 0.6,-3.87 2.64,-7.71 4.58,-8.53 1.91,-0.82 5.43,-7.35 7.79,-14.5l4.27 -13.03 -2.78 15.3c-1.57,8.42 -2.03,17.2 -1.06,19.48 1.07,2.51 -6.49,7.67 -19.08,13.03zm-0.05 -89.48c-0.47,5.11 -1.68,9.67 -2.7,10.1 -1.07,0.46 -1.56,-3.38 -1.08,-8.49 0.44,-5.13 1.68,-9.68 2.73,-10.12 1.02,-0.44 1.5,3.38 1.05,8.51zm-39.07 105.33c-4.4,2.65 -8.41,3.92 -8.89,2.8 -1.62,-3.82 8.68,-46.53 10.98,-45.6 1.27,0.51 0.79,7.85 -1.06,16.33 -1.86,8.45 -2.08,15.9 -0.49,16.52 3.12,1.26 13.5,-39.79 14.77,-58.43 1.11,-16.41 10.77,-67.25 12.94,-68.17 3.64,-1.55 -0.97,34.85 -10.53,82.81 -6.78,34.07 -12.15,50.35 -17.72,53.74zm-31.94 14.41c-16.16,6.88 -15.98,7.48 -8.64,-26.53 2.49,-11.52 6.01,-21.58 7.85,-22.36 1.83,-0.79 1.28,8.65 -1.21,20.98 -5.8,28.54 -1.04,31.39 5.58,3.34 5.01,-21.25 10.18,-23.48 5.73,-2.5 -1.31,6.21 -1.09,11.77 0.48,12.4 1.6,0.67 4.87,-9.89 7.28,-23.43 2.4,-13.52 5.71,-25.19 7.32,-25.94 1.63,-0.72 0.09,11.98 -3.4,28.26 -5.89,27.44 -7.41,30 -20.99,35.78zm-24.96 10.53c-3,1.34 -2.73,-7.52 0.68,-22.06 3.13,-13.34 4.79,-26.41 3.67,-29.05 -2.21,-5.18 1.87,-32.79 19.88,-134.97 6.47,-36.7 12.91,-66.28 14.26,-65.72 1.37,0.53 0.01,13.81 -3.04,29.44 -10.82,55.66 -27.08,161.97 -25.62,167.52 0.83,3.11 0.07,16.22 -1.66,29.13 -1.72,12.93 -5.4,24.5 -8.17,25.71zm-12.97 2.84c-0.89,-2.1 -0.51,-8.16 0.83,-13.51 1.33,-5.35 3.15,-8.02 4.05,-5.93 0.88,2.07 0.51,8.16 -0.82,13.51 -1.35,5.33 -3.17,8.02 -4.06,5.93zm-14.32 -9.1c2.87,-21.7 9.26,-42.23 12.73,-40.85 1.71,0.67 0.68,12.69 -2.28,26.7 -5.77,27.32 -13.57,37.87 -10.45,14.15zm-11.33 13.84c-1.99,0.85 -2.12,-5.27 -0.28,-13.56 3.94,-18.05 9.37,-18.48 6.14,-0.51 -1.25,6.89 -3.87,13.22 -5.86,14.07zm-11.27 -4.22c-1.65,0.74 -1,-6.55 1.46,-16.21 5.74,-22.58 8.27,-23.69 4.49,-1.98 -1.62,9.28 -4.29,17.46 -5.95,18.19zm-8.37 -9.78c-1.69,0.73 0.13,-15.68 4.1,-36.42 11.85,-62.12 30.66,-148.46 32.5,-149.24 0.94,-0.4 -6.21,40.88 -15.89,91.79 -9.68,50.88 -18.99,93.15 -20.71,93.87zm-14.11 -56.65c0.46,-5.14 1.7,-9.68 2.74,-10.13 1.02,-0.43 1.5,3.38 1.06,8.51 -0.46,5.1 -1.68,9.67 -2.71,10.11 -1.05,0.45 -1.54,-3.39 -1.09,-8.49zm11.26 -62.98c1.93,-22.29 21.9,-125.64 24.08,-124.78 1.46,0.62 -2.53,28.05 -8.85,61 -10.65,55.59 -16.76,81.11 -15.23,63.78zm67.04 -31.33c14.01,-76.75 15.51,-91.63 9.17,-91.46 -6.16,0.15 -6,-0.54 0.83,-3.72 4.63,-2.13 9.06,-2.37 9.85,-0.52 0.79,1.85 -5.06,42.12 -13.02,89.45 -15.98,95.24 -18.72,108.18 -21.61,102.05 -1.09,-2.29 5.56,-45.39 14.78,-95.8zm5.03 -70.92c-1.04,7.86 -3.86,20.67 -6.27,28.43 -2.44,7.74 -2.29,1.62 0.31,-13.63 4.89,-28.92 9.23,-39.7 5.96,-14.8zm-23.54 62.55c-8.72,47.39 -16.73,93.11 -17.82,101.58 -1.85,14.22 -8.99,25.38 -7.9,12.31 1.43,-17 36.91,-197.77 39.05,-198.84 1.36,-0.68 -4.62,37.54 -13.33,84.95zm10.05 130.02c0.89,2.09 -0.03,6.99 -2.06,10.94 -2.04,3.96 -4.39,5.45 -5.29,3.34 -0.89,-2.1 0.05,-7 2.06,-10.92 2.06,-3.99 4.4,-5.45 5.29,-3.36zm-19.35 -24.41c-1.69,-3.98 17.07,-107.8 19.66,-108.9 1,-0.43 0.7,5.22 -0.64,12.59 -1.36,7.35 -5.39,31.61 -9.01,53.91 -7.07,43.93 -7.88,47.39 -10.01,42.4zm101.74 -175.16c-3.33,1.41 1.67,-27.84 6.47,-37.76 2.5,-5.23 2.5,0.94 0,13.72 -2.5,12.76 -5.4,23.58 -6.47,24.04zm18.91 59.05c0.47,-5.11 1.69,-9.65 2.74,-10.09 1.02,-0.43 1.5,3.38 1.04,8.48 -0.43,5.13 -1.68,9.67 -2.7,10.11 -1.05,0.44 -1.52,-3.37 -1.08,-8.5zm-65.07 16.53l0.51 -9.17c0.25,-5.05 1.81,-13.75 3.44,-19.35l2.92 -10.2 -0.48 9.16c-0.28,5.02 -1.83,13.72 -3.44,19.35l-2.95 10.21zm-16.57 96.58c-1.34,-3.15 14.64,-93.51 16.71,-94.39 1.09,-0.46 0.99,4.52 -0.18,11.14 -1.19,6.56 -4.49,28.1 -7.32,47.87 -4.69,32.48 -6.88,40.86 -9.21,35.38zm21.82 -60.77c1.06,-0.45 0.91,6.13 -0.32,14.68 -1.24,8.53 -3.29,23 -4.57,32.16 -1.27,9.16 -2.95,15.18 -3.73,13.35 -1.81,-4.2 6.06,-59.1 8.62,-60.19zm25.86 -17.71l-0.75 14.87c-0.43,8.18 -1.59,15.22 -2.57,15.64 -3.77,1.6 -3.91,-5.47 -0.36,-17.76l3.68 -12.75zm34.44 -12.44c-0.45,5.1 -1.68,9.67 -2.7,10.11 -1.05,0.44 -1.54,-3.4 -1.09,-8.5 0.47,-5.13 1.69,-9.67 2.74,-10.12 1.04,-0.45 1.52,3.37 1.05,8.51zm-39.55 -14.48c-9.2,59.39 -11.89,72.34 -14.02,67.34 -1.58,-3.71 22.72,-147.14 25.11,-148.16 1.09,-0.46 1.13,4.03 0.06,10.04 -1.03,5.97 -6.06,37.83 -11.15,70.78zm47.98 -116.91c0.28,7.63 -1.93,9.99 -4.25,4.55 -0.83,-1.96 -0.26,-5.32 1.27,-7.49 1.57,-2.24 2.85,-0.99 2.98,2.94zm-164.29 -35.06l3.42 -55.1 112.7 -47.99 39.1 33.73c34.43,29.66 38.76,34.67 36.25,42.07 -4.55,13.52 -31.17,44.93 -45.35,53.44 -45.98,27.76 -81.42,37.35 -124.85,33.91 -12.87,-1.03 -23.68,-2.54 -24.05,-3.41 -0.36,-0.86 0.89,-26.35 2.78,-56.65zm237.65 47.71c3.78,-30.86 6.27,-42.42 8.19,-37.93 0.89,2.09 -0.35,16.18 -2.73,31.25 -5.22,33.14 -9.35,38.17 -5.46,6.68zm-10.77 -50.24c2.23,-0.94 4.74,-0.04 5.63,2.06 0.89,2.08 0.86,4.11 -0.06,4.5 -0.91,0.39 -3.47,-0.54 -5.64,-2.08 -2.17,-1.55 -2.12,-3.54 0.07,-4.48zm35.81 27.16c2.55,2.66 3.27,5.44 1.6,6.15 -1.7,0.72 -4.12,11.29 -5.36,23.53 -3.85,37.18 -8.25,60.86 -10.4,56.1 -1.13,-2.52 0.51,-23.9 3.71,-47.57 3.84,-28.72 7.31,-41.44 10.45,-38.21zm23.84 128.15c-1.26,6.99 -2.99,13.01 -3.88,13.39 -2.74,1.17 -0.14,-17.18 3.09,-21.76 1.68,-2.38 2.04,1.38 0.79,8.37zm6.81 -31.44c-1.8,8.12 -4.1,15.19 -5.15,15.63 -1.04,0.45 -0.44,-5.89 1.36,-14.01 1.78,-8.14 4.1,-15.18 5.14,-15.62 1.05,-0.45 0.43,5.87 -1.35,14zm0.61 -71.97c3.88,2.73 4.01,6.6 0.43,12.33 -2.86,4.59 -8.95,28.45 -13.54,52.98 -7.81,41.87 -15.17,70.06 -11.37,43.67 0.95,-6.55 2.93,-22.5 4.42,-35.45 2.13,-18.58 9.58,-59.12 13.82,-75.13 0.33,-1.32 3.15,-0.58 6.24,1.6zm-154.12 -149.92l-19.34 -20.06 -129.42 55.11 -10.98 176.4c-6.06,97.24 -9.13,183.11 -6.83,191.39 5.42,19.66 24.88,36.82 43.82,38.7 12.23,1.19 30.12,-4.8 112.06,-37.61 284.9,-114.06 299.34,-122.52 280.91,-165.14 -7.85,-18.15 -14.52,-24.82 -62.24,-62.48 -74.18,-58.51 -184.76,-152.25 -207.98,-176.31z"/>
    <path class="fil7" d="M3751.12 4337.52c3.05,16.96 -3.56,46.55 -12.25,54.94 -4.39,4.19 -75.3,37.35 -157.57,73.64 -82.26,36.3 -180.86,80.01 -219.1,97.18 -38.24,17.16 -73.74,32.12 -78.9,33.23 -13.95,3 -44.24,-10.75 -53.21,-24.2 -13.44,-20.19 -15.83,-58.64 -8.03,-130.06 13.77,-126.1 14.92,-138.18 21.72,-226.31 6.7,-87.23 6.64,-88.2 -4.99,-120.98l-11.73 -33.03 36.63 -15.59c20.15,-8.58 37.19,-17.07 37.93,-18.9 0.75,-1.8 -2.33,-4.39 -6.82,-5.72 -5.23,-1.57 -19.61,2.33 -40.22,10.89l-32.06 13.35 -8.34 -19.53 -8.33 -19.55 38.78 -14.04c26.66,-9.66 38.24,-15.33 37.03,-18.15 -0.96,-2.28 -3.65,-4.44 -5.98,-4.77 -3.43,-0.52 -48.71,14.28 -70.19,22.96 -3.17,1.26 -7.47,-4.41 -12.78,-16.88l-8.01 -18.8 34.58 -16.02c19.83,-9.19 33.91,-17.62 32.99,-19.79 -0.94,-2.19 -16.78,2.11 -37.14,10.04l-35.51 13.82 -16.82 -39.48 36.56 -14.02c30.41,-11.65 36.14,-14.95 34.14,-19.66 -3.53,-8.29 -12.72,-6.66 -48.43,8.55l-32.09 13.66 -7.33 -20.38c-4.03,-11.23 -5.87,-20.51 -4.08,-20.66 1.78,-0.14 37.2,-14.73 78.73,-32.41l75.48 -32.14 116.22 266.07 121.74 100.36c66.92,55.18 142.8,116.42 168.57,136.02 36.12,27.52 47.28,38.14 48.81,46.36zm-648.37 -488.7c-32.08,11.22 -33.24,11.28 -37.13,2.16 -8.01,-18.83 2.94,-25.78 123.76,-78.8 113.23,-49.69 140.08,-58.28 149.93,-48.05 3.18,3.25 2.6,9.85 -1.58,18.34 -6.53,13.24 -6.8,13.39 -104.2,54.03 -53.73,22.38 -112.57,45.93 -130.78,52.32zm448.83 292c-64.69,-54.92 -120.26,-101.31 -123.44,-103.04 -5.53,-3.06 -15.56,-24.58 -85.76,-183.85l-30.7 -69.73 17.58 -11.14c20.14,-12.71 25.63,-24.31 20.78,-43.92 -2.49,-10.13 -6.44,-15.4 -14.97,-19.91l-11.61 -6.15 -122.51 52.16c-67.4,28.7 -126.71,55.53 -131.8,59.62 -14.04,11.19 -18.66,26.87 -12.31,41.78 7.04,16.52 21.56,20.15 43.41,10.85 8.79,-3.75 17.72,-5.57 19.85,-4.06 2.11,1.47 27.28,57.75 55.94,124.98 41.82,98.16 52.32,125.85 53.22,140.44 1.91,30.78 -7.98,158.96 -20.64,267.38 -15.94,136.98 -13.62,163.57 17.39,198.18 15.03,16.73 29.25,21.24 52.9,16.73 17.12,-3.28 328.52,-139.24 414.17,-180.8 62.23,-30.24 72.72,-39.55 78.54,-69.7 5.67,-29.47 -4.78,-45.1 -56.83,-85.02 -25.08,-19.22 -98.53,-79.88 -163.21,-134.8z"/>
   </g>
   <g>
    <path class="fil7" d="M1911.58 3446.58c10.68,-57.23 11.55,-70.9 3.99,-62.45 -4.69,5.23 -28.06,117.11 -25.41,121.69 5.3,9.26 12.15,-9.63 21.42,-59.24z"/>
    <path class="fil7" d="M1674.31 3703.11c1.32,-2.46 -10.22,-10.1 -25.77,-17.05 -15.48,-6.93 -44.04,-19.97 -63.48,-28.95 -19.42,-9.02 -36.74,-15.57 -38.43,-14.58 -8.09,4.67 7.54,14.05 64.01,38.5 33.72,14.6 62.35,24.53 63.67,22.08z"/>
    <path class="fil7" d="M2013.51 3854.88c-4.74,2.74 -1.2,11.09 21.66,50.55 15.04,25.98 29.89,49.25 32.94,51.75 3.2,2.58 7.48,2.09 10.13,-1.19 3.78,-4.65 1.59,-9.89 -12.3,-29.37 -9.31,-13.06 -23.62,-35.28 -31.81,-49.39 -11.79,-20.27 -16.09,-24.98 -20.62,-22.35z"/>
    <path class="fil7" d="M2028.38 3266.21c-5.56,16.47 -9.87,21.72 -25.2,30.61 -16.31,9.44 -20.76,9.94 -37.51,4.3 -10.42,-3.53 -23.07,-10.87 -28.05,-16.35 -21.93,-23.96 -20.03,-70.61 3.87,-94.64 10.42,-10.45 15.52,-12.64 31.5,-13.5 47.91,-2.55 72.84,37.84 55.39,89.58zm-38.71 411.92c25,42.74 25.1,97.26 0.16,134.03 -36.31,53.56 -108.02,68.62 -160.28,33.68 -32.51,-21.74 -57.13,-63.8 -60.88,-103.98 -5.06,-53.85 24.83,-100.61 75.94,-118.91 62.66,-22.45 110.16,-4.37 145.06,55.18zm112.81 341.3c19.99,4.61 23.02,6.87 33.54,25.05 14.46,24.97 15.78,49.53 3.59,68.38 -17.33,26.78 -33.07,35.08 -63.49,33.4 -39.96,-2.21 -66.31,-49.17 -51.13,-91.2 3.44,-9.57 9.94,-20.95 14.41,-25.32 12.15,-11.79 38.22,-16.07 63.08,-10.31zm-644.49 -434.73c-16.59,25.92 -56.94,37.73 -82.06,24.02 -23.13,-12.61 -36.31,-31.29 -37.38,-52.84 -3.46,-71.02 84.66,-92.95 121.04,-30.13 11.46,19.81 10.93,39.32 -1.6,58.95zm465.84 -399.72c-35.84,36 -28.5,99.11 13.93,119.74l16.17 7.89 -6.38 54.5c-7.45,63.63 -30.94,217.21 -34.12,223.15 -1.18,2.23 -10.8,4.53 -21.39,5.11 -48.37,2.56 -102.32,33.47 -128.55,73.64l-14.87 22.73 -66.15 -28.85c-36.38,-15.85 -97.7,-42.75 -136.22,-59.75l-70.05 -30.95 1.33 -18.96c1.89,-26.31 -7.13,-48.53 -25.35,-62.37 -51.27,-38.99 -106.79,-14.98 -121.11,52.42 -5.9,27.56 -3.03,40.31 13.98,62.17 30.2,38.81 83.48,38.33 113.25,-1.02l10.71 -14.14 17.9 6.47c9.84,3.53 51.06,21.45 91.63,39.77 40.57,18.33 95.07,41.46 121.14,51.4l47.4 18.08 -2.89 12.31c-4.83,20.71 1.45,56.51 14.94,85.06 15.38,32.57 46.49,62.64 76.22,73.72 23.79,8.84 60.32,7.74 91.63,-2.75l24.45 -8.22 20.43 35.28c11.26,19.42 31.98,52.63 46.05,73.83l25.58 38.56 -12.7 10.38c-34.94,28.59 -39.37,73.95 -11.55,117.89 8.44,13.33 36.67,22.93 60.52,20.59 37.9,-3.76 76.25,-35.71 86.58,-72.13 6.11,-21.69 -2.54,-56.62 -18.8,-75.5 -15.83,-18.41 -61.55,-24.28 -84.72,-10.87 -6.65,3.86 -10.28,-0.9 -53.06,-69.24 -50.08,-79.89 -49.84,-79.23 -28.49,-91.84 30.56,-18.04 53.44,-77.12 49.02,-126.51 -4.12,-46.04 -39.23,-93.1 -81.77,-109.6 -10.69,-4.14 -19.95,-8.45 -20.63,-9.6 -0.64,-1.13 5.32,-38.12 13.26,-82.17 7.94,-44.06 17.57,-105.1 21.35,-135.67 3.8,-30.55 7.26,-57.54 7.72,-59.97 0.46,-2.44 7.34,-4.73 15.31,-5.07 19.06,-0.86 45.19,-16.31 57.26,-33.88 11.58,-16.8 16.03,-51.27 9.15,-70.77 -15.45,-43.79 -94.11,-59.05 -128.11,-24.86z"/>
   </g>
   <path class="fil7" d="M4340.69 3188.36c-22.71,10.35 -55.3,8.02 -72.02,-5.14 -66.1,-52.02 -22.48,-158.66 59.51,-145.5 31.88,5.1 47.23,17.7 54.45,44.7 9.7,36.56 -12.39,92.47 -41.94,105.94zm-170.46 -315.48c-23.08,11.95 -37.76,10.61 -53.26,-4.87 -51.81,-51.82 17.59,-137.52 72.38,-89.34 12.18,10.72 16.35,19.18 15.96,32.56 -0.7,25.31 -15.69,51.65 -35.08,61.65zm-143.83 -244.45c-0.48,10.7 -5.25,21.93 -11.19,26.42 -12.8,9.71 -14.8,9.82 -23.18,1.46 -16.79,-16.79 0.03,-51.5 23.37,-48.17 9.61,1.39 11.72,5.28 11,20.29zm283.83 -1.95c11.09,-10.06 11.71,-10 23.75,2.04 11.55,11.54 11.79,13.35 3.8,27.64 -8.28,14.85 -26.95,22.6 -34.99,14.58 -8.04,-8.05 -3.63,-34.26 7.44,-44.26zm318.53 307.89c30.36,15.69 27.36,64.07 -5.15,83.26 -23.61,13.93 -52.13,11.89 -72.41,-5.16 -50.23,-42.25 16.68,-109.59 77.56,-78.1zm151.98 -4.89c27.24,-22.92 49.95,-18.23 49.95,10.34 0,13.19 -3.39,19.66 -12.6,24.09 -46.59,22.34 -74.38,-3.29 -37.35,-34.43zm-246.6 86.71l20.28 13.79c46.66,31.65 108.31,3.95 108.31,-48.65l0 -20.77 32.2 -3.5c17.69,-1.92 37.87,-4.66 44.78,-6.09 6.93,-1.43 12.59,0.05 12.59,3.35 0,3.27 6.18,12.13 13.74,19.68 27.65,27.65 75.84,9.25 75.84,-28.89 0,-22.43 -20.47,-46.92 -39.22,-46.92 -17.61,0 -43.5,15.19 -47.52,27.93 -1.98,6.19 -6.57,11.37 -10.21,11.55 -3.63,0.15 -24.23,2.21 -45.74,4.6 -36.99,4.12 -39.76,3.63 -49.5,-8.77 -23.49,-29.89 -65.64,-38.02 -97.19,-18.81 -24.4,14.9 -31.48,30.5 -28.4,62.7 1.71,17.61 0.43,27.2 -3.56,27.26 -3.42,0.09 -32.51,11.37 -64.71,25.1 -57.36,24.53 -58.71,24.82 -69.97,14.61 -24.93,-22.65 -53.45,-29.24 -92.64,-21.43l-19.59 3.91 -37.81 -69.37c-20.79,-38.14 -37.77,-71.09 -37.77,-73.26 0,-2.12 4.83,-9.99 10.73,-17.52 14.53,-18.45 20.09,-54.58 11.54,-75.2 -6.39,-15.36 -5.41,-18.19 14.86,-42.31 11.9,-14.2 28.75,-34.99 37.39,-46.18 14.17,-18.35 17.97,-20.18 38.26,-18.43 26.1,2.21 49.57,-14.85 49.57,-36.02 0,-18.6 -31.55,-43.18 -49.86,-38.84 -21.9,5.16 -35.69,24.55 -32.32,45.4 2.51,15.49 -1.73,22.78 -36.1,61.73 -21.43,24.29 -41.98,43.69 -45.71,43.08 -3.71,-0.61 -16.65,-3.6 -28.76,-6.66 -16.03,-4.02 -27.69,-3.52 -43.24,1.81l-21.25 7.32 -21.41 -28.66c-48.35,-64.8 -46.9,-61.68 -37.62,-83.92 10.78,-25.87 10.57,-29.34 -2.86,-42.76 -24.91,-24.92 -78.38,-4.37 -78.38,30.13 0,15.98 23.42,37 41.35,37.12 8.32,0.06 22.79,14.7 48.53,48.99l36.68 48.93 -10.76 25.69c-10.61,25.4 -10.61,25.95 0.39,50.76 13.76,31.15 41.48,46.51 76.71,42.55l23.37 -2.63 39.82 73.14 39.87 73.16 -18.91 20.91c-24.33,26.91 -34.03,61.09 -25.49,89.63 8.5,28.32 31.09,53.98 52.63,59.75 32.99,8.87 79.53,-2.65 106.53,-26.33 18.99,-16.68 33.18,-52.31 33.18,-83.25 0,-17.76 2.48,-29.51 6.22,-29.53 3.41,-0.07 32.04,-11.29 63.66,-24.99l57.47 -24.89z"/>
   <path class="fil7" d="M4514.4 4096.73c6.51,-31.7 23.71,-57.74 33.54,-86.91 -4.66,-4.86 -8.97,-9.36 -13.25,-13.86 -13.01,-13.71 -25.86,-27.55 -39.09,-41.06 -6.28,-6.41 -9.76,-14.93 -17.12,-20.45 -10.69,-1.01 -19.39,5.33 -29.18,7.89 -13.51,3.51 -26.6,8.87 -40.17,12.83 -9.01,2.64 -15.02,6.97 -16.37,16.27 -3.83,26.52 -14.3,51.49 -22.85,76.9 -0.84,2.5 -1.36,5.1 -2.07,7.86 6.82,7.34 13.83,14.45 20.29,21.96 6.53,7.6 12.54,15.59 18.76,23.44 2.83,3.56 5.65,7.13 8.4,10.75 4.43,5.85 10.62,7.25 17.76,5.79 5.62,-1.16 11.4,-2.11 16.62,-4.16 13.31,-5.23 27.1,-8.54 40.97,-11.49 7.34,-1.57 14.56,-3.5 23.76,-5.76zm-205.48 -211.49c-4.69,-1.37 -7.97,0.84 -11.32,2.37 -8.73,4.02 -18.01,6.05 -27.37,8.28 -11.35,2.7 -22.78,3.14 -34.26,4.03 -4.73,0.36 -9.61,0.43 -14.22,4.35 -1.55,4.31 -3.46,9.34 -5.18,14.41 -7.45,22.03 -12.95,44.48 -20.37,66.45 -9.55,28.19 -7.79,24.68 12.23,42.58 2.7,2.42 5.47,4.94 8.71,6.75 15.93,8.87 28.15,20.8 37.25,35.56 2.62,4.23 6.92,5.1 12.65,2.79 23.56,-9.49 47.54,-17.17 73.14,-19.22l2.84 -0.62c5.02,-1.19 8.96,-3.84 10.77,-8.22 7.51,-18.26 15.61,-36.4 21.68,-55.05 3.23,-9.97 8.02,-19.97 7.93,-30.08 -1.69,-2.09 -2.64,-3.63 -3.96,-4.84 -15.98,-14.72 -32.28,-29.13 -47.81,-44.14 -8.34,-8.06 -15.45,-17.2 -22.71,-25.4zm-87.59 2.42c12.17,-0.43 21.77,-0.37 31.29,-1.18 19.37,-1.66 37.86,-5.93 53.63,-17.76 3.52,-2.66 7.73,-1.97 9.7,1.36 12.83,21.71 32.39,38.09 51.13,55.1 30.51,27.72 17.38,26.78 59.19,11.69 7.09,-2.56 14.15,-5 21.21,-7.39 9.73,-3.28 19.23,-6.9 29.2,-14 4.89,-9.72 7.73,-21.96 12.43,-33.52 1.69,-4.15 3.24,-8.35 4.96,-12.49 1.43,-3.41 6.16,-5.51 8.79,-4.3 3.88,1.81 5.01,5.33 4.47,8.8 -1.22,7.92 -3.04,15.76 -4.91,23.57 -1.25,5.2 -2.98,10.29 -4.52,15.42 -2.8,9.34 -0.84,17.92 5.56,24.96 14.51,15.94 29.31,31.63 44.28,47.16 4.95,5.14 10.8,9.42 16.33,14.17 4.96,-0.51 9.58,-0.42 13.86,-1.53 21.32,-5.56 43.05,-4.49 64.53,-5.67 1.66,-0.1 3.46,0.84 5.05,1.58l1.44 2.13c1.45,1.65 1.52,3.4 -0.38,4.66 -2.9,1.9 -5.87,4.51 -9.08,5 -7.98,1.18 -16.1,1.47 -24.18,1.85 -16.2,0.79 -32.4,2.09 -47.85,4.39 -11.2,20.53 -27.73,63.03 -36.73,94.33 4.07,5.1 8.05,11.18 13.13,16.27 7.71,7.71 16.43,14.48 24.22,22.08 7.77,7.6 14.92,15.75 22.31,23.63 12.49,-0.18 24.31,-0.62 36.06,-0.4 3.38,0.06 6.88,1.76 9.97,3.37 1.01,0.51 1.15,3.07 1.27,4.71l-1.86 1.81c-2.51,0.83 -5.07,1.84 -7.66,2.05 -8.16,0.62 -16.37,0.84 -24.58,1.33 -3.9,0.22 -7,3.32 -6.86,6.84 0.17,4.45 0.79,8.9 0.82,13.36 0.02,2.57 -0.36,5.28 -1.32,7.65 -0.53,1.31 -2.54,2.56 -4.06,2.82 -1.6,0.29 -4.23,-0.1 -5,-1.16 -2.06,-2.8 -4.32,-5.99 -4.79,-9.25 -1.28,-8.81 -1.67,-17.74 -2.5,-27.72 -23.02,-16.86 -45.82,-35.01 -64.48,-58.39 -3.52,0.14 -7.36,-0.27 -10.92,0.49 -11.05,2.36 -22.31,4.41 -33.07,7.92 -13.52,4.44 -26.89,9.17 -41.43,10.67 -4.04,0.41 -6.68,3.57 -7.33,7.34 -1.8,10.48 -3.22,21.01 -5.14,31.47 -0.18,1.02 -2.82,1.84 -4.47,2.36l-2.67 -0.86c-1.31,-1.24 -3.07,-2.6 -3.33,-4.11 -0.75,-4.33 -1.45,-8.81 -1.06,-13.16 0.7,-7.92 2.2,-15.78 3.28,-23.01 -29.33,-41.3 -40.22,-54.32 -57.18,-68.02 -12.89,0.52 -26.36,1.32 -39.59,5.65 -14.8,4.85 -29.98,8.84 -44.95,13.47 -10.24,3.17 -16.77,9.41 -17.51,19.45 -0.85,11.51 -3.15,22.77 -8.13,33.51 -0.58,1.23 -2.97,1.96 -4.67,2.61 -2.29,0.87 -5.34,-1.84 -5.4,-4.61 -0.04,-1.75 -0.38,-3.52 -0.22,-5.24 0.24,-2.64 0.62,-5.3 1.24,-7.88 2.29,-9.5 3.98,-19.19 7.37,-28.4 2.37,-6.46 1.84,-11.86 -1.02,-17.7 -4.76,-9.75 -10.55,-18.91 -20.56,-24.75 -18.06,-10.48 -31.01,-25.58 -46.79,-38.35 1.85,-21.59 13.99,-40.77 18.9,-61.47 4.67,-19.7 15.77,-38.11 20.81,-57.89 -8.71,-6.97 -16.51,-13.02 -24.02,-19.31 -8.25,-6.91 -16.26,-14.08 -21.7,-23.18 -0.81,-1.35 -0.89,-3.43 -0.43,-5 0.42,-1.48 1.86,-2.86 3.15,-4.01l2.74 -0.01c3.07,1.81 6.67,3.31 8.84,5.83 12.15,14.12 26.74,26.04 41.19,38.86z"/>
   <g>
    <path class="fil7" d="M2401.12 3393.2c11.34,5.96 22.23,7.31 33.14,9.18 7.54,1.31 15.16,2.73 22.93,3.65 9.28,1.11 18.35,3.19 27,7.8 3.18,1.72 7.45,-0.29 9.33,-3.79 1.06,-2.01 2.25,-3.98 2.99,-6.11 10.65,-30.05 24.98,-58.73 30.82,-90.59 0.26,-1.43 1.3,-2.7 1.94,-4.05 1.12,-2.33 5.31,-3.7 7.97,-2.54 4.74,2.06 8.08,6.62 7.29,10.69 -2.28,12.02 -3.93,24.16 -8.45,35.61 -9.23,23.37 -16.57,47.46 -26.53,70.53 -3.62,8.38 -7.18,16.73 -11.29,24.89 -5.8,11.5 -11.09,23.32 -15.97,35.29 -8.03,19.73 -15.56,39.66 -23.38,59.49 -1.11,2.83 -2.03,5.75 -3.45,8.42 -1.04,1.98 -2.63,3.7 -4.14,5.37 -2,2.21 -7.58,2.99 -10.65,1.67 -3.1,-1.34 -4.58,-4.11 -4.91,-7.11 -0.32,-2.92 -0.27,-6.24 0.79,-8.93 13.33,-34.11 26.25,-68.36 42.89,-100.83 1.02,-2.01 1.59,-4.25 2.33,-6.4 0.58,-1.64 -1.4,-5.34 -2.94,-5.35 -19.06,-0.16 -36.59,-7.37 -54.5,-9.42 -10.36,-1.17 -20.53,-2.43 -30.65,-3.25 -2.61,-0.2 -5.87,0.82 -7.1,3.77 -5.01,11.97 -12.15,22.6 -18.08,34.04 -6.26,12.08 -12.49,24.23 -15.82,37.93 -2.41,9.87 -8.63,17.89 -15.93,24.58 -1.38,1.26 -3.87,1.52 -5.77,1.44 -2.09,-0.09 -4.63,-4.57 -4.23,-6.78 0.56,-3.01 0.97,-6.12 2.02,-8.97 13.66,-36.97 30.3,-72.07 49.18,-105.5 4.83,-8.55 9.37,-17.05 11.93,-26.66 6.06,-22.83 16.19,-43.67 24.08,-65.47 2.8,-7.72 6.03,-15.26 9.33,-22.72 0.83,-1.9 2.68,-3.25 4.21,-4.67l1.94 -0.18 2.75 2.64c0.05,3.74 0.21,7.71 -0.82,11.18 -3.83,13 -7.99,25.87 -12.43,38.65 -2.47,7.14 -4.54,14.3 -5.87,21.85 -2.37,13.48 -5.76,26.69 -11.95,40.65z"/>
    <path class="fil7" d="M2659.06 3568.35c4,-0.51 9.79,-0.41 14.89,-2.04 20.96,-6.69 37.23,-18.77 46.48,-38.63 13.54,-29.02 24.03,-59.33 34.63,-89.64 1.01,-2.86 2.08,-5.73 2.84,-8.69 2.12,-8.43 1.82,-16.66 -2.2,-25.05 -6.37,-13.32 -16.91,-21.12 -30.98,-24.18 -6.16,-1.33 -12.52,-1.59 -18.79,-2.1 -3.41,-0.28 -5.97,1.67 -7.95,4.02 -1.44,1.73 -2.39,3.88 -3.41,5.91 -5.52,10.87 -10.92,21.83 -16.56,32.63 -7.78,14.88 -16.08,29.46 -23.62,44.44 -10.64,21.14 -18.27,43.51 -25.23,66.1 -1.84,5.96 -2.57,11.89 -2.3,18.06 0.39,8.8 7.12,16.23 16.33,17.68 4.73,0.74 9.52,0.91 15.87,1.49zm0.88 22.46c-10.7,-0.29 -19.34,-1.45 -27.89,-4.13 -5.56,-1.75 -9.95,-4.76 -14.26,-8.44 -14.47,-12.37 -17.06,-27.58 -13.46,-44.36 0.95,-4.47 2.32,-8.86 3.82,-13.17 3.48,-10.07 7.41,-20.01 10.67,-30.17 4.7,-14.63 11.28,-28.16 19.34,-41.3 9.57,-15.56 19.18,-31.18 26.55,-48.1 5.18,-11.88 12.01,-23.06 20.71,-32.91 3.32,-3.75 7.26,-5.79 12.4,-3.21 5.05,2.54 8.88,2.02 12.08,-2.56 2.88,-4.13 7.46,-5.85 12.37,-4.57 14.8,3.87 28.67,9.34 39.69,21.3 14.85,16.12 20.42,34.04 15.6,54.31 -2.15,8.96 -5.26,17.66 -8.16,26.38 -4.33,13.08 -8.21,26.36 -13.54,38.99 -6.79,16.17 -13.91,32.31 -22.66,47.43 -7.64,13.22 -18.3,24.41 -33.1,31.08 -5.7,2.55 -11.11,5.61 -16.75,8.26 -7.89,3.74 -16.28,5.7 -23.41,5.17z"/>
    <path class="fil7" d="M2552.15 3558.63c-0.81,2.43 -1.73,6.94 -3.83,10.83 -2.5,4.63 -6.1,8.51 -10.7,11.66 -8.18,5.6 -15.55,12.26 -24.75,16.52 -3.96,1.83 -3.5,6.27 0.56,8.82 6.59,4.16 13.84,7.39 19.25,13.27 1.86,2.02 1.43,6.43 -1.07,8.09 -1.27,0.84 -2.47,1.93 -3.91,2.36 -5.26,1.54 -10.62,2.58 -16,0l-2.12 -1.01c-8.93,-5.28 -18.83,-7.27 -28.75,-9.14 -3.79,-0.71 -7.66,-1.39 -11.24,-2.74 -4.49,-1.69 -7.67,-4.9 -9.08,-9.68 -1.43,-4.91 0.21,-9.71 4.59,-11.47 4.24,-1.69 8.51,-3.53 12.97,-4.49 13,-2.81 24.28,-9.27 35.69,-15.53 3.34,-1.83 6.42,-4.16 9.36,-6.59 12.95,-10.68 11.34,-18.45 -4.87,-24.1 -5.9,-2.05 -11.91,-3.63 -17.78,-5.57 -4.31,-1.43 -6.6,-6.47 -5.35,-11.29 0.75,-2.97 3.52,-5.62 6.25,-5.85 2.27,-0.17 4.62,-0.53 6.86,-0.2 10.07,1.42 19.6,4.92 28.69,9.61 9.96,5.13 14.78,13.63 15.23,26.5z"/>
   </g>
   <g>
    <path class="fil7" d="M2621.69 4365.05c8.58,-1.11 15.75,-1.9 22.89,-2.98 18.93,-2.83 35.08,-11.72 47.46,-25.82 19.16,-21.8 30.86,-47.15 30.35,-76.89 -0.3,-18.49 -2.54,-36.72 -12.14,-52.92 -6.65,-11.25 -13.92,-22.22 -21.8,-32.63 -10.29,-13.63 -23.69,-22.49 -41.52,-22.93 -1.3,-0.04 -2.65,0.04 -3.92,-0.19 -15.06,-2.62 -29.78,-1.8 -44.72,2.09 -12.67,3.32 -25.65,5.3 -37.12,12.21 -9.23,2.23 -16.17,8.22 -23.56,13.76 -12.29,9.24 -18.84,21.66 -21.69,36.26 -1.89,9.65 -2.66,19.52 -4.57,29.16 -2.07,10.49 -1.72,20.88 -0.38,31.31 1.01,7.81 2.22,15.59 3.73,23.32 2.79,14.35 8.32,27.42 17.42,39.09 5.4,6.9 12.93,11 19.22,16.68 7.5,6.75 16.8,9.81 26.72,11.43 15.11,2.48 30.07,1 43.63,-0.95zm-169.57 -4.44c-4.55,-1.77 -9.12,-1.41 -13.36,0.76 -4.67,2.4 -9.19,5.11 -13.62,7.92 -15.54,9.84 -30.83,20.1 -46.58,29.6 -15.73,9.5 -31.26,19.08 -45.98,30.23 -15.7,11.89 -31.43,23.75 -46.97,35.88 -10.87,8.47 -22.04,16.58 -33.4,24.36 -11.21,7.7 -14.14,9.99 -26.81,25.15 2.73,1.48 5.28,0.11 7.39,-1.13 6.21,-3.68 12.33,-7.57 18.23,-11.75 10.16,-7.19 20.21,-14.54 30.26,-21.88 24.93,-18.24 50.38,-35.76 75.66,-53.52 30.65,-21.54 62.76,-40.96 92.23,-64.2l3.3 -2c-1.56,0.03 -1.75,-0.24 -0.59,-0.81l0.24 1.39zm84.26 -207.55c12.37,-4.36 24.87,-8.44 37.1,-13.17 14.91,-5.79 30.46,-8.53 46.18,-9.5 13.09,-0.8 26.19,1.23 39.13,3.52 2.55,0.46 4.98,1.6 7.42,2.53 15.15,5.77 27.36,15.29 36.59,28.69 4.45,6.47 9.15,12.79 13.96,19 1.06,1.38 3.04,2.04 4.69,3.09l0.53 -2.26c-0.1,-1.27 -0.25,-2.6 -0.66,-3.81 -4.11,-12.04 -11.26,-21.99 -20.04,-31.15 -11.23,-11.72 -24.33,-19.56 -39.95,-23.97 -10.2,-2.89 -20.71,-3.26 -30.93,-5.44 -9.1,-1.94 -18.27,-1.92 -27.46,-1.98 -7.3,-0.05 -14.6,1.23 -21.16,4.17 -13.18,5.91 -26.1,12.48 -37.78,21.12 -3.1,2.28 -6.31,4.73 -7.27,8.91l-1.09 0.71 0.74 -0.46zm172.43 197.35c1.67,-0.96 3.72,-1.6 4.98,-2.95 15.14,-16.2 24.16,-35.63 29.72,-56.84 0.33,-1.25 0.61,-2.58 0.59,-3.87 -0.1,-14.38 1.03,-28.81 -1.13,-43.11 -0.76,-5.01 -1.3,-10.23 -4.41,-14.66l-0.82 1.87c0.25,6.52 0.62,13.05 0.86,19.57 0.26,6.54 0.83,13.08 0.54,19.59 -0.83,17.99 -6.9,34.55 -15.27,50.27 -5.19,9.77 -11.17,19.14 -16.8,28.68 -6.16,1.82 -9,7.32 -12.82,11.7l0.57 1.22 1.73 0.35c5.39,-2.57 10.18,-5.8 12.26,-11.82zm-197.45 -175.85c0.29,3.34 -2.6,4.59 -4.37,6.59 -1.6,0.81 -3.2,1.64 -4.79,2.46 -2.09,6.31 -5.5,11.85 -9.52,17.14 -4.03,5.26 -6.69,11.23 -8.25,17.77 -4.11,17.37 -5.95,34.92 -5.09,52.78 1.17,24.6 6.83,48.06 17.34,70.31 1.37,2.9 3.14,5.9 5.47,8.03 11.6,10.63 23.33,21.18 36.95,29.19 16.65,9.81 34.79,15.68 54.06,16.79 10.42,0.59 21.1,-0.01 31.41,-1.67 10.97,-1.76 21.72,-5.21 31.78,-10.25l1.14 -2.84c-1.29,-0.06 -2.65,-0.4 -3.89,-0.15 -21.38,4.19 -42.89,6.45 -64.68,4.62 -18.7,1.8 -34.32,-7.29 -50.51,-14.25 -1.69,-0.72 -3.05,-2.41 -4.36,-3.82 -5.35,-5.76 -10.05,-12.28 -16.06,-17.22 -7.4,-6.1 -11.51,-13.87 -15.64,-22.18 -3.34,-6.73 -3.97,-13.83 -5.55,-20.8 -6.04,-26.54 -7.86,-53.14 -1.66,-80.1 2.65,-11.52 4.24,-23.26 8.27,-34.45 1.18,-3.27 0.77,-6.45 -1.45,-9.08 4.06,0.62 4.06,0.62 4.7,-2.64 -0.25,-1.58 -1.7,-2.84 -0.24,-4.87 1.59,-2.18 3.09,-0.67 4.61,-0.61 0.96,-1.01 1.14,-0.87 0.55,0.41l-0.22 -1.16zm251.22 71.76c2.63,18.98 2.04,35.99 -0.91,52.91 -0.56,3.22 -1.27,6.5 -2.53,9.47 -4.36,10.3 -8.97,20.49 -13.55,30.69 -2.19,4.85 -5.17,9.14 -9.31,12.6 -11.1,9.27 -22.15,18.61 -33.24,27.89 -1,0.84 -2.08,1.62 -3.24,2.22 -12.84,6.64 -25.29,14.23 -38.64,19.61 -22.71,9.14 -46.4,14.33 -71.18,11.91 -2.61,-0.26 -5.25,-0.36 -7.86,-0.69 -10.43,-1.32 -20.74,-3.06 -30.13,-8.2 -1.14,-0.62 -2.38,-1.1 -3.6,-1.59 -18.31,-7.46 -35.72,-16.46 -50.87,-29.37 -1.48,-1.27 -3.09,-2.38 -4.7,-3.49 -2.04,-1.4 -5.85,0.18 -5.9,2.86 -0.13,6.73 -4.01,12.31 -5.14,18.69 -5.08,4.12 -9.85,8.77 -15.31,12.29 -22.09,14.28 -43.17,29.99 -64.33,45.57 -5.29,3.91 -10.61,7.8 -16.23,11.22 -11.24,6.84 -21.95,14.35 -32.19,22.68 -8.63,7.04 -18.22,12.94 -27.56,19.06 -20.31,13.34 -40.75,26.49 -61.13,39.73 -12.19,7.91 -25.36,14.11 -38.79,19.31 -14.49,5.61 -31.2,-2.73 -34.82,-19.49 -1.91,-8.81 -0.87,-16.92 4.49,-24.39 4.21,-5.89 8.37,-11.63 14.12,-16.32 14.27,-11.64 28.6,-23.15 43.8,-33.6 7.59,-5.19 14.62,-11.19 22.03,-16.68 20.6,-15.27 41.03,-30.8 62.01,-45.56 15.05,-10.58 30.82,-20.14 46.34,-30.03 19.97,-12.7 39.98,-25.3 60.01,-37.9 6.42,-4.04 13.03,-6.09 20.38,-1.98 2.42,1.35 5.13,0.56 7.02,-1.62 1.92,-2.2 1.73,-4.79 0.88,-7.39 -1.64,-4.97 -2.89,-10.1 -4.95,-14.89 -4.55,-10.53 -5.12,-21.75 -5.66,-32.84 -0.55,-11.13 0.27,-22.33 0.55,-33.48 0.56,-22.19 7.44,-42.53 18.19,-61.76l2.05 -3.33c17.43,-19.68 33.58,-40.63 55.93,-55.39 13.22,-8.73 26.79,-16.73 42.09,-21.24 15.3,-4.49 30.69,-6.84 46.62,-2.97 6.98,1.68 14.31,1.85 21.42,3.07 16.95,2.92 33.02,8.32 48.05,16.8 5.22,2.95 9.85,6.45 13.87,10.86 9.32,10.18 17.83,20.93 23.87,33.48 2.26,4.72 5.3,9.07 7.71,13.73 1.8,3.47 3.4,7.1 4.66,10.8 2.76,8.05 4.71,16.45 7.99,24.28 4.64,11.08 7,22.54 7.69,32.47z"/>
    <path class="fil7" d="M2523.83 4161.28c-0.14,2.72 -0.28,5.44 -0.4,8.16l-1.11 0.47c-0.85,-0.92 -0.59,-1.56 0.66,-1.63l0.55 1.08c-0.05,-2.5 -0.11,-5 -0.18,-7.44 1.26,-0.85 1.69,-0.74 1.26,0.36l-0.78 -1z"/>
    <path class="fil7" d="M2660.41 4176.48c-2.42,0.11 -4.83,-2.3 -4.76,-4.77 0.05,-2.42 2.37,-4.81 4.79,-4.94 2.37,-0.12 4.49,2.09 4.7,4.94 0.21,2.5 -1.92,4.64 -4.73,4.77z"/>
    <path class="fil7" d="M2597.72 4172.65c0.38,2.62 -1.6,5.09 -4.21,5.23 -2.37,0.12 -4.27,-2.12 -4.47,-5.26 -0.14,-2.03 1.35,-3.87 3.28,-4.07 2.83,-0.28 5,1.35 5.4,4.1z"/>
    <path class="fil7" d="M2631.05 4174.28c-3.26,-0.23 -5.85,-3.44 -5.11,-6.47l1.2 -1.41c1.75,-0.97 3.58,-0.98 5,0.54 1.91,2.04 2.05,5.49 0.4,6.8l-1.49 0.54z"/>
    <path class="fil7" d="M2563.52 4189.05c-0.7,0.94 -1.55,2.55 -2.82,3.74 -1.47,1.36 -3.55,-0.06 -4.02,-2.4 -0.42,-2.19 0.47,-3.67 2.37,-4.64 1.69,-0.86 3.9,0.41 4.47,3.3z"/>
    <path class="fil7" d="M2537.15 4218.8l1.02 -2.9 1.3 0.99c0.71,1.18 0.37,2.23 -0.94,2.7l-1.38 -0.79z"/>
   </g>
   <path class="fil7" d="M971.64 4588.79l0 0c0.02,0 0.02,0 0.03,0 -0.01,0 -0.01,0 -0.03,0zm-0.07 0c-1.59,0 -3.23,-0.26 -4.34,-0.98 1.11,0.72 2.75,0.98 4.34,0.98zm1.9 -0.09l0 0c2.76,-0.28 5.55,-1.07 8.14,-2.12 0.07,-0.03 0.14,-0.05 0.21,-0.08 -0.07,0.03 -0.14,0.05 -0.21,0.08 -2.59,1.05 -5.38,1.84 -8.14,2.12l0 0zm-6.34 -0.96c-0.01,-0.01 -0.02,-0.02 -0.03,-0.03 0.01,0.01 0.02,0.02 0.03,0.03zm14.87 -1.31c0.01,0 0,0 0,0l0 0zm182.54 -546.44c0.47,-2.9 0.53,-5.67 0.19,-8.33 0.04,0.02 0.09,0.05 0.14,0.07 0.33,2.64 0.14,5.4 -0.33,8.26z"/>
   <path class="fil7" d="M1223.7 3989.61c21.21,9.45 42.12,19.58 63.17,29.43 3.58,1.67 7.13,3.63 11.25,3.34l2.62 -1.67 -0.95 -2.67 -3.06 -1.39c-1.48,-0.8 -3.47,-1.39 -4.24,-2.68 -6.76,-11.37 -18.26,-16.89 -29,-22.88 -17.83,-9.93 -36.23,-18.89 -55.65,-25.4 -5.33,-1.79 -10.88,-3.01 -16.41,-4.04 -1.09,-0.21 -2.55,1.6 -4.32,2.82 11.46,10.14 22.92,19.05 36.59,25.14zm-15.78 7.79c-3.68,-1.62 -7.03,-3.58 -10.11,-6.13 -7.87,-6.5 -15.74,-12.99 -23.78,-19.25 -2.82,-2.2 -4.3,-5.19 -6.25,-7.95 -1.14,-1.61 -3.31,-1.86 -4.27,-0.7 -5.18,6.21 -8.6,13.32 -9.94,21.26 -0.55,3.27 -0.29,6.76 0.03,10.09 0.28,2.85 1.61,5.26 3.91,7.26 14.56,12.74 29.66,24.63 47.54,32.51 4.66,2.06 9.25,4.34 13.69,6.85 7.46,4.2 15.35,7.22 23.5,9.75 6.48,2.02 12.91,4.29 19.3,6.61 8.05,2.94 16.3,4.87 24.86,5.11 2.78,0.07 5.63,-0.45 8.35,-1.11 6.28,-1.53 11.42,-14.01 8.2,-19.91 -0.76,-1.4 -2.15,-3 -3.57,-3.42 -16.46,-4.72 -31.08,-13.69 -46.53,-20.73 -14.96,-6.76 -29.9,-13.61 -44.93,-20.24zm-186.22 544.62c20.57,-14.98 41.18,-29.95 62.79,-43.45 8.66,-5.41 16.37,-12.07 24.11,-18.71 6.01,-5.14 11.73,-10.64 18.55,-14.82 2.85,-1.74 5.24,-4.29 7.69,-6.64 4.91,-4.68 9.61,-9.6 14.59,-14.21 8.79,-8.18 15.9,-17.59 21.29,-28.32 0.76,-1.52 1.36,-3.17 2.39,-4.5 11.6,-14.95 14.57,-32.88 17.49,-50.83 0.45,-2.75 0.09,-5.63 0.24,-8.44 0.4,-6.78 0.35,-13.64 1.48,-20.3 1.06,-6.19 1.55,-12.36 1.79,-18.59 0.3,-7.83 1.86,-15.71 -0.57,-23.5 -0.05,-18.1 -0.28,-36.2 1.68,-54.26 1.1,-10.12 1.72,-20.29 2.31,-30.45 0.12,-2.15 -0.79,-4.38 -1.22,-6.57 -0.32,-1.65 -1.18,-3.4 -0.87,-4.91 1.28,-6.19 0.68,-12.38 0.63,-18.6 -0.04,-3.9 0.59,-8.03 1.97,-11.65 6.64,-17.44 12.79,-35.11 21.59,-51.65 4.26,-8.01 7.94,-16.24 9.48,-25.36 0.74,-4.41 2.83,-8.58 4.34,-12.84 2.06,-5.88 1.37,-7.65 -4.71,-10.57 -7.66,-3.67 -15.44,-7.1 -23.1,-10.77 -5.61,-2.69 -11.3,-5.22 -16.03,-9.5 -1.63,-1.47 -3.94,-2.19 -5.97,-3.2 -1.77,-0.88 -4.98,0.05 -5.88,1.68 -0.83,1.47 -1.73,2.94 -2.42,4.48 -9.76,21.72 -19.45,43.45 -29.25,65.14 -3.27,7.23 -6.73,14.37 -10.25,21.47 -1.25,2.52 -2.78,4.95 -4.48,7.19 -2.11,2.75 -4.68,4.78 -8.59,4.48 -3.56,-0.26 -6.56,1.29 -9.14,3.76 -6.54,6.25 -13.34,12.24 -19.65,18.72 -15.43,15.86 -33.35,28.85 -49.76,43.59 -5.9,5.28 -12.01,10.35 -17.53,16.01 -12.24,12.55 -24.29,25.28 -36.15,38.18 -4.21,4.57 -7.74,9.75 -11.43,14.77 -1.33,1.79 -2.52,3.82 -3.23,5.93 -7.18,21.46 -15.45,42.56 -20.14,64.83 -2.93,13.91 -5.06,27.89 -5.08,42.1 -0.02,19.84 0.45,39.68 0.62,59.53 0.12,15.29 0.1,30.58 0.15,45.89 0,2.26 -0.12,4.55 0.09,6.8 1.41,15.25 2.19,30.54 2.46,45.83 0.14,8.37 2.13,15.59 9.17,20.81 1.81,1.34 3.37,2.99 5.24,4.68 18.04,-10.91 36.36,-20.89 53.31,-33.23zm237.65 -469.32c-9.59,-2.9 -10.1,-2.22 -13.62,6.57 -0.85,2.1 -1.63,4.24 -2.44,6.35 -11.49,30.23 -23.49,60.25 -33.8,90.91 -1.48,4.4 -2.05,8.73 -2.09,13.34 -0.07,15.31 -0.44,30.63 -0.69,45.94 -0.25,15.31 -1.21,30.65 -0.62,45.94 1.02,26.12 -0.22,52.17 -0.98,78.24 -0.25,8.48 -1.51,16.95 -2.81,25.35 -2.12,13.66 -7.44,26.15 -14.98,37.67 -2.8,4.27 -5.59,8.54 -8.55,12.69 -6.26,8.76 -12.98,17.18 -20.98,24.39 -9.67,8.71 -19.78,16.93 -29.57,25.51 -11.93,10.45 -23.75,20.99 -37.84,28.61 -3.47,1.87 -6.55,4.46 -9.8,6.74 -23.63,16.6 -47.23,33.24 -70.89,49.8 -8.84,6.18 -18.04,11.79 -28.08,15.83 -2.59,1.05 -5.38,1.84 -8.14,2.12 -2.15,0.21 -4.94,0.14 -6.47,-1.06 -3.27,-2.55 -6.74,-3.64 -10.71,-4.42 -4.5,-0.87 -8.23,-3.61 -11.43,-7.01 -3.65,-3.88 -5.77,-8.09 -5.63,-13.7 0.16,-6.21 -0.54,-12.46 -1.03,-18.69 -1.49,-18.66 -1.9,-37.37 -1.86,-56.09 0.02,-8.49 0.44,-16.9 -0.56,-25.46 -0.97,-8.34 0.15,-16.92 0.35,-25.39l0.02 -1.71c-2.19,-19.86 -0.86,-39.62 1.43,-59.37 0.71,-6.16 1.97,-12.32 0.77,-18.6 -0.87,-4.61 0.15,-8.99 1.85,-13.3 1.04,-2.62 1.84,-5.37 2.49,-8.12 3.65,-15.45 7.84,-30.67 13.81,-45.46 4.67,-11.58 8.14,-23.58 17.6,-32.46l0.96 -1.4c4.56,-8.73 11.73,-15.16 18.76,-21.75 2.88,-2.71 5.66,-5.55 8.29,-8.5 8.67,-9.78 18.4,-18.43 28.38,-26.8 18.65,-15.65 37.29,-31.32 56.02,-46.87 5.68,-4.73 10.62,-10.08 15.56,-15.58 8.28,-9.22 16.44,-18.89 28.28,-22.87 1.04,-1.44 1.83,-2.29 2.34,-3.29 8.08,-15.59 15.07,-31.77 24.79,-46.49 0.89,-1.34 1.38,-3.12 1.55,-4.76 0.49,-4.59 2.22,-8.77 3.85,-13 0.8,-2.09 1.3,-4.34 1.66,-6.56 1.13,-6.99 0.64,-13.44 -5.08,-18.76 -2.46,-2.28 -4.3,-5.13 -7.36,-6.93 -1.85,-1.08 -3.72,-2.9 -4.56,-4.82 -4.67,-10.68 -6.76,-21.73 -2.5,-33.01 3.01,-7.98 7.21,-15.43 12.26,-22.29 1.63,-2.22 4.18,-3.74 6.03,-5.33 6.13,0 11.78,0.35 17.39,-0.07 10.99,-0.84 21.41,1.07 31.41,5.64 3.1,1.41 6.21,2.8 9.42,3.94 21.42,7.66 41.94,17.24 61.47,28.88 6.33,3.78 12.23,8.25 18.48,12.15 7.03,4.37 11.46,10.87 15.51,17.78 1.52,2.6 2.15,5.4 1.04,8.13 -1.8,4.42 -1.59,8.73 -0.85,13.34 1.48,9.22 0.02,18.07 -4.65,26.29 -1.66,2.93 -3.02,6.03 -4.79,9.63 -21.05,3.69 -30.39,3.56 -48.41,-1.86z"/>
   <path class="fil7" d="M1161.14 4249.25c-1.1,-1.22 -1.94,-2.72 -2.7,-4.19 -0.5,-0.98 -0.56,-2.19 -1,-3.21 -0.66,-1.55 -1.21,-3.25 -2.26,-4.49 -4.36,-5.13 -8.72,-10.01 -15.28,-12.88 -9.86,-4.3 -19.49,-8.77 -30.59,-7.52l-2.51 1.99 0.38 1.54 0.75 1.46 2.23 2.53c12.04,10.26 25.41,18.52 39.25,26.02 3.99,2.16 8.4,3.1 12.97,2.57 1.1,-1.85 -0.21,-2.68 -1.24,-3.82zm-170.58 140.15c-1.11,4.46 -1.63,8.87 0.27,13.2 13.13,1.88 19.38,3.49 27.61,7.51 1.43,0.7 2.52,2.15 3.67,3.35 0.97,1.02 0.72,3.46 -0.56,4.54l-2.89 1.42c-1.63,-0.01 -3.34,-0.39 -4.87,-0.97 -3.71,-1.42 -7.35,-3.03 -10.99,-4.62 -3.61,-1.59 -7.19,-3.24 -10.65,-4.8l-1.39 1.67c-1.68,4.98 -0.9,10.01 -0.12,15.36 8.81,3.42 17.71,6.81 26.54,10.37 1.47,0.61 2.84,1.81 3.87,3.06l0.37 3.09 -2.28 2.13c-1.6,0.35 -3.5,0.54 -4.97,-0.02 -5.3,-1.99 -10.49,-4.3 -15.71,-6.53 -2.03,-0.87 -4.04,-1.82 -5.88,-2.64l-1.49 1.71 -0.69 1.5c0.46,13.01 0.6,26.06 1.57,39.04 0.72,9.59 2.53,19.08 3.92,29.05 1.64,-0.21 3.48,0.09 4.62,-0.67 6.11,-4.11 12.25,-8.23 17.98,-12.82 6.2,-4.98 12.78,-9.33 19.39,-13.71 9.42,-6.23 18.69,-12.67 27.39,-20.02 6.87,-5.81 14.62,-10.59 21.62,-16.37 12.25,-10.12 23.27,-21.5 34.28,-32.86 5.46,-5.63 9.48,-12.67 14.12,-19.1 0.67,-0.92 1.17,-1.94 1.71,-2.95 5.41,-9.93 12.86,-18.96 15.56,-30.12 4,-16.5 8.5,-33.03 8.05,-50.26 -0.29,-10.9 2.58,-21.28 4.39,-31.85 0.28,-1.66 0.83,-3.45 0.48,-4.99 -0.33,-1.45 -1.56,-3.72 -2.6,-3.84 -15.11,-1.81 -27.56,-10.07 -40.71,-16.61 -6.7,-3.33 -11.85,-8.71 -17.52,-13.39 -3.5,-2.89 -6.56,-6.31 -10.06,-9.17 -2.13,-1.74 -4.75,-2.88 -7.53,-4.51 -6.58,4.84 -13.22,9.05 -19.04,14.46 -10.79,10.01 -21.78,19.81 -32.64,29.76 -12.69,11.63 -22.25,25.66 -30.18,40.79 -4.76,9.09 -6.57,19.36 -8.5,29.29 -2.9,15.02 -4.57,30.27 -6.6,45.45 -0.28,2.17 0.4,4.48 0.64,6.71l-0.18 -0.64zm154.5 -176.66c8.7,4.39 16.93,9.2 21.38,18.6 0.88,1.86 3.25,3 4.91,4.49 1.67,1.5 3.28,3.07 4.96,4.54 5.41,4.77 5.93,10.7 3.91,17.1 -0.67,2.14 -1.86,4.1 -2.8,6.16 -1.66,3.67 -2.34,7.49 -2.35,11.54 -0.04,11.33 -0.77,22.67 -0.22,33.97 0.94,19.53 -2.93,38.32 -7.28,57.11 -1.04,4.49 -2.96,8.49 -5.21,12.45 -8.42,14.8 -18.08,28.78 -28.79,41.93 -6.76,8.31 -13.18,17.04 -21.76,23.71 -17.85,13.88 -34.97,28.7 -54.18,40.81 -8.11,5.1 -15.52,11.33 -23.16,17.15 -8.55,6.5 -16.89,13.25 -25.55,19.61 -2.67,1.96 -5.96,3.22 -9.12,4.37 -3.34,1.22 -8.9,-1.21 -10.47,-3.9 -2.82,-4.85 -3.39,-10.71 -7.5,-15.06 -4.16,-4.39 -3.96,-10.34 -4.43,-16.03 -0.48,-5.62 -1.91,-11.17 -2.39,-16.81 -0.53,-6.18 -0.28,-12.42 -0.69,-18.61 -0.9,-13.59 -1.45,-27.16 0.28,-40.74 0.35,-2.79 0.33,-5.68 -0.01,-8.48 -1.59,-13.08 -0.36,-26.04 1.53,-38.94 2.45,-16.82 4.81,-33.66 9.73,-49.98 1.47,-4.86 2.81,-9.9 5.25,-14.29 5.77,-10.39 12.19,-20.4 18.28,-30.61 4.12,-6.92 9.63,-12.61 15.8,-17.62 13.16,-10.64 26.6,-20.94 39.31,-32.13 2.54,-2.24 5.46,-4.04 8.25,-5.98 3.31,-2.29 6.75,-3.95 11.06,-3.09 2.53,0.5 4.22,-1.45 5.5,-3.29 3.22,-4.61 7.53,-5.99 13.07,-6.33 6.31,-0.4 12.4,0.91 18.61,0.95 6.95,0.02 13.41,1.88 16.3,3.44 4.75,2.42 6.26,3.19 7.78,3.96z"/>
   <path class="fil7" d="M1133.32 4163.58c-1.65,-1 -4.2,0.23 -5.38,2.6 -1.11,2.23 -0.74,4.54 0.99,6.11 2.05,1.85 5.42,1.03 7.1,-1.75 1.34,-2.21 0.16,-5.22 -2.71,-6.96z"/>
   <path class="fil7" d="M1180.17 4064.96c1.08,0.81 2.19,2.03 3.58,2.55 1.65,0.62 3.4,-0.12 4.21,-1.7l-0.11 -3.15c-1.35,-2.21 -5.13,-2.04 -7.17,0.22 -0.33,0.35 -0.28,1.06 -0.51,2.08z"/>
   <path class="fil7" d="M1166.04 4107.99c2.1,0.52 3.72,-0.57 4.65,-3.16 0.65,-1.81 -1.19,-4.96 -2.98,-4.62 -1.39,0.28 -2.98,1.31 -3.75,2.49 -1.12,1.73 0.31,4.95 2.08,5.29z"/>
   <path class="fil7" d="M1143 4148.9c-0.95,2.67 0.25,5.76 2.07,6.12 2.37,0.46 4.15,-0.66 4.93,-3.19 0.59,-1.95 -1.29,-5.14 -3.21,-4.89 -1.45,0.19 -2.78,1.41 -3.79,1.96z"/>
   <path class="fil7" d="M1176.37 4082.5l0.34 1.39c1.59,1.88 3.76,2.02 5.34,0.17l-0.08 -2.67c-1.49,-1.37 -4.79,-0.56 -5.6,1.11z"/>
   <path class="fil7" d="M1157.3 4135.29l-1.15 -2.43 -2.67 0.99 0.05 2.91c0.78,1.06 2.04,0.85 2.9,-0.1l0.87 -1.37z"/>
   <path class="fil7" d="M1018.79 4349.45c-3,-0.71 -6.18,-1.55 -9.38,-2.21 -1.35,-0.27 -3.49,1.46 -3.54,2.85 -0.03,1.04 0.08,2.45 0.72,3.09 4.89,4.83 10.86,7.7 17.57,8.98 1,0.18 2.27,-0.18 3.18,-0.71l1.99 -2.37 -0.6 -2.95c-3.11,-2.31 -6.43,-4.35 -9.94,-6.68z"/>
   <path class="fil7" d="M990.56 4389.4c6.96,4.51 14,8.81 22.5,9.66 1.02,0.1 2.29,-0.11 3.12,-0.68l1.67 -2.61 -0.73 -2.96c-6.21,-3.63 -12.98,-5.86 -19.95,-7.47l-2.98 1.12c-1.28,1.03 -2.31,2.37 -3.45,3.58l-0.18 -0.64z"/>
   <path class="fil7" d="M1019.12 4338.84c2.74,0.73 4.91,1.74 7.09,1.73 1.49,0 3.65,-1.07 4.29,-2.29 0.61,-1.19 0.25,-3.84 -0.71,-4.73 -4.35,-4.01 -9.57,-6.01 -15.58,-4.82 -1.04,0.2 -2.26,0.86 -2.81,1.68l-0.17 3.01c2.63,2.06 5.49,3.81 7.89,5.42z"/>
   <path class="fil7" d="M1002.81 4452.22c-0.47,-0.04 -2.11,-0.28 -3.73,-0.24 -1.59,0.02 -3.02,2.31 -2.4,3.67 0.46,1.01 0.59,2.33 1.33,3.06 4.92,4.83 10.78,8.21 17.44,9.89 1.07,0.27 3.32,-1.28 3.83,-2.49 0.5,-1.17 -0.06,-3.72 -1.03,-4.39 -4.64,-3.2 -9.59,-5.97 -15.44,-9.5z"/>
   <path class="fil7" d="M1007.16 4379.11c1.71,0.52 4.33,1.44 7.02,2.07 1.01,0.25 2.29,0.14 3.22,-0.31l2.07 -2.28 -0.58 -3.03 -2.33 -2.25c-5.23,-1.65 -10.51,-3.18 -15.84,-4.5l-2.69 1.5c-1.07,0.91 -0.45,3.37 1,4.2 2.4,1.39 4.83,2.74 8.13,4.6z"/>
   <path class="fil7" d="M1033.83 4313.19c3.5,0.77 6.23,1.72 9,1.85 1.38,0.07 2.97,-1.17 4.18,-2.17 0.91,-0.75 -0.27,-3.31 -1.69,-4.02 -4.04,-2.01 -8.08,-4.01 -12.13,-5.98 -1.41,-0.69 -3.33,0.22 -4.09,1.78 -0.78,1.6 -1.05,3.34 0.17,4.66 1.48,1.61 3.34,2.87 4.56,3.88z"/>
   <path class="fil7" d="M1053.47 4280.03c1.64,0.17 4.36,0.64 7.07,0.64l1.97 -2.34 -0.38 -1.41c-2.52,-3.19 -5.83,-5.12 -9.79,-6.03 -2.25,-0.5 -5.18,1 -5.13,2.94 0.05,1.68 0.57,3.28 2.26,4.14 0.99,0.5 1.98,1.02 4,2.06z"/>
   <path class="fil7" d="M1074.93 4257.85c-1.1,-0.24 -2.18,-0.57 -3.29,-0.74 -1.81,-0.25 -3.56,0.99 -3.63,2.55 -0.07,1.83 0.65,3.31 2.29,4.17 2.13,1.11 4.33,0.99 6.5,0.09l1.39 -0.87c-0.05,-1.08 -0.12,-2.31 -0.68,-3.18l-2.58 -2.02z"/>
   <path class="fil7" d="M1085.25 4247.35l-0.84 -2.31 -2.43 0.64 0.23 1.45c0.95,0.19 1.95,0.16 3.04,0.22z"/>
   <path class="fil7" d="M3778.5 3652.25c-2.24,7.55 -5.81,15.11 -11.05,22.7 -25.17,36.46 -80.09,50.03 -116.51,22.28 -27.2,-20.72 -36.16,-51.91 -46.81,-82.95 -12.21,-35.57 -22.77,-71.67 -32.99,-107.85 -13.15,-46.67 -25.67,-93.52 -40.28,-139.75 -7.44,-23.59 -17.07,-46.58 -24.32,-70.18 -3.09,-10.05 -12.25,-32.72 -5.98,-42.33 2.17,-3.32 6.63,-4.03 10.56,-4.49 14.42,-1.68 28.74,-4.09 42.89,-7.25 5.22,-1.17 10.42,-2.43 15.62,-3.7 3.31,-0.81 6.63,-1.61 9.92,-2.52 5.68,-1.54 11.27,-3.37 16.7,-5.43 12.52,-4.74 24.12,-10.79 34.34,-18.2 3.69,-2.68 7.22,-5.57 9.7,-9.47 2.24,-3.52 3.56,-7.71 4.48,-12.01 0.37,-1.71 0.32,-3.18 0.26,-4.65 11.72,38.86 22.52,78.06 37.63,115.72 16.89,42.08 29.62,85.66 40.52,129.65 2.77,11.22 5.68,22.38 8.72,33.52 9.17,33.42 19.66,66.43 32.24,98.73 11.63,29.83 23.04,58.87 14.36,88.18zm-284.44 -415.98c-1.58,-1.84 -1.15,-4.65 -0.17,-6.88 2.77,-6.27 8.76,-10.43 14.58,-14.06 14.73,-9.22 30.21,-17.23 46.23,-23.97 6.94,-2.93 14.06,-5.62 21.47,-6.98 5.89,-1.09 11.9,-1.31 17.81,-1.35 10.54,-0.09 21.19,-1.26 30.98,1.6 17.58,5.72 2.49,20.54 -7.56,25.85 -6.54,3.45 -13.97,5.4 -21.47,7.34 -11.81,3.06 -23.76,6.1 -35.73,9.05 -12,2.95 -24,5.81 -36.04,8.51l-1.43 0.33c-7.88,1.75 -15.95,3.45 -23.98,2.49 -1.72,-0.21 -3.56,-0.62 -4.69,-1.93zm-8.8 -11.31c-4.08,0.4 -3.92,-5.15 -4.91,-8.29 -2.75,-8.64 -6.8,-16.79 -9.97,-25.28 -7.8,-20.83 -14.95,-41.91 -23.2,-62.59 -8.56,-21.46 -14.95,-43.55 -22.24,-65.39 -0.55,-1.67 -0.88,-3.38 -1.37,-5.05l-1.14 -1.24c-12.98,-12 -6.58,-30.93 8.32,-36.7 35.12,-13.62 76.52,-5.64 110.09,-22.68 29.96,-15.2 36.31,-7.19 45.48,21.92 3.32,10.53 6.92,20.97 10.75,31.34 3.83,10.37 7.87,20.64 12.13,30.84 6.59,16.06 12.71,32.3 18.43,48.67 5.3,16.15 10.25,32.44 15.22,48.72 -5.2,-8.05 -18.2,-10.89 -26.83,-12.62 -9.56,-1.75 -19.59,-2.11 -29.56,-0.91 -9.96,1.19 -19.74,3.91 -28.83,8.34 -9.33,4.54 -17.19,11.18 -26.22,16.12 -9.55,5.21 -20.08,8.41 -29.35,14.16 -3.93,2.42 -7.65,5.51 -9.79,9.68 -1.69,3.29 -2.21,10.51 -7.01,10.96zm-114.84 -224.71c-7.95,-1.98 -13.35,-6.66 -16.24,-14.17 -2.36,-6.12 -3.46,-12.37 -3,-19.25 8.28,-0.04 15.74,0.28 23.12,-0.21 7.52,-0.5 14.95,-2.07 22.46,-2.69 7.53,-0.64 15.19,-0.13 22.63,-1.15 8.26,-1.14 16.48,-3.04 24.5,-5.35 31.37,-9.02 62.22,-19.67 93.81,-28.02 5.59,-1.47 10.78,-4.45 16.02,-7.01 12,-5.88 23.88,-11.99 35.89,-17.86 2.18,-1.05 4.7,-1.42 7.27,-2.18 1.46,2.27 3.69,4.23 3.94,6.38 0.92,8.17 1.4,16.39 1.63,24.6 0.11,3.39 -1.7,6.44 -4.59,8.35 -6.26,4.12 -12.41,8.55 -19.11,11.85 -14.98,7.38 -30.3,14.08 -47.29,16.07 -3.43,0.4 -6.16,-0.11 -9.38,-1.5 -5.23,-2.27 -7.41,-0.98 -9.76,4.05 -1.04,2.22 -1.41,4.83 -2.74,6.83 -1.31,1.96 -3.18,4.17 -5.28,4.87 -7.13,2.36 -14.36,4.97 -21.76,5.89 -25.79,3.23 -51.36,7.81 -77.06,11.58 -11.75,1.72 -23.43,1.8 -35.06,-1.08zm3.28 -60.65c4.34,-6.39 10.43,-10.19 18.25,-11.19 3,-0.39 8.06,4.31 8.23,8.06l-2.29 3.65c-6.46,1.5 -13.04,2.57 -19.12,3.71 -1.96,-0.88 -3.47,-1.4 -4.78,-2.21l-0.29 -2.02zm22.2 -94.15c7.95,-1.65 15.81,-3.63 23.58,-5.95 18.88,-5.62 38.19,-10.18 55.87,-19.26 8.25,-4.23 16.76,-9.21 23.18,-15.98 2.45,-2.56 5.44,-4.78 8.91,-5.53 3.47,-0.75 7.45,0.2 9.64,3 1.32,1.68 1.87,3.83 2.3,5.92 3.32,16.27 3.55,32.17 3.61,48.76 0.04,10.22 0.07,20.54 -2.3,30.5 -5.44,22.72 -27.08,37.07 -49.48,40.23 -14.19,1.99 -26.92,9.35 -41.5,3.8 -15.69,-5.98 -26.17,-19.96 -36.14,-32.7 -4.82,-6.16 -10.13,-12.31 -14.33,-18.91 -3.37,-5.3 -4.34,-11.73 -8.54,-16.63 -1.87,-2.18 -4.29,-3.97 -5.58,-6.54 -1.3,-2.56 -0.87,-6.38 1.8,-7.44l3.3 -0.26c6.56,0.51 11.78,-1.52 18.03,-1.52 2.56,-0.47 5.11,-0.95 7.65,-1.49zm-17.28 -18.36c10.51,-8.59 23.33,-13.03 35.85,-17.59 14.92,-5.41 30.27,-9.86 45.68,-13.79 8.03,-2.05 16.62,-2.14 24.97,-3.06 1.94,-0.22 3.16,0.74 3.21,2.57l-1 2.12c-18.05,10.5 -36.51,19.92 -57.38,24.34 -13.93,2.93 -27.6,7.04 -41.41,10.53 -2.39,0.59 -4.89,0.69 -7.13,0.99 -1.26,-1.47 -2.4,-2.5 -3.13,-3.76l0.34 -2.35zm163.14 58.85c6.42,-2.43 13.05,-2.04 19.66,-1.59 1.54,0.64 4.07,1 4.33,1.92 0.74,2.73 -1.67,4.14 -3.79,5.31 -5.04,2.8 -10.1,5.59 -15.21,8.29 -3.16,1.66 -7.61,0.93 -8.9,-1.28 -2.3,-3.93 0.07,-11.2 3.91,-12.65zm257.83 740.57c-0.51,-19.59 -2.6,-31.2 -9.48,-47.9 -4.43,-10.74 -8.58,-21.51 -10.81,-32.96 -0.93,-4.82 -2.85,-9.48 -4.36,-14.21 -5.29,-16.5 -11.39,-32.82 -15.68,-49.58 -4.28,-16.76 -10.41,-32.93 -14.22,-49.9 -3.59,-15.67 -8.48,-31.03 -13.51,-46.32 -5.37,-15.17 -10.8,-30.29 -15.05,-45.59 -0.45,-1.56 -1.07,-3.1 -1.68,-4.63 -3.71,-9.17 -7.34,-18.35 -10.94,-27.54 -3.59,-9.2 -7.11,-18.42 -10.49,-27.71 -6.22,-17.04 -11.99,-34.29 -17.59,-51.61 -3.44,-10.64 -6.73,-21.34 -9.86,-32.11 -3.13,-10.77 -6.16,-21.58 -9.07,-32.44 -3.63,-13.66 -6.95,-27.43 -11.18,-40.84 -4.22,-13.39 -10.2,-26.17 -14.59,-39.45 -4.84,-14.05 -9.24,-28.15 -17.22,-40.92 -1.29,-2.06 -2.06,-4.59 -2.51,-7 -2.27,-12.37 -7.81,-23.5 -13.48,-34.59 -3.78,-7.38 -7.36,-14.82 -8.09,-24.18 2.69,-2.38 5.54,-5.38 8.88,-7.75 8.23,-5.86 14.72,-13.35 21.58,-20.59 6.15,-6.48 6.94,-12.94 1.85,-19.99 -3.19,-4.39 -3.1,-9.22 -3.41,-14.15 -1.01,-16.39 -8.06,-30.18 -19.58,-41.9 -4.76,-4.83 -10.4,-8.7 -17.35,-9.52 -13.26,-1.57 -26.27,-5.92 -39.9,-3.48 -3.2,0.56 -5.63,-2.24 -6.58,-6.05 -2.67,-10.52 -3.27,-21.21 -3.13,-31.97 0.12,-8.24 0.62,-16.49 0.64,-24.73 0.01,-4.05 0.06,-8.27 -2.9,-12.46 -4.71,-2.23 -10.1,-4.44 -15.16,-7.22 -9.22,-5.06 -19.11,-6.84 -29.32,-5.39 -13.3,1.9 -26.59,4.14 -39.64,7.16 -13.88,3.22 -27.5,7.51 -41.2,11.39 -21.43,6.09 -40.63,15.67 -54.71,33.29 -2.59,3.23 -5.28,6.46 -8.37,9.2 -6.2,5.55 -5.4,11.49 -1.6,17.79 3.87,6.39 7.55,12.9 11.71,19.1 7.45,11.08 16.44,20.91 26.02,30.32 6.99,6.85 6.94,10.47 -2.34,14.8 -6.8,3.17 -13.91,5.9 -20.25,9.85 -9.49,5.9 -16.59,13.67 -16.84,25.8 -0.06,3.12 -1.83,6.24 -3.09,9.24 -2.02,4.76 -1.91,9.58 -1.19,14.57 2.42,16.77 8.87,31.75 21.54,45.57 10.82,3.07 20.59,5.11 30.92,4.41 7.94,-0.54 11.05,1.95 13.14,8.78 2.2,7.1 4.33,14.27 5.87,21.52 6.19,29.17 15.9,57.32 25.66,85.46 11.69,33.63 24.03,67.02 37.45,100.02 2.18,5.35 4.17,10.87 5.4,16.48 4.21,19.41 10.09,38.29 17.5,56.76 2.17,5.37 3.87,10.93 5.47,16.49 4.38,15.08 7.75,30.49 13.06,45.26 8.12,22.62 13.94,45.85 20.64,68.84 9.48,32.49 19.44,64.87 28.08,97.6 2.95,11.17 5.1,22.62 9.1,33.43 12.33,33.37 24.15,66.92 37.63,99.89 8.5,20.76 22.27,36.72 43.13,46.44 3.8,1.76 8.13,2.71 11.52,5.01 11.69,7.95 25.16,9 38.52,10.16 4.91,0.43 10.22,-0.11 14.94,-1.5 21.89,-6.42 42.41,-15.53 59.84,-30.49 12.32,-10.59 20.22,-23.98 26.09,-38.65 1.18,-2.95 1.39,-6.46 1.33,-9.69 -0.2,-9.87 -0.87,-19.74 -1.14,-29.62z"/>
  </g>
 </g>
</svg>
