<svg xmlns="http://www.w3.org/2000/svg" id="svg2" viewBox="0 0 2527.69 1661.53"><defs><style>.cls-1{fill:#cec9fc;}.cls-2{fill:#daf9a6;}.cls-3{fill:#181818;}.cls-10,.cls-11,.cls-4,.cls-7,.cls-8,.cls-9{fill:none;}.cls-13,.cls-4,.cls-6,.cls-8{stroke:#000;stroke-miterlimit:10;}.cls-4{stroke-width:3px;}.cls-5{fill:#cdc8fe;}.cls-10,.cls-7,.cls-9{stroke:#cec9fc;}.cls-10,.cls-11,.cls-7,.cls-9{stroke-linecap:round;stroke-linejoin:round;}.cls-7{stroke-width:35px;}.cls-8{stroke-width:4px;}.cls-9{stroke-width:9px;}.cls-10,.cls-11{stroke-width:10px;}.cls-11{stroke:#eaecfc;}.cls-12{fill:#eaecfc;}.cls-13{fill:#fff;}</style></defs><path d="M1659.1,1560.3a4.27,4.27,0,0,0-1.1-4.3,15.92,15.92,0,0,0,1.2,8.8A8.54,8.54,0,0,1,1659.1,1560.3Z" transform="translate(-26.33 -38.2)"/><path d="M2049.9,1571c.4,0,.7-.1,1-.1,1.2-.5,2.5-.9,3.8-1.4h-1.1c-.4.1-.8.3-1.1.4A9.66,9.66,0,0,0,2049.9,1571Z" transform="translate(-26.33 -38.2)"/><path d="M535.3,1672.8a1.5,1.5,0,0,0,0,3A1.5,1.5,0,0,0,535.3,1672.8Z" transform="translate(-26.33 -38.2)"/><path class="cls-1" d="M2514.8,518.9a1.5,1.5,0,0,0,0-3A1.5,1.5,0,0,0,2514.8,518.9Z" transform="translate(-26.33 -38.2)"/><circle class="cls-2" cx="2501.39" cy="1566.37" r="37.3" transform="translate(-401.28 2189.33) rotate(-45)"/><path class="cls-3" d="M2453.58,1568.68a38.59,38.59,0,0,0,40.8,16c9.5-2.8,15.2-6.3,21.2-14.1,9.7-13.5,9.6-32.7-1.2-45.6-16-18.8-46.2-17.6-60.2,3.8-1.8,2.5-3.9,8.3-5,13.3-1.7,7.2-1.5,10.2.3,16.6,1,3.9,2.9,8.7,4.1,10Zm-.9-20.9c.4-27.7,34.4-42.7,54.6-23.7,11.4,10,13.7,27.2,7,40.5-12.4,22.3-43.1,23.1-57.1,1C2453.68,1560.58,2452.68,1555,2452.68,1547.78Z" transform="translate(-26.33 -38.2)"/><ellipse class="cls-2" cx="606.09" cy="1548.36" rx="40.5" ry="42.1"/><path class="cls-3" d="M594.72,1544.86c16.9-.6,33.7,10.9,39.4,26.8,3.2,10.6,4.1,17.6.6,28.2-5.2,17.6-23.1,29.6-40.8,28.6-27-2.1-44.5-31.2-34.1-57.5.9-3.5,5.1-8.8,8.6-13.1,5.1-6.1,8.6-7.9,15.3-10.3C587,1546.56,593,1544.76,594.72,1544.86Zm-18.8,12.9c-23.9,18.2-15.8,58.7,12.9,65.2,16,3.6,32.2-4.9,39.9-19.8,12.1-25.3-7.1-53.7-34.9-53.1-5.9,0-11.9,2.6-17.9,7.7Z" transform="translate(-26.33 -38.2)"/><path d="M2470.2,176c-77.1-24.2-154.8-48.3-235.1-59.8-77.3-11.1-154.6-7.9-230.1,13-72.9,20.2-139.6,54.5-207.4,87.2-69.6,33.7-141.8,62.9-220.6,62.5-82.8-.5-165.1-24.2-245.4-42C1250.9,219,1170.1,201,1089,184.7,930.6,152.8,770.5,127,608.8,121.5c-78.2-2.6-157.4-1.7-235.1,8.3-65.3,8.3-131.3,24.5-188,59.2a302.71,302.71,0,0,0-38.1,27.6c-1,.8.4,2.2,1.4,1.4,54.1-45.6,122-69,190.8-81.1,75.1-13.1,152.5-15.3,228.6-14.3,162.2,2.1,323.3,25.7,482.3,56.7,79.7,15.5,159,32.9,238.3,50.4,76.7,17,153.8,37.8,231.9,47.5,38,4.7,76.4,5.6,114.2-.7,35.7-5.8,70.3-17.4,103.7-31.3,68.8-28.5,133.2-66.4,202.9-93.1,74.3-28.3,151.8-43.9,231.4-40,81.5,4,161,24.6,238.7,48.1,19.2,5.8,38.3,11.7,57.5,17.8C2471,178.3,2471.6,176.4,2470.2,176Z" transform="translate(-26.33 -38.2)"/><path d="M678.4,217.3c-27.6-9.7-55.2-19.3-83.5-27-27.9-7.6-56.5-13.1-85.3-14.7-28.4-1.5-56.8,1.3-84.6,7-28.1,5.8-55.5,14.5-82.3,24.6s-53.2,21.8-79.4,33.5c-3.2,1.4-6.5,2.9-9.6,4.3-1.2.5-.2,2.2,1,1.7,26.3-11.8,52.5-23.6,79.4-34.1,26.4-10.3,53.3-19.5,80.9-25.9s56-10.2,84.4-9.7c28.9.4,57.5,5.3,85.5,12.4s55.6,16.4,83,26l10.2,3.6C679.1,219.7,679.6,217.7,678.4,217.3Z" transform="translate(-26.33 -38.2)"/><path d="M1688.9,179.6a234.7,234.7,0,0,1-69.6,32.2,240,240,0,0,1-75.9,8.3c-26-1.4-51.3-7.4-75.5-16.8-24.8-9.7-48.4-22.5-71.6-35.3s-46.4-25.7-70.8-36c-2.9-1.3-5.8-2.4-8.8-3.6-1.2-.5-1.7,1.4-.5,1.9,25.1,9.8,48.9,22.8,72.4,35.7s46.8,26,71.6,36.3c24,10,49.1,17,75,19.2a240.69,240.69,0,0,0,76.1-5.6,235.7,235.7,0,0,0,70.7-29.3c2.7-1.6,5.4-3.5,7.9-5.2C1691,180.6,1690,178.9,1688.9,179.6Z" transform="translate(-26.33 -38.2)"/><path d="M2350.5,218.8c-29.4-1.8-58.2-8.3-86.6-15.8s-56.7-16.3-85.4-22.9c-28-6.4-56.7-10.7-85.5-9.5a245.33,245.33,0,0,0-148.7,59c-2.6,2.2-5.1,4.6-7.6,6.9a1,1,0,0,0,1.4,1.4,240.4,240.4,0,0,1,67.8-44.9,244.91,244.91,0,0,1,79.3-20c28.7-2.2,57.3,1.4,85.4,7.4,28.5,6.1,56.3,14.5,84.4,22.2,27.8,7.6,56,14.4,84.7,17.4,3.6.4,7.3.6,10.9.9C2351.8,220.9,2351.8,218.9,2350.5,218.8Z" transform="translate(-26.33 -38.2)"/><path d="M1637.8,297a933.11,933.11,0,0,0-172.1-23.7c-58.8-2.4-117.2,2.1-175.3,10.6-58.6,8.6-116.8,20-175.8,26a809.75,809.75,0,0,1-170.5-.7A803.66,803.66,0,0,1,777,272.3c-6.7-2.3-13.5-4.6-20.2-7.1-1.2-.5-1.7,1.5-.5,1.9a804.63,804.63,0,0,0,164.6,41.1,802.61,802.61,0,0,0,168.3,5.8c58.7-4.2,116.4-14.9,174.4-24,58.6-9.3,117.3-16,176.7-15.4a909.86,909.86,0,0,1,175.5,19.6c7.2,1.5,14.3,3.1,21.5,4.7C1638.5,299.3,1639,297.3,1637.8,297Z" transform="translate(-26.33 -38.2)"/><path class="cls-1" d="M2328.9,177.4c-148.4,12.4-295.5-16.4-443.5-21.5-147-5.1-294,11.3-438.1,39.5-74,14.5-147.4,32.9-222.2,42.9a927.41,927.41,0,0,1-219,3.2C861,226.3,727.4,169,588.5,128.5c-123.3-36-260-57.4-384.2-13.1A392.26,392.26,0,0,0,163.1,133c-1.2.6-.1,2.3,1,1.7,122.2-60.4,264.9-47.1,392.7-13,136.7,36.5,267,95.1,407.6,116.5a929.18,929.18,0,0,0,214.7,7.2c72.5-6.1,143.6-21.9,214.7-36.9,145-30.7,292.4-51.7,440.9-51.4,146.9.3,292.5,28.7,439.5,25.3,18.2-.4,36.4-1.4,54.6-2.9C2330.2,179.2,2330.2,177.2,2328.9,177.4Z" transform="translate(-26.33 -38.2)"/><path class="cls-1" d="M1076.2,127.6a147.3,147.3,0,0,1-45.7,6,228.54,228.54,0,0,1-46.6-5.8,453.46,453.46,0,0,1-45.1-13c-14.9-5.1-29.6-10.6-44.5-15.9s-29.9-10.1-45.3-14c-1.9-.5-3.8-1-5.7-1.3-1.2-.3-1.8,1.6-.5,1.9A467.69,467.69,0,0,1,888.5,99c15.1,5.2,29.9,10.8,44.9,16.1s30,10,45.4,13.7a251,251,0,0,0,46.4,6.8,163,163,0,0,0,46.1-4.4c1.9-.5,3.7-.9,5.6-1.6C1078,129.2,1077.4,127.2,1076.2,127.6Z" transform="translate(-26.33 -38.2)"/><path class="cls-1" d="M1837.5,122.8a596.26,596.26,0,0,0-64.8-9.8,604,604,0,0,0-65.9-2.6,593.78,593.78,0,0,0-65.4,4.7,621,621,0,0,0-64.6,11.8,611.61,611.61,0,0,0-63.2,19c-2.6.9-5.1,1.9-7.7,2.9-1.2.4-.7,2.4.5,1.9a593.58,593.58,0,0,1,257.4-36.6,572.08,572.08,0,0,1,65.1,8.9c2.7.6,5.3,1,8,1.6C1838.3,125,1838.9,123.1,1837.5,122.8Z" transform="translate(-26.33 -38.2)"/><path class="cls-1" d="M2297,288.2a434.71,434.71,0,0,1-59.6,16.6,457.8,457.8,0,0,1-61.6,8.2,456.69,456.69,0,0,1-61.9-.3,453.13,453.13,0,0,1-61.5-8.8,453.21,453.21,0,0,1-59.4-17.2l-7.2-2.7c-1.2-.5-1.7,1.5-.5,1.9a431.87,431.87,0,0,0,59.6,18.4,468.44,468.44,0,0,0,61.1,9.9,464,464,0,0,0,62.4,1.4,454.22,454.22,0,0,0,61.5-7.1,446.14,446.14,0,0,0,60.4-15.6c2.5-.8,4.9-1.7,7.3-2.5C2298.8,289.6,2298.3,287.7,2297,288.2Z" transform="translate(-26.33 -38.2)"/><rect class="cls-4" x="255.97" y="377.5" width="763.3" height="763.3"/><line class="cls-4" x1="885.97" y1="1194.7" x2="885.97" y2="1286.1"/><line class="cls-4" x1="885.97" y1="1284.2" x2="122.17" y2="1284.2"/><line class="cls-4" x1="122.17" y1="831.6" x2="122.17" y2="1284.2"/><circle class="cls-2" cx="122.17" cy="740.59" r="35.12"/><circle class="cls-5" cx="122.17" cy="650.42" r="35.12"/><circle class="cls-2" cx="122.17" cy="561.63" r="35.12"/><path d="M1671.8,313.5a781.7,781.7,0,0,0,156.5,22c53.4,1.9,106.4-3,159-11.9,53.1-9,105.8-20.7,159.3-27a675.27,675.27,0,0,1,306.9,34.3c6.1,2.2,12.3,4.5,18.4,6.8,1.1.5,1.5-1.5.4-1.9a688.38,688.38,0,0,0-149.9-39.2,667.71,667.71,0,0,0-152.8-4.4c-53.2,4.6-105.5,15.6-158.1,25.1-53.1,9.7-106.3,16.7-160.3,16.6a766.59,766.59,0,0,1-159.5-17.8c-6.6-1.4-13.1-3-19.5-4.5C1671.1,311.3,1670.7,313.3,1671.8,313.5Z" transform="translate(-26.33 -38.2)"/><path class="cls-1" d="M52.2,244.8c29.2,4.2,57.4,12.9,85.1,22.6s55.2,20.7,83.3,29.5c27.4,8.5,55.7,15.2,84.5,16.2a245.66,245.66,0,0,0,80.8-10.8A243.31,243.31,0,0,0,458,266c2.7-2,5.5-4.1,8.1-6.3,1-.8-.3-2.3-1.3-1.5a239.44,239.44,0,0,1-71.1,39.4,243.31,243.31,0,0,1-80.6,13.7c-28.8-.1-57-5.9-84.5-14.1-27.9-8.3-55-18.9-82.4-28.8-27.1-9.7-54.7-18.8-83.1-24-3.6-.6-7.2-1.2-10.8-1.7C51,242.6,50.9,244.6,52.2,244.8Z" transform="translate(-26.33 -38.2)"/><path class="cls-3" d="M126.1,195.1c-12.5,2.9-23.7.2-35.6-7.8a1.5,1.5,0,1,1,1.8-2.4c21.6,15.2,44.7,10.8,66.1-12.7,7.4-8.6,14.2-13.9,20.2-16.9a26.88,26.88,0,0,1,8.3-2.3c-6.9-3.3-19.3-6.9-32.5-8.3-20.7-1.3-35,4-43.9,17.1,0,0-1.1.2-2.1.3,0,0-.2-1.1-.3-2.1a47.38,47.38,0,0,1,20.4-15.9,72.07,72.07,0,0,1,25.5-2.6c17.5,1.8,33.5,8.1,38.2,10.7,0,0,1.2.9.2,1.1a1,1,0,0,1-.9,1.2c-7.5,0-16,1.2-31.8,18.6-10.3,11.2-20.1,18-30.5,20.6A4.83,4.83,0,0,1,126.1,195.1Z" transform="translate(-26.33 -38.2)"/><path class="cls-3" d="M93.2,183.6c-8.3,2.3-18,2.6-27.8,1.8a1.06,1.06,0,0,1-.3-2.1c29.4,2.2,47.2-9,64.3-17.9,10.9-7,21.9-12.9,34.7-13.6a1.06,1.06,0,1,1,.3,2.1c-11.8.6-21.7,6.4-33.7,13.5C119.9,174.4,107.8,180.4,93.2,183.6Z" transform="translate(-26.33 -38.2)"/><path class="cls-3" d="M2449.5,223.3c-12-4.7-23.6-3.1-36.8,4.2a1.75,1.75,0,0,0-.7,2.3,1.45,1.45,0,0,0,2.1.6c24.1-14,46.3-6.4,63.6,22.1,5.9,10.3,11.8,17,17.3,21a24,24,0,0,0,7.9,3.5c-7.5,2.8-20.4,5.2-33.7,5.1-20.8-1.1-34.2-8.6-40.8-24.1,0,0-1-.3-2.1-.6,0,0-.3,1.1-.7,2.3a46.8,46.8,0,0,0,17.6,19.9,64.67,64.67,0,0,0,24.9,6c17.7.2,34.7-4.8,39.8-7,0,0,1.4-.8.3-1.1a1.09,1.09,0,0,0-.7-1.4c-7.5-.9-15.7-3.3-28.5-24.3-8.3-13.5-16.9-22.2-26.9-26.3A3.29,3.29,0,0,0,2449.5,223.3Z" transform="translate(-26.33 -38.2)"/><path class="cls-3" d="M2414.8,231.8c-7.9-3.5-17.4-5-27.3-5.4-1-.3-1.4.8-1.4.8a1.09,1.09,0,0,0,.7,1.4c29.7,1.2,45.5,15.6,61,27.5,9.6,8.9,19.6,16.8,32.2,19.2,1,.3,1.4-.8,1.4-.8a1.09,1.09,0,0,0-.7-1.4c-11.6-2.1-20.6-9.6-31.2-18.9C2439.8,245.2,2428.8,237.1,2414.8,231.8Z" transform="translate(-26.33 -38.2)"/><path class="cls-3" d="M950.4,298.6c-12.7-1.7-22.3-8.1-30.7-19.8a1.53,1.53,0,1,1,2.6-1.6c14.9,21.8,38.1,25.8,66.4,11.2,9.9-5.5,18.1-8.1,24.9-8.8a24.39,24.39,0,0,1,8.6.8c-5.4-5.5-15.7-13.2-27.5-19.1-18.9-8.5-34.2-8.5-47.1.7,0,0-1-.2-2.1-.5,0,0,.2-1,.5-2.1a47.65,47.65,0,0,1,24.6-7.8,70.34,70.34,0,0,1,24.8,6.5c15.8,7.8,28.6,19.3,32.1,23.4,0,0,.8,1.3-.2,1-.2,1-1.3.8-1.3.8-7.1-2.6-15.4-4.4-36.3,6.3-13.5,6.9-25.1,9.8-35.7,8.6A4.77,4.77,0,0,1,950.4,298.6Z" transform="translate(-26.33 -38.2)"/><path class="cls-3" d="M923.5,276.4c-8.6-.8-17.7-3.9-26.7-8-1-.2-.8-1.3-.8-1.3.2-1,1.3-.8,1.3-.8,26.8,12.4,47.4,8.1,66.5,5.7,12.6-2.7,25-4.4,37.3-.6,1,.2.8,1.3.8,1.3-.2,1-1.3.8-1.3.8-11.2-3.5-22.6-1.6-36.2.9C951.8,277.1,938.4,278.5,923.5,276.4Z" transform="translate(-26.33 -38.2)"/><circle class="cls-2" cx="112.91" cy="1668.63" r="31.1" transform="translate(-1173.16 530.37) rotate(-45)"/><path class="cls-3" d="M73.37,1674.53c8.2,10.3,23,14.3,35.2,9.9,7.6-3.1,12.1-6.5,16.5-13.5,7-12,5.3-28-4.8-37.8a31.52,31.52,0,0,0-49.8,8.1c-1.3,2.2-2.5,7.2-3.1,11.5-.8,6.1-.4,8.6,1.7,13.8,1.3,3.1,3.3,7,4.3,8Zm-2.4-17.4c-1.9-23.1,25.2-38.3,43.5-24.1,10.2,7.4,13.6,21.5,9.2,33.1-8.4,19.5-34,22.7-47.4,5.5C72.87,1667.83,71.57,1663.23,71,1657.13Z" transform="translate(-26.33 -38.2)"/><circle class="cls-5" cx="1331.24" cy="1623.83" r="33"/><path class="cls-3" d="M1337.07,1625.63c14-.2,26.8,9.6,31.1,23,2.8,8.4,2.6,14.2-.2,22.3-4.8,13.8-20.2,23-34.9,20.6-21.3-2.7-35-26.6-25.7-46.7a26.81,26.81,0,0,1,7.9-9.5c4.4-4.8,6.9-6.3,12.8-7.6A21.12,21.12,0,0,1,1337.07,1625.63Zm-16.2,9c-20.5,13-15.5,45.5,8.2,51.7a29.82,29.82,0,0,0,32.9-14.1c11-20.2-3.6-43.2-26-42.6a22.8,22.8,0,0,0-15.1,5Z" transform="translate(-26.33 -38.2)"/><path d="M1249,696.9a2,2,0,0,0,0,4A2,2,0,0,0,1249,696.9Z" transform="translate(-26.33 -38.2)"/><path d="M1286.6,548.9a2,2,0,0,0,0,4A2,2,0,0,0,1286.6,548.9Z" transform="translate(-26.33 -38.2)"/><path d="M1472.1,336.4h-4.7a1.82,1.82,0,0,0-1.4.6,2.25,2.25,0,0,0-.6,1.4,2,2,0,0,0,2,2h4.7a1.82,1.82,0,0,0,1.4-.6,2.25,2.25,0,0,0,.6-1.4A2.07,2.07,0,0,0,1472.1,336.4Z" transform="translate(-26.33 -38.2)"/><path d="M2371,451.08a2,2,0,0,0,0,4A2,2,0,0,0,2371,451.08Z" transform="translate(-26.33 -38.2)"/><path d="M2300.41,660.45a2,2,0,0,0,0,4C2302.91,664.45,2302.91,660.45,2300.41,660.45Z" transform="translate(-26.33 -38.2)"/><path d="M2398.21,844.15a2,2,0,0,0,0,4C2400.71,848.15,2400.71,844.15,2398.21,844.15Z" transform="translate(-26.33 -38.2)"/><path d="M2475.9,774.65c-.1-.2-.2-.5-.4-.6a2.51,2.51,0,0,0-1.4-.6,2,2,0,0,0-1.4.6l-2.3,2.3a2.09,2.09,0,0,0-.4.6,1.88,1.88,0,0,0-.2.8,1.2,1.2,0,0,0,.2.8c.1.2.2.5.4.6a2.51,2.51,0,0,0,1.4.6,2,2,0,0,0,1.4-.6l2.3-2.3a2.09,2.09,0,0,0,.4-.6,1.7,1.7,0,0,0,0-1.6Z" transform="translate(-26.33 -38.2)"/><path d="M1198.8,85.8a2,2,0,0,0-1.4-.6h-2.3a1.2,1.2,0,0,0-.8.2c-.2.1-.5.2-.6.4a2.09,2.09,0,0,0-.4.6,1.88,1.88,0,0,0-.2.8,1.82,1.82,0,0,0,.6,1.4,2,2,0,0,0,1.4.6h2.3a1.2,1.2,0,0,0,.8-.2c.2-.1.5-.2.6-.4a2.09,2.09,0,0,0,.4-.6,1.88,1.88,0,0,0,.2-.8A1.82,1.82,0,0,0,1198.8,85.8Z" transform="translate(-26.33 -38.2)"/><path d="M1866.5,38.2h-4.7a1.82,1.82,0,0,0-1.4.6,2.25,2.25,0,0,0-.6,1.4,2,2,0,0,0,2,2h4.7a1.82,1.82,0,0,0,1.4-.6,2.25,2.25,0,0,0,.6-1.4A2,2,0,0,0,1866.5,38.2Z" transform="translate(-26.33 -38.2)"/><path d="M532,1419.3a2,2,0,0,0-1.4-.6h-2.3a1.2,1.2,0,0,0-.8.2c-.2.1-.5.2-.6.4a2.09,2.09,0,0,0-.4.6,1.88,1.88,0,0,0-.2.8,1.82,1.82,0,0,0,.6,1.4,2,2,0,0,0,1.4.6h2.3a1.2,1.2,0,0,0,.8-.2c.2-.1.5-.2.6-.4a2.09,2.09,0,0,0,.4-.6,1.88,1.88,0,0,0,.2-.8A2,2,0,0,0,532,1419.3Z" transform="translate(-26.33 -38.2)"/><path d="M37.3,1679a2,2,0,0,0-2.5-1.4l-7,2.4a2.08,2.08,0,0,0-1.4,2.5,2,2,0,0,0,2.5,1.4l7-2.4A2,2,0,0,0,37.3,1679Z" transform="translate(-26.33 -38.2)"/><path d="M76.9,1349.3a2,2,0,0,0-2.7-.7c-3.1,1.6-6.3,3.1-9.4,4.7a2,2,0,0,0-.7,2.7,2,2,0,0,0,2.7.7c3.1-1.6,6.3-3.1,9.4-4.7A2,2,0,0,0,76.9,1349.3Z" transform="translate(-26.33 -38.2)"/><path d="M142.6,1544.5a1.86,1.86,0,0,0-.9-1.2,2,2,0,0,0-1.5-.2,2.26,2.26,0,0,0-1.2.9c-.8,1.6-1.6,3.1-2.4,4.7a2.62,2.62,0,0,0-.2,1.5,1.86,1.86,0,0,0,.9,1.2,2,2,0,0,0,1.5.2,2.26,2.26,0,0,0,1.2-.9l2.4-4.7A2.4,2.4,0,0,0,142.6,1544.5Z" transform="translate(-26.33 -38.2)"/><path d="M201.4,363.2a2,2,0,0,0-2.5-1.4c-3.1.8-6.3,1.5-9.4,2.3a2.08,2.08,0,0,0-1.4,2.5,2,2,0,0,0,2.5,1.4c3.1-.8,6.3-1.5,9.4-2.3A2.13,2.13,0,0,0,201.4,363.2Z" transform="translate(-26.33 -38.2)"/><path d="M1193.1,766.9a2,2,0,0,0,0,4A2,2,0,0,0,1193.1,766.9Z" transform="translate(-26.33 -38.2)"/><path d="M1087.4,603.7a2,2,0,0,0,0,4A2,2,0,0,0,1087.4,603.7Z" transform="translate(-26.33 -38.2)"/><path d="M1213.8,550a2,2,0,0,0-2.5-1.4c-2.3.8-4.7,1.6-7,2.3a2.08,2.08,0,0,0-1.4,2.5,2,2,0,0,0,2.5,1.4l7-2.3A2.08,2.08,0,0,0,1213.8,550Z" transform="translate(-26.33 -38.2)"/><path d="M2417.3,1462.7a1.94,1.94,0,0,0-2.5-.7c-1.5.8-2.9,1.5-4.4,2.3a1.48,1.48,0,0,0-.8,1.1,1.7,1.7,0,0,0,.2,1.4,1.94,1.94,0,0,0,2.5.7c1.5-.8,2.9-1.5,4.4-2.3a1.48,1.48,0,0,0,.8-1.1A1.7,1.7,0,0,0,2417.3,1462.7Z" transform="translate(-26.33 -38.2)"/><path d="M1645.3,398.5a2,2,0,0,0-2.7-.7c-3.9,2.4-7.8,4.7-11.7,7.1a2,2,0,0,0-.7,2.7,2,2,0,0,0,2.7.7c3.9-2.4,7.8-4.7,11.7-7.1A2.16,2.16,0,0,0,1645.3,398.5Z" transform="translate(-26.33 -38.2)"/><path d="M1229.3,416.8l-2.3-2.3a2.09,2.09,0,0,0-.6-.4,1.88,1.88,0,0,0-.8-.2,1.2,1.2,0,0,0-.8.2c-.2.1-.5.2-.6.4a2.51,2.51,0,0,0-.6,1.4,2,2,0,0,0,.6,1.4l2.3,2.3a2.09,2.09,0,0,0,.6.4,1.88,1.88,0,0,0,.8.2,1.2,1.2,0,0,0,.8-.2c.2-.1.5-.2.6-.4a2.51,2.51,0,0,0,.6-1.4A2,2,0,0,0,1229.3,416.8Z" transform="translate(-26.33 -38.2)"/><path d="M1084.7,975a2,2,0,0,0,0,4A2,2,0,0,0,1084.7,975Z" transform="translate(-26.33 -38.2)"/><path d="M1182.4,824.2a2,2,0,0,0-1.4-.6h-2.3a1.2,1.2,0,0,0-.8.2c-.2.1-.5.2-.6.4a2.09,2.09,0,0,0-.4.6,1.88,1.88,0,0,0-.2.8,1.82,1.82,0,0,0,.6,1.4,2,2,0,0,0,1.4.6h2.3a1.2,1.2,0,0,0,.8-.2c.2-.1.5-.2.6-.4a2.09,2.09,0,0,0,.4-.6,1.88,1.88,0,0,0,.2-.8A2.51,2.51,0,0,0,1182.4,824.2Z" transform="translate(-26.33 -38.2)"/><path d="M727.8,1362.4h-4.7a1.82,1.82,0,0,0-1.4.6,2.25,2.25,0,0,0-.6,1.4,2,2,0,0,0,2,2h4.7a1.82,1.82,0,0,0,1.4-.6,2.25,2.25,0,0,0,.6-1.4A2,2,0,0,0,727.8,1362.4Z" transform="translate(-26.33 -38.2)"/><path d="M977,1184.1a2.18,2.18,0,0,0-3,0l-5,5a2.2,2.2,0,0,0-.6,1.5,2,2,0,0,0,.6,1.5,2.17,2.17,0,0,0,3,0l5-5a2.2,2.2,0,0,0,.6-1.5A2,2,0,0,0,977,1184.1Z" transform="translate(-26.33 -38.2)"/><path d="M1631.2,788.4c-.1-.2-.2-.5-.4-.6a2.51,2.51,0,0,0-1.4-.6,2,2,0,0,0-1.4.6l-2.3,2.3a2.09,2.09,0,0,0-.4.6,1.88,1.88,0,0,0-.2.8,1.2,1.2,0,0,0,.2.8c.1.2.2.5.4.6a2.51,2.51,0,0,0,1.4.6,2,2,0,0,0,1.4-.6l2.3-2.3a2.09,2.09,0,0,0,.4-.6,1.7,1.7,0,0,0,0-1.6Z" transform="translate(-26.33 -38.2)"/><path d="M597.8,313.5l-2.3-2.3a2.09,2.09,0,0,0-.6-.4,1.88,1.88,0,0,0-.8-.2,1.2,1.2,0,0,0-.8.2c-.2.1-.5.2-.6.4a2.51,2.51,0,0,0-.6,1.4,2,2,0,0,0,.6,1.4l2.3,2.3a2.09,2.09,0,0,0,.6.4,1.88,1.88,0,0,0,.8.2,1.2,1.2,0,0,0,.8-.2c.2-.1.5-.2.6-.4a2.51,2.51,0,0,0,.6-1.4A3.51,3.51,0,0,0,597.8,313.5Z" transform="translate(-26.33 -38.2)"/><path d="M218.2,963c-2.9,0-2.9,4.5,0,4.5C220.9,967.4,220.9,963,218.2,963Z" transform="translate(-26.33 -38.2)"/><path d="M356.4,1176.9c-2.9,0-2.9,4.5,0,4.5S359.3,1176.9,356.4,1176.9Z" transform="translate(-26.33 -38.2)"/><path d="M122.2,1302.4h-5a2,2,0,0,0-1.5.6,2.53,2.53,0,0,0-.6,1.5,2.11,2.11,0,0,0,2.1,2.1h5a2,2,0,0,0,1.5-.6,2.53,2.53,0,0,0,.6-1.5A2,2,0,0,0,122.2,1302.4Z" transform="translate(-26.33 -38.2)"/><path d="M633.1,1264.7c-.1-.2-.2-.5-.4-.6a2.81,2.81,0,0,0-1.5-.6,2.2,2.2,0,0,0-1.5.6l-2.4,2.4a2.09,2.09,0,0,0-.4.6,2,2,0,0,0-.2.9,1.49,1.49,0,0,0,.2.9c.1.2.2.5.4.6a2.81,2.81,0,0,0,1.5.6,2.2,2.2,0,0,0,1.5-.6l2.4-2.4a2.09,2.09,0,0,0,.4-.6,2,2,0,0,0,.2-.9A1.34,1.34,0,0,0,633.1,1264.7Z" transform="translate(-26.33 -38.2)"/><path d="M1623,1053.8c-2.4,0-2.4,3.8,0,3.8S1625.4,1053.8,1623,1053.8Z" transform="translate(-26.33 -38.2)"/><path d="M1653.1,945.2a2,2,0,0,0,0,4A2,2,0,0,0,1653.1,945.2Z" transform="translate(-26.33 -38.2)"/><path d="M1508,1003.5a2,2,0,0,0,0,4A2,2,0,0,0,1508,1003.5Z" transform="translate(-26.33 -38.2)"/><path d="M1580.4,946.2a2,2,0,0,0-2.5-1.4c-2.3.8-4.7,1.6-7,2.3a2.08,2.08,0,0,0-1.4,2.5,2,2,0,0,0,2.5,1.4l7-2.3A2.08,2.08,0,0,0,1580.4,946.2Z" transform="translate(-26.33 -38.2)"/><path d="M2443.59,562.58a2,2,0,0,0,0,4A2,2,0,0,0,2443.59,562.58Z" transform="translate(-26.33 -38.2)"/><path d="M2353,764.15a2,2,0,0,0,0,4A2,2,0,0,0,2353,764.15Z" transform="translate(-26.33 -38.2)"/><path d="M2143.7,557.8a2,2,0,0,0,0,4A2,2,0,0,0,2143.7,557.8Z" transform="translate(-26.33 -38.2)"/><path d="M360.3,1396.8a2,2,0,0,0,0,4A2,2,0,0,0,360.3,1396.8Z" transform="translate(-26.33 -38.2)"/><path d="M355.5,1247.5c-2.8,0-2.8,4.3,0,4.3S358.2,1247.5,355.5,1247.5Z" transform="translate(-26.33 -38.2)"/><path d="M304.5,1466.7a2,2,0,0,0,0,4A2,2,0,0,0,304.5,1466.7Z" transform="translate(-26.33 -38.2)"/><path d="M252.8,1307.1a2,2,0,0,0,0,4A2,2,0,0,0,252.8,1307.1Z" transform="translate(-26.33 -38.2)"/><path d="M278.2,1248.5a2.15,2.15,0,0,0-2.7-1.5c-2.4.9-5,1.7-7.4,2.4a2.23,2.23,0,0,0-1.5,2.7,2.15,2.15,0,0,0,2.7,1.5l7.4-2.4A2.23,2.23,0,0,0,278.2,1248.5Z" transform="translate(-26.33 -38.2)"/><path d="M293.7,1524.1a2,2,0,0,0-1.4-.6H290a1.2,1.2,0,0,0-.8.2c-.2.1-.5.2-.6.4a2.09,2.09,0,0,0-.4.6,1.88,1.88,0,0,0-.2.8,1.82,1.82,0,0,0,.6,1.4,2,2,0,0,0,1.4.6h2.3a1.2,1.2,0,0,0,.8-.2c.2-.1.5-.2.6-.4a2.09,2.09,0,0,0,.4-.6,1.88,1.88,0,0,0,.2-.8A2.51,2.51,0,0,0,293.7,1524.1Z" transform="translate(-26.33 -38.2)"/><path d="M2322.07,1109.23a433,433,0,0,0-62.22-133.76c-15.63-22.8-31.37-45.4-41.93-71.13-10-24.12-16.15-49.55-21.32-75.09-10.66-54.11-17.08-109-31.26-162.63-12.63-47.93-30-101.53-69.36-134.57-17.81-14.89-39.75-25.43-63-26.55-25-1.21-48.76,8.41-69.67,20.88-22.77,13.58-44,30.19-64.18,47.12-10.46,8.81-21,17.63-30.64,27.25-8,7.91-15.53,17.23-19.46,27.77-3.42,8.61-3.63,17.63.31,25.74a2.21,2.21,0,0,0-.93,2.53c3.52,18.64,6.83,37.69,10.14,56.24a61.82,61.82,0,0,1,1.24,13.17,46.33,46.33,0,0,1-2.59,12.56A142.87,142.87,0,0,1,1846.39,762a77.87,77.87,0,0,1-6.94,10.54,36,36,0,0,0-3.62,5.16,5.73,5.73,0,0,0,.93,6,28.25,28.25,0,0,0,4.35,3.55c1.55,1.11,3.31,2.33,4.76,3.45a50.71,50.71,0,0,1,8.28,8,42.17,42.17,0,0,1,5.7,10.64c1.55,4.26,3.1,8.82,4.65,13.17,3.32,8.92,6.42,17.84,9.63,26.86,1.45,4.25,3,8.61,4.45,12.86,1.35,3.55,2.7,7.4,4.87,10.54a24.45,24.45,0,0,0,8.07,8.11,37.78,37.78,0,0,0,11.08,4.25c1.86.41,3.83.81,5.69,1.22a3.62,3.62,0,0,0,2.07-.3h.83c.11,0,.11,0,.21.1a3.33,3.33,0,0,0,1.24.81c.21,0,.42.1.62.1a2.88,2.88,0,0,0,1.76.81c.21,0,.31,0,.42-.1a17.34,17.34,0,0,1,5.38,4,22.08,22.08,0,0,1,1.14,2.13c2.69,5.07,5.69,9.83,8.8,14.69a107.72,107.72,0,0,1,7.76,21.38,109.4,109.4,0,0,1,4.25,27.77c.41,9.73-.11,19.25-3.63,28.37-6.52,17.33-20.49,30.2-33.85,42.25-7.45,6.69-14.7,13.28-21.53,20.68-7,7.6-14,15.4-21,23.2s-14,15.5-21.11,23.2c-3.42,3.65-6.83,7.4-10,11.25a4.73,4.73,0,0,1-.25.66c-.53,3.15-1.06,6.31-1.83,9.42a36.44,36.44,0,0,1-2,5.61,4.66,4.66,0,0,1-.12.63c-.31,3.65-.93,7.5-1.55,11a133.87,133.87,0,0,1-5.64,15.81,5.52,5.52,0,0,1-.26,1.22,31.31,31.31,0,0,1-2,8.32,105.64,105.64,0,0,1-4.5,19.58q-.55,2.55-1.09,5.1c0,.06,0,.13.07.2-.12.37-.26.73-.38,1.09a13.83,13.83,0,0,0-.53,2.29l-.21,1.53a1.43,1.43,0,0,1,0,.23l0-.09c0,.22-.07.45-.1.67,0,.07,0,.15,0,.22s-.1.11-.16.15q-.66,3.14-1.35,6.3c-5.69,29-10.45,58.47-14.7,87.75-2.17,14.7-3.52,29.59-2.69,44.39.31,7.6.93,14.89,1,22.49s-.63,15.2-1.35,22.6c-.4,3.62-.8,7.25-1.2,11a6.57,6.57,0,0,0-.29,1.4c0,.3,0,.6,0,.9l-.06.19c-.13.49-.3,1-.41,1.51l-.12.33a7,7,0,0,0-.79,1.79,2.38,2.38,0,0,0,.95,2.63,2.58,2.58,0,0,0,2.05.24,3.4,3.4,0,0,0,2.16-1.93c.16-.35.29-.71.42-1.07a6.89,6.89,0,0,0,.64-1.12,9,9,0,0,0,.38-1c.08-.24.17-.48.25-.73a4.59,4.59,0,0,0,.19-1.61v0c1.71-13.8,3.1-27.5,2.59-41.3-.31-7.6-.93-15.2-1.14-22.8a183,183,0,0,1,1.14-22.6c1.45-15.2,4.24-30.19,6.62-45.29.36-2.17.71-4.35,1.06-6.52a5.51,5.51,0,0,1,.08-1,10.06,10.06,0,0,1,.29-1.26c1.92-11.8,3.89-23.63,6.13-35.33,2.8-14.69,5.69-29.18,9.21-43.77,1.76-7.4,3.73-14.49,5.7-21.79,2.07-7.09,4.24-14,5.9-21.28.52-2.24.92-4.49,1.33-6.73,0-.11,0-.21,0-.32a5.8,5.8,0,0,1,.13-1.66,5.28,5.28,0,0,1,1.76-6.14c2.19-2.72,4.71-5.25,7.11-7.85,7-7.8,14.18-15.6,21.22-23.4s14-15.51,21.12-23.21c6.94-7.5,14.29-14.29,21.84-21.18,13.88-12.46,28.06-25.53,35.3-43.06,3.94-9,5-19,4.77-28.88a123.33,123.33,0,0,0-3.73-28.27c-.41-1.42-.83-2.63-1.14-4.15,2.59,3.85,5.28,7.7,7.87,11.75a689.89,689.89,0,0,1,55,96.67c15.73,33.94,29.6,68.7,43,103.66,1.55,4.25,3.41,8.61,5,13a2,2,0,0,0,.83,1c.2.41.41.81.62,1.22a149.75,149.75,0,0,1,.31,28.88,119.06,119.06,0,0,1-6,29,91.25,91.25,0,0,1-5.9,13.57c-2.07,3.65-4.24,8-7.86,10.34a5.94,5.94,0,0,1-5.91.41c-1.76-1-2.89-2.44-2.38-4.36a2,2,0,0,0-1.34-2.64,2.14,2.14,0,0,0-.62-1l-1.35-1.32c-2.07-19.65-6.83-38.91-15.53-56.74-8.9-17.73-21.63-34-38.09-45.4a143.77,143.77,0,0,0-12.74-7.5c-.1,0-.1,0-.2-.1a2.34,2.34,0,0,0-2.38-2.43c-4.66-.3-8.91-3-12.63-5.77-2.07-1.42-4.25-2.94-6.42-4.26a47.17,47.17,0,0,0-7.56-3.55c-5.49-2.23-11.18-3.54-16.87-5.16a175.73,175.73,0,0,0-17.91-4.16,80.26,80.26,0,0,0-18.32-1.32c-5.18.31-11.5.81-15.53,4.26-3.52,3.24-3.94,9.42.2,12.26,2.28,1.52,5.18,1.22,7.66,2.13s4.87,2.23,7.56,2.94c5.59,2.12,11.49.4,17.19,1.72a123.67,123.67,0,0,1,15.52,4.76,241,241,0,0,1,27.23,11.05,87.44,87.44,0,0,1,23.4,16.51,57.46,57.46,0,0,1,9.21,12.26c3,5.07,5.69,10,9.11,14.7,3.62,4.66,7.45,8.91,11.28,13.47a156.1,156.1,0,0,1,9.94,13c5.9,8.92,11.39,18.34,18.43,26.45.93,1.12,1.86,2.23,2.69,3,2.07,21.69.83,43.17-1.35,64.65q-3.72,36-10.14,71.64c-8.28,47.52-20.5,94.54-39.24,139.12-2.38,5.48-4.76,11-7.35,16.42a10.45,10.45,0,0,0-1,2.43c.83.31,1.45.61,2.28.91a3,3,0,0,1,1,.81c20.81-44.07,34.78-91.5,44.31-139.32,4.86-24.42,8.69-49,11.7-73.87,3-24.12,5.48-48.44,4.24-72.86,3,2.53,7.87,3.65,11.59,2.13,8.08-3.55,12.32-14.19,15.53-21.79,6.73-16.31,9.11-33.84,9-51.27a272.42,272.42,0,0,1,11.7,39.22,521.65,521.65,0,0,1,9,58.26c2.07,20,3.52,39.82,5.18,59.78s3.83,39.73,7.25,59.38c3.62,21.18,9.83,41.75,14.18,62.83.41,1.82.83,3.54,1.14,5.37a2.1,2.1,0,0,0-.31,2.63c21.11,40.74,79.4,35.16,116.46,26.55,9.52-2.23,18.84-4.86,28.26-7.8,3.62-1.42,7.35-2.74,11.07-4a7,7,0,0,1,1.45-.31c12.43-4.36,24.85-9.32,37-14.39,10-4.15,20.08-9,26.4-18.44,6.62-9.42,8.07-21.48,9-32.63C2346.6,1307.32,2348.26,1205.29,2322.07,1109.23Zm-315.33,95.45c-2.69-4.26-5.69-8.82-8.9-13-3.52-4.56-7-8.82-10.77-13a118.47,118.47,0,0,1-10-13.48c-3-4.76-5.59-9.83-9-14.19a79.56,79.56,0,0,0-21-19c-8.07-5.16-17.08-9-26-12.56-4.35-1.82-9.11-3.34-13.56-4.86-5.18-1.83-10.46-3.75-15.74-4.36a62,62,0,0,0-8.8-.31,19.34,19.34,0,0,1-7.56-1.41c-2.48-1.12-4.86-2.44-7.55-2.64-1.24-.2-2.59-.2-3.94-.4-.82-.21-1.24-.61-1.34-1.12a3.93,3.93,0,0,1,1.24-4,10.91,10.91,0,0,1,5.9-2.43,60.76,60.76,0,0,1,17.19-.31c11.59,1.22,23.29,4.56,34.26,7.91a50.39,50.39,0,0,1,14.49,6.58c4.14,2.54,7.66,5.78,12.32,7.6a29,29,0,0,0,6.11,1.72c-.21.31,0,1.12,1,1.52,37.37,17.84,57.35,58.17,63,97.38.1.41.1,1,.21,1.42C2014,1216.43,2010.37,1210.45,2006.74,1204.68Zm10.15-155.34c-15-33.44-31.78-66.37-52-97-9.32-14.39-19.77-28.78-29-43.68-.41-1-.93-2-1.24-2.63A107.88,107.88,0,0,0,1928,893.8a40.79,40.79,0,0,0-3.93-5.27,203.63,203.63,0,0,1-13-28.88c-12-33.44-15-69-20.29-104.06-2.59-17.64-5.9-35.27-11.08-52.39-2.49-8.51-5.9-16.72-9.11-24.93-3.31-8.41-6.32-16.82-6.63-25.74a31.81,31.81,0,0,1,1-9.42c5.69,5.17,8.8,12.46,11.18,19.56,3.62,10.43,7,20.87,10.56,31.31,7,20.87,14.39,42,21.74,62.82,14.7,42.15,29.81,84,45.13,125.85,7.56,20.77,15.43,41.55,23.5,62a495.94,495.94,0,0,0,27.23,58c5.17,9.12,10.25,18.54,14.7,28,4.45,9.93,8.28,20.07,12,30.5,6.93,20.57,13.56,41.35,18.53,62.52,1,4.06,1.86,8,2.58,12.26C2040.9,1106.59,2029.52,1077.61,2016.89,1049.34Zm320.5,305.51c-.62,11.85-1.35,23.4-2.18,35.36-.82,11.55-1,23.71-4.34,35.06-3.94,12.57-13.15,20-24.85,25.13-11.49,5.27-23.6,9.73-35.3,14-24.95,9-50.93,16.71-77.74,19.15-20.29,2-41.93.6-59.94-9.73a47.66,47.66,0,0,1-18.12-17.63,2.51,2.51,0,0,0,0-1.22c-3.93-21.38-10.35-42.25-14.39-63.33-3.72-19.66-6-39.52-7.76-59.58s-3.31-39.82-5.18-59.89c-2.07-20-4.24-39.62-8.28-59.27a313.87,313.87,0,0,0-17.29-56.34c-.41-.92-.83-1.83-1.24-2.54-2.07-20.26-7.35-40.22-13.25-59.68-6.63-21.68-13-43.47-22.36-64.24-9.21-20.47-21.64-39.42-31.16-59.89-9.94-21.18-17.81-43.06-25.78-65-16.35-44.08-32.61-88.46-48.24-133-7.76-22.29-15.53-44.48-23.29-66.77-3.83-11.25-7.56-22.6-11.49-33.54-3-8.92-5.49-18.54-10.66-26.45a28.74,28.74,0,0,0-9-8.92c-1.35-1-3.11.11-3.62,1.42-6.11,16.93,2.07,34.35,8,50.26,6.52,16.72,10.66,34.05,13.87,51.68,6.42,35.26,8.7,71.24,18.22,105.79a219.77,219.77,0,0,0,14.18,37.29,3.33,3.33,0,0,1-1.24-.1,8.81,8.81,0,0,0-6.42-.92c-6.93-1.31-14-2.93-18.84-8.61-2.38-2.53-3.93-5.88-5.28-9-1.45-3.85-2.9-7.8-4.24-11.95-3.11-8.82-6.32-17.64-9.32-26.45-1.45-4.36-3.11-8.82-4.76-13.27a59.54,59.54,0,0,0-5.18-12.16c-4.14-7.1-10.35-12.27-17-16.62-1.24-.81-3-1.52-3.83-2.64-.62-1.11,1.25-2.63,1.76-3.54a105.38,105.38,0,0,0,7.35-10.44,182.63,182.63,0,0,0,11.29-23,96.5,96.5,0,0,0,3.62-12.47,39,39,0,0,0,.1-13.47c-1.24-9.12-3.1-18.55-4.76-27.77s-3.41-18.44-5-27.66c-.31-1.82-.82-3.55-1-5.27a2.45,2.45,0,0,0,1.24-3.44c-12.84-22.9,13.56-46.62,28.88-60.4a659.1,659.1,0,0,1,62-49.45c19.88-14,41.41-27.25,65.43-32.12,23.81-4.86,47.93.81,68.42,13.68,43.17,26.85,63.05,78,76.71,124.44,15,50.56,22.47,102.74,31.37,154.62,8.59,49.35,20,98.4,47,141.16,13.56,21.68,29.4,41.74,42,63.73a416.45,416.45,0,0,1,29.71,63.74C2338.84,1163.44,2342.05,1260.71,2337.39,1354.85Z" transform="translate(-26.33 -38.2)"/><path class="cls-6" d="M1960,1521.53c-22.15,12-47.62,17.13-72.77,16.32a149.12,149.12,0,0,1-71.33-20.67,133.85,133.85,0,0,1-52.8-58.57,122.53,122.53,0,0,1-10.76-40c-1.35-15.2.72-30.5,4.55-45.29,4.14-15.81,10.15-31.11,15.84-46.41,6.11-16.11,12.22-32.12,18.33-48.23q2.16-5.78,4.34-11.55c.93-2.44-3.1-3.55-4.14-1q-9.17,24.48-18.53,49c-1.55,4.15-3.21,8.3-4.76,12.46v-.1a5.19,5.19,0,0,1-.83,1.21c-.62,2-1.45,4-2.28,6a13.93,13.93,0,0,1-.93,3c-.1.2-.2.41-.31.61a25.78,25.78,0,0,1-.72,2.74.1.1,0,0,0,.1-.11c-2.59,7.1-5.07,14.19-7.35,21.38-4.76,15.31-8.07,31.32-8,47.43a121.76,121.76,0,0,0,7.87,41.64,139.14,139.14,0,0,0,21.22,37.29,137.48,137.48,0,0,0,29.4,27.26,150.56,150.56,0,0,0,34.26,17.23,161.25,161.25,0,0,0,37.79,8.2,158.22,158.22,0,0,0,38.51-1.11,145.33,145.33,0,0,0,36.85-10.84c2.9-1.32,5.7-2.64,8.49-4.16C1964.51,1523.87,1962.33,1520.22,1960,1521.53Z" transform="translate(-26.33 -38.2)"/><path d="M1811.84,1184.31c-12.86,1.15-25.76,2.64-38.68,3v-.06c-4.18.18-8.44,0-12.58-.2-21.94-1.43-43.79-6.9-66-4.59-11.21,1.26-21.65,4.88-31.75,9.52-10.81,4.67-21.51,9.75-32.41,14.73-10.81,4.77-21.51,9.74-32.42,14.72-5,2.22-9.9,4.43-14.7,6.75a39.46,39.46,0,0,0-10.44,7,18.63,18.63,0,0,0-5.58,10.31,2.54,2.54,0,0,0,1.81,3,2.57,2.57,0,0,0,1.52-.15c3.51,2.07,7.67,2.26,11.6,1.53,5.14-1,9.62-3.91,14.33-5.81a63.7,63.7,0,0,1,11.45-3.34,5.7,5.7,0,0,1,2.28-5.45c.1-.11.2-.11.3-.22a1.61,1.61,0,0,1,.39-.52,81.26,81.26,0,0,0-12.79,3.17c-4.82,1.59-9.09,4.41-13.91,6-3.51,1.24-7.86,1.68-11.27-.5,2.26-6.07,8.94-9.69,14.84-12.55,10.2-4.65,20.51-9.41,30.92-14s20.8-9.52,31.21-14.07c10.11-4.54,20-9.59,30.74-12.91,20.5-6.3,42.1-2.58,62.85-.29,9.64,1,19.55,2.5,29.28,2v0c13-.3,26.06-1.81,39-3a2.05,2.05,0,0,0,2-2A2,2,0,0,0,1811.84,1184.31Z" transform="translate(-26.33 -38.2)"/><path d="M1803.45,1233.81c-7.24,6-15,11.88-24,15-5,1.72-10.31,2.76-15.48,4-2.47.6-5,1.28-7.47,1.63a47,47,0,0,1-8.13.16l-18.27-.6a1.93,1.93,0,0,0-.55.06,2.05,2.05,0,0,0-.72-.13,2.07,2.07,0,0,1-1.27,0,2,2,0,0,0-.94.23c-7.49-.9-15-1.46-22.56-1.67-6-.14-11.64.65-16.6,4.42a52.7,52.7,0,0,1-7.35,5.29,58.86,58.86,0,0,1-8.31,3.56c-6.11,2.35-12.12,4.91-18.35,6.85-2.51.8-5.53,1.41-8.2.45a6.21,6.21,0,0,1-3.88-4.54c-.38-2.48,2.11-4.21,3.79-5.5,2.28-1.83,4.46-3.65,6.94-5.28a124.87,124.87,0,0,1,14.94-9.24,127.25,127.25,0,0,1,34.81-12.31,1.7,1.7,0,0,0,1.72-.36.38.38,0,0,0,.3-.11,2.07,2.07,0,0,0,1.34-2.63,2.11,2.11,0,0,0-2.57-1.38c-.21,0-.41.12-.51.12a199.22,199.22,0,0,0-23.61-6.66,2,2,0,0,0-3-1.15c-.2.11-.5.32-.7.43-2.45-.55-5.1-1-7.54-1.43a1.83,1.83,0,0,0-2-1.4,137.72,137.72,0,0,0-47.18,8.84,134.87,134.87,0,0,0-12.42,5.44,2.33,2.33,0,0,0-.72,2.92,2.22,2.22,0,0,0,2.86.75,140.24,140.24,0,0,1,46.75-13.28c-4.71,1.9-9.32,3.79-14,5.69s-9.42,3.69-14,5.8a68.23,68.23,0,0,0-11.15,6.85c-3.38,2.48-6.75,5-10.56,6.31a11.62,11.62,0,0,1-6.46.92c-1.13-.38-2.9-1.89-1.62-3.17,1.87-1.91-1-4.83-3-2.91a5.37,5.37,0,0,0-1.15,5.83,6.75,6.75,0,0,0,5.2,4.3c4.58.91,9.59-1.21,13.58-3.5a4.86,4.86,0,0,0,.93,4,6.2,6.2,0,0,0,5.34,2.33c4.05.09,8-2,11.33-4.16,2.29-1.52,4.47-3.14,6.65-4.86a6.48,6.48,0,0,0,3.18,4.67c3.4,2,7.09,0,9.55-2.56,2.86-2.77,5.4-6,8.26-8.83a92.57,92.57,0,0,1,9.1-7.83,83.57,83.57,0,0,1,9.44-6.39c6.22,1.37,12.35,3,18.59,4.84a135.89,135.89,0,0,0-26.17,9.78,119.72,119.72,0,0,0-15.64,9.26c-2.49,1.73-5.07,3.67-7.44,5.6-2.18,1.72-4.76,3.56-6.21,6-2.9,5,.82,10.85,5.64,12.78,6.26,2.4,13.35-1.22,19.16-3.36,6.12-2.36,12.55-4.41,18.44-7.38a48.11,48.11,0,0,0,7.65-5.3,18.15,18.15,0,0,1,8-3.86,44.38,44.38,0,0,1,10.43-.2c3.86.2,7.62.4,11.48.7a222.15,222.15,0,0,1,23.31,3.25,1.9,1.9,0,0,0,.75,0,13.18,13.18,0,0,0,1.22.26,2.18,2.18,0,0,0,.7-.13,2.22,2.22,0,0,0,.37,0,2,2,0,0,0,.44,0,56.41,56.41,0,0,0,16.81.32c10.6-1.56,20.71-5.89,30.19-10.94l.92-.47a14,14,0,0,0,1.89-1l3.15-1.52a15.35,15.35,0,0,0,4.63-2.82,2.16,2.16,0,0,0,.51-1.83,2.65,2.65,0,0,0,.21-.26,1.73,1.73,0,0,0,.2-.41l.18-.14a2,2,0,0,0,0-2.83,1.89,1.89,0,0,0-.73-.45c.83-.67,1.65-1.35,2.47-2C1808.25,1235,1805.41,1232.17,1803.45,1233.81Zm-143.51-8.12c-.8.64-1.59,1.18-2.38,1.83a2.08,2.08,0,0,0-1.06-1.53C1657.61,1225.86,1658.82,1225.82,1659.94,1225.69Zm-23,17.65c-4,2.92-7.72,6.13-11.8,8.74a27.85,27.85,0,0,1-6,2.14c-.61.12-4.55.34-3.69-1.24a1.87,1.87,0,0,0-.89-2.77c2.88-1.94,5.55-4.2,8.54-5.94,4.58-2.83,9.7-4.64,14.71-6.65,4.81-1.9,9.52-3.9,14.33-5.8Zm16.82-3.7c-1.57,1.6-3.15,3.2-4.72,4.9a51.6,51.6,0,0,1-3.92,4.36c-.89.86-2.57,2.36-4,1.78-.71-.19-2-1.39-1.37-2a1.83,1.83,0,0,0,.12-2.49c3.87-2.91,7.74-5.92,11.61-8.73,4.26-3.23,8.63-6.57,13-9.81a5.63,5.63,0,0,0,.79-.85c1.32.27,2.55.45,3.87.72A96.28,96.28,0,0,0,1653.75,1239.64Z" transform="translate(-26.33 -38.2)"/><path class="cls-6" d="M1198.2,1327q-49,13.95-98.2,27.8c-15.9,4.5-31.8,9.1-48.2,11.4s-33,2.9-49.5,4.9c-31,3.9-61.6,10.4-91.9,18-30.7,7.6-61,16.1-91.7,23.7s-61.6,14.3-93,18.2c-3.9.5-7.7.8-11.6,1.2-2.5.3-2.6,4.3,0,4,31.4-3.1,62.4-9.1,93-16.5,30.8-7.3,61.1-15.8,91.8-23.6s61.5-15,92.8-19.6c16.1-2.4,32.2-3.5,48.3-5a287.72,287.72,0,0,0,48.6-9.4c32.8-9.1,65.7-18.6,98.5-27.9,4-1.1,8.1-2.3,12.1-3.5C1201.8,1330.2,1200.8,1326.2,1198.2,1327Z" transform="translate(-26.33 -38.2)"/><path d="M1813.06,1180.49c.22-.3.44-.6.64-.89a15.67,15.67,0,0,0,2.1-6.3,4.19,4.19,0,0,0-.2-1.44C1814.84,1174.76,1814,1177.64,1813.06,1180.49Z" transform="translate(-26.33 -38.2)"/><path class="cls-3" d="M1819,300.5c-10.7-7-16.6-16.9-19.2-31.1a1.56,1.56,0,0,1,3.1-.3c4,26.1,23.3,39.7,55.1,38.7,11.3-.7,19.8.5,26.3,2.8a26.22,26.22,0,0,1,7.4,4.4c-2.5-7.3-8.5-18.7-16.6-29.1-13.4-15.8-27.2-22.4-42.8-19.7,0,0-.8-.6-1.7-1.4,0,0,.6-.8,1.4-1.7a47.5,47.5,0,0,1,25.6,3.6,69.66,69.66,0,0,1,19.6,16.6c10.9,13.8,17.5,29.7,18.9,35,0,0,.2,1.5-.6.8a1.11,1.11,0,0,1-1.5.2c-5.3-5.4-12-10.6-35.5-10-15.2.4-26.9-2-35.9-7.6A5.27,5.27,0,0,1,1819,300.5Z" transform="translate(-26.33 -38.2)"/><path class="cls-3" d="M1804.3,268.8c-7.4-4.4-14.3-11.1-20.6-18.7a1.07,1.07,0,0,1,1.3-1.7c18.8,22.7,39.3,27.7,57.5,33.8,12.5,3,24.5,6.8,33.9,15.5a1.07,1.07,0,1,1-1.3,1.7c-8.6-8-19.7-11.2-33.1-14.8C1829.5,281.7,1816.8,277.2,1804.3,268.8Z" transform="translate(-26.33 -38.2)"/><path class="cls-3" d="M1291.8,165.7c-12.1,4.2-20.3,12.3-26.2,25.4a1.55,1.55,0,0,0,2.9,1.1c10.3-24.3,32.3-32.7,62.9-24,10.8,3.4,19.3,4.4,26.1,3.7a25.53,25.53,0,0,0,8.3-2.5c-4.2,6.4-12.8,16-23.2,24.1-16.9,12-31.9,15-46.3,8.6l-2,.9s.4.9.9,2a48,48,0,0,0,25.6,2.8,71.49,71.49,0,0,0,23-11.2c14-10.7,24.3-24.5,26.9-29.2,0,0,.5-1.4-.4-.9a1.08,1.08,0,0,0-1.4-.5c-6.5,3.9-14.2,7.3-36.8,1-14.6-4.1-26.5-4.7-36.7-1.4A4,4,0,0,0,1291.8,165.7Z" transform="translate(-26.33 -38.2)"/><path class="cls-3" d="M1269.8,192.7c-8.3,2.5-16.6,7.3-24.6,13.1a1.05,1.05,0,0,0,.9,1.9c23.8-17.4,44.9-17.2,64.1-18.6,12.9.2,25.4-.6,36.7-6.7a1.05,1.05,0,1,0-.9-1.9c-10.3,5.6-21.8,6-35.7,6.2C1297.4,186.4,1284,187.7,1269.8,192.7Z" transform="translate(-26.33 -38.2)"/><path d="M1757.7,570.7a2,2,0,0,0,0,4A2,2,0,0,0,1757.7,570.7Z" transform="translate(-26.33 -38.2)"/><path d="M1795.3,422.7a2,2,0,0,0,0,4A2,2,0,0,0,1795.3,422.7Z" transform="translate(-26.33 -38.2)"/><path d="M1882.3,241a2,2,0,0,0-2.5-1.4c-2.3.8-4.7,1.6-7,2.3a2.08,2.08,0,0,0-1.4,2.5,2,2,0,0,0,2.5,1.4l7-2.3A2.08,2.08,0,0,0,1882.3,241Z" transform="translate(-26.33 -38.2)"/><path d="M1691.1,698a2,2,0,0,0-1.4-.6h-2.3a1.2,1.2,0,0,0-.8.2c-.2.1-.5.2-.6.4a2.09,2.09,0,0,0-.4.6,1.88,1.88,0,0,0-.2.8,1.82,1.82,0,0,0,.6,1.4,2,2,0,0,0,1.4.6h2.3a1.2,1.2,0,0,0,.8-.2c.2-.1.5-.2.6-.4a2.09,2.09,0,0,0,.4-.6,1.88,1.88,0,0,0,.2-.8A2.51,2.51,0,0,0,1691.1,698Z" transform="translate(-26.33 -38.2)"/><path d="M2497.8,1249.6a2,2,0,0,0,0,4A2,2,0,0,0,2497.8,1249.6Z" transform="translate(-26.33 -38.2)"/><path d="M2535.4,1101.6a2,2,0,0,0,0,4A2,2,0,0,0,2535.4,1101.6Z" transform="translate(-26.33 -38.2)"/><path d="M2400.4,1266.7c-2.4,0-2.4,3.8,0,3.8S2402.8,1266.7,2400.4,1266.7Z" transform="translate(-26.33 -38.2)"/><path d="M2419.8,1062.7a1.91,1.91,0,0,0-2.4-1.3c-2.2.8-4.4,1.5-6.6,2.2a2,2,0,0,0-1.3,2.4,1.91,1.91,0,0,0,2.4,1.3l6.6-2.2A2,2,0,0,0,2419.8,1062.7Z" transform="translate(-26.33 -38.2)"/><path d="M2390.2,1320.6a1.76,1.76,0,0,0-1.3-.6h-2.2a1.2,1.2,0,0,0-.8.2c-.2.1-.5.2-.6.4a2.09,2.09,0,0,0-.4.6,1.88,1.88,0,0,0-.2.8,1.61,1.61,0,0,0,.6,1.3,1.76,1.76,0,0,0,1.3.6h2.2a1.2,1.2,0,0,0,.8-.2c.2-.1.5-.2.6-.4a2.09,2.09,0,0,0,.4-.6,1.88,1.88,0,0,0,.2-.8A2.23,2.23,0,0,0,2390.2,1320.6Z" transform="translate(-26.33 -38.2)"/><path d="M2014.3,459.6c-.6-2.5-4.5-1.7-3.9.9S2014.9,462.2,2014.3,459.6Z" transform="translate(-26.33 -38.2)"/><path d="M2321.59,527.78c-.6-2.5-4.5-1.7-3.9.9S2322.19,530.28,2321.59,527.78Z" transform="translate(-26.33 -38.2)"/><path d="M1934,420c-.6-2.5-4.5-1.7-3.9.9S1934.6,422.6,1934,420Z" transform="translate(-26.33 -38.2)"/><path d="M2305,457a1.91,1.91,0,0,0,.8-2.7c-1.3-2.1-2.6-4.2-3.7-6.3a2,2,0,0,0-2.7-.8,1.91,1.91,0,0,0-.8,2.7l3.7,6.3A2.16,2.16,0,0,0,2305,457Z" transform="translate(-26.33 -38.2)"/><path d="M131.1,1074.5a2,2,0,0,0,0,4A2,2,0,0,0,131.1,1074.5Z" transform="translate(-26.33 -38.2)"/><path d="M168.7,872.5a2,2,0,0,0,0,4A2,2,0,0,0,168.7,872.5Z" transform="translate(-26.33 -38.2)"/><path d="M526.3,236.2a2,2,0,0,0,0,4A2,2,0,0,0,526.3,236.2Z" transform="translate(-26.33 -38.2)"/><path d="M96,927.6a2,2,0,0,0-2.5-1.4c-2.3.8-4.7,1.6-7,2.3a2.08,2.08,0,0,0-1.4,2.5,2,2,0,0,0,2.5,1.4l7-2.3A2.08,2.08,0,0,0,96,927.6Z" transform="translate(-26.33 -38.2)"/><path d="M64.5,1147.8a2,2,0,0,0-1.4-.6H60.8a1.2,1.2,0,0,0-.8.2c-.2.1-.5.2-.6.4a2.09,2.09,0,0,0-.4.6,1.88,1.88,0,0,0-.2.8,1.82,1.82,0,0,0,.6,1.4,2,2,0,0,0,1.4.6h2.3a1.2,1.2,0,0,0,.8-.2c.2-.1.5-.2.6-.4a2.09,2.09,0,0,0,.4-.6,1.88,1.88,0,0,0,.2-.8A2.51,2.51,0,0,0,64.5,1147.8Z" transform="translate(-26.33 -38.2)"/><path d="M1055.9,328a2,2,0,0,0,0,4A2,2,0,0,0,1055.9,328Z" transform="translate(-26.33 -38.2)"/><path d="M983.1,329a2,2,0,0,0-2.5-1.4c-2.3.8-4.7,1.6-7,2.3a2.08,2.08,0,0,0-1.4,2.5,2,2,0,0,0,2.5,1.4l7-2.3A2.08,2.08,0,0,0,983.1,329Z" transform="translate(-26.33 -38.2)"/><path d="M498.3,57.3a2,2,0,0,0-2.7-.7c-3.9,2.4-7.8,4.7-11.7,7.1a2,2,0,0,0-.7,2.7,2,2,0,0,0,2.7.7c3.9-2.4,7.8-4.7,11.7-7.1A2.16,2.16,0,0,0,498.3,57.3Z" transform="translate(-26.33 -38.2)"/><path d="M648.3,81.5a2,2,0,0,0,0,4A2,2,0,0,0,648.3,81.5Z" transform="translate(-26.33 -38.2)"/><path d="M575.5,82.5a2,2,0,0,0-2.5-1.4c-2.3.8-4.7,1.6-7,2.3a2.08,2.08,0,0,0-1.4,2.5,2,2,0,0,0,2.5,1.4l7-2.3A2.08,2.08,0,0,0,575.5,82.5Z" transform="translate(-26.33 -38.2)"/><path d="M787,78.8c-.6-2.5-4.5-1.7-3.9.9S787.6,81.4,787,78.8Z" transform="translate(-26.33 -38.2)"/><path d="M728.7,80.6a2.06,2.06,0,0,0,.3-1.5l-.5-2.2c-.1-.3-.1-.5-.4-.7a1.21,1.21,0,0,0-.5-.5c-.2-.2-.5-.2-.7-.3a1.1,1.1,0,0,0-.8,0,1.59,1.59,0,0,0-1.2.9,2.06,2.06,0,0,0-.3,1.5l.5,2.2c.1.3.1.5.4.7a1.21,1.21,0,0,0,.5.5c.2.2.5.2.7.3a1.1,1.1,0,0,0,.8,0A2.15,2.15,0,0,0,728.7,80.6Z" transform="translate(-26.33 -38.2)"/><path d="M2129.5,247.1a2,2,0,0,0-2.7-.7c-3.9,2.4-7.8,4.7-11.7,7.1a2,2,0,0,0-.7,2.7,2,2,0,0,0,2.7.7c3.9-2.4,7.8-4.7,11.7-7.1A2.16,2.16,0,0,0,2129.5,247.1Z" transform="translate(-26.33 -38.2)"/><path d="M2324.2,68a2,2,0,0,0,0,4A2,2,0,0,0,2324.2,68Z" transform="translate(-26.33 -38.2)"/><path d="M2251.4,69a2,2,0,0,0-2.5-1.4c-2.3.8-4.7,1.6-7,2.3a2.08,2.08,0,0,0-1.4,2.5,2,2,0,0,0,2.5,1.4l7-2.3A2.08,2.08,0,0,0,2251.4,69Z" transform="translate(-26.33 -38.2)"/><path d="M2462.9,65.3c-.6-2.5-4.5-1.7-3.9.9S2463.4,67.8,2462.9,65.3Z" transform="translate(-26.33 -38.2)"/><path d="M2404.6,67.1a2.06,2.06,0,0,0,.3-1.5l-.5-2.2c-.1-.3-.1-.5-.4-.7a1.21,1.21,0,0,0-.5-.5c-.2-.2-.5-.2-.7-.3a1.1,1.1,0,0,0-.8,0,1.59,1.59,0,0,0-1.2.9,2.06,2.06,0,0,0-.3,1.5l.5,2.2c.1.3.1.5.4.7a1.21,1.21,0,0,0,.5.5c.2.2.5.2.7.3a1.1,1.1,0,0,0,.8,0A3.45,3.45,0,0,0,2404.6,67.1Z" transform="translate(-26.33 -38.2)"/><path d="M1600.1,108.5a2,2,0,0,0,2.6,1.1c4.2-1.8,8.4-3.5,12.6-5.3a2,2,0,0,0,1.1-2.6,2,2,0,0,0-2.6-1.1c-4.2,1.8-8.4,3.5-12.6,5.3A2.34,2.34,0,0,0,1600.1,108.5Z" transform="translate(-26.33 -38.2)"/><path d="M1455.3,62.5c2.6.4,3.2-3.6.6-4S1452.8,62.1,1455.3,62.5Z" transform="translate(-26.33 -38.2)"/><path d="M1527.5,72.2a2.05,2.05,0,0,0,2.3,1.8c2.4-.5,4.9-.9,7.3-1.2a2.13,2.13,0,0,0,1.8-2.3,2.05,2.05,0,0,0-2.3-1.8l-7.3,1.2A2,2,0,0,0,1527.5,72.2Z" transform="translate(-26.33 -38.2)"/><path d="M1317.7,44.6a2,2,0,0,0,4-.3C1321.6,41.8,1317.6,42,1317.7,44.6Z" transform="translate(-26.33 -38.2)"/><path d="M1375.7,51.5a1.87,1.87,0,0,0-.5,1.4l.2,2.3a.91.91,0,0,0,.3.8c.1.2.2.5.4.6a2.09,2.09,0,0,0,.6.4,1.06,1.06,0,0,0,.8.1,1.91,1.91,0,0,0,1.4-.7,1.87,1.87,0,0,0,.5-1.4l-.2-2.3a.91.91,0,0,0-.3-.8c-.1-.2-.2-.5-.4-.6a2.09,2.09,0,0,0-.6-.4,1.06,1.06,0,0,0-.8-.1A1.75,1.75,0,0,0,1375.7,51.5Z" transform="translate(-26.33 -38.2)"/><path d="M59.9,734.6a2,2,0,0,0-.6,2.7c2.6,3.8,5,7.6,7.6,11.4a2,2,0,1,0,3.3-2.1c-2.6-3.8-5-7.6-7.6-11.4A2.07,2.07,0,0,0,59.9,734.6Z" transform="translate(-26.33 -38.2)"/><path d="M78,583.7c.1,2.6,4.1,2.4,4-.2S77.9,581.1,78,583.7Z" transform="translate(-26.33 -38.2)"/><path d="M69.8,445.2a2,2,0,0,0,1,3.9C73.3,448.4,72.3,444.5,69.8,445.2Z" transform="translate(-26.33 -38.2)"/><path d="M73.9,503.4a1.63,1.63,0,0,0-1.5-.2l-2.2.6c-.3.1-.5.1-.7.4a1.21,1.21,0,0,0-.5.5,1.85,1.85,0,0,0-.2.7,2.13,2.13,0,0,0,0,.8,1.86,1.86,0,0,0,.9,1.2,1.63,1.63,0,0,0,1.5.2l2.2-.6c.3-.1.5-.1.7-.4a1.21,1.21,0,0,0,.5-.5,1.85,1.85,0,0,0,.2-.7,1.83,1.83,0,0,0-.9-2Z" transform="translate(-26.33 -38.2)"/><path class="cls-2" d="M939.5,1077H495.9c-32.3,0-57.3-25-57.3-57.3V693.6c0-30.8,25-57.3,57.3-57.3H939.5c30.8,0,57.3,25,57.3,57.3v326.1C996.8,1052,971.8,1077,939.5,1077Z" transform="translate(-26.33 -38.2)"/><path class="cls-1" d="M447,671.75H433c-8.4,0-14-5.63-14-14v-14c0-8.4,5.64-14,14-14h14c8.4,0,14,5.63,14,14v14C461,666.12,455.39,671.75,447,671.75Zm98.12-14v-14c0-8.4-5.63-14-14-14h-14c-8.4,0-14,5.63-14,14v14c0,8.4,5.63,14,14,14h14C539.48,671.75,545.11,666.12,545.11,657.72Zm84.09,0v-14c0-8.4-5.63-14-14-14h-14c-8.4,0-14,5.63-14,14v14c0,8.4,5.63,14,14,14h14C623.57,671.75,629.2,666.12,629.2,657.72Zm84.1,0v-14c0-8.4-5.64-14-14-14h-14c-8.4,0-14,5.63-14,14v14c0,8.4,5.63,14,14,14h14C707.76,671.75,713.3,666.12,713.3,657.72Zm84.18,0v-14c0-8.4-5.63-14-14-14h-14c-8.4,0-14,5.63-14,14v14c0,8.4,5.63,14,14,14h14C791.85,671.75,797.48,666.12,797.48,657.72Zm84.09,0v-14c0-8.4-5.63-14-14-14h-14c-8.4,0-14,5.63-14,14v14c0,8.4,5.63,14,14,14h14C875.94,671.75,881.57,666.12,881.57,657.72Z" transform="translate(-26.33 -38.2)"/><path class="cls-1" d="M447,966.22H433c-8.4,0-14-5.63-14-14v-14c0-8.4,5.64-14,14-14h14c8.4,0,14,5.63,14,14v14C461,960.59,455.39,966.22,447,966.22Zm98.12-14v-14c0-8.4-5.63-14-14-14h-14c-8.4,0-14,5.63-14,14v14c0,8.4,5.63,14,14,14h14C539.48,966.22,545.11,960.59,545.11,952.19Zm84.09,0v-14c0-8.4-5.63-14-14-14h-14c-8.4,0-14,5.63-14,14v14c0,8.4,5.63,14,14,14h14C623.57,966.22,629.2,960.59,629.2,952.19Zm84.1,0v-14c0-8.4-5.64-14-14-14h-14c-8.4,0-14,5.63-14,14v14c0,8.4,5.63,14,14,14h14C707.76,966.22,713.3,960.59,713.3,952.19Zm84.18,0v-14c0-8.4-5.63-14-14-14h-14c-8.4,0-14,5.63-14,14v14c0,8.4,5.63,14,14,14h14C791.85,966.22,797.48,960.59,797.48,952.19Zm84.09,0v-14c0-8.4-5.63-14-14-14h-14c-8.4,0-14,5.63-14,14v14c0,8.4,5.63,14,14,14h14C875.94,966.22,881.57,960.59,881.57,952.19Z" transform="translate(-26.33 -38.2)"/><path class="cls-7" d="M713.3,1025.6h-282a59,59,0,0,1-58.8-58.8V629a59,59,0,0,1,58.8-58.8h29.4" transform="translate(-26.33 -38.2)"/><path class="cls-7" d="M544.4,570.2H886.6A59,59,0,0,1,945.4,629V966.8a59,59,0,0,1-58.8,58.8H797" transform="translate(-26.33 -38.2)"/><path class="cls-7" d="M710.4,830.2l27.9-14.7c13.2-7.3,13.2-26.4,0-33.8L620.8,718.5c-13.2-7.3-27.9,2.9-27.9,16.2V861c0,14.7,16.2,23.5,27.9,16.2L644.3,864" transform="translate(-26.33 -38.2)"/><line class="cls-8" x1="1111.97" y1="998.5" x2="1453.87" y2="975.7"/><line class="cls-8" x1="1172.27" y1="1286.5" x2="1111.97" y2="998.5"/><line class="cls-8" x1="1531.57" y1="1223.5" x2="1172.27" y2="1286.5"/><line class="cls-8" x1="1453.87" y1="975.7" x2="1531.57" y2="1223.5"/><line class="cls-8" x1="1134.97" y1="1013.8" x2="1447.17" y2="993"/><line class="cls-8" x1="1512.67" y1="1206.8" x2="1447.17" y2="993"/><line class="cls-8" x1="1134.97" y1="1013.8" x2="1190.17" y2="1263.3"/><line class="cls-8" x1="1512.67" y1="1206.8" x2="1190.17" y2="1263.3"/><line class="cls-8" x1="1174.17" y1="1288.5" x2="1417.27" y2="1382.5"/><line class="cls-8" x1="1531.57" y1="1223.5" x2="1742.77" y2="1280.4"/><line class="cls-8" x1="1417.27" y1="1382.5" x2="1737.77" y2="1305.7"/><line class="cls-8" x1="1237.97" y1="1299.3" x2="1366.97" y2="1347.6"/><line class="cls-8" x1="1671.17" y1="1277.4" x2="1366.27" y2="1347.7"/><line class="cls-8" x1="1236.77" y1="1298.9" x2="1536.97" y2="1241.6"/><line class="cls-8" x1="1671.17" y1="1277.4" x2="1536.97" y2="1241.6"/><line class="cls-8" x1="1171.67" y1="1295" x2="1414.77" y2="1389"/><line class="cls-8" x1="1415.67" y1="1389" x2="1733.87" y2="1313.1"/><line class="cls-8" x1="1174.17" y1="1288.5" x2="1171.67" y2="1295"/><line class="cls-8" x1="1293.17" y1="1303.7" x2="1538.57" y2="1255"/><line class="cls-8" x1="1320.67" y1="1312.7" x2="1561.67" y2="1264.2"/><line class="cls-8" x1="1351.97" y1="1323.7" x2="1594.87" y2="1270.4"/><line class="cls-8" x1="1377.57" y1="1333" x2="1619.57" y2="1279.4"/><path d="M1138.2,1034.8c-2.4,0-2.4,3.8,0,3.8S1140.7,1034.8,1138.2,1034.8Z" transform="translate(-26.33 -38.2)"/><path d="M1161.3,1050.1c-2.4,0-2.4,3.8,0,3.8S1163.7,1050.1,1161.3,1050.1Z" transform="translate(-26.33 -38.2)"/><path d="M1200.8,1325h0a2.1,2.1,0,0,0-.9-2.2.37.37,0,0,0-.3-.1l-.6-.3a1.89,1.89,0,0,0-2.3,1.3c-.3,1.5-.5,3.1-.7,4.7-.1.7-.1,1.4-.2,2.2,0,.4-.1.7-.1,1.1v.3c0,.2-.1.4-.1.6a1.81,1.81,0,0,0,1.3,2.3h0a1.61,1.61,0,0,0,.9.3,1.9,1.9,0,0,0,1.9-1.9c.1-.6.1-1.2.2-1.8,0-.3.1-.6.1-.9v-.6a10.46,10.46,0,0,1,.4-1.7c.1-.3.2-.5.3-.8a1,1,0,0,0,.1-.3c0-.1.1-.2.1-.3A2.51,2.51,0,0,0,1200.8,1325Z" transform="translate(-26.33 -38.2)"/><path d="M1216.6,1299.5a2.92,2.92,0,0,0-.9.2,1.9,1.9,0,0,0,.8,3.6,2.92,2.92,0,0,0,.9-.2A1.91,1.91,0,0,0,1216.6,1299.5Z" transform="translate(-26.33 -38.2)"/><path d="M1265.3,1336.1a1.44,1.44,0,0,0-1.1-.7,1.88,1.88,0,0,0-.8-.2c-2.2,0-2.4,3.1-.6,3.7a1.75,1.75,0,0,0,1.4.7A1.93,1.93,0,0,0,1265.3,1336.1Z" transform="translate(-26.33 -38.2)"/><path d="M1404.2,1369.3c-2.4,0-2.4,3.8,0,3.8S1406.6,1369.3,1404.2,1369.3Z" transform="translate(-26.33 -38.2)"/><path d="M1378.4,1359.9c-2.4,0-2.4,3.8,0,3.8S1380.8,1359.9,1378.4,1359.9Z" transform="translate(-26.33 -38.2)"/><path d="M1347.4,1348.9c-2.4,0-2.4,3.8,0,3.8S1349.8,1348.9,1347.4,1348.9Z" transform="translate(-26.33 -38.2)"/><path d="M1319.5,1340.1c-2.4,0-2.4,3.8,0,3.8A1.9,1.9,0,0,0,1319.5,1340.1Z" transform="translate(-26.33 -38.2)"/><path d="M1392.9,1383.7c-2.4,0-2.4,3.8,0,3.8S1395.3,1383.7,1392.9,1383.7Z" transform="translate(-26.33 -38.2)"/><path d="M1441.5,1425.6c-2.4,0-2.4,3.8,0,3.8S1443.9,1425.6,1441.5,1425.6Z" transform="translate(-26.33 -38.2)"/><path d="M1443.6,1418.8c-2.4,0-2.4,3.8,0,3.8S1446.1,1418.8,1443.6,1418.8Z" transform="translate(-26.33 -38.2)"/><path d="M1697.1,1313.7h-.4c-2.4,0-2.4,3.8,0,3.8h.4A1.9,1.9,0,0,0,1697.1,1313.7Z" transform="translate(-26.33 -38.2)"/><path d="M1645.3,1315.8c-2.4,0-2.4,3.8,0,3.8S1647.7,1315.8,1645.3,1315.8Z" transform="translate(-26.33 -38.2)"/><path d="M1620.7,1306.8c-2.4,0-2.4,3.8,0,3.8S1623.1,1306.8,1620.7,1306.8Z" transform="translate(-26.33 -38.2)"/><path d="M1587.1,1300.7c-2.4,0-2.4,3.8,0,3.8S1589.5,1300.7,1587.1,1300.7Z" transform="translate(-26.33 -38.2)"/><path d="M1563.4,1277.9c-2.4,0-2.4,3.8,0,3.8S1565.8,1277.9,1563.4,1277.9Z" transform="translate(-26.33 -38.2)"/><path d="M1564.7,1291.4c-2.4,0-2.4,3.8,0,3.8S1567.1,1291.4,1564.7,1291.4Z" transform="translate(-26.33 -38.2)"/><path d="M1538.9,1243c-2.4,0-2.4,3.8,0,3.8A1.9,1.9,0,0,0,1538.9,1243Z" transform="translate(-26.33 -38.2)"/><path d="M1473.4,1029.4c-2.4,0-2.4,3.8,0,3.8A1.9,1.9,0,0,0,1473.4,1029.4Z" transform="translate(-26.33 -38.2)"/><path d="M1480.2,1011.9c-2.4,0-2.4,3.8,0,3.8S1482.6,1011.9,1480.2,1011.9Z" transform="translate(-26.33 -38.2)"/><path class="cls-9" d="M1373.2,1155.29l5.57-4.8a4.58,4.58,0,0,0-1.75-7.75l-29.9-8.51a4.42,4.42,0,0,0-5.57,5.13l6.33,28.81a4.35,4.35,0,0,0,7.21,2.29l4.69-4.14" transform="translate(-26.33 -38.2)"/><line class="cls-10" x1="1211.67" y1="1240.8" x2="1329.07" y2="1220.3"/><line class="cls-11" x1="1329.07" y1="1220.3" x2="1489.37" y2="1193.7"/><ellipse class="cls-2" cx="1325.24" cy="1220.3" rx="10.11" ry="10.06"/><path class="cls-12" d="M1171.7,1375.1c-24,7.5-48.5,13.4-73.1,18.5s-49.4,9.2-74.1,13.3c-24.9,4.1-49.8,8-74.6,12.5-24.5,4.5-49,9.5-73.1,15.9a532.7,532.7,0,0,0-71,23.7l-8.4,3.6c-2.2,1-.3,4.2,1.9,3.2a513.2,513.2,0,0,1,70.6-24.7c24-6.6,48.4-11.9,72.9-16.5s49.2-8.6,73.9-12.6,49.6-8.1,74.2-13,49-10.4,73-17.5c3-.9,6-1.8,8.9-2.7C1175,1378,1174,1374.4,1171.7,1375.1Z" transform="translate(-26.33 -38.2)"/><path class="cls-12" d="M1270.8,1395a511.34,511.34,0,0,1-64.9,22.1c-22.1,6.1-44.5,11-67,15.6s-45,8.7-67.5,13.1-45,9.1-67.2,14.8a557.63,557.63,0,0,0-65.4,20.7c-2.6,1-5.3,2.1-7.9,3.2-2.2.9-1.2,4.5,1,3.6a556.7,556.7,0,0,1,65-21.7c22.2-6,44.6-10.8,67.1-15.3s45-8.6,67.5-13.1,45-9.2,67.2-15a550.59,550.59,0,0,0,65.2-21.1c1.5-.6,3-1.2,4.6-1.9a33.64,33.64,0,0,1-6.6,10.6c-3.6,4.1-7.5,8-11.4,11.8-7.6,7.4-15.7,14.5-24,21.1a389.12,389.12,0,0,1-53.4,35.4,549.69,549.69,0,0,1-58.5,27.9c-17.8,7.3-35.8,13.8-54,20-9.6,1.6-19.1,3.4-28.6,5.5-17.3,3.9-34.4,9.3-49.5,18.7-1.8,1.1-.6,4.1,1.4,3.4,21.2-6.2,42.3-12.5,63.3-19.3,4.8-1.5,9.5-3.1,14.3-4.7,4.9-.8,9.8-1.6,14.8-2.4,34.4-5.5,69.1-9.6,103.7-13.2,19.5-2,39.1-3.9,58.6-5.7,2.4-.2,2.4-4,0-3.8-35.1,3.3-70.2,6.6-105.2,10.9-17.2,2.1-34.4,4.4-51.5,7.1,9.3-3.3,18.6-6.8,27.8-10.5a562.27,562.27,0,0,0,59.5-27.5,395.5,395.5,0,0,0,54.6-35c8.6-6.6,16.8-13.5,24.7-20.9,4-3.7,7.9-7.6,11.6-11.5s7.7-8.1,10.2-12.9a22.85,22.85,0,0,0,2.6-7.6C1273.3,1396.1,1272.2,1394.4,1270.8,1395Zm-267.1,149.6a180.46,180.46,0,0,1,24-7.5c.7-.2,1.4-.3,2.2-.5C1021.1,1539.3,1012.4,1542,1003.7,1544.6Z" transform="translate(-26.33 -38.2)"/><path class="cls-12" d="M1377.2,1429.4c-17.5,8.4-36,14.4-54.6,19.9s-37.4,10.3-55.9,16.2c-10.4,3.4-20.8,7.1-30.8,11.4a2,2,0,0,0-.7,2.6,1.93,1.93,0,0,0,2.6.7c17.8-7.7,36.5-13.3,55.1-18.6s37.4-10.2,55.7-16.6a306.69,306.69,0,0,0,30.4-12.3C1381.3,1431.6,1379.4,1428.3,1377.2,1429.4Z" transform="translate(-26.33 -38.2)"/><path class="cls-12" d="M1440.84,1456.68q-27.6,10.2-55.2,20.1c-18.5,6.6-36.9,13.1-55.5,19.5s-37.1,12.7-55.7,18.8-37.2,12.2-55.9,18.2-37.4,11.8-56.1,17.5c-2.3.7-4.6,1.4-7,2.1s-1.3,4.3,1,3.6q28.2-8.55,56.2-17.4t55.9-18.1c18.6-6.1,37.2-12.4,55.7-18.7s37-12.8,55.5-19.4,36.9-13.3,55.3-20.1c2.3-.8,4.6-1.7,6.8-2.5S1443,1455.78,1440.84,1456.68Z" transform="translate(-26.33 -38.2)"/><path class="cls-12" d="M903.5,1519.9c-.3-1.2-1.4-1.5-2.5-1.4q-30.3,4.35-60.1,10.6t-59,14.6c-11,3.1-22,6.5-32.9,10-2.4.8-1.4,4.7,1.1,3.9,19.3-6.3,38.9-12,58.6-17s39.5-9.3,59.4-12.9c11.3-2,22.6-3.9,33.9-5.5A1.77,1.77,0,0,0,903.5,1519.9Z" transform="translate(-26.33 -38.2)"/><path class="cls-12" d="M941.2,1571.7a2.13,2.13,0,0,0-2.5-1.4q-35.85,14.7-72.9,25.9c-7.1,2.1-14.1,4.2-21.3,6.1-2.5.7-1.4,4.5,1.1,3.9,24.9-6.8,49.5-14.8,73.6-24,6.9-2.6,13.8-5.3,20.6-8.1A1.94,1.94,0,0,0,941.2,1571.7Z" transform="translate(-26.33 -38.2)"/><path class="cls-12" d="M1153.5,1450.3a1.9,1.9,0,0,0-2.3-1.3c-5.4,2-10.8,3.9-16.2,5.9a1.85,1.85,0,0,0-1.3,2.3,1.9,1.9,0,0,0,2.3,1.3c5.4-2,10.8-3.9,16.2-5.9A1.94,1.94,0,0,0,1153.5,1450.3Z" transform="translate(-26.33 -38.2)"/><path class="cls-12" d="M1028.3,1547.9h-7.8a2.07,2.07,0,0,0-2,2,2,2,0,0,0,2,2h7.8a2.07,2.07,0,0,0,2-2A1.94,1.94,0,0,0,1028.3,1547.9Z" transform="translate(-26.33 -38.2)"/><path class="cls-12" d="M926.6,1515h-4.7a1.82,1.82,0,0,0-1.4.6,2.25,2.25,0,0,0-.6,1.4,2,2,0,0,0,2,2h4.7a1.82,1.82,0,0,0,1.4-.6,2.25,2.25,0,0,0,.6-1.4A2,2,0,0,0,926.6,1515Z" transform="translate(-26.33 -38.2)"/><path class="cls-12" d="M1185.6,1369.5c-2.4,0-2.4,3.8,0,3.8S1188,1369.5,1185.6,1369.5Z" transform="translate(-26.33 -38.2)"/><path class="cls-12" d="M1610.5,1412.3c-18,6.4-35.8,13.1-53.6,20s-35.3,14.1-52.8,21.6c-9.9,4.2-19.7,8.5-29.6,13a2,2,0,0,0-.7,2.6,1.93,1.93,0,0,0,2.6.7c17.3-7.7,34.6-15.2,52.1-22.4s35.1-14.1,52.8-20.8c10-3.8,20-7.4,30.1-11C1613.8,1415.1,1612.8,1411.5,1610.5,1412.3Z" transform="translate(-26.33 -38.2)"/><path class="cls-12" d="M1691.5,1413.8a381.87,381.87,0,0,1-58.3,16.2c-5.6,1.1-11.2,2-16.8,2.8a1.81,1.81,0,0,0-1.3,2.3,1.85,1.85,0,0,0,2.3,1.3,373.41,373.41,0,0,0,59-13.5c5.4-1.7,10.8-3.5,16.1-5.5C1694.8,1416.6,1693.8,1412.9,1691.5,1413.8Z" transform="translate(-26.33 -38.2)"/><path class="cls-12" d="M1318.3,1423.5a1.85,1.85,0,0,0-2.3-1.3c-16.2,6.8-32.4,13.7-48.7,20.5a131.89,131.89,0,0,1,27.7-29.1,2,2,0,0,0,.7-2.6,2,2,0,0,0-2.6-.7,135.43,135.43,0,0,0-32.4,35.5c-.8,1.3.6,3.4,2.1,2.8,18-7.6,36.1-15.2,54.1-22.8A2,2,0,0,0,1318.3,1423.5Z" transform="translate(-26.33 -38.2)"/><path class="cls-12" d="M1724,1268.86c-11.8,3.9-23.6,7.8-35.4,11.6-2.3.8-1.3,4.4,1,3.6,11.8-3.9,23.6-7.8,35.4-11.6C1727.27,1271.76,1726.27,1268.06,1724,1268.86Z" transform="translate(-26.33 -38.2)"/><path class="cls-12" d="M1759.91,1293c-6.4,2-12.8,3.9-19.1,5.9-2.3.7-1.3,4.3,1,3.6,6.4-2,12.8-3.9,19.1-5.9C1763.21,1296,1762.21,1292.25,1759.91,1293Z" transform="translate(-26.33 -38.2)"/><path class="cls-12" d="M1746,1270.08a85.92,85.92,0,0,1-28.24,20.48c-2.27,1-.63,4.42,1.55,3.38a89.84,89.84,0,0,0,29.73-21.76,2,2,0,0,0-.48-2.64A2,2,0,0,0,1746,1270.08Z" transform="translate(-26.33 -38.2)"/><path class="cls-12" d="M1675.2,1440.4c-20.5,9.7-41.4,18.7-62.5,27s-42.6,15.7-64.4,22.4c-12.2,3.8-24.4,7.3-36.7,10.5-2.3.6-1.3,4.2,1,3.6,22-5.8,43.9-12.5,65.4-19.9s42.9-15.6,63.8-24.5c11.8-5,23.6-10.3,35.2-15.9C1679.3,1442.7,1677.4,1439.4,1675.2,1440.4Z" transform="translate(-26.33 -38.2)"/><path d="M1426.9,772.6a2,2,0,0,0,0,4C1429.4,776.6,1429.4,772.6,1426.9,772.6Z" transform="translate(-26.33 -38.2)"/><path d="M1407.7,767a2,2,0,0,0,0,4A2,2,0,0,0,1407.7,767Z" transform="translate(-26.33 -38.2)"/><path d="M1432.3,750.9a2,2,0,0,0-1.4-.6h-2.3a1.2,1.2,0,0,0-.8.2c-.2.1-.5.2-.6.4a2.09,2.09,0,0,0-.4.6,1.88,1.88,0,0,0-.2.8,1.82,1.82,0,0,0,.6,1.4,2,2,0,0,0,1.4.6h2.3a1.2,1.2,0,0,0,.8-.2c.2-.1.5-.2.6-.4a2.09,2.09,0,0,0,.4-.6,1.88,1.88,0,0,0,.2-.8A2.51,2.51,0,0,0,1432.3,750.9Z" transform="translate(-26.33 -38.2)"/><path d="M176.52,1635.38c77.09,15.44,154.77,30.82,235.07,38.19,77.29,7.12,154.59,5.15,230.1-8,72.91-12.77,139.63-34.49,207.45-55.2,69.62-21.34,141.84-39.82,220.64-39.5,82.8.39,165.08,15.51,245.37,26.89,80.69,11.44,161.48,22.94,242.57,33.37,158.39,20.4,318.47,36.92,480.17,40.56,78.2,1.72,157.4,1.22,235.1-5.06,65.31-5.22,131.32-15.45,188-37.44a335.7,335.7,0,0,0,38.11-17.49c1-.51-.4-1.4-1.4-.89-54.12,28.91-122,43.71-190.84,51.34-75.11,8.25-152.51,9.58-228.61,8.88-162.2-1.48-323.29-16.61-482.27-36.44-79.69-9.91-159-21-238.27-32.22-76.69-10.86-153.78-24.14-231.87-30.37-38-3-76.4-3.63-114.2.34-35.71,3.65-70.31,11-103.72,19.79-68.82,18-133.24,42.05-203,59-74.32,17.91-151.83,27.75-231.43,25.2-81.49-2.61-161-15.77-238.67-30.76-19.2-3.7-38.29-7.47-57.49-11.36C175.72,1633.92,175.12,1635.13,176.52,1635.38Z" transform="translate(-26.33 -38.2)"/><path class="cls-13" d="M317.82,1634.62c148.41-7.75,295.49,10.68,443.49,14,147,3.37,294-6.91,438.12-24.69,74-9.15,147.42-20.77,222.22-27a1456.71,1456.71,0,0,1,219-1.84c145.09,9.78,278.65,46.29,417.53,72.13,123.28,23,260,36.69,384.19,8.66,14-3.23,27.81-6.9,41.21-11.14,1.2-.38.11-1.46-1-1.08-122.24,38.25-264.93,29.68-392.71,7.91-136.68-23.3-266.95-60.64-407.54-74.35a1457.48,1457.48,0,0,0-214.69-4.76c-72.51,3.81-143.61,13.78-214.72,23.24-145,19.37-292.43,32.58-440.93,32.26-146.9-.32-292.49-18.49-439.49-16.46q-27.3.36-54.6,1.8C316.52,1633.47,316.52,1634.74,317.82,1634.62Z" transform="translate(-26.33 -38.2)"/><path class="cls-2" d="M1557.56,426.92c16.9-.6,33.7,10.9,39.4,26.8,3.2,10.6,4.1,17.6.6,28.2-5.2,17.6-23.1,29.6-40.8,28.6-27-2.1-44.5-31.2-34.1-57.5.9-3.5,5.1-8.8,8.6-13.1,5.1-6.1,8.6-7.9,15.3-10.3C1549.86,428.62,1555.86,426.82,1557.56,426.92Zm-18.8,12.9c-23.9,18.2-15.8,58.7,12.9,65.2,16,3.6,32.2-4.9,39.9-19.8,12.1-25.3-7.1-53.7-34.9-53.1-5.9,0-11.9,2.6-17.9,7.7Z" transform="translate(-26.33 -38.2)"/><path class="cls-3" d="M1529.5,425.39c16.9-.6,33.7,10.9,39.4,26.8,3.2,10.6,4.1,17.6.6,28.2-5.2,17.6-23.1,29.6-40.8,28.6-27-2.1-44.5-31.2-34.1-57.5.9-3.5,5.1-8.8,8.6-13.1,5.1-6.1,8.6-7.9,15.3-10.3C1521.8,427.09,1527.8,425.29,1529.5,425.39Zm-18.8,12.9c-23.9,18.2-15.8,58.7,12.9,65.2,16,3.6,32.2-4.9,39.9-19.8,12.1-25.3-7.1-53.7-34.9-53.1-5.9,0-11.9,2.6-17.9,7.7Z" transform="translate(-26.33 -38.2)"/><path class="cls-5" d="M1474.54,608.54c-11.89.54-23.8-7.43-27.93-18.58-2.33-7.44-3-12.36-.63-19.85,3.54-12.43,16-21,28.52-20.43,19,1.28,31.55,21.64,24.42,40.23-.61,2.47-3.52,6.23-6,9.28-3.54,4.34-6,5.63-10.69,7.37C1480,607.28,1475.74,608.59,1474.54,608.54Zm13.14-9.22c16.7-13,10.7-41.44-9.55-45.81-11.29-2.41-22.63,3.69-28,14.23-8.33,17.9,5.39,37.75,25,37.13,4.15,0,8.36-1.92,12.54-5.55Z" transform="translate(-26.33 -38.2)"/><path class="cls-3" d="M1494.31,609.41c-11.9.54-23.81-7.43-27.93-18.58-2.33-7.44-3-12.36-.63-19.85,3.53-12.43,16-21,28.51-20.43,19,1.28,31.56,21.64,24.43,40.23-.61,2.47-3.53,6.23-6,9.29-3.55,4.33-6,5.62-10.7,7.36C1499.72,608.16,1495.5,609.47,1494.31,609.41Zm13.14-9.22c16.69-13,10.69-41.44-9.56-45.8-11.29-2.42-22.63,3.68-27.94,14.23-8.34,17.89,5.39,37.75,25,37.12,4.16,0,8.36-1.91,12.55-5.55Z" transform="translate(-26.33 -38.2)"/><path d="M2551.52,1433.83c-47.88,9.28-89.74,36.19-126,67.88-18.81,16.46-35.94,34.52-53.3,52.46-18.21,18.82-37.88,35.63-63.85,42.15-26.46,6.65-54.29,4.24-81.23,2.86l-90-4.63-179.2-9.22c-48.46-2.49-109.76-4.59-138-51.48a69.85,69.85,0,0,1-6.88-15.42c-.75-2.45-4.61-1.41-3.85,1.06,6.61,21.46,22.93,38.23,42.21,49.07,22.94,12.9,49.47,17,75.37,19,29.75,2.27,59.63,3.27,89.43,4.8l91.44,4.7,91.44,4.71c28.33,1.45,57.18,4.49,85.53,2.3,13-1,26.07-3.34,38.26-8.18,11.64-4.61,22.09-11.45,31.67-19.44,19.62-16.38,36-36.38,54.43-54.08,35.85-34.53,77-66.2,125.44-80.3q8.94-2.6,18.09-4.35C2555.1,1437.2,2554,1433.34,2551.52,1433.83Z" transform="translate(-26.33 -38.2)"/></svg>