<?xml version="1.0" encoding="UTF-8"?>
<!DOCTYPE svg PUBLIC "-//W3C//DTD SVG 1.1//EN" "http://www.w3.org/Graphics/SVG/1.1/DTD/svg11.dtd">
<svg xmlns="http://www.w3.org/2000/svg" version="1.1" width="1600px" height="1600px" style="shape-rendering:geometricPrecision; text-rendering:geometricPrecision; image-rendering:optimizeQuality; fill-rule:evenodd; clip-rule:evenodd" xmlns:xlink="http://www.w3.org/1999/xlink">
<g><path style="opacity:0.998" fill="#cdc9fe" d="M 1158.5,410.5 C 1142.21,430.91 1121.54,437.077 1096.5,429C 1083.17,422.836 1073.83,413.003 1068.5,399.5C 1066.54,385.848 1064.37,372.181 1062,358.5C 1050.66,326.825 1028.49,307.658 995.5,301C 790.848,299.347 586.182,299.013 381.5,300C 343.679,303.171 317.846,322.337 304,357.5C 301.504,365.648 300.17,373.981 300,382.5C 299.667,580.5 299.333,778.5 299,976.5C 290.755,1005.38 271.588,1018.55 241.5,1016C 219.196,1011.7 205.363,998.529 200,976.5C 199.333,772.167 199.333,567.833 200,363.5C 209.332,294.62 245.165,245.12 307.5,215C 325.397,207.192 344.064,202.192 363.5,200C 576.5,199.333 789.5,199.333 1002.5,200C 1074.38,210.558 1124.88,249.058 1154,315.5C 1163.59,339.948 1167.59,365.281 1166,391.5C 1164.96,398.468 1162.46,404.802 1158.5,410.5 Z"/></g>
<g><path style="opacity:0.999" fill="#ddfaa1" d="M 1068.5,399.5 C 1073.83,413.003 1083.17,422.836 1096.5,429C 1121.54,437.077 1142.21,430.91 1158.5,410.5C 1203.98,431.191 1229.82,466.525 1236,516.5C 1236.5,549.498 1236.67,582.498 1236.5,615.5C 1206.7,586.202 1177.03,556.702 1147.5,527C 1130.1,515.126 1111.77,513.459 1092.5,522C 1068.75,537.246 1061.25,558.413 1070,585.5C 1071.93,589.759 1074.27,593.759 1077,597.5C 1127.5,648 1178,698.5 1228.5,749C 988.167,749.333 747.833,749.667 507.5,750C 475.958,759.255 462.792,780.088 468,812.5C 474.443,831.943 487.61,844.11 507.5,849C 747.833,849.333 988.167,849.667 1228.5,850C 1178,900.5 1127.5,951 1077,1001.5C 1063.73,1021.02 1063.06,1041.02 1075,1061.5C 1090.95,1081.48 1111.12,1087.31 1135.5,1079C 1139.76,1077.07 1143.76,1074.73 1147.5,1072C 1177.03,1042.3 1206.7,1012.8 1236.5,983.5C 1236.99,1107.52 1236.49,1231.52 1235,1355.5C 1224.41,1408.42 1193.58,1443.59 1142.5,1461C 1134,1463.53 1125.33,1465.19 1116.5,1466C 916.5,1466.67 716.5,1466.67 516.5,1466C 471.725,1460.31 438.058,1438.14 415.5,1399.5C 607.834,1399.67 800.167,1399.5 992.5,1399C 1059.76,1393.31 1110.26,1361.47 1144,1303.5C 1159.68,1274.1 1167.01,1242.77 1166,1209.5C 1157.99,1178.17 1137.83,1164.01 1105.5,1167C 1085.33,1172.5 1072.5,1185.33 1067,1205.5C 1068.14,1241.72 1053.64,1269.56 1023.5,1289C 1013.4,1294.19 1002.74,1297.52 991.5,1299C 794.167,1299.5 596.834,1299.67 399.5,1299.5C 399.333,1037.5 399.5,775.5 400,513.5C 406.142,470.685 427.642,438.185 464.5,416C 479.806,407.513 496.14,402.18 513.5,400C 698.5,399.5 883.5,399.333 1068.5,399.5 Z"/></g>
<g><path style="opacity:0.998" fill="#cdc9fe" d="M 1236.5,615.5 C 1287.47,665.965 1338.3,716.632 1389,767.5C 1399.29,781.35 1402.29,796.683 1398,813.5C 1396.05,820.058 1393.05,826.058 1389,831.5C 1338.3,882.368 1287.47,933.035 1236.5,983.5C 1206.7,1012.8 1177.03,1042.3 1147.5,1072C 1143.76,1074.73 1139.76,1077.07 1135.5,1079C 1111.12,1087.31 1090.95,1081.48 1075,1061.5C 1063.06,1041.02 1063.73,1021.02 1077,1001.5C 1127.5,951 1178,900.5 1228.5,850C 988.167,849.667 747.833,849.333 507.5,849C 487.61,844.11 474.443,831.943 468,812.5C 462.792,780.088 475.958,759.255 507.5,750C 747.833,749.667 988.167,749.333 1228.5,749C 1178,698.5 1127.5,648 1077,597.5C 1074.27,593.759 1071.93,589.759 1070,585.5C 1061.25,558.413 1068.75,537.246 1092.5,522C 1111.77,513.459 1130.1,515.126 1147.5,527C 1177.03,556.702 1206.7,586.202 1236.5,615.5 Z"/></g>
<g><path style="opacity:0.998" fill="#cdc9fe" d="M 399.5,1299.5 C 596.834,1299.67 794.167,1299.5 991.5,1299C 1002.74,1297.52 1013.4,1294.19 1023.5,1289C 1053.64,1269.56 1068.14,1241.72 1067,1205.5C 1072.5,1185.33 1085.33,1172.5 1105.5,1167C 1137.83,1164.01 1157.99,1178.17 1166,1209.5C 1167.01,1242.77 1159.68,1274.1 1144,1303.5C 1110.26,1361.47 1059.76,1393.31 992.5,1399C 800.167,1399.5 607.834,1399.67 415.5,1399.5C 364.042,1405.38 317.042,1393.88 274.5,1365C 233.823,1334.51 209.323,1294.01 201,1243.5C 199.391,1209.86 199.058,1176.19 200,1142.5C 206.75,1117.2 223.25,1103.86 249.5,1102.5C 273.792,1103.63 289.958,1115.63 298,1138.5C 299.072,1168.47 300.072,1198.47 301,1228.5C 307.068,1259.9 324.901,1281.74 354.5,1294C 369.19,1298.2 384.19,1300.03 399.5,1299.5 Z"/></g>
</svg>
