<?xml version="1.0" encoding="UTF-8"?>
<!DOCTYPE svg PUBLIC "-//W3C//DTD SVG 1.1//EN" "http://www.w3.org/Graphics/SVG/1.1/DTD/svg11.dtd">
<svg xmlns="http://www.w3.org/2000/svg" version="1.1" width="1000px" height="1000px" style="shape-rendering:geometricPrecision; text-rendering:geometricPrecision; image-rendering:optimizeQuality; fill-rule:evenodd; clip-rule:evenodd" xmlns:xlink="http://www.w3.org/1999/xlink">
<g><path style="opacity:0.988" fill="#ffad32" d="M 476.5,82.5 C 524.079,80.4475 570.746,85.9475 616.5,99C 632.35,106.53 638.85,119.03 636,136.5C 631.299,151.36 621.133,159.36 605.5,160.5C 586.006,155.877 566.339,152.044 546.5,149C 423.219,135.973 319.385,174.473 235,264.5C 153.489,361.57 128.155,471.903 159,595.5C 164.409,612.727 170.409,629.727 177,646.5C 179.532,662.602 173.698,674.436 159.5,682C 139.803,688.726 125.303,682.893 116,664.5C 77.3163,571.06 71.983,475.727 100,378.5C 131.699,278.168 191.866,200.002 280.5,144C 340.874,107.485 406.208,86.9852 476.5,82.5 Z"/></g>
<g><path style="opacity:0.988" fill="#ffad32" d="M 797.5,232.5 C 811.14,230.574 822.307,234.907 831,245.5C 912.074,356.884 935.408,479.551 901,613.5C 863.475,736.016 786.975,824.849 671.5,880C 567.279,924.578 461.613,928.244 354.5,891C 301.665,871.413 255.165,842.246 215,803.5C 206.641,785.772 210.141,770.938 225.5,759C 237.332,752.832 248.999,753.165 260.5,760C 351.267,839.615 456.267,867.948 575.5,845C 681.34,819.132 760.506,758.632 813,663.5C 867,554.166 867,444.832 813,335.5C 802.242,315.422 789.908,296.422 776,278.5C 768.507,256.095 775.674,240.761 797.5,232.5 Z"/></g>
<g><path style="opacity:0.977" fill="#ffac33" d="M 318.5,467.5 C 439.167,467.333 559.834,467.5 680.5,468C 698.097,471.099 707.43,481.599 708.5,499.5C 707.43,517.401 698.097,527.901 680.5,531C 559.833,531.667 439.167,531.667 318.5,531C 300.903,527.901 291.57,517.401 290.5,499.5C 291.757,481.586 301.091,470.919 318.5,467.5 Z"/></g>
</svg>
